M48
; DRILL file {KiCad 8.0.4} date 2024-07-21T20:28:23+0200
; FORMAT={-:-/ absolute / inch / decimal}
; #@! TF.CreationDate,2024-07-21T20:28:23+02:00
; #@! TF.GenerationSoftware,Kicad,Pcbnew,8.0.4
; #@! TF.FileFunction,Plated,1,2,PTH
FMAT,2
INCH
; #@! TA.AperFunction,Plated,PTH,ViaDrill
T1C0.0157
; #@! TA.AperFunction,Plated,PTH,ComponentDrill
T2C0.0394
; #@! TA.AperFunction,Plated,PTH,ComponentDrill
T3C0.0598
%
G90
G05
T1
X0.5866Y-0.5866
X0.6417Y-0.5197
X0.815Y-0.5157
X0.8622Y-0.5866
X0.9331Y-0.8543
X1.0256Y-1.0217
X1.0657Y-1.3886
X1.0906Y-1.6417
X1.1142Y-1.4055
X1.126Y-1.185
X1.126Y-1.2244
X1.126Y-1.2638
X1.1299Y-1.6417
X1.1417Y-1.374
X1.1535Y-1.063
X1.1654Y-0.9173
X1.1654Y-1.185
X1.1693Y-1.6417
X1.1732Y-1.3425
X1.1929Y-1.5118
X1.1929Y-1.5472
X1.1941Y-1.4587
X1.2047Y-1.185
X1.2047Y-1.315
X1.2087Y-1.6417
X1.2165Y-1.3504
X1.2205Y-1.0079
X1.2205Y-1.0512
X1.2283Y-1.2835
X1.2378Y-1.2165
X1.248Y-1.6417
X1.2559Y-1.315
X1.2559Y-1.3504
X1.2717Y-0.97
X1.2717Y-1.0827
X1.2953Y-1.315
X1.2953Y-1.3504
X1.3071Y-1.2835
X1.3228Y-1.5472
X1.3268Y-1.2165
X1.3307Y-1.2559
X1.3307Y-1.315
X1.3307Y-1.3543
X1.3346Y-1.3898
X1.3425Y-1.5157
X1.3504Y-1.0236
X1.3622Y-1.5472
X1.3661Y-1.2874
X1.3661Y-1.3268
X1.3661Y-1.3661
X1.3819Y-1.5157
X1.4016Y-1.5472
X1.4055Y-1.2874
X1.4055Y-1.3268
X1.4055Y-1.3661
X1.4213Y-1.5157
X1.4409Y-1.5472
X1.4449Y-1.2874
X1.4449Y-1.3268
X1.4449Y-1.3661
X1.4606Y-0.9134
X1.4606Y-1.5157
X1.4803Y-1.5472
X1.4843Y-1.2874
X1.4843Y-1.3268
X1.4843Y-1.3661
X1.7362Y-1.0472
T2
X1.8189Y-0.5827
X1.8189Y-0.6827
X1.8189Y-0.7827
X1.8189Y-0.8827
T3
X0.6339Y-1.1157
X0.6339Y-1.3157
X0.6339Y-1.5157
X1.8543Y-1.1339
X1.8543Y-1.3339
M30
