M48
; DRILL file {KiCad 8.0.6} date 2024-12-28T00:50:31+0100
; FORMAT={-:-/ absolute / metric / decimal}
; #@! TF.CreationDate,2024-12-28T00:50:31+01:00
; #@! TF.GenerationSoftware,Kicad,Pcbnew,8.0.6
; #@! TF.FileFunction,Plated,1,2,PTH
FMAT,2
METRIC
; #@! TA.AperFunction,Plated,PTH,ViaDrill
T1C0.400
; #@! TA.AperFunction,Plated,PTH,ComponentDrill
T2C1.000
; #@! TA.AperFunction,Plated,PTH,ComponentDrill
T3C1.520
%
G90
G05
T1
X14.9Y-14.9
X16.3Y-13.2
X20.7Y-13.1
X21.9Y-14.9
X23.7Y-21.7
X26.05Y-25.95
X27.07Y-35.27
X27.7Y-41.7
X28.3Y-35.7
X28.6Y-30.1
X28.6Y-31.1
X28.6Y-32.1
X28.7Y-41.7
X29.0Y-34.9
X29.3Y-27.0
X29.6Y-23.3
X29.6Y-30.1
X29.7Y-41.7
X29.8Y-34.1
X30.3Y-38.4
X30.3Y-39.3
X30.33Y-37.05
X30.6Y-30.1
X30.6Y-33.4
X30.7Y-41.7
X30.9Y-34.3
X31.0Y-25.6
X31.0Y-26.7
X31.2Y-32.6
X31.44Y-30.9
X31.7Y-41.7
X31.9Y-33.4
X31.9Y-34.3
X32.3Y-24.637
X32.3Y-27.5
X32.9Y-33.4
X32.9Y-34.3
X33.2Y-32.6
X33.6Y-39.3
X33.7Y-30.9
X33.8Y-31.9
X33.8Y-33.4
X33.8Y-34.4
X33.9Y-35.3
X34.1Y-38.5
X34.3Y-26.0
X34.6Y-39.3
X34.7Y-32.7
X34.7Y-33.7
X34.7Y-34.7
X35.1Y-38.5
X35.6Y-39.3
X35.7Y-32.7
X35.7Y-33.7
X35.7Y-34.7
X36.1Y-38.5
X36.6Y-39.3
X36.7Y-32.7
X36.7Y-33.7
X36.7Y-34.7
X37.1Y-23.2
X37.1Y-38.5
X37.6Y-39.3
X37.7Y-32.7
X37.7Y-33.7
X37.7Y-34.7
X44.1Y-26.6
T2
X46.2Y-14.8
X46.2Y-17.34
X46.2Y-19.88
X46.2Y-22.42
T3
X16.1Y-28.34
X16.1Y-33.42
X16.1Y-38.5
X47.1Y-28.8
X47.1Y-33.88
M30
