G04 #@! TF.GenerationSoftware,KiCad,Pcbnew,8.0.6*
G04 #@! TF.CreationDate,2024-12-28T00:50:30+01:00*
G04 #@! TF.ProjectId,kurumi,6b757275-6d69-42e6-9b69-6361645f7063,rev?*
G04 #@! TF.SameCoordinates,Original*
G04 #@! TF.FileFunction,Copper,L2,Bot*
G04 #@! TF.FilePolarity,Positive*
%FSLAX46Y46*%
G04 Gerber Fmt 4.6, Leading zero omitted, Abs format (unit mm)*
G04 Created by KiCad (PCBNEW 8.0.6) date 2024-12-28 00:50:30*
%MOMM*%
%LPD*%
G01*
G04 APERTURE LIST*
G04 Aperture macros list*
%AMRoundRect*
0 Rectangle with rounded corners*
0 $1 Rounding radius*
0 $2 $3 $4 $5 $6 $7 $8 $9 X,Y pos of 4 corners*
0 Add a 4 corners polygon primitive as box body*
4,1,4,$2,$3,$4,$5,$6,$7,$8,$9,$2,$3,0*
0 Add four circle primitives for the rounded corners*
1,1,$1+$1,$2,$3*
1,1,$1+$1,$4,$5*
1,1,$1+$1,$6,$7*
1,1,$1+$1,$8,$9*
0 Add four rect primitives between the rounded corners*
20,1,$1+$1,$2,$3,$4,$5,0*
20,1,$1+$1,$4,$5,$6,$7,0*
20,1,$1+$1,$6,$7,$8,$9,0*
20,1,$1+$1,$8,$9,$2,$3,0*%
G04 Aperture macros list end*
G04 #@! TA.AperFunction,ComponentPad*
%ADD10R,3.000000X3.000000*%
G04 #@! TD*
G04 #@! TA.AperFunction,ComponentPad*
%ADD11C,3.000000*%
G04 #@! TD*
G04 #@! TA.AperFunction,ComponentPad*
%ADD12R,1.700000X1.700000*%
G04 #@! TD*
G04 #@! TA.AperFunction,ComponentPad*
%ADD13O,1.700000X1.700000*%
G04 #@! TD*
G04 #@! TA.AperFunction,SMDPad,CuDef*
%ADD14R,3.500000X2.350000*%
G04 #@! TD*
G04 #@! TA.AperFunction,SMDPad,CuDef*
%ADD15RoundRect,0.085000X0.085000X-0.265000X0.085000X0.265000X-0.085000X0.265000X-0.085000X-0.265000X0*%
G04 #@! TD*
G04 #@! TA.AperFunction,SMDPad,CuDef*
%ADD16RoundRect,0.237500X0.300000X0.237500X-0.300000X0.237500X-0.300000X-0.237500X0.300000X-0.237500X0*%
G04 #@! TD*
G04 #@! TA.AperFunction,SMDPad,CuDef*
%ADD17RoundRect,0.250000X0.337500X0.475000X-0.337500X0.475000X-0.337500X-0.475000X0.337500X-0.475000X0*%
G04 #@! TD*
G04 #@! TA.AperFunction,SMDPad,CuDef*
%ADD18RoundRect,0.237500X-0.250000X-0.237500X0.250000X-0.237500X0.250000X0.237500X-0.250000X0.237500X0*%
G04 #@! TD*
G04 #@! TA.AperFunction,SMDPad,CuDef*
%ADD19RoundRect,0.250000X-0.350000X-0.450000X0.350000X-0.450000X0.350000X0.450000X-0.350000X0.450000X0*%
G04 #@! TD*
G04 #@! TA.AperFunction,SMDPad,CuDef*
%ADD20RoundRect,0.237500X0.237500X-0.300000X0.237500X0.300000X-0.237500X0.300000X-0.237500X-0.300000X0*%
G04 #@! TD*
G04 #@! TA.AperFunction,SMDPad,CuDef*
%ADD21RoundRect,0.250000X-0.450000X0.350000X-0.450000X-0.350000X0.450000X-0.350000X0.450000X0.350000X0*%
G04 #@! TD*
G04 #@! TA.AperFunction,SMDPad,CuDef*
%ADD22R,1.000000X1.500000*%
G04 #@! TD*
G04 #@! TA.AperFunction,SMDPad,CuDef*
%ADD23RoundRect,0.162500X0.617500X0.162500X-0.617500X0.162500X-0.617500X-0.162500X0.617500X-0.162500X0*%
G04 #@! TD*
G04 #@! TA.AperFunction,SMDPad,CuDef*
%ADD24RoundRect,0.237500X0.250000X0.237500X-0.250000X0.237500X-0.250000X-0.237500X0.250000X-0.237500X0*%
G04 #@! TD*
G04 #@! TA.AperFunction,SMDPad,CuDef*
%ADD25RoundRect,0.250000X1.000000X-1.950000X1.000000X1.950000X-1.000000X1.950000X-1.000000X-1.950000X0*%
G04 #@! TD*
G04 #@! TA.AperFunction,ViaPad*
%ADD26C,0.800000*%
G04 #@! TD*
G04 #@! TA.AperFunction,Conductor*
%ADD27C,0.650000*%
G04 #@! TD*
G04 #@! TA.AperFunction,Conductor*
%ADD28C,0.250000*%
G04 #@! TD*
G04 APERTURE END LIST*
D10*
X16100000Y-28340000D03*
D11*
X16100000Y-33420000D03*
X16100000Y-38500000D03*
D12*
X46200000Y-22420000D03*
D13*
X46200000Y-19880000D03*
X46200000Y-17340000D03*
X46200000Y-14800000D03*
D10*
X47100000Y-33880000D03*
D11*
X47100000Y-28800000D03*
D14*
X36300000Y-36600000D03*
X36300000Y-30900000D03*
D15*
X30100000Y-26000000D03*
X29600000Y-26000000D03*
X29100000Y-26000000D03*
X29100000Y-24500000D03*
X29600000Y-24500000D03*
X30100000Y-24500000D03*
D16*
X31872500Y-35390000D03*
X30147500Y-35390000D03*
D17*
X32137500Y-31390000D03*
X30062500Y-31390000D03*
D18*
X19337500Y-33420000D03*
X21162500Y-33420000D03*
D19*
X26730000Y-40320000D03*
X28730000Y-40320000D03*
D20*
X32300000Y-26362500D03*
X32300000Y-24637500D03*
D21*
X26930000Y-36617500D03*
X26930000Y-38617500D03*
D22*
X35800000Y-26000000D03*
X37100000Y-26000000D03*
X38400000Y-26000000D03*
D23*
X31650000Y-37020000D03*
X31650000Y-37970000D03*
X31650000Y-38920000D03*
X28950000Y-38920000D03*
X28950000Y-37970000D03*
X28950000Y-37020000D03*
D16*
X30362500Y-28100000D03*
X28637500Y-28100000D03*
D24*
X44112500Y-25000000D03*
X42287500Y-25000000D03*
D16*
X32032501Y-40360000D03*
X30307499Y-40360000D03*
D25*
X18500000Y-22200000D03*
X18500000Y-14800000D03*
D22*
X23700000Y-23700000D03*
X25000000Y-23700000D03*
X26300000Y-23700000D03*
D24*
X23912500Y-27300000D03*
X22087500Y-27300000D03*
D26*
X37100000Y-23200000D03*
X29800000Y-34100000D03*
X21900000Y-14900000D03*
X30300000Y-38400000D03*
X37100000Y-38500000D03*
X36700000Y-34700000D03*
X35700000Y-33700000D03*
X35100000Y-38500000D03*
X36700000Y-33700000D03*
X35700000Y-32700000D03*
X30600000Y-30100000D03*
X33800000Y-34400000D03*
X29300000Y-27000000D03*
X34600000Y-39300000D03*
X30300000Y-39300000D03*
X36100000Y-38500000D03*
X35700000Y-34700000D03*
X29600000Y-30100000D03*
X33200000Y-32600000D03*
X29700000Y-41700000D03*
X30700000Y-41700000D03*
X30600000Y-33400000D03*
X33600000Y-39300000D03*
X34100000Y-38500000D03*
X31900000Y-33400000D03*
X37600000Y-39300000D03*
X14900000Y-14900000D03*
X37700000Y-33700000D03*
X34700000Y-32700000D03*
X30900000Y-34300000D03*
X36600000Y-39300000D03*
X36700000Y-32700000D03*
X32300000Y-27500000D03*
X35600000Y-39300000D03*
X28700000Y-41700000D03*
X31900000Y-34300000D03*
X31700000Y-41700000D03*
X33900000Y-35300000D03*
X29600000Y-23300000D03*
X32900000Y-34300000D03*
X33800000Y-33400000D03*
X29000000Y-34900000D03*
X31200000Y-32600000D03*
X34700000Y-34700000D03*
X20700000Y-13100000D03*
X27700000Y-41700000D03*
X37700000Y-34700000D03*
X28600000Y-32100000D03*
X31000000Y-25600000D03*
X37700000Y-32700000D03*
X31000000Y-26700000D03*
X34700000Y-33700000D03*
X30330000Y-37050000D03*
X28300000Y-35700000D03*
X28600000Y-31100000D03*
X28600000Y-30100000D03*
X16300000Y-13200000D03*
X32900000Y-33400000D03*
X33800000Y-31900000D03*
X32300000Y-24637500D03*
X23700000Y-21700000D03*
X27070000Y-35270000D03*
X34300000Y-26000000D03*
X31440000Y-30900000D03*
X33700000Y-30900000D03*
X44100000Y-26600000D03*
X26050000Y-25950000D03*
D27*
X30762500Y-28500000D02*
X35700000Y-28500000D01*
D28*
X30100000Y-27837500D02*
X30100000Y-26000000D01*
D27*
X37100000Y-26000000D02*
X37100000Y-23200000D01*
X30362500Y-28100000D02*
X30762500Y-28500000D01*
X35700000Y-28500000D02*
X37100000Y-27100000D01*
X37100000Y-27100000D02*
X37100000Y-26000000D01*
D28*
X29420000Y-39630000D02*
X29600000Y-39630000D01*
X31650000Y-37020000D02*
X31010000Y-36380000D01*
X31010000Y-36380000D02*
X31010000Y-34560000D01*
X31010000Y-34560000D02*
X31040000Y-34530000D01*
X28730000Y-40320000D02*
X29420000Y-39630000D01*
X30100000Y-24500000D02*
X32162500Y-24500000D01*
D27*
X32032501Y-40360000D02*
X39540000Y-40360000D01*
X47100000Y-28800000D02*
X42600000Y-28800000D01*
X42600000Y-37300000D02*
X42600000Y-28800000D01*
X47100000Y-29550000D02*
X47100000Y-28800000D01*
X39540000Y-40360000D02*
X42600000Y-37300000D01*
X42600000Y-28800000D02*
X39800000Y-26000000D01*
X32032501Y-39302501D02*
X32032501Y-40360000D01*
X23700000Y-21700000D02*
X23700000Y-23500000D01*
X31650000Y-38920000D02*
X32032501Y-39302501D01*
X39800000Y-26000000D02*
X38400000Y-26000000D01*
X33380000Y-36240000D02*
X33380000Y-36920000D01*
X32530000Y-35390000D02*
X33380000Y-36240000D01*
X33240000Y-37730000D02*
X33000000Y-37970000D01*
X33380000Y-37730000D02*
X33240000Y-37730000D01*
X33700000Y-36600000D02*
X36300000Y-36600000D01*
X33380000Y-36920000D02*
X33700000Y-36600000D01*
X31872500Y-35390000D02*
X32530000Y-35390000D01*
X33380000Y-36920000D02*
X33380000Y-37730000D01*
X33000000Y-37970000D02*
X31750000Y-37970000D01*
X31440000Y-30900000D02*
X31930000Y-31390000D01*
X34300000Y-26000000D02*
X35800000Y-26000000D01*
X36300000Y-30900000D02*
X33700000Y-30900000D01*
X33700000Y-30900000D02*
X31440000Y-30900000D01*
X31930000Y-31390000D02*
X32137500Y-31390000D01*
X26930000Y-35410000D02*
X27070000Y-35270000D01*
X26930000Y-36617500D02*
X26930000Y-35410000D01*
X18800000Y-22500000D02*
X18500000Y-22200000D01*
X18900000Y-25900000D02*
X18800000Y-26000000D01*
X25000000Y-25000000D02*
X24100000Y-25900000D01*
X18160000Y-28340000D02*
X18800000Y-27700000D01*
X15400000Y-28340000D02*
X18160000Y-28340000D01*
X24100000Y-25900000D02*
X18900000Y-25900000D01*
X25000000Y-23500000D02*
X25000000Y-25000000D01*
X18800000Y-27700000D02*
X18800000Y-22500000D01*
D28*
X19337500Y-33420000D02*
X16100000Y-33420000D01*
X44100000Y-21700000D02*
X45920000Y-19880000D01*
X45920000Y-19880000D02*
X46200000Y-19880000D01*
X44100000Y-26600000D02*
X44100000Y-21700000D01*
D27*
X46060000Y-17340000D02*
X41700000Y-21700000D01*
X46200000Y-17340000D02*
X46060000Y-17340000D01*
X27400000Y-21700000D02*
X26300000Y-22800000D01*
X26300000Y-22800000D02*
X26300000Y-23181625D01*
X41700000Y-21700000D02*
X27400000Y-21700000D01*
D28*
X26050000Y-25950000D02*
X24700000Y-27300000D01*
X26050000Y-25950000D02*
X27650000Y-25950000D01*
X24700000Y-27300000D02*
X23912500Y-27300000D01*
X27650000Y-25950000D02*
X29100000Y-24500000D01*
X26200000Y-27100000D02*
X21162500Y-32137500D01*
X29100000Y-26000000D02*
X28000000Y-27100000D01*
X21162500Y-32137500D02*
X21162500Y-33420000D01*
X28000000Y-27100000D02*
X26200000Y-27100000D01*
D27*
X28950000Y-36587500D02*
X30147500Y-35390000D01*
X28950000Y-37020000D02*
X28950000Y-36587500D01*
X26930000Y-40320000D02*
X26910000Y-40340000D01*
X28950000Y-38920000D02*
X27232500Y-38920000D01*
X26930000Y-38617500D02*
X26930000Y-40320000D01*
X27232500Y-38920000D02*
X26930000Y-38617500D01*
G04 #@! TA.AperFunction,Conductor*
G36*
X22351224Y-12100030D02*
G01*
X22377839Y-12100682D01*
X22439724Y-12102198D01*
X22456613Y-12104070D01*
X22513581Y-12115401D01*
X22631428Y-12138842D01*
X22649989Y-12144473D01*
X22813530Y-12212214D01*
X22830643Y-12221361D01*
X22977818Y-12319700D01*
X22992821Y-12332012D01*
X23117987Y-12457178D01*
X23130299Y-12472181D01*
X23228638Y-12619356D01*
X23237786Y-12636471D01*
X23305524Y-12800003D01*
X23311158Y-12818576D01*
X23345929Y-12993386D01*
X23347801Y-13010273D01*
X23349970Y-13098774D01*
X23350000Y-13101200D01*
X23350000Y-19900011D01*
X23352406Y-19998251D01*
X23390743Y-20190985D01*
X23465944Y-20372535D01*
X23465951Y-20372549D01*
X23575113Y-20535921D01*
X23575116Y-20535924D01*
X23575119Y-20535928D01*
X23714072Y-20674881D01*
X23714075Y-20674883D01*
X23714078Y-20674886D01*
X23877450Y-20784048D01*
X23877460Y-20784053D01*
X23877463Y-20784055D01*
X24059013Y-20859256D01*
X24251746Y-20897593D01*
X24349988Y-20900000D01*
X38850000Y-20900000D01*
X38850012Y-20900000D01*
X38928603Y-20898074D01*
X38948254Y-20897593D01*
X39140987Y-20859256D01*
X39322537Y-20784055D01*
X39322542Y-20784051D01*
X39322549Y-20784048D01*
X39485921Y-20674886D01*
X39485921Y-20674885D01*
X39485928Y-20674881D01*
X39624881Y-20535928D01*
X39624886Y-20535921D01*
X39734048Y-20372549D01*
X39734051Y-20372542D01*
X39734055Y-20372537D01*
X39809256Y-20190987D01*
X39847593Y-19998254D01*
X39850000Y-19900000D01*
X39850000Y-14549999D01*
X45178588Y-14549999D01*
X45178589Y-14550000D01*
X45766988Y-14550000D01*
X45734075Y-14607007D01*
X45700000Y-14734174D01*
X45700000Y-14865826D01*
X45734075Y-14992993D01*
X45766988Y-15050000D01*
X45178589Y-15050000D01*
X45225232Y-15203762D01*
X45225234Y-15203767D01*
X45322724Y-15386160D01*
X45322731Y-15386170D01*
X45453940Y-15546050D01*
X45453949Y-15546059D01*
X45613829Y-15677268D01*
X45613839Y-15677275D01*
X45796232Y-15774765D01*
X45796237Y-15774767D01*
X45949999Y-15821411D01*
X45950000Y-15821411D01*
X45950000Y-15233012D01*
X46007007Y-15265925D01*
X46134174Y-15300000D01*
X46265826Y-15300000D01*
X46392993Y-15265925D01*
X46450000Y-15233012D01*
X46450000Y-15821411D01*
X46603762Y-15774767D01*
X46603767Y-15774765D01*
X46786160Y-15677275D01*
X46786170Y-15677268D01*
X46946050Y-15546059D01*
X46946059Y-15546050D01*
X47077268Y-15386170D01*
X47077275Y-15386160D01*
X47174765Y-15203767D01*
X47174767Y-15203762D01*
X47221411Y-15050000D01*
X46633012Y-15050000D01*
X46665925Y-14992993D01*
X46700000Y-14865826D01*
X46700000Y-14734174D01*
X46665925Y-14607007D01*
X46633012Y-14550000D01*
X47221411Y-14550000D01*
X47221411Y-14549999D01*
X47174767Y-14396237D01*
X47174765Y-14396232D01*
X47077275Y-14213839D01*
X47077268Y-14213829D01*
X46946059Y-14053949D01*
X46946050Y-14053940D01*
X46786170Y-13922731D01*
X46786160Y-13922724D01*
X46603771Y-13825236D01*
X46603758Y-13825231D01*
X46450000Y-13778588D01*
X46450000Y-14366988D01*
X46392993Y-14334075D01*
X46265826Y-14300000D01*
X46134174Y-14300000D01*
X46007007Y-14334075D01*
X45950000Y-14366988D01*
X45950000Y-13778588D01*
X45796241Y-13825231D01*
X45796228Y-13825236D01*
X45613839Y-13922724D01*
X45613829Y-13922731D01*
X45453949Y-14053940D01*
X45453940Y-14053949D01*
X45322731Y-14213829D01*
X45322724Y-14213839D01*
X45225234Y-14396232D01*
X45225232Y-14396237D01*
X45178588Y-14549999D01*
X39850000Y-14549999D01*
X39850000Y-13101200D01*
X39850030Y-13098776D01*
X39852198Y-13010275D01*
X39854070Y-12993386D01*
X39857643Y-12975420D01*
X39888843Y-12818568D01*
X39894472Y-12800012D01*
X39962216Y-12636464D01*
X39971357Y-12619362D01*
X40069704Y-12472176D01*
X40082007Y-12457183D01*
X40207183Y-12332007D01*
X40222176Y-12319704D01*
X40369362Y-12221357D01*
X40386464Y-12212216D01*
X40550012Y-12144472D01*
X40568568Y-12138843D01*
X40743386Y-12104070D01*
X40760274Y-12102198D01*
X40831014Y-12100465D01*
X40848776Y-12100030D01*
X40851200Y-12100000D01*
X48598800Y-12100000D01*
X48601224Y-12100030D01*
X48627839Y-12100682D01*
X48689724Y-12102198D01*
X48706613Y-12104070D01*
X48763581Y-12115401D01*
X48881428Y-12138842D01*
X48899989Y-12144473D01*
X49063530Y-12212214D01*
X49080643Y-12221361D01*
X49227818Y-12319700D01*
X49242821Y-12332012D01*
X49367987Y-12457178D01*
X49380299Y-12472181D01*
X49478638Y-12619356D01*
X49487786Y-12636471D01*
X49555524Y-12800003D01*
X49561158Y-12818576D01*
X49595929Y-12993386D01*
X49597801Y-13010273D01*
X49599970Y-13098774D01*
X49600000Y-13101200D01*
X49600000Y-41098799D01*
X49599970Y-41101225D01*
X49597801Y-41189726D01*
X49595929Y-41206613D01*
X49561158Y-41381423D01*
X49555524Y-41399996D01*
X49487786Y-41563528D01*
X49478638Y-41580643D01*
X49380299Y-41727818D01*
X49367987Y-41742821D01*
X49242821Y-41867987D01*
X49227818Y-41880299D01*
X49080643Y-41978638D01*
X49063528Y-41987786D01*
X48899996Y-42055524D01*
X48881423Y-42061158D01*
X48706613Y-42095929D01*
X48689726Y-42097801D01*
X48604410Y-42099891D01*
X48601223Y-42099970D01*
X48598800Y-42100000D01*
X14601200Y-42100000D01*
X14598776Y-42099970D01*
X14595505Y-42099889D01*
X14510273Y-42097801D01*
X14493386Y-42095929D01*
X14318576Y-42061158D01*
X14300003Y-42055524D01*
X14136471Y-41987786D01*
X14119356Y-41978638D01*
X13972181Y-41880299D01*
X13957178Y-41867987D01*
X13832012Y-41742821D01*
X13819700Y-41727818D01*
X13721361Y-41580643D01*
X13712213Y-41563528D01*
X13644473Y-41399989D01*
X13638842Y-41381428D01*
X13606832Y-41220499D01*
X13604070Y-41206613D01*
X13602198Y-41189724D01*
X13600030Y-41101223D01*
X13600000Y-41098799D01*
X13600000Y-38499997D01*
X14395233Y-38499997D01*
X14395233Y-38500002D01*
X14414273Y-38754076D01*
X14414275Y-38754086D01*
X14470970Y-39002487D01*
X14470970Y-39002489D01*
X14564055Y-39239664D01*
X14564064Y-39239683D01*
X14691455Y-39460330D01*
X14733452Y-39512991D01*
X15414766Y-38831676D01*
X15426497Y-38859995D01*
X15509670Y-38984472D01*
X15615528Y-39090330D01*
X15740005Y-39173503D01*
X15768321Y-39185231D01*
X15086814Y-39866739D01*
X15247620Y-39976374D01*
X15477176Y-40086922D01*
X15720649Y-40162023D01*
X15720659Y-40162025D01*
X15972599Y-40199999D01*
X15972608Y-40200000D01*
X16227392Y-40200000D01*
X16227400Y-40199999D01*
X16479340Y-40162025D01*
X16479350Y-40162023D01*
X16722823Y-40086921D01*
X16952381Y-39976373D01*
X17113184Y-39866739D01*
X17062170Y-39815725D01*
X25929500Y-39815725D01*
X25929500Y-40824274D01*
X25932353Y-40854694D01*
X25932355Y-40854703D01*
X25977207Y-40982883D01*
X26057845Y-41092144D01*
X26057847Y-41092146D01*
X26057850Y-41092150D01*
X26057853Y-41092152D01*
X26057855Y-41092154D01*
X26167116Y-41172792D01*
X26167117Y-41172792D01*
X26167118Y-41172793D01*
X26295301Y-41217646D01*
X26325725Y-41220499D01*
X26325727Y-41220500D01*
X26325734Y-41220500D01*
X27134273Y-41220500D01*
X27134273Y-41220499D01*
X27164699Y-41217646D01*
X27292882Y-41172793D01*
X27402150Y-41092150D01*
X27482793Y-40982882D01*
X27527646Y-40854699D01*
X27530499Y-40824273D01*
X27530500Y-40824273D01*
X27530500Y-40570001D01*
X27930001Y-40570001D01*
X27930001Y-40824203D01*
X27932850Y-40854600D01*
X27932850Y-40854602D01*
X27977654Y-40982647D01*
X28058207Y-41091790D01*
X28058209Y-41091792D01*
X28167352Y-41172345D01*
X28295398Y-41217149D01*
X28325789Y-41219999D01*
X28480000Y-41219999D01*
X28480000Y-40570001D01*
X28980000Y-40570001D01*
X28980000Y-41219998D01*
X28980001Y-41219999D01*
X29134203Y-41219999D01*
X29164600Y-41217149D01*
X29164602Y-41217149D01*
X29292647Y-41172345D01*
X29401790Y-41091792D01*
X29401792Y-41091790D01*
X29482345Y-40982646D01*
X29505919Y-40915274D01*
X29542984Y-40866593D01*
X29601584Y-40848995D01*
X29659336Y-40869202D01*
X29679019Y-40889182D01*
X29694640Y-40910348D01*
X29694650Y-40910358D01*
X29800758Y-40988669D01*
X29925239Y-41032227D01*
X29925240Y-41032228D01*
X29954798Y-41035000D01*
X30057498Y-41035000D01*
X30057499Y-41034999D01*
X30057499Y-40610001D01*
X30557499Y-40610001D01*
X30557499Y-41034999D01*
X30557500Y-41035000D01*
X30660200Y-41035000D01*
X30689757Y-41032228D01*
X30689758Y-41032227D01*
X30814239Y-40988669D01*
X30920347Y-40910358D01*
X30920357Y-40910348D01*
X30998668Y-40804240D01*
X31042226Y-40679759D01*
X31042227Y-40679758D01*
X31044999Y-40650201D01*
X31044999Y-40610001D01*
X31044998Y-40610000D01*
X30557500Y-40610000D01*
X30557499Y-40610001D01*
X30057499Y-40610001D01*
X30057498Y-40610000D01*
X29608006Y-40610000D01*
X29549815Y-40591093D01*
X29538002Y-40581004D01*
X29526998Y-40570000D01*
X28980001Y-40570000D01*
X28980000Y-40570001D01*
X28480000Y-40570001D01*
X28479999Y-40570000D01*
X27930002Y-40570000D01*
X27930001Y-40570001D01*
X27530500Y-40570001D01*
X27530500Y-39815727D01*
X27530499Y-39815725D01*
X27530222Y-39812768D01*
X27527646Y-39785301D01*
X27482793Y-39657118D01*
X27482792Y-39657116D01*
X27474845Y-39646348D01*
X27455503Y-39588301D01*
X27455500Y-39587560D01*
X27455500Y-39544500D01*
X27474407Y-39486309D01*
X27523907Y-39450345D01*
X27554500Y-39445500D01*
X27937901Y-39445500D01*
X27996092Y-39464407D01*
X28032056Y-39513907D01*
X28032056Y-39575093D01*
X28017556Y-39603288D01*
X27977655Y-39657350D01*
X27932850Y-39785398D01*
X27930000Y-39815788D01*
X27930000Y-40069999D01*
X27930001Y-40070000D01*
X29491993Y-40070000D01*
X29550184Y-40088907D01*
X29561997Y-40098996D01*
X29573001Y-40110000D01*
X30057498Y-40110000D01*
X30057499Y-40109999D01*
X30057499Y-39685001D01*
X30557499Y-39685001D01*
X30557499Y-40109999D01*
X30557500Y-40110000D01*
X31044998Y-40110000D01*
X31044999Y-40109999D01*
X31044999Y-40069798D01*
X31042227Y-40040241D01*
X31042226Y-40040240D01*
X30998668Y-39915759D01*
X30920357Y-39809651D01*
X30920347Y-39809641D01*
X30814239Y-39731330D01*
X30689758Y-39687772D01*
X30689757Y-39687771D01*
X30660200Y-39685000D01*
X30557500Y-39685000D01*
X30557499Y-39685001D01*
X30057499Y-39685001D01*
X30057498Y-39685000D01*
X29954798Y-39685000D01*
X29925240Y-39687771D01*
X29925239Y-39687772D01*
X29800758Y-39731330D01*
X29694650Y-39809641D01*
X29689399Y-39814893D01*
X29687274Y-39812768D01*
X29648225Y-39840685D01*
X29587042Y-39840217D01*
X29537818Y-39803875D01*
X29524909Y-39778996D01*
X29482344Y-39657352D01*
X29442443Y-39603288D01*
X29423101Y-39545240D01*
X29441572Y-39486909D01*
X29490801Y-39450576D01*
X29522098Y-39445499D01*
X29601943Y-39445499D01*
X29601948Y-39445499D01*
X29649542Y-39438565D01*
X29672504Y-39435221D01*
X29672505Y-39435220D01*
X29672509Y-39435220D01*
X29672511Y-39435218D01*
X29672514Y-39435218D01*
X29781343Y-39382014D01*
X29781343Y-39382013D01*
X29781347Y-39382012D01*
X29867012Y-39296347D01*
X29920220Y-39187509D01*
X29930500Y-39116949D01*
X29930499Y-38723052D01*
X29920220Y-38652491D01*
X29920219Y-38652488D01*
X29920218Y-38652485D01*
X29867014Y-38543656D01*
X29867012Y-38543654D01*
X29867012Y-38543653D01*
X29838360Y-38515001D01*
X29810585Y-38460487D01*
X29820156Y-38400055D01*
X29838359Y-38374999D01*
X29867012Y-38346347D01*
X29920220Y-38237509D01*
X29930500Y-38166949D01*
X29930499Y-37773052D01*
X29924031Y-37728652D01*
X29920221Y-37702495D01*
X29920218Y-37702485D01*
X29867014Y-37593656D01*
X29867012Y-37593654D01*
X29867012Y-37593653D01*
X29838360Y-37565001D01*
X29810585Y-37510487D01*
X29820156Y-37450055D01*
X29838359Y-37424999D01*
X29867012Y-37396347D01*
X29920220Y-37287509D01*
X29930500Y-37216949D01*
X29930499Y-36823052D01*
X29922771Y-36770000D01*
X30677736Y-36770000D01*
X31399999Y-36770000D01*
X31400000Y-36769999D01*
X31400000Y-36495001D01*
X31900000Y-36495001D01*
X31900000Y-36769999D01*
X31900001Y-36770000D01*
X32622263Y-36770000D01*
X32619733Y-36752636D01*
X32566599Y-36643948D01*
X32481051Y-36558400D01*
X32372363Y-36505266D01*
X32301898Y-36495000D01*
X31900001Y-36495000D01*
X31900000Y-36495001D01*
X31400000Y-36495001D01*
X31399999Y-36495000D01*
X30998104Y-36495000D01*
X30998098Y-36495001D01*
X30927639Y-36505265D01*
X30927635Y-36505266D01*
X30818948Y-36558400D01*
X30733400Y-36643948D01*
X30680266Y-36752636D01*
X30677736Y-36770000D01*
X29922771Y-36770000D01*
X29920221Y-36752495D01*
X29920218Y-36752485D01*
X29867014Y-36643656D01*
X29867012Y-36643654D01*
X29867012Y-36643653D01*
X29822015Y-36598656D01*
X29794240Y-36544142D01*
X29803811Y-36483710D01*
X29822018Y-36458651D01*
X30186174Y-36094496D01*
X30240690Y-36066719D01*
X30256177Y-36065500D01*
X30500262Y-36065500D01*
X30500265Y-36065499D01*
X30529849Y-36062725D01*
X30654475Y-36019116D01*
X30760711Y-35940711D01*
X30839116Y-35834475D01*
X30882725Y-35709849D01*
X30885500Y-35680256D01*
X30885500Y-35099744D01*
X30885500Y-35099738D01*
X30885499Y-35099733D01*
X30882725Y-35070155D01*
X30882725Y-35070151D01*
X30839116Y-34945525D01*
X30803159Y-34896805D01*
X30760714Y-34839293D01*
X30760713Y-34839292D01*
X30760711Y-34839289D01*
X30760706Y-34839285D01*
X30654476Y-34760884D01*
X30529852Y-34717276D01*
X30529851Y-34717275D01*
X30529849Y-34717275D01*
X30529847Y-34717274D01*
X30529844Y-34717274D01*
X30500266Y-34714500D01*
X30500256Y-34714500D01*
X29794744Y-34714500D01*
X29794733Y-34714500D01*
X29765155Y-34717274D01*
X29765147Y-34717276D01*
X29640523Y-34760884D01*
X29534293Y-34839285D01*
X29534285Y-34839293D01*
X29455884Y-34945523D01*
X29412276Y-35070147D01*
X29412274Y-35070155D01*
X29409500Y-35099733D01*
X29409500Y-35343822D01*
X29390593Y-35402013D01*
X29380504Y-35413826D01*
X28627337Y-36166993D01*
X28627335Y-36166995D01*
X28627334Y-36166994D01*
X28529494Y-36264835D01*
X28460315Y-36384656D01*
X28460313Y-36384661D01*
X28460312Y-36384663D01*
X28460312Y-36384664D01*
X28452743Y-36412908D01*
X28452740Y-36412920D01*
X28450537Y-36421137D01*
X28417206Y-36472446D01*
X28360081Y-36494365D01*
X28354916Y-36494500D01*
X28298057Y-36494500D01*
X28298048Y-36494501D01*
X28227495Y-36504778D01*
X28227485Y-36504781D01*
X28118656Y-36557985D01*
X28032987Y-36643654D01*
X28018441Y-36673410D01*
X27975897Y-36717384D01*
X27915631Y-36727953D01*
X27860663Y-36701080D01*
X27831988Y-36647030D01*
X27830500Y-36629929D01*
X27830500Y-36213227D01*
X27830499Y-36213225D01*
X27827646Y-36182805D01*
X27827646Y-36182801D01*
X27782793Y-36054618D01*
X27782077Y-36053648D01*
X27702154Y-35945355D01*
X27702152Y-35945353D01*
X27702150Y-35945350D01*
X27702146Y-35945347D01*
X27702144Y-35945345D01*
X27592883Y-35864707D01*
X27546755Y-35848566D01*
X27498074Y-35811500D01*
X27480478Y-35752900D01*
X27500687Y-35695148D01*
X27500742Y-35695075D01*
X27594536Y-35572841D01*
X27655044Y-35426762D01*
X27675682Y-35270000D01*
X27655044Y-35113238D01*
X27642317Y-35082513D01*
X27594537Y-34967161D01*
X27594537Y-34967160D01*
X27498286Y-34841723D01*
X27498285Y-34841722D01*
X27498282Y-34841718D01*
X27498277Y-34841714D01*
X27498276Y-34841713D01*
X27382964Y-34753232D01*
X27372841Y-34745464D01*
X27372840Y-34745463D01*
X27372838Y-34745462D01*
X27226766Y-34684957D01*
X27226758Y-34684955D01*
X27070001Y-34664318D01*
X27069999Y-34664318D01*
X26913241Y-34684955D01*
X26913233Y-34684957D01*
X26767161Y-34745462D01*
X26767160Y-34745462D01*
X26641723Y-34841713D01*
X26641713Y-34841723D01*
X26545462Y-34967160D01*
X26545462Y-34967161D01*
X26484956Y-35113237D01*
X26484954Y-35113242D01*
X26484694Y-35115222D01*
X26483413Y-35118995D01*
X26483276Y-35119507D01*
X26483242Y-35119498D01*
X26472280Y-35151792D01*
X26440312Y-35207163D01*
X26440313Y-35207163D01*
X26440312Y-35207165D01*
X26404499Y-35340814D01*
X26404499Y-35487157D01*
X26404500Y-35487170D01*
X26404500Y-35746390D01*
X26385593Y-35804581D01*
X26338199Y-35839834D01*
X26267115Y-35864707D01*
X26157855Y-35945345D01*
X26157845Y-35945355D01*
X26077207Y-36054616D01*
X26032355Y-36182796D01*
X26032353Y-36182805D01*
X26029500Y-36213225D01*
X26029500Y-37021771D01*
X26032353Y-37052194D01*
X26032355Y-37052203D01*
X26077207Y-37180383D01*
X26157845Y-37289644D01*
X26157847Y-37289646D01*
X26157850Y-37289650D01*
X26157853Y-37289652D01*
X26157855Y-37289654D01*
X26267116Y-37370292D01*
X26267117Y-37370292D01*
X26267118Y-37370293D01*
X26395301Y-37415146D01*
X26425725Y-37417999D01*
X26425727Y-37418000D01*
X26425734Y-37418000D01*
X27434273Y-37418000D01*
X27434273Y-37417999D01*
X27464699Y-37415146D01*
X27592882Y-37370293D01*
X27702150Y-37289650D01*
X27782793Y-37180382D01*
X27782797Y-37180369D01*
X27783333Y-37179358D01*
X27784096Y-37178616D01*
X27787199Y-37174413D01*
X27787896Y-37174927D01*
X27827232Y-37136738D01*
X27887799Y-37128062D01*
X27941899Y-37156642D01*
X27968867Y-37211564D01*
X27969297Y-37215550D01*
X27979778Y-37287504D01*
X27979781Y-37287514D01*
X28032985Y-37396343D01*
X28032987Y-37396345D01*
X28032988Y-37396347D01*
X28061639Y-37424998D01*
X28089415Y-37479513D01*
X28079844Y-37539945D01*
X28061640Y-37565000D01*
X28032988Y-37593653D01*
X28032987Y-37593654D01*
X27979783Y-37702485D01*
X27979780Y-37702491D01*
X27969501Y-37773048D01*
X27969500Y-37773054D01*
X27969500Y-38008699D01*
X27950593Y-38066890D01*
X27901093Y-38102854D01*
X27839907Y-38102854D01*
X27790407Y-38066890D01*
X27782969Y-38054951D01*
X27782791Y-38054614D01*
X27702154Y-37945355D01*
X27702152Y-37945353D01*
X27702150Y-37945350D01*
X27702146Y-37945347D01*
X27702144Y-37945345D01*
X27592883Y-37864707D01*
X27464703Y-37819855D01*
X27464694Y-37819853D01*
X27434274Y-37817000D01*
X27434266Y-37817000D01*
X26425734Y-37817000D01*
X26425725Y-37817000D01*
X26395305Y-37819853D01*
X26395296Y-37819855D01*
X26267116Y-37864707D01*
X26157855Y-37945345D01*
X26157845Y-37945355D01*
X26077207Y-38054616D01*
X26032355Y-38182796D01*
X26032353Y-38182805D01*
X26029500Y-38213225D01*
X26029500Y-39021774D01*
X26032353Y-39052194D01*
X26032355Y-39052203D01*
X26077207Y-39180383D01*
X26157845Y-39289644D01*
X26157847Y-39289646D01*
X26157850Y-39289650D01*
X26157853Y-39289652D01*
X26157855Y-39289654D01*
X26175136Y-39302408D01*
X26210729Y-39352176D01*
X26210271Y-39413359D01*
X26173938Y-39462589D01*
X26170473Y-39464729D01*
X26057855Y-39547845D01*
X26057845Y-39547855D01*
X25977207Y-39657116D01*
X25932355Y-39785296D01*
X25932353Y-39785305D01*
X25929500Y-39815725D01*
X17062170Y-39815725D01*
X16431677Y-39185232D01*
X16459995Y-39173503D01*
X16584472Y-39090330D01*
X16690330Y-38984472D01*
X16773503Y-38859995D01*
X16785232Y-38831677D01*
X17466546Y-39512991D01*
X17508544Y-39460330D01*
X17635935Y-39239683D01*
X17635944Y-39239664D01*
X17729029Y-39002489D01*
X17729029Y-39002487D01*
X17785724Y-38754086D01*
X17785726Y-38754076D01*
X17804767Y-38500002D01*
X17804767Y-38499997D01*
X17785726Y-38245923D01*
X17785724Y-38245913D01*
X17729029Y-37997512D01*
X17729029Y-37997510D01*
X17635944Y-37760335D01*
X17635935Y-37760316D01*
X17508549Y-37539678D01*
X17508543Y-37539669D01*
X17466546Y-37487007D01*
X16785231Y-38168321D01*
X16773503Y-38140005D01*
X16690330Y-38015528D01*
X16584472Y-37909670D01*
X16459995Y-37826497D01*
X16431676Y-37814766D01*
X17113183Y-37133260D01*
X16952376Y-37023624D01*
X16722823Y-36913078D01*
X16479350Y-36837976D01*
X16479340Y-36837974D01*
X16227400Y-36800000D01*
X15972599Y-36800000D01*
X15720659Y-36837974D01*
X15720649Y-36837976D01*
X15477176Y-36913077D01*
X15247615Y-37023628D01*
X15086814Y-37133259D01*
X15768322Y-37814767D01*
X15740005Y-37826497D01*
X15615528Y-37909670D01*
X15509670Y-38015528D01*
X15426497Y-38140005D01*
X15414767Y-38168322D01*
X14733452Y-37487007D01*
X14691461Y-37539662D01*
X14691451Y-37539677D01*
X14564064Y-37760316D01*
X14564055Y-37760335D01*
X14470970Y-37997510D01*
X14470970Y-37997512D01*
X14414275Y-38245913D01*
X14414273Y-38245923D01*
X14395233Y-38499997D01*
X13600000Y-38499997D01*
X13600000Y-33419997D01*
X14394732Y-33419997D01*
X14394732Y-33420002D01*
X14413777Y-33674152D01*
X14413779Y-33674161D01*
X14470492Y-33922639D01*
X14551877Y-34130001D01*
X14563607Y-34159888D01*
X14691041Y-34380612D01*
X14691045Y-34380618D01*
X14691047Y-34380620D01*
X14849940Y-34579866D01*
X14849951Y-34579878D01*
X15036776Y-34753226D01*
X15036778Y-34753227D01*
X15036783Y-34753232D01*
X15247366Y-34896805D01*
X15476996Y-35007389D01*
X15720542Y-35082513D01*
X15972565Y-35120500D01*
X15972570Y-35120500D01*
X16227430Y-35120500D01*
X16227435Y-35120500D01*
X16479458Y-35082513D01*
X16723004Y-35007389D01*
X16952634Y-34896805D01*
X17163217Y-34753232D01*
X17350050Y-34579877D01*
X17508959Y-34380612D01*
X17636393Y-34159888D01*
X17729508Y-33922637D01*
X17752370Y-33822470D01*
X17783752Y-33769946D01*
X17840013Y-33745899D01*
X17848888Y-33745500D01*
X18584008Y-33745500D01*
X18642199Y-33764407D01*
X18677452Y-33811802D01*
X18695882Y-33864472D01*
X18695885Y-33864478D01*
X18762585Y-33954853D01*
X18774289Y-33970711D01*
X18774292Y-33970713D01*
X18774293Y-33970714D01*
X18880523Y-34049115D01*
X18880524Y-34049115D01*
X18880525Y-34049116D01*
X19005151Y-34092725D01*
X19032441Y-34095284D01*
X19034733Y-34095499D01*
X19034738Y-34095500D01*
X19034744Y-34095500D01*
X19640262Y-34095500D01*
X19640265Y-34095499D01*
X19669849Y-34092725D01*
X19794475Y-34049116D01*
X19900711Y-33970711D01*
X19979116Y-33864475D01*
X20022725Y-33739849D01*
X20025500Y-33710256D01*
X20025500Y-33129744D01*
X20025500Y-33129738D01*
X20025499Y-33129733D01*
X20474500Y-33129733D01*
X20474500Y-33710266D01*
X20477274Y-33739844D01*
X20477276Y-33739852D01*
X20520884Y-33864476D01*
X20587585Y-33954853D01*
X20599289Y-33970711D01*
X20599292Y-33970713D01*
X20599293Y-33970714D01*
X20705523Y-34049115D01*
X20705524Y-34049115D01*
X20705525Y-34049116D01*
X20830151Y-34092725D01*
X20857441Y-34095284D01*
X20859733Y-34095499D01*
X20859738Y-34095500D01*
X20859744Y-34095500D01*
X21465262Y-34095500D01*
X21465265Y-34095499D01*
X21494849Y-34092725D01*
X21619475Y-34049116D01*
X21725711Y-33970711D01*
X21804116Y-33864475D01*
X21847725Y-33739849D01*
X21850500Y-33710256D01*
X21850500Y-33129744D01*
X21850500Y-33129738D01*
X21850499Y-33129733D01*
X21847725Y-33100155D01*
X21847725Y-33100151D01*
X21804116Y-32975525D01*
X21804113Y-32975521D01*
X21725714Y-32869293D01*
X21725713Y-32869292D01*
X21725711Y-32869289D01*
X21725706Y-32869285D01*
X21619477Y-32790884D01*
X21554301Y-32768078D01*
X21505621Y-32731012D01*
X21488000Y-32674634D01*
X21488000Y-32313334D01*
X21506907Y-32255143D01*
X21516996Y-32243330D01*
X22120325Y-31640001D01*
X29275001Y-31640001D01*
X29275001Y-31919203D01*
X29277850Y-31949600D01*
X29277850Y-31949602D01*
X29322654Y-32077647D01*
X29403207Y-32186790D01*
X29403209Y-32186792D01*
X29512352Y-32267345D01*
X29640398Y-32312149D01*
X29670789Y-32314999D01*
X29812500Y-32314999D01*
X29812500Y-31640001D01*
X30312500Y-31640001D01*
X30312500Y-32314998D01*
X30312501Y-32314999D01*
X30454203Y-32314999D01*
X30484600Y-32312149D01*
X30484602Y-32312149D01*
X30612647Y-32267345D01*
X30721790Y-32186792D01*
X30721792Y-32186790D01*
X30802345Y-32077647D01*
X30847149Y-31949601D01*
X30849999Y-31919211D01*
X30850000Y-31919210D01*
X30850000Y-31640001D01*
X30849999Y-31640000D01*
X30312501Y-31640000D01*
X30312500Y-31640001D01*
X29812500Y-31640001D01*
X29812499Y-31640000D01*
X29275002Y-31640000D01*
X29275001Y-31640001D01*
X22120325Y-31640001D01*
X22899538Y-30860788D01*
X29275000Y-30860788D01*
X29275000Y-31139999D01*
X29275001Y-31140000D01*
X29812499Y-31140000D01*
X29812500Y-31139999D01*
X29812500Y-30465001D01*
X30312500Y-30465001D01*
X30312500Y-31139999D01*
X30312501Y-31140000D01*
X30823284Y-31140000D01*
X30881475Y-31158907D01*
X30911846Y-31197431D01*
X30912217Y-31197218D01*
X30913693Y-31199774D01*
X30914746Y-31201110D01*
X30915461Y-31202836D01*
X30915462Y-31202839D01*
X30915464Y-31202841D01*
X31011718Y-31328282D01*
X31011722Y-31328285D01*
X31011723Y-31328286D01*
X31137157Y-31424535D01*
X31137158Y-31424535D01*
X31137159Y-31424536D01*
X31238009Y-31466309D01*
X31262714Y-31476542D01*
X31294833Y-31498002D01*
X31320504Y-31523673D01*
X31348281Y-31578190D01*
X31349500Y-31593677D01*
X31349500Y-31919274D01*
X31352353Y-31949694D01*
X31352355Y-31949703D01*
X31397207Y-32077883D01*
X31477845Y-32187144D01*
X31477847Y-32187146D01*
X31477850Y-32187150D01*
X31477853Y-32187152D01*
X31477855Y-32187154D01*
X31587116Y-32267792D01*
X31587117Y-32267792D01*
X31587118Y-32267793D01*
X31715301Y-32312646D01*
X31745725Y-32315499D01*
X31745727Y-32315500D01*
X31745734Y-32315500D01*
X32529273Y-32315500D01*
X32529273Y-32315499D01*
X32559699Y-32312646D01*
X32687882Y-32267793D01*
X32797150Y-32187150D01*
X32877793Y-32077882D01*
X32922646Y-31949699D01*
X32925499Y-31919273D01*
X32925500Y-31919273D01*
X32925500Y-31524500D01*
X32944407Y-31466309D01*
X32993907Y-31430345D01*
X33024500Y-31425500D01*
X33379794Y-31425500D01*
X33417679Y-31433035D01*
X33543238Y-31485044D01*
X33660809Y-31500522D01*
X33699999Y-31505682D01*
X33700000Y-31505682D01*
X33700001Y-31505682D01*
X33731352Y-31501554D01*
X33856762Y-31485044D01*
X33982320Y-31433035D01*
X34020206Y-31425500D01*
X34250500Y-31425500D01*
X34308691Y-31444407D01*
X34344655Y-31493907D01*
X34349500Y-31524500D01*
X34349500Y-32094746D01*
X34349501Y-32094758D01*
X34361132Y-32153227D01*
X34361134Y-32153233D01*
X34405445Y-32219548D01*
X34405448Y-32219552D01*
X34471769Y-32263867D01*
X34514295Y-32272326D01*
X34530241Y-32275498D01*
X34530246Y-32275498D01*
X34530252Y-32275500D01*
X34530253Y-32275500D01*
X38069747Y-32275500D01*
X38069748Y-32275500D01*
X38128231Y-32263867D01*
X38194552Y-32219552D01*
X38238867Y-32153231D01*
X38250500Y-32094748D01*
X38250500Y-29705252D01*
X38238867Y-29646769D01*
X38194552Y-29580448D01*
X38133851Y-29539888D01*
X38128233Y-29536134D01*
X38128231Y-29536133D01*
X38128228Y-29536132D01*
X38128227Y-29536132D01*
X38069758Y-29524501D01*
X38069748Y-29524500D01*
X34530252Y-29524500D01*
X34530251Y-29524500D01*
X34530241Y-29524501D01*
X34471772Y-29536132D01*
X34471766Y-29536134D01*
X34405451Y-29580445D01*
X34405445Y-29580451D01*
X34361134Y-29646766D01*
X34361132Y-29646772D01*
X34349501Y-29705241D01*
X34349500Y-29705253D01*
X34349500Y-30275500D01*
X34330593Y-30333691D01*
X34281093Y-30369655D01*
X34250500Y-30374500D01*
X34020206Y-30374500D01*
X33982320Y-30366964D01*
X33856762Y-30314956D01*
X33856759Y-30314955D01*
X33856758Y-30314955D01*
X33700001Y-30294318D01*
X33699999Y-30294318D01*
X33543241Y-30314955D01*
X33543236Y-30314957D01*
X33417680Y-30366964D01*
X33379794Y-30374500D01*
X31760206Y-30374500D01*
X31722320Y-30366964D01*
X31596762Y-30314956D01*
X31596759Y-30314955D01*
X31596758Y-30314955D01*
X31440001Y-30294318D01*
X31439999Y-30294318D01*
X31283241Y-30314955D01*
X31283233Y-30314957D01*
X31137161Y-30375462D01*
X31137160Y-30375462D01*
X31011723Y-30471713D01*
X31011713Y-30471723D01*
X30915462Y-30597160D01*
X30915462Y-30597161D01*
X30913948Y-30600817D01*
X30874208Y-30647340D01*
X30814713Y-30661620D01*
X30758186Y-30638202D01*
X30742831Y-30621715D01*
X30721792Y-30593209D01*
X30721790Y-30593207D01*
X30612647Y-30512654D01*
X30484601Y-30467850D01*
X30454211Y-30465000D01*
X30312501Y-30465000D01*
X30312500Y-30465001D01*
X29812500Y-30465001D01*
X29812499Y-30465000D01*
X29670796Y-30465000D01*
X29640399Y-30467850D01*
X29640397Y-30467850D01*
X29512352Y-30512654D01*
X29403209Y-30593207D01*
X29403207Y-30593209D01*
X29322654Y-30702352D01*
X29277850Y-30830398D01*
X29275000Y-30860788D01*
X22899538Y-30860788D01*
X25410325Y-28350001D01*
X27900000Y-28350001D01*
X27900000Y-28390201D01*
X27902771Y-28419758D01*
X27902772Y-28419759D01*
X27946330Y-28544240D01*
X28024641Y-28650348D01*
X28024651Y-28650358D01*
X28130759Y-28728669D01*
X28255240Y-28772227D01*
X28255241Y-28772228D01*
X28284799Y-28775000D01*
X28387499Y-28775000D01*
X28387500Y-28774999D01*
X28387500Y-28350001D01*
X28887500Y-28350001D01*
X28887500Y-28774999D01*
X28887501Y-28775000D01*
X28990201Y-28775000D01*
X29019758Y-28772228D01*
X29019759Y-28772227D01*
X29144240Y-28728669D01*
X29250348Y-28650358D01*
X29250358Y-28650348D01*
X29328669Y-28544240D01*
X29372227Y-28419759D01*
X29372228Y-28419758D01*
X29375000Y-28390201D01*
X29375000Y-28350001D01*
X29374999Y-28350000D01*
X28887501Y-28350000D01*
X28887500Y-28350001D01*
X28387500Y-28350001D01*
X28387499Y-28350000D01*
X27900001Y-28350000D01*
X27900000Y-28350001D01*
X25410325Y-28350001D01*
X26305830Y-27454496D01*
X26360347Y-27426719D01*
X26375834Y-27425500D01*
X27920162Y-27425500D01*
X27978353Y-27444407D01*
X28014317Y-27493907D01*
X28014317Y-27555093D01*
X27999817Y-27583288D01*
X27946330Y-27655759D01*
X27902772Y-27780240D01*
X27902771Y-27780241D01*
X27900000Y-27809798D01*
X27900000Y-27849999D01*
X27900001Y-27850000D01*
X28387499Y-27850000D01*
X28387500Y-27849999D01*
X28387500Y-27425001D01*
X28887500Y-27425001D01*
X28887500Y-27849999D01*
X28887501Y-27850000D01*
X29374999Y-27850000D01*
X29375000Y-27849999D01*
X29375000Y-27809798D01*
X29374994Y-27809733D01*
X29624500Y-27809733D01*
X29624500Y-28390266D01*
X29627274Y-28419844D01*
X29627276Y-28419852D01*
X29670884Y-28544476D01*
X29749021Y-28650348D01*
X29749289Y-28650711D01*
X29749292Y-28650713D01*
X29749293Y-28650714D01*
X29855523Y-28729115D01*
X29855524Y-28729115D01*
X29855525Y-28729116D01*
X29980151Y-28772725D01*
X30004412Y-28775000D01*
X30009733Y-28775499D01*
X30009738Y-28775500D01*
X30009744Y-28775500D01*
X30253823Y-28775500D01*
X30312014Y-28794407D01*
X30323827Y-28804496D01*
X30341993Y-28822662D01*
X30341995Y-28822665D01*
X30439835Y-28920505D01*
X30559664Y-28989688D01*
X30559666Y-28989688D01*
X30559667Y-28989689D01*
X30626489Y-29007594D01*
X30626490Y-29007594D01*
X30693316Y-29025500D01*
X30693317Y-29025500D01*
X35624738Y-29025500D01*
X35624754Y-29025501D01*
X35630817Y-29025501D01*
X35769183Y-29025501D01*
X35874591Y-28997256D01*
X35902836Y-28989688D01*
X36022665Y-28920505D01*
X36120505Y-28822665D01*
X36120506Y-28822662D01*
X37422662Y-27520506D01*
X37422665Y-27520505D01*
X37520505Y-27422665D01*
X37589688Y-27302836D01*
X37614480Y-27210311D01*
X37625501Y-27169183D01*
X37625501Y-27030817D01*
X37625501Y-27026858D01*
X37644408Y-26968667D01*
X37671926Y-26946987D01*
X37670121Y-26944286D01*
X37680513Y-26937342D01*
X37694998Y-26927663D01*
X37753884Y-26911054D01*
X37805002Y-26927663D01*
X37821769Y-26938867D01*
X37862591Y-26946987D01*
X37880241Y-26950498D01*
X37880246Y-26950498D01*
X37880252Y-26950500D01*
X37880253Y-26950500D01*
X38919747Y-26950500D01*
X38919748Y-26950500D01*
X38978231Y-26938867D01*
X39044552Y-26894552D01*
X39088867Y-26828231D01*
X39100500Y-26769748D01*
X39100500Y-26624500D01*
X39119407Y-26566309D01*
X39168907Y-26530345D01*
X39199500Y-26525500D01*
X39541323Y-26525500D01*
X39599514Y-26544407D01*
X39611327Y-26554496D01*
X42045504Y-28988673D01*
X42073281Y-29043190D01*
X42074500Y-29058677D01*
X42074500Y-37041323D01*
X42055593Y-37099514D01*
X42045504Y-37111327D01*
X39351327Y-39805504D01*
X39296810Y-39833281D01*
X39281323Y-39834500D01*
X32711930Y-39834500D01*
X32653739Y-39815593D01*
X32650462Y-39812794D01*
X32598212Y-39774231D01*
X32562620Y-39724463D01*
X32558001Y-39694577D01*
X32558001Y-39337683D01*
X32568060Y-39294203D01*
X32584781Y-39260000D01*
X32620220Y-39187509D01*
X32630500Y-39116949D01*
X32630499Y-38723052D01*
X32620220Y-38652491D01*
X32620217Y-38652485D01*
X32613127Y-38637982D01*
X32604555Y-38577400D01*
X32633229Y-38523350D01*
X32688197Y-38496476D01*
X32702067Y-38495500D01*
X32924738Y-38495500D01*
X32924754Y-38495501D01*
X32930817Y-38495501D01*
X33069183Y-38495501D01*
X33174591Y-38467256D01*
X33202836Y-38459688D01*
X33322665Y-38390505D01*
X33420505Y-38292665D01*
X33420506Y-38292662D01*
X33442020Y-38271147D01*
X33486396Y-38245527D01*
X33582836Y-38219688D01*
X33702665Y-38150505D01*
X33800505Y-38052665D01*
X33869688Y-37932836D01*
X33905500Y-37799183D01*
X33905500Y-37224500D01*
X33924407Y-37166309D01*
X33973907Y-37130345D01*
X34004500Y-37125500D01*
X34250500Y-37125500D01*
X34308691Y-37144407D01*
X34344655Y-37193907D01*
X34349500Y-37224500D01*
X34349500Y-37794746D01*
X34349501Y-37794758D01*
X34355815Y-37826497D01*
X34361133Y-37853231D01*
X34405448Y-37919552D01*
X34471769Y-37963867D01*
X34516231Y-37972711D01*
X34530241Y-37975498D01*
X34530246Y-37975498D01*
X34530252Y-37975500D01*
X34530253Y-37975500D01*
X38069747Y-37975500D01*
X38069748Y-37975500D01*
X38128231Y-37963867D01*
X38194552Y-37919552D01*
X38238867Y-37853231D01*
X38250500Y-37794748D01*
X38250500Y-35405252D01*
X38238867Y-35346769D01*
X38194552Y-35280448D01*
X38178916Y-35270000D01*
X38128233Y-35236134D01*
X38128231Y-35236133D01*
X38128228Y-35236132D01*
X38128227Y-35236132D01*
X38069758Y-35224501D01*
X38069748Y-35224500D01*
X34530252Y-35224500D01*
X34530251Y-35224500D01*
X34530241Y-35224501D01*
X34471772Y-35236132D01*
X34471766Y-35236134D01*
X34405451Y-35280445D01*
X34405445Y-35280451D01*
X34361134Y-35346766D01*
X34361132Y-35346772D01*
X34349501Y-35405241D01*
X34349500Y-35405253D01*
X34349500Y-35975500D01*
X34330593Y-36033691D01*
X34281093Y-36069655D01*
X34250500Y-36074500D01*
X33948402Y-36074500D01*
X33890211Y-36055593D01*
X33862666Y-36025001D01*
X33800505Y-35917335D01*
X32950506Y-35067337D01*
X32950505Y-35067335D01*
X32852665Y-34969495D01*
X32852662Y-34969493D01*
X32732837Y-34900312D01*
X32732839Y-34900312D01*
X32718054Y-34896350D01*
X32704591Y-34892743D01*
X32599183Y-34864499D01*
X32599181Y-34864499D01*
X32551928Y-34864499D01*
X32493737Y-34845592D01*
X32490463Y-34842795D01*
X32379476Y-34760884D01*
X32254852Y-34717276D01*
X32254851Y-34717275D01*
X32254849Y-34717275D01*
X32254847Y-34717274D01*
X32254844Y-34717274D01*
X32225266Y-34714500D01*
X32225256Y-34714500D01*
X31519744Y-34714500D01*
X31519733Y-34714500D01*
X31490155Y-34717274D01*
X31490147Y-34717276D01*
X31365523Y-34760884D01*
X31259293Y-34839285D01*
X31259285Y-34839293D01*
X31180884Y-34945523D01*
X31137276Y-35070147D01*
X31137274Y-35070155D01*
X31134500Y-35099733D01*
X31134500Y-35680266D01*
X31137274Y-35709844D01*
X31137276Y-35709852D01*
X31180884Y-35834476D01*
X31259285Y-35940706D01*
X31259289Y-35940711D01*
X31259292Y-35940713D01*
X31259293Y-35940714D01*
X31365523Y-36019115D01*
X31365524Y-36019115D01*
X31365525Y-36019116D01*
X31490151Y-36062725D01*
X31517441Y-36065284D01*
X31519733Y-36065499D01*
X31519738Y-36065500D01*
X31519744Y-36065500D01*
X32225262Y-36065500D01*
X32225265Y-36065499D01*
X32254849Y-36062725D01*
X32319031Y-36040266D01*
X32347777Y-36030208D01*
X32408947Y-36028835D01*
X32450479Y-36053648D01*
X32825504Y-36428673D01*
X32853281Y-36483190D01*
X32854500Y-36498677D01*
X32854500Y-36844737D01*
X32854499Y-36844755D01*
X32854499Y-36997157D01*
X32854500Y-36997170D01*
X32854500Y-37331322D01*
X32835593Y-37389513D01*
X32825504Y-37401326D01*
X32819495Y-37407335D01*
X32819493Y-37407337D01*
X32811325Y-37415504D01*
X32756810Y-37443281D01*
X32741323Y-37444500D01*
X32701510Y-37444500D01*
X32643319Y-37425593D01*
X32607355Y-37376093D01*
X32607355Y-37314907D01*
X32612568Y-37302021D01*
X32619733Y-37287362D01*
X32622263Y-37270000D01*
X30677737Y-37270000D01*
X30680266Y-37287363D01*
X30733400Y-37396051D01*
X30761991Y-37424642D01*
X30789768Y-37479159D01*
X30780197Y-37539591D01*
X30761992Y-37564649D01*
X30732987Y-37593654D01*
X30679783Y-37702485D01*
X30679780Y-37702491D01*
X30669501Y-37773048D01*
X30669500Y-37773054D01*
X30669500Y-38166943D01*
X30669501Y-38166951D01*
X30679778Y-38237504D01*
X30679781Y-38237514D01*
X30732985Y-38346343D01*
X30732987Y-38346345D01*
X30732988Y-38346347D01*
X30761639Y-38374998D01*
X30789415Y-38429513D01*
X30779844Y-38489945D01*
X30761640Y-38515000D01*
X30732988Y-38543653D01*
X30732987Y-38543654D01*
X30717735Y-38574853D01*
X30679780Y-38652491D01*
X30669501Y-38723048D01*
X30669500Y-38723054D01*
X30669500Y-39116943D01*
X30669501Y-39116951D01*
X30679778Y-39187504D01*
X30679781Y-39187514D01*
X30732985Y-39296343D01*
X30732987Y-39296345D01*
X30732988Y-39296347D01*
X30818653Y-39382012D01*
X30927491Y-39435220D01*
X30998051Y-39445500D01*
X31391322Y-39445499D01*
X31449513Y-39464406D01*
X31461326Y-39474495D01*
X31478005Y-39491174D01*
X31505782Y-39545691D01*
X31507001Y-39561178D01*
X31507001Y-39694577D01*
X31488094Y-39752768D01*
X31466790Y-39774231D01*
X31419295Y-39809284D01*
X31419286Y-39809293D01*
X31340885Y-39915523D01*
X31297277Y-40040147D01*
X31297275Y-40040155D01*
X31294501Y-40069733D01*
X31294501Y-40650266D01*
X31297275Y-40679844D01*
X31297277Y-40679852D01*
X31340885Y-40804476D01*
X31400684Y-40885501D01*
X31419290Y-40910711D01*
X31419293Y-40910713D01*
X31419294Y-40910714D01*
X31525524Y-40989115D01*
X31525525Y-40989115D01*
X31525526Y-40989116D01*
X31650152Y-41032725D01*
X31674413Y-41035000D01*
X31679734Y-41035499D01*
X31679739Y-41035500D01*
X31679745Y-41035500D01*
X32385263Y-41035500D01*
X32385266Y-41035499D01*
X32414850Y-41032725D01*
X32539476Y-40989116D01*
X32645712Y-40910711D01*
X32645712Y-40910710D01*
X32651682Y-40906305D01*
X32653409Y-40908645D01*
X32696444Y-40886719D01*
X32711931Y-40885500D01*
X39464738Y-40885500D01*
X39464754Y-40885501D01*
X39470817Y-40885501D01*
X39609183Y-40885501D01*
X39714591Y-40857256D01*
X39742836Y-40849688D01*
X39862665Y-40780505D01*
X39960505Y-40682665D01*
X39960506Y-40682662D01*
X42922662Y-37720506D01*
X42922665Y-37720505D01*
X43020505Y-37622665D01*
X43075642Y-37527165D01*
X43089689Y-37502835D01*
X43125501Y-37369183D01*
X43125501Y-37230816D01*
X43125501Y-37224754D01*
X43125500Y-37224736D01*
X43125500Y-32360299D01*
X45400000Y-32360299D01*
X45400000Y-33629999D01*
X45400001Y-33630000D01*
X46380936Y-33630000D01*
X46369207Y-33658316D01*
X46340000Y-33805147D01*
X46340000Y-33954853D01*
X46369207Y-34101684D01*
X46380936Y-34130000D01*
X45400001Y-34130000D01*
X45400000Y-34130001D01*
X45400000Y-35399700D01*
X45411603Y-35458036D01*
X45455806Y-35524189D01*
X45455810Y-35524193D01*
X45521963Y-35568396D01*
X45580299Y-35579999D01*
X45580303Y-35580000D01*
X46849999Y-35580000D01*
X46850000Y-35579999D01*
X46850000Y-34599064D01*
X46878316Y-34610793D01*
X47025147Y-34640000D01*
X47174853Y-34640000D01*
X47321684Y-34610793D01*
X47350000Y-34599064D01*
X47350000Y-35579999D01*
X47350001Y-35580000D01*
X48619697Y-35580000D01*
X48619700Y-35579999D01*
X48678036Y-35568396D01*
X48744189Y-35524193D01*
X48744193Y-35524189D01*
X48788396Y-35458036D01*
X48799999Y-35399700D01*
X48800000Y-35399697D01*
X48800000Y-34130001D01*
X48799999Y-34130000D01*
X47819064Y-34130000D01*
X47830793Y-34101684D01*
X47860000Y-33954853D01*
X47860000Y-33805147D01*
X47830793Y-33658316D01*
X47819064Y-33630000D01*
X48799999Y-33630000D01*
X48800000Y-33629999D01*
X48800000Y-32360302D01*
X48799999Y-32360299D01*
X48788396Y-32301963D01*
X48744193Y-32235810D01*
X48744189Y-32235806D01*
X48678036Y-32191603D01*
X48619700Y-32180000D01*
X47350001Y-32180000D01*
X47350000Y-32180001D01*
X47350000Y-33160935D01*
X47321684Y-33149207D01*
X47174853Y-33120000D01*
X47025147Y-33120000D01*
X46878316Y-33149207D01*
X46850000Y-33160935D01*
X46850000Y-32180001D01*
X46849999Y-32180000D01*
X45580299Y-32180000D01*
X45521963Y-32191603D01*
X45455810Y-32235806D01*
X45455806Y-32235810D01*
X45411603Y-32301963D01*
X45400000Y-32360299D01*
X43125500Y-32360299D01*
X43125500Y-29424500D01*
X43144407Y-29366309D01*
X43193907Y-29330345D01*
X43224500Y-29325500D01*
X45411969Y-29325500D01*
X45470160Y-29344407D01*
X45504125Y-29388331D01*
X45562133Y-29536134D01*
X45563607Y-29539888D01*
X45691041Y-29760612D01*
X45691045Y-29760618D01*
X45691047Y-29760620D01*
X45849940Y-29959866D01*
X45849951Y-29959878D01*
X46036776Y-30133226D01*
X46036778Y-30133227D01*
X46036783Y-30133232D01*
X46247366Y-30276805D01*
X46476996Y-30387389D01*
X46720542Y-30462513D01*
X46972565Y-30500500D01*
X46972570Y-30500500D01*
X47227430Y-30500500D01*
X47227435Y-30500500D01*
X47479458Y-30462513D01*
X47723004Y-30387389D01*
X47952634Y-30276805D01*
X48163217Y-30133232D01*
X48350050Y-29959877D01*
X48508959Y-29760612D01*
X48636393Y-29539888D01*
X48729508Y-29302637D01*
X48786222Y-29054157D01*
X48799996Y-28870345D01*
X48805268Y-28800002D01*
X48805268Y-28799997D01*
X48786222Y-28545847D01*
X48786222Y-28545843D01*
X48729508Y-28297363D01*
X48636393Y-28060112D01*
X48508959Y-27839388D01*
X48508952Y-27839379D01*
X48350059Y-27640133D01*
X48350048Y-27640121D01*
X48163223Y-27466773D01*
X48163220Y-27466771D01*
X48163217Y-27466768D01*
X47952634Y-27323195D01*
X47723004Y-27212611D01*
X47582214Y-27169183D01*
X47479462Y-27137488D01*
X47479459Y-27137487D01*
X47479458Y-27137487D01*
X47479453Y-27137486D01*
X47479452Y-27137486D01*
X47227438Y-27099500D01*
X47227435Y-27099500D01*
X46972565Y-27099500D01*
X46972561Y-27099500D01*
X46720547Y-27137486D01*
X46720537Y-27137488D01*
X46476995Y-27212611D01*
X46247373Y-27323191D01*
X46247369Y-27323193D01*
X46247366Y-27323195D01*
X46093980Y-27427772D01*
X46036776Y-27466773D01*
X45849951Y-27640121D01*
X45849940Y-27640133D01*
X45691047Y-27839379D01*
X45691043Y-27839384D01*
X45691041Y-27839388D01*
X45670192Y-27875500D01*
X45563608Y-28060109D01*
X45563604Y-28060118D01*
X45504125Y-28211669D01*
X45465266Y-28258929D01*
X45411969Y-28274500D01*
X42858677Y-28274500D01*
X42800486Y-28255593D01*
X42788673Y-28245504D01*
X40220506Y-25677337D01*
X40220505Y-25677335D01*
X40122665Y-25579495D01*
X40002836Y-25510312D01*
X40002835Y-25510311D01*
X40002832Y-25510310D01*
X39962484Y-25499499D01*
X39962483Y-25499499D01*
X39869185Y-25474499D01*
X39869183Y-25474499D01*
X39730817Y-25474499D01*
X39724754Y-25474499D01*
X39724738Y-25474500D01*
X39199500Y-25474500D01*
X39141309Y-25455593D01*
X39105345Y-25406093D01*
X39100500Y-25375500D01*
X39100500Y-25250001D01*
X41600000Y-25250001D01*
X41600000Y-25290201D01*
X41602771Y-25319758D01*
X41602772Y-25319759D01*
X41646330Y-25444240D01*
X41724641Y-25550348D01*
X41724651Y-25550358D01*
X41830759Y-25628669D01*
X41955240Y-25672227D01*
X41955241Y-25672228D01*
X41984799Y-25675000D01*
X42037499Y-25675000D01*
X42037500Y-25674999D01*
X42037500Y-25250001D01*
X42537500Y-25250001D01*
X42537500Y-25674999D01*
X42537501Y-25675000D01*
X42590201Y-25675000D01*
X42619758Y-25672228D01*
X42619759Y-25672227D01*
X42744240Y-25628669D01*
X42850348Y-25550358D01*
X42850358Y-25550348D01*
X42928669Y-25444240D01*
X42972227Y-25319759D01*
X42972228Y-25319758D01*
X42975000Y-25290201D01*
X42975000Y-25250001D01*
X42974999Y-25250000D01*
X42537501Y-25250000D01*
X42537500Y-25250001D01*
X42037500Y-25250001D01*
X42037499Y-25250000D01*
X41600001Y-25250000D01*
X41600000Y-25250001D01*
X39100500Y-25250001D01*
X39100500Y-25230253D01*
X39100498Y-25230241D01*
X39097711Y-25216231D01*
X39088867Y-25171769D01*
X39044552Y-25105448D01*
X38994999Y-25072337D01*
X38978233Y-25061134D01*
X38978231Y-25061133D01*
X38978228Y-25061132D01*
X38978227Y-25061132D01*
X38919758Y-25049501D01*
X38919748Y-25049500D01*
X37880252Y-25049500D01*
X37880251Y-25049500D01*
X37880241Y-25049501D01*
X37821772Y-25061132D01*
X37821767Y-25061134D01*
X37805001Y-25072337D01*
X37746113Y-25088945D01*
X37694999Y-25072337D01*
X37670125Y-25055717D01*
X37672328Y-25052419D01*
X37640039Y-25024788D01*
X37625500Y-24973141D01*
X37625500Y-24709798D01*
X41600000Y-24709798D01*
X41600000Y-24749999D01*
X41600001Y-24750000D01*
X42037499Y-24750000D01*
X42037500Y-24749999D01*
X42037500Y-24325001D01*
X42537500Y-24325001D01*
X42537500Y-24749999D01*
X42537501Y-24750000D01*
X42974999Y-24750000D01*
X42975000Y-24749999D01*
X42975000Y-24709798D01*
X42974994Y-24709733D01*
X43424500Y-24709733D01*
X43424500Y-25290266D01*
X43427274Y-25319844D01*
X43427276Y-25319852D01*
X43470884Y-25444476D01*
X43527891Y-25521718D01*
X43549289Y-25550711D01*
X43549292Y-25550713D01*
X43549293Y-25550714D01*
X43655521Y-25629114D01*
X43655523Y-25629114D01*
X43655525Y-25629116D01*
X43708198Y-25647547D01*
X43756878Y-25684612D01*
X43774500Y-25740991D01*
X43774500Y-26044028D01*
X43755593Y-26102219D01*
X43735768Y-26122570D01*
X43671718Y-26171717D01*
X43575462Y-26297160D01*
X43575462Y-26297161D01*
X43514957Y-26443233D01*
X43514955Y-26443241D01*
X43494318Y-26599999D01*
X43494318Y-26600000D01*
X43514955Y-26756758D01*
X43514957Y-26756766D01*
X43575462Y-26902838D01*
X43575462Y-26902839D01*
X43664524Y-27018907D01*
X43671718Y-27028282D01*
X43671722Y-27028285D01*
X43671723Y-27028286D01*
X43700020Y-27049999D01*
X43797159Y-27124536D01*
X43797160Y-27124536D01*
X43797161Y-27124537D01*
X43904941Y-27169181D01*
X43943238Y-27185044D01*
X44060809Y-27200522D01*
X44099999Y-27205682D01*
X44100000Y-27205682D01*
X44100001Y-27205682D01*
X44131352Y-27201554D01*
X44256762Y-27185044D01*
X44402841Y-27124536D01*
X44528282Y-27028282D01*
X44624536Y-26902841D01*
X44685044Y-26756762D01*
X44705682Y-26600000D01*
X44685044Y-26443238D01*
X44658136Y-26378277D01*
X44624537Y-26297161D01*
X44624537Y-26297160D01*
X44558016Y-26210468D01*
X44528282Y-26171718D01*
X44528281Y-26171717D01*
X44464232Y-26122570D01*
X44429577Y-26072145D01*
X44425500Y-26044028D01*
X44425500Y-25749739D01*
X44444407Y-25691548D01*
X44491801Y-25656295D01*
X44569475Y-25629116D01*
X44675711Y-25550711D01*
X44754116Y-25444475D01*
X44797725Y-25319849D01*
X44800500Y-25290256D01*
X44800500Y-24709744D01*
X44800500Y-24709738D01*
X44800499Y-24709733D01*
X44797725Y-24680155D01*
X44797725Y-24680151D01*
X44754116Y-24555525D01*
X44733972Y-24528231D01*
X44675714Y-24449293D01*
X44675713Y-24449292D01*
X44675711Y-24449289D01*
X44675706Y-24449285D01*
X44569477Y-24370884D01*
X44491801Y-24343704D01*
X44443121Y-24306638D01*
X44425500Y-24250260D01*
X44425500Y-21875833D01*
X44444407Y-21817642D01*
X44454490Y-21805835D01*
X44710072Y-21550253D01*
X45149500Y-21550253D01*
X45149500Y-23289746D01*
X45149501Y-23289758D01*
X45161132Y-23348227D01*
X45161134Y-23348233D01*
X45166833Y-23356762D01*
X45205448Y-23414552D01*
X45271769Y-23458867D01*
X45316231Y-23467711D01*
X45330241Y-23470498D01*
X45330246Y-23470498D01*
X45330252Y-23470500D01*
X45330253Y-23470500D01*
X47069747Y-23470500D01*
X47069748Y-23470500D01*
X47128231Y-23458867D01*
X47194552Y-23414552D01*
X47238867Y-23348231D01*
X47250500Y-23289748D01*
X47250500Y-21550252D01*
X47249105Y-21543241D01*
X47240532Y-21500141D01*
X47238867Y-21491769D01*
X47194552Y-21425448D01*
X47194548Y-21425445D01*
X47128233Y-21381134D01*
X47128231Y-21381133D01*
X47128228Y-21381132D01*
X47128227Y-21381132D01*
X47069758Y-21369501D01*
X47069748Y-21369500D01*
X45330252Y-21369500D01*
X45330251Y-21369500D01*
X45330241Y-21369501D01*
X45271772Y-21381132D01*
X45271766Y-21381134D01*
X45205451Y-21425445D01*
X45205445Y-21425451D01*
X45161134Y-21491766D01*
X45161132Y-21491772D01*
X45149501Y-21550241D01*
X45149500Y-21550253D01*
X44710072Y-21550253D01*
X45489614Y-20770710D01*
X45544131Y-20742934D01*
X45604563Y-20752505D01*
X45611850Y-20756775D01*
X45613545Y-20757681D01*
X45613550Y-20757685D01*
X45796046Y-20855232D01*
X45933997Y-20897078D01*
X45994065Y-20915300D01*
X45994070Y-20915301D01*
X46199997Y-20935583D01*
X46200000Y-20935583D01*
X46200003Y-20935583D01*
X46405929Y-20915301D01*
X46405934Y-20915300D01*
X46603954Y-20855232D01*
X46786450Y-20757685D01*
X46946410Y-20626410D01*
X47077685Y-20466450D01*
X47175232Y-20283954D01*
X47235300Y-20085934D01*
X47235300Y-20085932D01*
X47235301Y-20085929D01*
X47255583Y-19880003D01*
X47255583Y-19879996D01*
X47235301Y-19674070D01*
X47235300Y-19674065D01*
X47217078Y-19613997D01*
X47175232Y-19476046D01*
X47077685Y-19293550D01*
X46946410Y-19133590D01*
X46946404Y-19133585D01*
X46786452Y-19002316D01*
X46603954Y-18904768D01*
X46405934Y-18844699D01*
X46405929Y-18844698D01*
X46200003Y-18824417D01*
X46199997Y-18824417D01*
X45994070Y-18844698D01*
X45994065Y-18844699D01*
X45796045Y-18904768D01*
X45613547Y-19002316D01*
X45453595Y-19133585D01*
X45453585Y-19133595D01*
X45322316Y-19293547D01*
X45224768Y-19476045D01*
X45164699Y-19674065D01*
X45164698Y-19674070D01*
X45144417Y-19879996D01*
X45144417Y-19880003D01*
X45164698Y-20085929D01*
X45164699Y-20085932D01*
X45168199Y-20097471D01*
X45166994Y-20158645D01*
X45143464Y-20196208D01*
X43839532Y-21500141D01*
X43839531Y-21500142D01*
X43796682Y-21574360D01*
X43796681Y-21574360D01*
X43796682Y-21574361D01*
X43774500Y-21657147D01*
X43774500Y-24259008D01*
X43755593Y-24317199D01*
X43708198Y-24352452D01*
X43655527Y-24370882D01*
X43655521Y-24370885D01*
X43549293Y-24449285D01*
X43549285Y-24449293D01*
X43470884Y-24555523D01*
X43427276Y-24680147D01*
X43427274Y-24680155D01*
X43424500Y-24709733D01*
X42974994Y-24709733D01*
X42972228Y-24680241D01*
X42972227Y-24680240D01*
X42928669Y-24555759D01*
X42850358Y-24449651D01*
X42850348Y-24449641D01*
X42744240Y-24371330D01*
X42619759Y-24327772D01*
X42619758Y-24327771D01*
X42590201Y-24325000D01*
X42537501Y-24325000D01*
X42537500Y-24325001D01*
X42037500Y-24325001D01*
X42037499Y-24325000D01*
X41984799Y-24325000D01*
X41955241Y-24327771D01*
X41955240Y-24327772D01*
X41830759Y-24371330D01*
X41724651Y-24449641D01*
X41724641Y-24449651D01*
X41646330Y-24555759D01*
X41602772Y-24680240D01*
X41602771Y-24680241D01*
X41600000Y-24709798D01*
X37625500Y-24709798D01*
X37625500Y-23520205D01*
X37633036Y-23482319D01*
X37637932Y-23470500D01*
X37685044Y-23356762D01*
X37705682Y-23200000D01*
X37685044Y-23043238D01*
X37624537Y-22897161D01*
X37624537Y-22897160D01*
X37528286Y-22771723D01*
X37528285Y-22771722D01*
X37528282Y-22771718D01*
X37528277Y-22771714D01*
X37528276Y-22771713D01*
X37402838Y-22675462D01*
X37256766Y-22614957D01*
X37256758Y-22614955D01*
X37100001Y-22594318D01*
X37099999Y-22594318D01*
X36943241Y-22614955D01*
X36943233Y-22614957D01*
X36797161Y-22675462D01*
X36797160Y-22675462D01*
X36671723Y-22771713D01*
X36671713Y-22771723D01*
X36575462Y-22897160D01*
X36575462Y-22897161D01*
X36514957Y-23043233D01*
X36514955Y-23043241D01*
X36494318Y-23199999D01*
X36494318Y-23200000D01*
X36514955Y-23356758D01*
X36514956Y-23356763D01*
X36566964Y-23482319D01*
X36574500Y-23520205D01*
X36574500Y-24973141D01*
X36555593Y-25031332D01*
X36528085Y-25053038D01*
X36529875Y-25055717D01*
X36505001Y-25072337D01*
X36446113Y-25088945D01*
X36394999Y-25072337D01*
X36378232Y-25061134D01*
X36378233Y-25061134D01*
X36378231Y-25061133D01*
X36378228Y-25061132D01*
X36378227Y-25061132D01*
X36319758Y-25049501D01*
X36319748Y-25049500D01*
X35280252Y-25049500D01*
X35280251Y-25049500D01*
X35280241Y-25049501D01*
X35221772Y-25061132D01*
X35221766Y-25061134D01*
X35155451Y-25105445D01*
X35155445Y-25105451D01*
X35111134Y-25171766D01*
X35111132Y-25171772D01*
X35099501Y-25230241D01*
X35099500Y-25230253D01*
X35099500Y-25375500D01*
X35080593Y-25433691D01*
X35031093Y-25469655D01*
X35000500Y-25474500D01*
X34620206Y-25474500D01*
X34582320Y-25466964D01*
X34554868Y-25455593D01*
X34456762Y-25414956D01*
X34456759Y-25414955D01*
X34456758Y-25414955D01*
X34300001Y-25394318D01*
X34299999Y-25394318D01*
X34143241Y-25414955D01*
X34143233Y-25414957D01*
X33997161Y-25475462D01*
X33997160Y-25475462D01*
X33871723Y-25571713D01*
X33871713Y-25571723D01*
X33775462Y-25697160D01*
X33775462Y-25697161D01*
X33714957Y-25843233D01*
X33714955Y-25843241D01*
X33694318Y-25999999D01*
X33694318Y-26000000D01*
X33714955Y-26156758D01*
X33714957Y-26156766D01*
X33775462Y-26302838D01*
X33775462Y-26302839D01*
X33847911Y-26397256D01*
X33871718Y-26428282D01*
X33871722Y-26428285D01*
X33871723Y-26428286D01*
X33889590Y-26441996D01*
X33997159Y-26524536D01*
X33997160Y-26524536D01*
X33997161Y-26524537D01*
X34114866Y-26573292D01*
X34143238Y-26585044D01*
X34256833Y-26599999D01*
X34299999Y-26605682D01*
X34300000Y-26605682D01*
X34300001Y-26605682D01*
X34343167Y-26599999D01*
X34456762Y-26585044D01*
X34582320Y-26533035D01*
X34620206Y-26525500D01*
X35000500Y-26525500D01*
X35058691Y-26544407D01*
X35094655Y-26593907D01*
X35099500Y-26624500D01*
X35099500Y-26769746D01*
X35099501Y-26769758D01*
X35111132Y-26828227D01*
X35111134Y-26828233D01*
X35155445Y-26894548D01*
X35155448Y-26894552D01*
X35221769Y-26938867D01*
X35262591Y-26946987D01*
X35280241Y-26950498D01*
X35280246Y-26950498D01*
X35280252Y-26950500D01*
X35280253Y-26950500D01*
X36267322Y-26950500D01*
X36325513Y-26969407D01*
X36361477Y-27018907D01*
X36361477Y-27080093D01*
X36337326Y-27119504D01*
X35511327Y-27945504D01*
X35456810Y-27973281D01*
X35441323Y-27974500D01*
X31199500Y-27974500D01*
X31141309Y-27955593D01*
X31105345Y-27906093D01*
X31100500Y-27875500D01*
X31100500Y-27809738D01*
X31100499Y-27809733D01*
X31097725Y-27780155D01*
X31097725Y-27780151D01*
X31054116Y-27655525D01*
X31042756Y-27640133D01*
X30975714Y-27549293D01*
X30975713Y-27549292D01*
X30975711Y-27549289D01*
X30964835Y-27541262D01*
X30869476Y-27470884D01*
X30744852Y-27427276D01*
X30744851Y-27427275D01*
X30744849Y-27427275D01*
X30744847Y-27427274D01*
X30744844Y-27427274D01*
X30715266Y-27424500D01*
X30715256Y-27424500D01*
X30524500Y-27424500D01*
X30466309Y-27405593D01*
X30430345Y-27356093D01*
X30425500Y-27325500D01*
X30425500Y-26612501D01*
X31625000Y-26612501D01*
X31625000Y-26715201D01*
X31627771Y-26744758D01*
X31627772Y-26744759D01*
X31671330Y-26869240D01*
X31749641Y-26975348D01*
X31749651Y-26975358D01*
X31855759Y-27053669D01*
X31980240Y-27097227D01*
X31980241Y-27097228D01*
X32009799Y-27100000D01*
X32049999Y-27100000D01*
X32050000Y-27099999D01*
X32050000Y-26612501D01*
X32550000Y-26612501D01*
X32550000Y-27099999D01*
X32550001Y-27100000D01*
X32590201Y-27100000D01*
X32619758Y-27097228D01*
X32619759Y-27097227D01*
X32744240Y-27053669D01*
X32850348Y-26975358D01*
X32850358Y-26975348D01*
X32928669Y-26869240D01*
X32972227Y-26744759D01*
X32972228Y-26744758D01*
X32975000Y-26715201D01*
X32975000Y-26612501D01*
X32974999Y-26612500D01*
X32550001Y-26612500D01*
X32550000Y-26612501D01*
X32050000Y-26612501D01*
X32049999Y-26612500D01*
X31625001Y-26612500D01*
X31625000Y-26612501D01*
X30425500Y-26612501D01*
X30425500Y-26324069D01*
X30427403Y-26304754D01*
X30430498Y-26289191D01*
X30430497Y-26289191D01*
X30430500Y-26289181D01*
X30430500Y-26009798D01*
X31625000Y-26009798D01*
X31625000Y-26112499D01*
X31625001Y-26112500D01*
X32049999Y-26112500D01*
X32050000Y-26112499D01*
X32050000Y-25625001D01*
X32550000Y-25625001D01*
X32550000Y-26112499D01*
X32550001Y-26112500D01*
X32974999Y-26112500D01*
X32975000Y-26112499D01*
X32975000Y-26009798D01*
X32972228Y-25980241D01*
X32972227Y-25980240D01*
X32928669Y-25855759D01*
X32850358Y-25749651D01*
X32850348Y-25749641D01*
X32744240Y-25671330D01*
X32619759Y-25627772D01*
X32619758Y-25627771D01*
X32590201Y-25625000D01*
X32550001Y-25625000D01*
X32550000Y-25625001D01*
X32050000Y-25625001D01*
X32049999Y-25625000D01*
X32009799Y-25625000D01*
X31980241Y-25627771D01*
X31980240Y-25627772D01*
X31855759Y-25671330D01*
X31749651Y-25749641D01*
X31749641Y-25749651D01*
X31671330Y-25855759D01*
X31627772Y-25980240D01*
X31627771Y-25980241D01*
X31625000Y-26009798D01*
X30430500Y-26009798D01*
X30430499Y-25710820D01*
X30416256Y-25639211D01*
X30409511Y-25629116D01*
X30361999Y-25558007D01*
X30361994Y-25558002D01*
X30280791Y-25503745D01*
X30280789Y-25503744D01*
X30280786Y-25503743D01*
X30280785Y-25503743D01*
X30209190Y-25489501D01*
X30209182Y-25489500D01*
X30209181Y-25489500D01*
X30209180Y-25489500D01*
X29990822Y-25489500D01*
X29990812Y-25489501D01*
X29913785Y-25504822D01*
X29854485Y-25498288D01*
X29770000Y-25460984D01*
X29770000Y-25700877D01*
X29769524Y-25710576D01*
X29769500Y-25710819D01*
X29769500Y-26289177D01*
X29769523Y-26289401D01*
X29770000Y-26299109D01*
X29770000Y-26571217D01*
X29774500Y-26595600D01*
X29774500Y-27483071D01*
X29755593Y-27541262D01*
X29752794Y-27544538D01*
X29670884Y-27655523D01*
X29627276Y-27780147D01*
X29627274Y-27780155D01*
X29624500Y-27809733D01*
X29374994Y-27809733D01*
X29372228Y-27780241D01*
X29372227Y-27780240D01*
X29328669Y-27655759D01*
X29250358Y-27549651D01*
X29250348Y-27549641D01*
X29144240Y-27471330D01*
X29019759Y-27427772D01*
X29019758Y-27427771D01*
X28990201Y-27425000D01*
X28887501Y-27425000D01*
X28887500Y-27425001D01*
X28387500Y-27425001D01*
X28387499Y-27425000D01*
X28374334Y-27425000D01*
X28316143Y-27406093D01*
X28280179Y-27356593D01*
X28280179Y-27295407D01*
X28304328Y-27255998D01*
X29020831Y-26539494D01*
X29075348Y-26511718D01*
X29090835Y-26510499D01*
X29209178Y-26510499D01*
X29209180Y-26510499D01*
X29280789Y-26496256D01*
X29280788Y-26496256D01*
X29286214Y-26495177D01*
X29345515Y-26501710D01*
X29430000Y-26539013D01*
X29430000Y-26299120D01*
X29430477Y-26289411D01*
X29430498Y-26289191D01*
X29430500Y-26289181D01*
X29430499Y-25710820D01*
X29430499Y-25710819D01*
X29430476Y-25710587D01*
X29430000Y-25700888D01*
X29430000Y-25460984D01*
X29345515Y-25498289D01*
X29286211Y-25504823D01*
X29280789Y-25503744D01*
X29209181Y-25489500D01*
X29209180Y-25489500D01*
X28990822Y-25489500D01*
X28990815Y-25489501D01*
X28919212Y-25503743D01*
X28919209Y-25503744D01*
X28838007Y-25558000D01*
X28838002Y-25558005D01*
X28783745Y-25639208D01*
X28783743Y-25639214D01*
X28769501Y-25710808D01*
X28769500Y-25710820D01*
X28769500Y-25829164D01*
X28750593Y-25887355D01*
X28740504Y-25899168D01*
X27894169Y-26745504D01*
X27839652Y-26773281D01*
X27824165Y-26774500D01*
X26242853Y-26774500D01*
X26157147Y-26774500D01*
X26084136Y-26794062D01*
X26074357Y-26796683D01*
X26037250Y-26818108D01*
X26013721Y-26831692D01*
X26000137Y-26839535D01*
X25939534Y-26900137D01*
X25939535Y-26900138D01*
X20902031Y-31937642D01*
X20859182Y-32011860D01*
X20859181Y-32011860D01*
X20859182Y-32011861D01*
X20837000Y-32094647D01*
X20837000Y-32674634D01*
X20818093Y-32732825D01*
X20770699Y-32768078D01*
X20705522Y-32790884D01*
X20599293Y-32869285D01*
X20599285Y-32869293D01*
X20520884Y-32975523D01*
X20477276Y-33100147D01*
X20477274Y-33100155D01*
X20474500Y-33129733D01*
X20025499Y-33129733D01*
X20022725Y-33100155D01*
X20022725Y-33100151D01*
X19979116Y-32975525D01*
X19979113Y-32975521D01*
X19900714Y-32869293D01*
X19900713Y-32869292D01*
X19900711Y-32869289D01*
X19900706Y-32869285D01*
X19794476Y-32790884D01*
X19669852Y-32747276D01*
X19669851Y-32747275D01*
X19669849Y-32747275D01*
X19669847Y-32747274D01*
X19669844Y-32747274D01*
X19640266Y-32744500D01*
X19640256Y-32744500D01*
X19034744Y-32744500D01*
X19034733Y-32744500D01*
X19005155Y-32747274D01*
X19005147Y-32747276D01*
X18880523Y-32790884D01*
X18774293Y-32869285D01*
X18774285Y-32869293D01*
X18695885Y-32975521D01*
X18695882Y-32975527D01*
X18677452Y-33028198D01*
X18640386Y-33076879D01*
X18584008Y-33094500D01*
X17848888Y-33094500D01*
X17790697Y-33075593D01*
X17754733Y-33026093D01*
X17752370Y-33017529D01*
X17742783Y-32975525D01*
X17729508Y-32917363D01*
X17636393Y-32680112D01*
X17508959Y-32459388D01*
X17508952Y-32459379D01*
X17350059Y-32260133D01*
X17350048Y-32260121D01*
X17163223Y-32086773D01*
X17163220Y-32086771D01*
X17163217Y-32086768D01*
X16952634Y-31943195D01*
X16902959Y-31919273D01*
X16723004Y-31832611D01*
X16479462Y-31757488D01*
X16479459Y-31757487D01*
X16479458Y-31757487D01*
X16479453Y-31757486D01*
X16479452Y-31757486D01*
X16227438Y-31719500D01*
X16227435Y-31719500D01*
X15972565Y-31719500D01*
X15972561Y-31719500D01*
X15720547Y-31757486D01*
X15720537Y-31757488D01*
X15476995Y-31832611D01*
X15247373Y-31943191D01*
X15247369Y-31943193D01*
X15247366Y-31943195D01*
X15049815Y-32077883D01*
X15036776Y-32086773D01*
X14849951Y-32260121D01*
X14849940Y-32260133D01*
X14691047Y-32459379D01*
X14691043Y-32459384D01*
X14691041Y-32459388D01*
X14629181Y-32566533D01*
X14563608Y-32680109D01*
X14563604Y-32680118D01*
X14470492Y-32917360D01*
X14413779Y-33165838D01*
X14413777Y-33165847D01*
X14394732Y-33419997D01*
X13600000Y-33419997D01*
X13600000Y-26820253D01*
X14399500Y-26820253D01*
X14399500Y-29859746D01*
X14399501Y-29859758D01*
X14411132Y-29918227D01*
X14411133Y-29918231D01*
X14455448Y-29984552D01*
X14521769Y-30028867D01*
X14566231Y-30037711D01*
X14580241Y-30040498D01*
X14580246Y-30040498D01*
X14580252Y-30040500D01*
X14580253Y-30040500D01*
X17619747Y-30040500D01*
X17619748Y-30040500D01*
X17678231Y-30028867D01*
X17744552Y-29984552D01*
X17788867Y-29918231D01*
X17800500Y-29859748D01*
X17800500Y-28964500D01*
X17819407Y-28906309D01*
X17868907Y-28870345D01*
X17899500Y-28865500D01*
X18084738Y-28865500D01*
X18084754Y-28865501D01*
X18090817Y-28865501D01*
X18229183Y-28865501D01*
X18334591Y-28837256D01*
X18362836Y-28829688D01*
X18482665Y-28760505D01*
X18580505Y-28662665D01*
X18580505Y-28662663D01*
X18588655Y-28654514D01*
X18588656Y-28654511D01*
X19220505Y-28022665D01*
X19247736Y-27975500D01*
X19289687Y-27902839D01*
X19289687Y-27902837D01*
X19289689Y-27902835D01*
X19325501Y-27769183D01*
X19325501Y-27630816D01*
X19325501Y-27624754D01*
X19325500Y-27624736D01*
X19325500Y-27550001D01*
X21400000Y-27550001D01*
X21400000Y-27590201D01*
X21402771Y-27619758D01*
X21402772Y-27619759D01*
X21446330Y-27744240D01*
X21524641Y-27850348D01*
X21524651Y-27850358D01*
X21630759Y-27928669D01*
X21755240Y-27972227D01*
X21755241Y-27972228D01*
X21784799Y-27975000D01*
X21837499Y-27975000D01*
X21837500Y-27974999D01*
X21837500Y-27550001D01*
X22337500Y-27550001D01*
X22337500Y-27974999D01*
X22337501Y-27975000D01*
X22390201Y-27975000D01*
X22419758Y-27972228D01*
X22419759Y-27972227D01*
X22544240Y-27928669D01*
X22650348Y-27850358D01*
X22650358Y-27850348D01*
X22728669Y-27744240D01*
X22772227Y-27619759D01*
X22772228Y-27619758D01*
X22775000Y-27590201D01*
X22775000Y-27550001D01*
X22774999Y-27550000D01*
X22337501Y-27550000D01*
X22337500Y-27550001D01*
X21837500Y-27550001D01*
X21837499Y-27550000D01*
X21400001Y-27550000D01*
X21400000Y-27550001D01*
X19325500Y-27550001D01*
X19325500Y-27009798D01*
X21400000Y-27009798D01*
X21400000Y-27049999D01*
X21400001Y-27050000D01*
X21837499Y-27050000D01*
X21837500Y-27049999D01*
X21837500Y-26625001D01*
X22337500Y-26625001D01*
X22337500Y-27049999D01*
X22337501Y-27050000D01*
X22774999Y-27050000D01*
X22775000Y-27049999D01*
X22775000Y-27009798D01*
X22774994Y-27009733D01*
X23224500Y-27009733D01*
X23224500Y-27590266D01*
X23227274Y-27619844D01*
X23227276Y-27619852D01*
X23270884Y-27744476D01*
X23348764Y-27850000D01*
X23349289Y-27850711D01*
X23349292Y-27850713D01*
X23349293Y-27850714D01*
X23455523Y-27929115D01*
X23455524Y-27929115D01*
X23455525Y-27929116D01*
X23580151Y-27972725D01*
X23604412Y-27975000D01*
X23609733Y-27975499D01*
X23609738Y-27975500D01*
X23609744Y-27975500D01*
X24215262Y-27975500D01*
X24215265Y-27975499D01*
X24244849Y-27972725D01*
X24369475Y-27929116D01*
X24475711Y-27850711D01*
X24554116Y-27744475D01*
X24564255Y-27715500D01*
X24572548Y-27691802D01*
X24609614Y-27643121D01*
X24665992Y-27625500D01*
X24742851Y-27625500D01*
X24742853Y-27625500D01*
X24825639Y-27603318D01*
X24825641Y-27603316D01*
X24825643Y-27603316D01*
X24899857Y-27560468D01*
X24899857Y-27560467D01*
X24899862Y-27560465D01*
X25887035Y-26573290D01*
X25941550Y-26545515D01*
X25969953Y-26545143D01*
X26050000Y-26555682D01*
X26206762Y-26535044D01*
X26352841Y-26474536D01*
X26478282Y-26378282D01*
X26527428Y-26314232D01*
X26577852Y-26279577D01*
X26605970Y-26275500D01*
X27692851Y-26275500D01*
X27692853Y-26275500D01*
X27775639Y-26253318D01*
X27775641Y-26253316D01*
X27775643Y-26253316D01*
X27849857Y-26210468D01*
X27849857Y-26210467D01*
X27849862Y-26210465D01*
X29020830Y-25039494D01*
X29075347Y-25011718D01*
X29090834Y-25010499D01*
X29209178Y-25010499D01*
X29209180Y-25010499D01*
X29280789Y-24996256D01*
X29280788Y-24996256D01*
X29286214Y-24995177D01*
X29345515Y-25001710D01*
X29430000Y-25039013D01*
X29430000Y-24799120D01*
X29430477Y-24789411D01*
X29430497Y-24789194D01*
X29430500Y-24789181D01*
X29430499Y-24210820D01*
X29430499Y-24210819D01*
X29769500Y-24210819D01*
X29769500Y-24789177D01*
X29769523Y-24789401D01*
X29770000Y-24799109D01*
X29770000Y-25039012D01*
X29854485Y-25001709D01*
X29913789Y-24995177D01*
X29919210Y-24996255D01*
X29919211Y-24996256D01*
X29990819Y-25010500D01*
X30209180Y-25010499D01*
X30280789Y-24996256D01*
X30361996Y-24941996D01*
X30361999Y-24941992D01*
X30410436Y-24869500D01*
X30458485Y-24831620D01*
X30492752Y-24825500D01*
X31525500Y-24825500D01*
X31583691Y-24844407D01*
X31619655Y-24893907D01*
X31624500Y-24924500D01*
X31624500Y-24990266D01*
X31627274Y-25019844D01*
X31627276Y-25019852D01*
X31670884Y-25144476D01*
X31734190Y-25230253D01*
X31749289Y-25250711D01*
X31749292Y-25250713D01*
X31749293Y-25250714D01*
X31855523Y-25329115D01*
X31855524Y-25329115D01*
X31855525Y-25329116D01*
X31980151Y-25372725D01*
X32007441Y-25375284D01*
X32009733Y-25375499D01*
X32009738Y-25375500D01*
X32009744Y-25375500D01*
X32590262Y-25375500D01*
X32590265Y-25375499D01*
X32619849Y-25372725D01*
X32744475Y-25329116D01*
X32850711Y-25250711D01*
X32929116Y-25144475D01*
X32972725Y-25019849D01*
X32975500Y-24990256D01*
X32975500Y-24284744D01*
X32975500Y-24284738D01*
X32975499Y-24284733D01*
X32975284Y-24282441D01*
X32972725Y-24255151D01*
X32929116Y-24130525D01*
X32850711Y-24024289D01*
X32850706Y-24024285D01*
X32744476Y-23945884D01*
X32619852Y-23902276D01*
X32619851Y-23902275D01*
X32619849Y-23902275D01*
X32619847Y-23902274D01*
X32619844Y-23902274D01*
X32590266Y-23899500D01*
X32590256Y-23899500D01*
X32009744Y-23899500D01*
X32009733Y-23899500D01*
X31980155Y-23902274D01*
X31980147Y-23902276D01*
X31855523Y-23945884D01*
X31749293Y-24024285D01*
X31749285Y-24024293D01*
X31668106Y-24134288D01*
X31618339Y-24169881D01*
X31588451Y-24174500D01*
X30492752Y-24174500D01*
X30434561Y-24155593D01*
X30410436Y-24130500D01*
X30361999Y-24058007D01*
X30361994Y-24058002D01*
X30280791Y-24003745D01*
X30280789Y-24003744D01*
X30280786Y-24003743D01*
X30280785Y-24003743D01*
X30209190Y-23989501D01*
X30209182Y-23989500D01*
X30209181Y-23989500D01*
X30209180Y-23989500D01*
X29990822Y-23989500D01*
X29990812Y-23989501D01*
X29913785Y-24004822D01*
X29854485Y-23998288D01*
X29770000Y-23960984D01*
X29770000Y-24200877D01*
X29769524Y-24210576D01*
X29769500Y-24210819D01*
X29430499Y-24210819D01*
X29430476Y-24210587D01*
X29430000Y-24200888D01*
X29430000Y-23960984D01*
X29345515Y-23998289D01*
X29286211Y-24004823D01*
X29280789Y-24003744D01*
X29209181Y-23989500D01*
X29209180Y-23989500D01*
X28990822Y-23989500D01*
X28990815Y-23989501D01*
X28919212Y-24003743D01*
X28919209Y-24003744D01*
X28838007Y-24058000D01*
X28838002Y-24058005D01*
X28783745Y-24139208D01*
X28783743Y-24139214D01*
X28769501Y-24210808D01*
X28769500Y-24210820D01*
X28769500Y-24329165D01*
X28750593Y-24387356D01*
X28740504Y-24399169D01*
X27544169Y-25595504D01*
X27489652Y-25623281D01*
X27474165Y-25624500D01*
X26605970Y-25624500D01*
X26547779Y-25605593D01*
X26527428Y-25585767D01*
X26522615Y-25579495D01*
X26478282Y-25521718D01*
X26478277Y-25521714D01*
X26478276Y-25521713D01*
X26377618Y-25444476D01*
X26352841Y-25425464D01*
X26352840Y-25425463D01*
X26352838Y-25425462D01*
X26206766Y-25364957D01*
X26206758Y-25364955D01*
X26050001Y-25344318D01*
X26049999Y-25344318D01*
X25893241Y-25364955D01*
X25893233Y-25364957D01*
X25747161Y-25425462D01*
X25747160Y-25425462D01*
X25621723Y-25521713D01*
X25621713Y-25521723D01*
X25525462Y-25647160D01*
X25525462Y-25647161D01*
X25464957Y-25793233D01*
X25464955Y-25793241D01*
X25444318Y-25949999D01*
X25444318Y-25950000D01*
X25454855Y-26030039D01*
X25443705Y-26090200D01*
X25426706Y-26112965D01*
X24690677Y-26848994D01*
X24636160Y-26876771D01*
X24575728Y-26867200D01*
X24541020Y-26837780D01*
X24475711Y-26749289D01*
X24475706Y-26749285D01*
X24369476Y-26670884D01*
X24244852Y-26627276D01*
X24244851Y-26627275D01*
X24244849Y-26627275D01*
X24244847Y-26627274D01*
X24244844Y-26627274D01*
X24215266Y-26624500D01*
X24215256Y-26624500D01*
X23609744Y-26624500D01*
X23609733Y-26624500D01*
X23580155Y-26627274D01*
X23580147Y-26627276D01*
X23455523Y-26670884D01*
X23349293Y-26749285D01*
X23349285Y-26749293D01*
X23270884Y-26855523D01*
X23227276Y-26980147D01*
X23227274Y-26980155D01*
X23224500Y-27009733D01*
X22774994Y-27009733D01*
X22772228Y-26980241D01*
X22772227Y-26980240D01*
X22728669Y-26855759D01*
X22650358Y-26749651D01*
X22650348Y-26749641D01*
X22544240Y-26671330D01*
X22419759Y-26627772D01*
X22419758Y-26627771D01*
X22390201Y-26625000D01*
X22337501Y-26625000D01*
X22337500Y-26625001D01*
X21837500Y-26625001D01*
X21837499Y-26625000D01*
X21784799Y-26625000D01*
X21755241Y-26627771D01*
X21755240Y-26627772D01*
X21630759Y-26671330D01*
X21524651Y-26749641D01*
X21524641Y-26749651D01*
X21446330Y-26855759D01*
X21402772Y-26980240D01*
X21402771Y-26980241D01*
X21400000Y-27009798D01*
X19325500Y-27009798D01*
X19325500Y-26524500D01*
X19344407Y-26466309D01*
X19393907Y-26430345D01*
X19424500Y-26425500D01*
X24024738Y-26425500D01*
X24024754Y-26425501D01*
X24030817Y-26425501D01*
X24169183Y-26425501D01*
X24274591Y-26397256D01*
X24302836Y-26389688D01*
X24422665Y-26320505D01*
X24520505Y-26222665D01*
X24520506Y-26222662D01*
X25322662Y-25420506D01*
X25322665Y-25420505D01*
X25420505Y-25322665D01*
X25489688Y-25202836D01*
X25525500Y-25069183D01*
X25525500Y-24726858D01*
X25544407Y-24668667D01*
X25571931Y-24646995D01*
X25570121Y-24644286D01*
X25578235Y-24638864D01*
X25594998Y-24627663D01*
X25653884Y-24611054D01*
X25705002Y-24627663D01*
X25721769Y-24638867D01*
X25762631Y-24646995D01*
X25780241Y-24650498D01*
X25780246Y-24650498D01*
X25780252Y-24650500D01*
X25780253Y-24650500D01*
X26819747Y-24650500D01*
X26819748Y-24650500D01*
X26878231Y-24638867D01*
X26944552Y-24594552D01*
X26988867Y-24528231D01*
X27000500Y-24469748D01*
X27000500Y-22930252D01*
X27000499Y-22930250D01*
X27000499Y-22930244D01*
X26996293Y-22909101D01*
X27003483Y-22848340D01*
X27023387Y-22819781D01*
X27588674Y-22254496D01*
X27643190Y-22226719D01*
X27658677Y-22225500D01*
X41624738Y-22225500D01*
X41624754Y-22225501D01*
X41630817Y-22225501D01*
X41769183Y-22225501D01*
X41874591Y-22197256D01*
X41902836Y-22189688D01*
X42022665Y-22120505D01*
X42120505Y-22022665D01*
X42120506Y-22022662D01*
X45778557Y-18364610D01*
X45833072Y-18336835D01*
X45877297Y-18339879D01*
X45994065Y-18375300D01*
X45994070Y-18375301D01*
X46199997Y-18395583D01*
X46200000Y-18395583D01*
X46200003Y-18395583D01*
X46405929Y-18375301D01*
X46405934Y-18375300D01*
X46603954Y-18315232D01*
X46786450Y-18217685D01*
X46946410Y-18086410D01*
X47077685Y-17926450D01*
X47175232Y-17743954D01*
X47235300Y-17545934D01*
X47235301Y-17545929D01*
X47255583Y-17340003D01*
X47255583Y-17339996D01*
X47235301Y-17134070D01*
X47235300Y-17134065D01*
X47183301Y-16962647D01*
X47175232Y-16936046D01*
X47077685Y-16753550D01*
X46946410Y-16593590D01*
X46946404Y-16593585D01*
X46786452Y-16462316D01*
X46603954Y-16364768D01*
X46405934Y-16304699D01*
X46405929Y-16304698D01*
X46200003Y-16284417D01*
X46199997Y-16284417D01*
X45994070Y-16304698D01*
X45994065Y-16304699D01*
X45796045Y-16364768D01*
X45613547Y-16462316D01*
X45453595Y-16593585D01*
X45453585Y-16593595D01*
X45322316Y-16753547D01*
X45224768Y-16936045D01*
X45164699Y-17134065D01*
X45164698Y-17134070D01*
X45144417Y-17339996D01*
X45144417Y-17340003D01*
X45155285Y-17450356D01*
X45142172Y-17510120D01*
X45126766Y-17530063D01*
X41511327Y-21145504D01*
X41456810Y-21173281D01*
X41441323Y-21174500D01*
X27475262Y-21174500D01*
X27475246Y-21174499D01*
X27469183Y-21174499D01*
X27330817Y-21174499D01*
X27286267Y-21186435D01*
X27225409Y-21202742D01*
X27225408Y-21202743D01*
X27197164Y-21210312D01*
X27197163Y-21210312D01*
X27197161Y-21210313D01*
X27197156Y-21210315D01*
X27077335Y-21279494D01*
X26979494Y-21377334D01*
X26979495Y-21377335D01*
X26979493Y-21377337D01*
X25977337Y-22379493D01*
X25977335Y-22379495D01*
X25977334Y-22379494D01*
X25879497Y-22477332D01*
X25879495Y-22477334D01*
X25879495Y-22477335D01*
X25810312Y-22597164D01*
X25810312Y-22597165D01*
X25810311Y-22597167D01*
X25806938Y-22609755D01*
X25806938Y-22609757D01*
X25784580Y-22693193D01*
X25751256Y-22744506D01*
X25726845Y-22759030D01*
X25721770Y-22761132D01*
X25705001Y-22772337D01*
X25646113Y-22788945D01*
X25594999Y-22772337D01*
X25578232Y-22761134D01*
X25578233Y-22761134D01*
X25578231Y-22761133D01*
X25578228Y-22761132D01*
X25578227Y-22761132D01*
X25519758Y-22749501D01*
X25519748Y-22749500D01*
X24480252Y-22749500D01*
X24480251Y-22749500D01*
X24480241Y-22749501D01*
X24421772Y-22761132D01*
X24421767Y-22761134D01*
X24405001Y-22772337D01*
X24346113Y-22788945D01*
X24294999Y-22772337D01*
X24270125Y-22755717D01*
X24272328Y-22752419D01*
X24240039Y-22724788D01*
X24225500Y-22673141D01*
X24225500Y-22020205D01*
X24233036Y-21982319D01*
X24277144Y-21875833D01*
X24285044Y-21856762D01*
X24305682Y-21700000D01*
X24285044Y-21543238D01*
X24236254Y-21425448D01*
X24224537Y-21397161D01*
X24224537Y-21397160D01*
X24128286Y-21271723D01*
X24128285Y-21271722D01*
X24128282Y-21271718D01*
X24128277Y-21271714D01*
X24128276Y-21271713D01*
X24002838Y-21175462D01*
X23856766Y-21114957D01*
X23856758Y-21114955D01*
X23700001Y-21094318D01*
X23699999Y-21094318D01*
X23543241Y-21114955D01*
X23543233Y-21114957D01*
X23397161Y-21175462D01*
X23397160Y-21175462D01*
X23271723Y-21271713D01*
X23271713Y-21271723D01*
X23175462Y-21397160D01*
X23175462Y-21397161D01*
X23114957Y-21543233D01*
X23114955Y-21543241D01*
X23094318Y-21699999D01*
X23094318Y-21700000D01*
X23114955Y-21856758D01*
X23114956Y-21856763D01*
X23166964Y-21982319D01*
X23174500Y-22020205D01*
X23174500Y-22673141D01*
X23155593Y-22731332D01*
X23128086Y-22753037D01*
X23129876Y-22755716D01*
X23055451Y-22805445D01*
X23055445Y-22805451D01*
X23011134Y-22871766D01*
X23011132Y-22871772D01*
X22999501Y-22930241D01*
X22999500Y-22930253D01*
X22999500Y-24469746D01*
X22999501Y-24469758D01*
X23011132Y-24528227D01*
X23011134Y-24528233D01*
X23055445Y-24594548D01*
X23055448Y-24594552D01*
X23121769Y-24638867D01*
X23162631Y-24646995D01*
X23180241Y-24650498D01*
X23180246Y-24650498D01*
X23180252Y-24650500D01*
X23180253Y-24650500D01*
X24219747Y-24650500D01*
X24219748Y-24650500D01*
X24278231Y-24638867D01*
X24294996Y-24627664D01*
X24353882Y-24611054D01*
X24405001Y-24627663D01*
X24429877Y-24644285D01*
X24427659Y-24647603D01*
X24459849Y-24675029D01*
X24474500Y-24726858D01*
X24474500Y-24741323D01*
X24455593Y-24799514D01*
X24445504Y-24811327D01*
X23911327Y-25345504D01*
X23856810Y-25373281D01*
X23841323Y-25374500D01*
X19424500Y-25374500D01*
X19366309Y-25355593D01*
X19330345Y-25306093D01*
X19325500Y-25275500D01*
X19325500Y-24699500D01*
X19344407Y-24641309D01*
X19393907Y-24605345D01*
X19424500Y-24600500D01*
X19554273Y-24600500D01*
X19554273Y-24600499D01*
X19584699Y-24597646D01*
X19712882Y-24552793D01*
X19822150Y-24472150D01*
X19902793Y-24362882D01*
X19947646Y-24234699D01*
X19950499Y-24204273D01*
X19950500Y-24204273D01*
X19950500Y-20195727D01*
X19950499Y-20195725D01*
X19950055Y-20190987D01*
X19947646Y-20165301D01*
X19902793Y-20037118D01*
X19874110Y-19998254D01*
X19822154Y-19927855D01*
X19822152Y-19927853D01*
X19822150Y-19927850D01*
X19822146Y-19927847D01*
X19822144Y-19927845D01*
X19712883Y-19847207D01*
X19584703Y-19802355D01*
X19584694Y-19802353D01*
X19554274Y-19799500D01*
X19554266Y-19799500D01*
X17445734Y-19799500D01*
X17445725Y-19799500D01*
X17415305Y-19802353D01*
X17415296Y-19802355D01*
X17287116Y-19847207D01*
X17177855Y-19927845D01*
X17177845Y-19927855D01*
X17097207Y-20037116D01*
X17052355Y-20165296D01*
X17052353Y-20165305D01*
X17049500Y-20195725D01*
X17049500Y-24204274D01*
X17052353Y-24234694D01*
X17052355Y-24234703D01*
X17097207Y-24362883D01*
X17177845Y-24472144D01*
X17177847Y-24472146D01*
X17177850Y-24472150D01*
X17177853Y-24472152D01*
X17177855Y-24472154D01*
X17287116Y-24552792D01*
X17287117Y-24552792D01*
X17287118Y-24552793D01*
X17415301Y-24597646D01*
X17445725Y-24600499D01*
X17445727Y-24600500D01*
X17445734Y-24600500D01*
X18175500Y-24600500D01*
X18233691Y-24619407D01*
X18269655Y-24668907D01*
X18274500Y-24699500D01*
X18274500Y-25924737D01*
X18274499Y-25924755D01*
X18274499Y-26077157D01*
X18274500Y-26077170D01*
X18274500Y-27441323D01*
X18255593Y-27499514D01*
X18245504Y-27511326D01*
X17971328Y-27785503D01*
X17916811Y-27813281D01*
X17901324Y-27814500D01*
X17899500Y-27814500D01*
X17841309Y-27795593D01*
X17805345Y-27746093D01*
X17800500Y-27715500D01*
X17800500Y-26820253D01*
X17800498Y-26820241D01*
X17791399Y-26774500D01*
X17788867Y-26761769D01*
X17744552Y-26695448D01*
X17744548Y-26695445D01*
X17678233Y-26651134D01*
X17678231Y-26651133D01*
X17678228Y-26651132D01*
X17678227Y-26651132D01*
X17619758Y-26639501D01*
X17619748Y-26639500D01*
X14580252Y-26639500D01*
X14580251Y-26639500D01*
X14580241Y-26639501D01*
X14521772Y-26651132D01*
X14521766Y-26651134D01*
X14455451Y-26695445D01*
X14455445Y-26695451D01*
X14411134Y-26761766D01*
X14411132Y-26761772D01*
X14399501Y-26820241D01*
X14399500Y-26820253D01*
X13600000Y-26820253D01*
X13600000Y-15050001D01*
X17050001Y-15050001D01*
X17050001Y-16804203D01*
X17052850Y-16834600D01*
X17052850Y-16834602D01*
X17097654Y-16962647D01*
X17178207Y-17071790D01*
X17178209Y-17071792D01*
X17287352Y-17152345D01*
X17415398Y-17197149D01*
X17445789Y-17199999D01*
X18249998Y-17199999D01*
X18250000Y-17199998D01*
X18250000Y-15050001D01*
X18750000Y-15050001D01*
X18750000Y-17199998D01*
X18750001Y-17199999D01*
X19554203Y-17199999D01*
X19584600Y-17197149D01*
X19584602Y-17197149D01*
X19712647Y-17152345D01*
X19821790Y-17071792D01*
X19821792Y-17071790D01*
X19902345Y-16962647D01*
X19947149Y-16834601D01*
X19949999Y-16804211D01*
X19950000Y-16804210D01*
X19950000Y-15050001D01*
X19949999Y-15050000D01*
X18750001Y-15050000D01*
X18750000Y-15050001D01*
X18250000Y-15050001D01*
X18249999Y-15050000D01*
X17050002Y-15050000D01*
X17050001Y-15050001D01*
X13600000Y-15050001D01*
X13600000Y-13101200D01*
X13600030Y-13098776D01*
X13602198Y-13010275D01*
X13604070Y-12993386D01*
X13607643Y-12975420D01*
X13638843Y-12818568D01*
X13644472Y-12800012D01*
X13646222Y-12795788D01*
X17050000Y-12795788D01*
X17050000Y-14549999D01*
X17050001Y-14550000D01*
X18249999Y-14550000D01*
X18250000Y-14549999D01*
X18250000Y-12400001D01*
X18750000Y-12400001D01*
X18750000Y-14549999D01*
X18750001Y-14550000D01*
X19949998Y-14550000D01*
X19949999Y-14549999D01*
X19949999Y-12795796D01*
X19947149Y-12765399D01*
X19947149Y-12765397D01*
X19902345Y-12637352D01*
X19821792Y-12528209D01*
X19821790Y-12528207D01*
X19712647Y-12447654D01*
X19584601Y-12402850D01*
X19554211Y-12400000D01*
X18750001Y-12400000D01*
X18750000Y-12400001D01*
X18250000Y-12400001D01*
X18249999Y-12400000D01*
X17445796Y-12400000D01*
X17415399Y-12402850D01*
X17415397Y-12402850D01*
X17287352Y-12447654D01*
X17178209Y-12528207D01*
X17178207Y-12528209D01*
X17097654Y-12637352D01*
X17052850Y-12765398D01*
X17050000Y-12795788D01*
X13646222Y-12795788D01*
X13712216Y-12636464D01*
X13721357Y-12619362D01*
X13819704Y-12472176D01*
X13832007Y-12457183D01*
X13957183Y-12332007D01*
X13972176Y-12319704D01*
X14119362Y-12221357D01*
X14136464Y-12212216D01*
X14300012Y-12144472D01*
X14318568Y-12138843D01*
X14493386Y-12104070D01*
X14510274Y-12102198D01*
X14581014Y-12100465D01*
X14598776Y-12100030D01*
X14601200Y-12100000D01*
X22348800Y-12100000D01*
X22351224Y-12100030D01*
G37*
G04 #@! TD.AperFunction*
M02*
