G04 #@! TF.GenerationSoftware,KiCad,Pcbnew,8.0.1*
G04 #@! TF.CreationDate,2024-03-27T22:14:34+01:00*
G04 #@! TF.ProjectId,kurumi,6b757275-6d69-42e6-9b69-6361645f7063,rev?*
G04 #@! TF.SameCoordinates,Original*
G04 #@! TF.FileFunction,Copper,L1,Top*
G04 #@! TF.FilePolarity,Positive*
%FSLAX46Y46*%
G04 Gerber Fmt 4.6, Leading zero omitted, Abs format (unit mm)*
G04 Created by KiCad (PCBNEW 8.0.1) date 2024-03-27 22:14:34*
%MOMM*%
%LPD*%
G01*
G04 APERTURE LIST*
G04 Aperture macros list*
%AMRoundRect*
0 Rectangle with rounded corners*
0 $1 Rounding radius*
0 $2 $3 $4 $5 $6 $7 $8 $9 X,Y pos of 4 corners*
0 Add a 4 corners polygon primitive as box body*
4,1,4,$2,$3,$4,$5,$6,$7,$8,$9,$2,$3,0*
0 Add four circle primitives for the rounded corners*
1,1,$1+$1,$2,$3*
1,1,$1+$1,$4,$5*
1,1,$1+$1,$6,$7*
1,1,$1+$1,$8,$9*
0 Add four rect primitives between the rounded corners*
20,1,$1+$1,$2,$3,$4,$5,0*
20,1,$1+$1,$4,$5,$6,$7,0*
20,1,$1+$1,$6,$7,$8,$9,0*
20,1,$1+$1,$8,$9,$2,$3,0*%
G04 Aperture macros list end*
G04 #@! TA.AperFunction,EtchedComponent*
%ADD10C,0.000000*%
G04 #@! TD*
G04 #@! TA.AperFunction,ComponentPad*
%ADD11R,3.000000X3.000000*%
G04 #@! TD*
G04 #@! TA.AperFunction,ComponentPad*
%ADD12C,3.000000*%
G04 #@! TD*
G04 #@! TA.AperFunction,ComponentPad*
%ADD13R,1.700000X1.700000*%
G04 #@! TD*
G04 #@! TA.AperFunction,ComponentPad*
%ADD14O,1.700000X1.700000*%
G04 #@! TD*
G04 #@! TA.AperFunction,SMDPad,CuDef*
%ADD15RoundRect,0.450000X-1.050000X-0.450000X1.050000X-0.450000X1.050000X0.450000X-1.050000X0.450000X0*%
G04 #@! TD*
G04 #@! TA.AperFunction,SMDPad,CuDef*
%ADD16R,1.500000X1.000000*%
G04 #@! TD*
G04 #@! TA.AperFunction,ViaPad*
%ADD17C,0.800000*%
G04 #@! TD*
G04 #@! TA.AperFunction,Conductor*
%ADD18C,0.650000*%
G04 #@! TD*
G04 #@! TA.AperFunction,Conductor*
%ADD19C,0.250000*%
G04 #@! TD*
G04 #@! TA.AperFunction,Conductor*
%ADD20C,2.000000*%
G04 #@! TD*
G04 APERTURE END LIST*
D10*
G04 #@! TA.AperFunction,EtchedComponent*
G36*
X18931506Y-15760722D02*
G01*
X18940563Y-15765072D01*
X18948775Y-15770631D01*
X18956145Y-15777409D01*
X18962677Y-15785416D01*
X18968372Y-15794658D01*
X18973235Y-15805146D01*
X18977267Y-15816889D01*
X18980472Y-15829894D01*
X18982853Y-15844172D01*
X18984412Y-15859730D01*
X18985153Y-15876578D01*
X18985079Y-15894725D01*
X18984191Y-15914179D01*
X18982495Y-15934949D01*
X18979991Y-15957045D01*
X18974656Y-15992980D01*
X18968179Y-16027211D01*
X18960612Y-16059773D01*
X18952007Y-16090705D01*
X18942414Y-16120043D01*
X18931887Y-16147824D01*
X18920476Y-16174086D01*
X18908234Y-16198866D01*
X18895211Y-16222200D01*
X18881461Y-16244126D01*
X18867034Y-16264682D01*
X18851982Y-16283903D01*
X18836357Y-16301827D01*
X18820211Y-16318492D01*
X18803595Y-16333935D01*
X18786562Y-16348192D01*
X18769162Y-16361301D01*
X18751448Y-16373298D01*
X18733471Y-16384222D01*
X18715283Y-16394109D01*
X18696936Y-16402996D01*
X18678482Y-16410920D01*
X18641457Y-16424030D01*
X18604623Y-16433734D01*
X18568392Y-16440330D01*
X18533180Y-16444115D01*
X18499400Y-16445387D01*
X18473384Y-16444674D01*
X18448508Y-16442572D01*
X18424747Y-16439140D01*
X18402076Y-16434433D01*
X18380469Y-16428509D01*
X18359901Y-16421423D01*
X18340346Y-16413234D01*
X18321781Y-16403998D01*
X18304179Y-16393771D01*
X18287514Y-16382611D01*
X18271763Y-16370575D01*
X18256900Y-16357718D01*
X18242899Y-16344099D01*
X18229735Y-16329773D01*
X18217383Y-16314799D01*
X18205818Y-16299231D01*
X18195014Y-16283128D01*
X18184946Y-16266547D01*
X18166919Y-16232175D01*
X18151534Y-16196569D01*
X18138590Y-16160185D01*
X18127884Y-16123478D01*
X18119214Y-16086901D01*
X18112379Y-16050910D01*
X18107177Y-16015959D01*
X18104265Y-15991523D01*
X18102058Y-15969694D01*
X18100617Y-15950297D01*
X18100204Y-15941457D01*
X18100007Y-15933161D01*
X18100033Y-15925386D01*
X18100290Y-15918111D01*
X18100787Y-15911315D01*
X18101531Y-15904975D01*
X18102530Y-15899071D01*
X18103793Y-15893580D01*
X18105326Y-15888481D01*
X18107139Y-15883752D01*
X18109238Y-15879371D01*
X18111633Y-15875318D01*
X18114330Y-15871570D01*
X18117338Y-15868106D01*
X18120664Y-15864903D01*
X18124317Y-15861941D01*
X18128305Y-15859198D01*
X18132635Y-15856652D01*
X18137315Y-15854281D01*
X18142354Y-15852064D01*
X18147759Y-15849979D01*
X18153539Y-15848005D01*
X18166251Y-15844301D01*
X18180556Y-15840780D01*
X18245006Y-15828949D01*
X18341667Y-15815166D01*
X18458461Y-15800613D01*
X18583306Y-15786469D01*
X18808830Y-15764128D01*
X18885347Y-15758290D01*
X18921595Y-15757582D01*
X18921601Y-15757574D01*
X18931506Y-15760722D01*
G37*
G04 #@! TD.AperFunction*
G04 #@! TA.AperFunction,EtchedComponent*
G36*
X16178605Y-15757589D02*
G01*
X16214852Y-15758296D01*
X16291369Y-15764132D01*
X16516893Y-15786474D01*
X16758533Y-15815173D01*
X16855195Y-15828956D01*
X16919645Y-15840788D01*
X16933955Y-15844306D01*
X16946672Y-15848008D01*
X16957859Y-15852065D01*
X16967579Y-15856652D01*
X16971910Y-15859197D01*
X16975898Y-15861940D01*
X16979551Y-15864902D01*
X16982877Y-15868104D01*
X16985885Y-15871569D01*
X16988582Y-15875317D01*
X16990976Y-15879370D01*
X16993074Y-15883751D01*
X16994886Y-15888480D01*
X16996419Y-15893579D01*
X16997681Y-15899071D01*
X16998679Y-15904975D01*
X16999918Y-15918112D01*
X17000200Y-15933163D01*
X16999588Y-15950301D01*
X16998146Y-15969698D01*
X16995938Y-15991529D01*
X16993026Y-16015966D01*
X16987824Y-16050916D01*
X16980989Y-16086906D01*
X16972320Y-16123482D01*
X16961614Y-16160190D01*
X16948669Y-16196573D01*
X16933284Y-16232179D01*
X16924613Y-16249548D01*
X16915257Y-16266551D01*
X16905189Y-16283133D01*
X16894386Y-16299236D01*
X16882820Y-16314804D01*
X16870468Y-16329778D01*
X16857304Y-16344104D01*
X16843303Y-16357724D01*
X16828440Y-16370581D01*
X16812688Y-16382617D01*
X16796024Y-16393778D01*
X16778422Y-16404005D01*
X16759856Y-16413241D01*
X16740302Y-16421430D01*
X16719733Y-16428516D01*
X16698126Y-16434440D01*
X16675455Y-16439147D01*
X16651693Y-16442580D01*
X16626818Y-16444681D01*
X16600802Y-16445394D01*
X16567021Y-16444123D01*
X16531809Y-16440338D01*
X16495579Y-16433742D01*
X16458745Y-16424037D01*
X16421720Y-16410928D01*
X16384918Y-16394117D01*
X16366731Y-16384230D01*
X16348754Y-16373306D01*
X16331040Y-16361308D01*
X16313640Y-16348200D01*
X16296606Y-16333942D01*
X16279991Y-16318500D01*
X16263844Y-16301835D01*
X16248220Y-16283911D01*
X16233168Y-16264689D01*
X16218741Y-16244134D01*
X16204990Y-16222208D01*
X16191968Y-16198874D01*
X16179725Y-16174094D01*
X16168315Y-16147832D01*
X16157787Y-16120051D01*
X16148195Y-16090713D01*
X16139589Y-16059781D01*
X16132022Y-16027218D01*
X16125546Y-15992988D01*
X16120211Y-15957052D01*
X16118858Y-15945840D01*
X16117708Y-15934961D01*
X16116759Y-15924412D01*
X16116012Y-15914193D01*
X16115468Y-15904303D01*
X16115127Y-15894741D01*
X16114990Y-15885505D01*
X16115055Y-15876596D01*
X16115325Y-15868010D01*
X16115800Y-15859748D01*
X16116479Y-15851808D01*
X16117362Y-15844189D01*
X16118452Y-15836891D01*
X16119747Y-15829911D01*
X16121247Y-15823250D01*
X16122955Y-15816905D01*
X16124869Y-15810876D01*
X16126990Y-15805161D01*
X16129318Y-15799760D01*
X16131854Y-15794672D01*
X16134598Y-15789895D01*
X16137551Y-15785428D01*
X16140712Y-15781270D01*
X16144082Y-15777420D01*
X16147662Y-15773878D01*
X16151451Y-15770641D01*
X16155451Y-15767709D01*
X16159661Y-15765080D01*
X16164081Y-15762754D01*
X16168713Y-15760730D01*
X16173556Y-15759006D01*
X16178611Y-15757582D01*
X16178605Y-15757589D01*
G37*
G04 #@! TD.AperFunction*
G04 #@! TA.AperFunction,EtchedComponent*
G36*
X17695626Y-12952020D02*
G01*
X17893695Y-12965044D01*
X18009709Y-12978938D01*
X18135590Y-12999491D01*
X18270247Y-13028006D01*
X18412590Y-13065785D01*
X18561531Y-13114132D01*
X18715978Y-13174349D01*
X18874841Y-13247741D01*
X19037031Y-13335609D01*
X19201458Y-13439257D01*
X19367032Y-13559987D01*
X19449908Y-13627166D01*
X19532662Y-13699104D01*
X19615158Y-13775963D01*
X19697259Y-13857908D01*
X19775384Y-13940957D01*
X19849017Y-14024278D01*
X19918301Y-14108148D01*
X19983379Y-14192843D01*
X20044395Y-14278640D01*
X20101492Y-14365815D01*
X20154813Y-14454643D01*
X20204502Y-14545402D01*
X20250701Y-14638366D01*
X20293554Y-14733814D01*
X20333204Y-14832020D01*
X20369795Y-14933261D01*
X20403469Y-15037813D01*
X20434370Y-15145952D01*
X20462641Y-15257955D01*
X20488425Y-15374098D01*
X20492254Y-15399412D01*
X20496495Y-15422747D01*
X20501116Y-15444216D01*
X20506082Y-15463929D01*
X20511361Y-15481997D01*
X20516919Y-15498533D01*
X20522723Y-15513647D01*
X20528740Y-15527450D01*
X20534935Y-15540054D01*
X20541277Y-15551570D01*
X20547730Y-15562110D01*
X20554263Y-15571785D01*
X20560842Y-15580705D01*
X20567433Y-15588983D01*
X20580519Y-15604055D01*
X20605372Y-15631385D01*
X20611116Y-15638280D01*
X20616605Y-15645423D01*
X20621807Y-15652925D01*
X20626688Y-15660897D01*
X20631214Y-15669450D01*
X20635353Y-15678697D01*
X20639070Y-15688747D01*
X20642333Y-15699713D01*
X20645108Y-15711706D01*
X20647362Y-15724836D01*
X20649061Y-15739216D01*
X20650172Y-15754957D01*
X20650172Y-15755468D01*
X20647520Y-15771615D01*
X20638218Y-15786309D01*
X20622696Y-15799605D01*
X20601385Y-15811558D01*
X20574714Y-15822222D01*
X20543114Y-15831651D01*
X20466843Y-15847022D01*
X20376012Y-15858107D01*
X20274060Y-15865341D01*
X20164428Y-15869159D01*
X20050553Y-15869995D01*
X19823839Y-15864464D01*
X19621432Y-15852230D01*
X19470848Y-15836771D01*
X19423589Y-15828921D01*
X19399604Y-15821569D01*
X19388169Y-15808723D01*
X19376099Y-15784660D01*
X19349056Y-15706052D01*
X19276407Y-15449052D01*
X19226823Y-15283317D01*
X19165749Y-15101196D01*
X19130282Y-15005968D01*
X19091197Y-14909017D01*
X19048245Y-14811134D01*
X19028467Y-14769944D01*
X19243788Y-14769944D01*
X19246760Y-14856535D01*
X19255420Y-14939629D01*
X19270413Y-15018186D01*
X19301365Y-15117800D01*
X19334495Y-15229786D01*
X19401342Y-15460112D01*
X19432083Y-15563067D01*
X19459052Y-15647630D01*
X19470657Y-15680610D01*
X19480761Y-15706108D01*
X19489178Y-15723162D01*
X19492696Y-15728222D01*
X19495723Y-15730810D01*
X19542420Y-15737744D01*
X19648353Y-15746790D01*
X19795567Y-15755956D01*
X19966111Y-15763248D01*
X20142031Y-15766673D01*
X20305377Y-15764237D01*
X20376724Y-15760198D01*
X20438195Y-15753946D01*
X20487546Y-15745233D01*
X20522532Y-15733808D01*
X20526340Y-15731639D01*
X20529096Y-15729258D01*
X20530859Y-15726674D01*
X20531686Y-15723891D01*
X20531638Y-15720917D01*
X20530773Y-15717759D01*
X20529149Y-15714422D01*
X20526826Y-15710914D01*
X20523862Y-15707241D01*
X20520316Y-15703409D01*
X20511713Y-15695296D01*
X20501487Y-15686627D01*
X20490108Y-15677455D01*
X20465774Y-15657809D01*
X20453759Y-15647439D01*
X20442472Y-15636776D01*
X20432384Y-15625870D01*
X20427936Y-15620343D01*
X20423964Y-15614774D01*
X20420527Y-15609171D01*
X20417684Y-15603541D01*
X20415492Y-15597889D01*
X20414012Y-15592222D01*
X20386269Y-15461770D01*
X20354176Y-15333065D01*
X20317698Y-15206259D01*
X20276797Y-15081503D01*
X20231439Y-14958950D01*
X20181587Y-14838750D01*
X20127206Y-14721055D01*
X20068260Y-14606017D01*
X20004712Y-14493788D01*
X19936527Y-14384519D01*
X19863668Y-14278362D01*
X19786101Y-14175468D01*
X19703789Y-14075989D01*
X19616697Y-13980077D01*
X19524787Y-13887883D01*
X19428025Y-13799559D01*
X19428027Y-13799658D01*
X19401231Y-13884353D01*
X19366102Y-14005021D01*
X19327820Y-14153336D01*
X19291564Y-14320972D01*
X19275815Y-14409432D01*
X19262516Y-14499601D01*
X19252313Y-14590436D01*
X19245854Y-14680898D01*
X19243788Y-14769944D01*
X19028467Y-14769944D01*
X19001178Y-14713110D01*
X18981303Y-14679778D01*
X18958614Y-14644650D01*
X18933681Y-14608201D01*
X18907071Y-14570902D01*
X18851091Y-14495653D01*
X18795221Y-14422689D01*
X18744005Y-14355797D01*
X18701989Y-14298764D01*
X18685850Y-14275128D01*
X18673716Y-14255376D01*
X18666153Y-14239983D01*
X18664264Y-14234069D01*
X18663731Y-14229422D01*
X18664396Y-14225173D01*
X18666025Y-14220439D01*
X18672018Y-14209651D01*
X18681397Y-14197340D01*
X18693844Y-14183790D01*
X18709044Y-14169283D01*
X18726681Y-14154102D01*
X18746440Y-14138528D01*
X18768003Y-14122846D01*
X18791056Y-14107337D01*
X18815282Y-14092283D01*
X18840365Y-14077969D01*
X18865990Y-14064675D01*
X18891841Y-14052685D01*
X18917602Y-14042282D01*
X18942957Y-14033748D01*
X18967589Y-14027365D01*
X18974724Y-14026401D01*
X18980865Y-14026785D01*
X18986063Y-14028452D01*
X18990367Y-14031337D01*
X18993829Y-14035376D01*
X18996498Y-14040504D01*
X18998424Y-14046656D01*
X18999658Y-14053768D01*
X19000249Y-14070612D01*
X18998674Y-14090518D01*
X18995333Y-14112969D01*
X18990628Y-14137447D01*
X18966204Y-14245279D01*
X18960705Y-14272130D01*
X18956252Y-14297903D01*
X18953246Y-14322081D01*
X18952090Y-14344145D01*
X18952363Y-14349879D01*
X18953212Y-14355894D01*
X18954604Y-14362153D01*
X18956507Y-14368621D01*
X18958888Y-14375261D01*
X18961715Y-14382037D01*
X18964953Y-14388912D01*
X18968572Y-14395850D01*
X18972538Y-14402814D01*
X18976819Y-14409769D01*
X18986193Y-14423505D01*
X18996432Y-14436766D01*
X19007275Y-14449261D01*
X19018462Y-14460700D01*
X19024101Y-14465932D01*
X19029729Y-14470792D01*
X19035311Y-14475242D01*
X19040815Y-14479246D01*
X19046209Y-14482768D01*
X19051459Y-14485772D01*
X19056534Y-14488221D01*
X19061399Y-14490079D01*
X19066024Y-14491309D01*
X19070374Y-14491876D01*
X19074418Y-14491742D01*
X19078122Y-14490872D01*
X19081455Y-14489229D01*
X19084382Y-14486776D01*
X19088881Y-14476822D01*
X19096361Y-14454168D01*
X19118461Y-14377793D01*
X19178600Y-14150005D01*
X19235943Y-13915935D01*
X19254548Y-13831708D01*
X19259757Y-13803950D01*
X19261634Y-13788107D01*
X19260570Y-13774333D01*
X19257278Y-13762490D01*
X19251889Y-13752488D01*
X19244534Y-13744239D01*
X19235343Y-13737652D01*
X19224446Y-13732639D01*
X19211975Y-13729110D01*
X19198061Y-13726977D01*
X19182833Y-13726148D01*
X19166422Y-13726537D01*
X19130577Y-13730604D01*
X19091569Y-13738465D01*
X19050445Y-13749405D01*
X19008250Y-13762709D01*
X18966030Y-13777662D01*
X18885693Y-13809659D01*
X18817797Y-13839679D01*
X18770707Y-13862005D01*
X18729031Y-13883453D01*
X18689451Y-13906051D01*
X18651858Y-13929926D01*
X18616142Y-13955205D01*
X18582191Y-13982016D01*
X18549896Y-14010485D01*
X18519147Y-14040741D01*
X18489832Y-14072910D01*
X18461842Y-14107121D01*
X18435066Y-14143499D01*
X18409394Y-14182173D01*
X18384716Y-14223269D01*
X18360922Y-14266915D01*
X18337900Y-14313239D01*
X18315541Y-14362367D01*
X18293734Y-14414427D01*
X18262907Y-14502376D01*
X18225907Y-14625957D01*
X18185149Y-14775378D01*
X18143049Y-14940846D01*
X18102020Y-15112568D01*
X18064478Y-15280751D01*
X18032838Y-15435602D01*
X18009515Y-15567327D01*
X17992910Y-15694129D01*
X17972026Y-15819069D01*
X17959872Y-15880867D01*
X17946520Y-15942230D01*
X17931928Y-16003168D01*
X17916052Y-16063693D01*
X17898849Y-16123813D01*
X17880277Y-16183540D01*
X17860294Y-16242883D01*
X17838855Y-16301852D01*
X17815919Y-16360459D01*
X17791442Y-16418712D01*
X17765382Y-16476622D01*
X17737697Y-16534200D01*
X17725176Y-16555641D01*
X17713488Y-16576338D01*
X17702888Y-16595732D01*
X17693632Y-16613263D01*
X17685976Y-16628371D01*
X17680176Y-16640498D01*
X17678052Y-16645269D01*
X17676487Y-16649084D01*
X17675515Y-16651875D01*
X17675166Y-16653570D01*
X17675808Y-16661297D01*
X17677652Y-16668740D01*
X17680580Y-16675945D01*
X17684473Y-16682957D01*
X17689210Y-16689823D01*
X17694672Y-16696589D01*
X17707295Y-16710001D01*
X17735990Y-16737637D01*
X17750150Y-16752593D01*
X17756765Y-16760517D01*
X17762912Y-16768798D01*
X17768469Y-16777484D01*
X17773319Y-16786619D01*
X17777341Y-16796249D01*
X17780416Y-16806421D01*
X17782424Y-16817180D01*
X17783247Y-16828572D01*
X17782765Y-16840643D01*
X17780858Y-16853439D01*
X17777407Y-16867006D01*
X17772292Y-16881389D01*
X17765394Y-16896634D01*
X17756593Y-16912788D01*
X17745771Y-16929896D01*
X17732807Y-16948003D01*
X17717582Y-16967156D01*
X17699977Y-16987401D01*
X17687654Y-17002590D01*
X17676277Y-17017982D01*
X17665817Y-17033569D01*
X17656247Y-17049344D01*
X17647538Y-17065300D01*
X17639660Y-17081430D01*
X17626284Y-17114182D01*
X17615892Y-17147542D01*
X17608252Y-17181455D01*
X17603136Y-17215861D01*
X17600315Y-17250704D01*
X17599558Y-17285926D01*
X17600637Y-17321470D01*
X17603321Y-17357279D01*
X17607382Y-17393294D01*
X17612589Y-17429458D01*
X17618713Y-17465715D01*
X17632796Y-17538274D01*
X17636560Y-17552900D01*
X17642012Y-17568690D01*
X17648982Y-17585472D01*
X17657298Y-17603076D01*
X17666789Y-17621328D01*
X17677284Y-17640057D01*
X17688611Y-17659091D01*
X17700598Y-17678258D01*
X17725869Y-17716305D01*
X17751726Y-17752823D01*
X17776798Y-17786436D01*
X17799712Y-17815771D01*
X17825005Y-17844174D01*
X17855686Y-17872930D01*
X17931959Y-17930427D01*
X18026023Y-17986117D01*
X18135374Y-18037858D01*
X18257505Y-18083504D01*
X18389910Y-18120913D01*
X18530084Y-18147940D01*
X18602301Y-18156891D01*
X18675520Y-18162443D01*
X18749429Y-18164327D01*
X18823714Y-18162276D01*
X18898061Y-18156022D01*
X18972158Y-18145297D01*
X19045691Y-18129833D01*
X19118347Y-18109362D01*
X19189812Y-18083616D01*
X19259775Y-18052326D01*
X19327920Y-18015226D01*
X19393936Y-17972047D01*
X19457508Y-17922521D01*
X19518324Y-17866381D01*
X19576071Y-17803357D01*
X19630434Y-17733183D01*
X19681101Y-17655590D01*
X19727759Y-17570310D01*
X19753655Y-17513829D01*
X19775257Y-17455680D01*
X19792780Y-17396078D01*
X19806439Y-17335237D01*
X19816450Y-17273374D01*
X19823026Y-17210703D01*
X19826383Y-17147438D01*
X19826735Y-17083796D01*
X19824299Y-17019990D01*
X19819287Y-16956236D01*
X19811916Y-16892749D01*
X19802400Y-16829744D01*
X19777794Y-16706040D01*
X19747188Y-16586843D01*
X19712301Y-16473874D01*
X19674851Y-16368851D01*
X19636560Y-16273496D01*
X19599144Y-16189529D01*
X19564324Y-16118668D01*
X19533819Y-16062634D01*
X19527966Y-16053190D01*
X19660808Y-16053190D01*
X19661078Y-16055227D01*
X19745967Y-16257405D01*
X19784290Y-16355745D01*
X19819372Y-16452629D01*
X19850846Y-16548340D01*
X19878341Y-16643159D01*
X19901489Y-16737370D01*
X19919922Y-16831255D01*
X19933269Y-16925096D01*
X19941162Y-17019175D01*
X19943231Y-17113777D01*
X19939109Y-17209182D01*
X19928425Y-17305673D01*
X19910811Y-17403533D01*
X19885898Y-17503045D01*
X19853316Y-17604490D01*
X19837859Y-17646849D01*
X19832528Y-17662230D01*
X19828224Y-17675629D01*
X19826709Y-17680977D01*
X19825754Y-17685098D01*
X19825460Y-17687750D01*
X19825592Y-17688448D01*
X19825927Y-17688688D01*
X19827691Y-17688471D01*
X19829768Y-17687831D01*
X19834795Y-17685346D01*
X19840878Y-17681363D01*
X19847890Y-17676009D01*
X19855702Y-17669414D01*
X19864185Y-17661706D01*
X19873211Y-17653014D01*
X19882652Y-17643466D01*
X19892380Y-17633193D01*
X19902265Y-17622321D01*
X19912180Y-17610980D01*
X19921996Y-17599299D01*
X19931584Y-17587407D01*
X19940817Y-17575432D01*
X19949566Y-17563502D01*
X19957702Y-17551748D01*
X19997475Y-17491143D01*
X20035033Y-17430274D01*
X20070448Y-17369275D01*
X20103791Y-17308280D01*
X20135135Y-17247423D01*
X20164552Y-17186838D01*
X20217891Y-17067018D01*
X20264386Y-16949895D01*
X20304612Y-16836540D01*
X20339147Y-16728026D01*
X20368566Y-16625424D01*
X20393446Y-16529807D01*
X20414364Y-16442248D01*
X20446617Y-16295591D01*
X20469938Y-16194031D01*
X20479689Y-16162843D01*
X20484340Y-16152617D01*
X20488936Y-16146147D01*
X20497621Y-16137460D01*
X20505308Y-16129499D01*
X20512011Y-16122196D01*
X20514999Y-16118769D01*
X20517748Y-16115480D01*
X20520258Y-16112320D01*
X20522532Y-16109281D01*
X20524573Y-16106353D01*
X20526382Y-16103529D01*
X20527960Y-16100799D01*
X20529311Y-16098155D01*
X20530435Y-16095587D01*
X20531335Y-16093088D01*
X20532013Y-16090648D01*
X20532471Y-16088259D01*
X20532710Y-16085912D01*
X20532733Y-16083599D01*
X20532542Y-16081309D01*
X20532138Y-16079036D01*
X20531524Y-16076770D01*
X20530701Y-16074502D01*
X20529671Y-16072223D01*
X20528437Y-16069926D01*
X20527001Y-16067600D01*
X20525364Y-16065238D01*
X20523527Y-16062831D01*
X20521495Y-16060370D01*
X20519267Y-16057846D01*
X20516847Y-16055250D01*
X20511977Y-16052641D01*
X20502608Y-16050107D01*
X20471606Y-16045302D01*
X20426310Y-16040913D01*
X20369191Y-16037014D01*
X20302721Y-16033682D01*
X20229371Y-16030994D01*
X20071912Y-16027853D01*
X20071906Y-16027830D01*
X19992728Y-16027521D01*
X19916539Y-16028142D01*
X19845818Y-16029763D01*
X19783048Y-16032451D01*
X19755419Y-16034216D01*
X19730707Y-16036273D01*
X19709224Y-16038631D01*
X19691279Y-16041298D01*
X19677181Y-16044283D01*
X19671672Y-16045897D01*
X19667242Y-16047593D01*
X19663929Y-16049374D01*
X19661771Y-16051239D01*
X19660808Y-16053190D01*
X19527966Y-16053190D01*
X19509349Y-16023148D01*
X19492631Y-16001928D01*
X19490110Y-15996246D01*
X19494518Y-15990730D01*
X19522349Y-15980300D01*
X19572570Y-15970852D01*
X19641629Y-15962595D01*
X19822050Y-15950503D01*
X20035192Y-15945716D01*
X20145152Y-15946590D01*
X20252635Y-15949924D01*
X20354088Y-15955930D01*
X20445958Y-15964818D01*
X20524694Y-15976801D01*
X20586742Y-15992090D01*
X20610398Y-16001040D01*
X20628550Y-16010896D01*
X20640754Y-16021684D01*
X20646565Y-16033430D01*
X20647548Y-16039265D01*
X20648148Y-16044943D01*
X20648329Y-16050551D01*
X20648057Y-16056174D01*
X20647295Y-16061901D01*
X20646008Y-16067816D01*
X20644160Y-16074008D01*
X20641716Y-16080562D01*
X20638640Y-16087564D01*
X20634897Y-16095102D01*
X20630451Y-16103263D01*
X20625267Y-16112131D01*
X20619309Y-16121795D01*
X20612541Y-16132341D01*
X20596434Y-16156423D01*
X20577920Y-16184101D01*
X20570149Y-16196393D01*
X20563212Y-16208129D01*
X20556993Y-16219664D01*
X20551373Y-16231354D01*
X20546236Y-16243553D01*
X20541464Y-16256618D01*
X20536941Y-16270904D01*
X20532548Y-16286767D01*
X20528170Y-16304562D01*
X20523688Y-16324645D01*
X20513947Y-16373096D01*
X20502385Y-16434965D01*
X20432661Y-16739430D01*
X20340718Y-17024252D01*
X20228039Y-17289432D01*
X20096104Y-17534969D01*
X19946395Y-17760863D01*
X19780393Y-17967114D01*
X19599579Y-18153723D01*
X19405435Y-18320689D01*
X19199441Y-18468013D01*
X18983078Y-18595693D01*
X18757828Y-18703730D01*
X18525172Y-18792125D01*
X18286592Y-18860877D01*
X18043568Y-18909986D01*
X17797581Y-18939451D01*
X17550114Y-18949274D01*
X17302646Y-18939454D01*
X17056659Y-18909991D01*
X16813635Y-18860884D01*
X16575054Y-18792135D01*
X16342398Y-18703742D01*
X16117148Y-18595706D01*
X15900786Y-18468027D01*
X15694791Y-18320704D01*
X15678362Y-18306575D01*
X15920201Y-18306575D01*
X15921572Y-18313127D01*
X15937413Y-18333446D01*
X15970038Y-18362170D01*
X16018630Y-18397838D01*
X16082374Y-18438993D01*
X16160454Y-18484174D01*
X16252052Y-18531924D01*
X16356353Y-18580782D01*
X16472540Y-18629291D01*
X16599798Y-18675990D01*
X16737309Y-18719422D01*
X16884258Y-18758126D01*
X17039829Y-18790644D01*
X17203204Y-18815517D01*
X17373568Y-18831286D01*
X17550105Y-18836492D01*
X17639094Y-18835301D01*
X17726642Y-18831287D01*
X17812646Y-18824632D01*
X17897006Y-18815519D01*
X17979618Y-18804129D01*
X18060381Y-18790647D01*
X18139193Y-18775253D01*
X18215952Y-18758130D01*
X18290555Y-18739461D01*
X18362901Y-18719428D01*
X18432887Y-18698213D01*
X18500412Y-18675998D01*
X18565374Y-18652967D01*
X18627670Y-18629301D01*
X18743857Y-18580794D01*
X18848158Y-18531936D01*
X18939757Y-18484188D01*
X19017836Y-18439006D01*
X19081580Y-18397851D01*
X19130173Y-18362181D01*
X19162798Y-18333455D01*
X19172867Y-18322152D01*
X19178638Y-18313132D01*
X19180010Y-18306578D01*
X19176879Y-18302671D01*
X19165240Y-18300516D01*
X19142625Y-18300920D01*
X19067747Y-18306968D01*
X18958801Y-18315939D01*
X18822342Y-18322956D01*
X18745844Y-18324209D01*
X18664926Y-18323144D01*
X18580408Y-18319153D01*
X18493110Y-18311626D01*
X18403850Y-18299954D01*
X18313449Y-18283526D01*
X18222725Y-18261734D01*
X18132499Y-18233968D01*
X18107552Y-18226027D01*
X18085508Y-18219217D01*
X18066142Y-18213579D01*
X18049233Y-18209153D01*
X18041630Y-18207406D01*
X18034557Y-18205978D01*
X18027986Y-18204871D01*
X18021891Y-18204093D01*
X18016243Y-18203647D01*
X18011013Y-18203539D01*
X18006175Y-18203773D01*
X18001700Y-18204355D01*
X17997561Y-18205289D01*
X17993729Y-18206580D01*
X17990177Y-18208234D01*
X17986878Y-18210255D01*
X17983802Y-18212649D01*
X17980923Y-18215420D01*
X17978212Y-18218573D01*
X17975642Y-18222113D01*
X17973184Y-18226045D01*
X17970812Y-18230374D01*
X17968496Y-18235106D01*
X17966210Y-18240244D01*
X17961613Y-18251761D01*
X17956799Y-18264966D01*
X17953887Y-18272889D01*
X17950955Y-18280379D01*
X17947994Y-18287436D01*
X17944998Y-18294059D01*
X17941959Y-18300248D01*
X17938869Y-18306000D01*
X17935722Y-18311316D01*
X17932510Y-18316195D01*
X17930877Y-18318470D01*
X17929224Y-18320635D01*
X17927552Y-18322691D01*
X17925859Y-18324636D01*
X17924144Y-18326472D01*
X17922406Y-18328197D01*
X17920645Y-18329812D01*
X17918859Y-18331317D01*
X17917047Y-18332711D01*
X17915209Y-18333995D01*
X17913343Y-18335168D01*
X17911449Y-18336230D01*
X17909525Y-18337181D01*
X17907571Y-18338021D01*
X17905586Y-18338750D01*
X17903569Y-18339368D01*
X17890023Y-18342298D01*
X17864236Y-18344828D01*
X17782935Y-18348692D01*
X17673645Y-18350978D01*
X17550345Y-18351705D01*
X17427014Y-18350890D01*
X17317633Y-18348550D01*
X17236180Y-18344704D01*
X17210296Y-18342221D01*
X17196635Y-18339368D01*
X17192633Y-18338020D01*
X17188756Y-18336228D01*
X17184996Y-18333992D01*
X17181346Y-18331314D01*
X17177798Y-18328194D01*
X17174345Y-18324633D01*
X17170980Y-18320632D01*
X17167695Y-18316192D01*
X17164483Y-18311314D01*
X17161335Y-18305998D01*
X17158246Y-18300246D01*
X17155207Y-18294058D01*
X17152211Y-18287435D01*
X17149250Y-18280379D01*
X17146317Y-18272889D01*
X17143405Y-18264966D01*
X17140360Y-18256514D01*
X17137431Y-18248738D01*
X17134564Y-18241625D01*
X17131705Y-18235166D01*
X17128800Y-18229348D01*
X17127313Y-18226676D01*
X17125794Y-18224160D01*
X17124237Y-18221799D01*
X17122634Y-18219591D01*
X17120979Y-18217535D01*
X17119265Y-18215630D01*
X17117486Y-18213874D01*
X17115634Y-18212265D01*
X17113702Y-18210803D01*
X17111685Y-18209486D01*
X17109574Y-18208312D01*
X17107364Y-18207280D01*
X17105048Y-18206389D01*
X17102619Y-18205637D01*
X17100069Y-18205023D01*
X17097393Y-18204545D01*
X17094583Y-18204203D01*
X17091634Y-18203994D01*
X17088537Y-18203917D01*
X17085286Y-18203971D01*
X17081875Y-18204154D01*
X17078296Y-18204465D01*
X17078298Y-18204465D01*
X17068983Y-18205754D01*
X17058568Y-18207740D01*
X17046958Y-18210418D01*
X17034061Y-18213781D01*
X17019782Y-18217823D01*
X17004026Y-18222539D01*
X16967712Y-18233968D01*
X16922712Y-18248636D01*
X16877485Y-18261734D01*
X16832134Y-18273339D01*
X16786762Y-18283526D01*
X16741470Y-18292372D01*
X16696360Y-18299954D01*
X16607101Y-18311626D01*
X16519802Y-18319153D01*
X16435284Y-18323144D01*
X16354367Y-18324209D01*
X16277869Y-18322956D01*
X16206610Y-18319997D01*
X16141410Y-18315939D01*
X16032463Y-18306968D01*
X15957585Y-18300920D01*
X15934971Y-18300516D01*
X15927728Y-18301235D01*
X15923332Y-18302671D01*
X15920201Y-18306575D01*
X15678362Y-18306575D01*
X15500646Y-18153739D01*
X15319832Y-17967130D01*
X15153829Y-17760877D01*
X15004120Y-17534982D01*
X14872185Y-17289443D01*
X14759505Y-17024260D01*
X14667562Y-16739434D01*
X14597837Y-16434965D01*
X14586276Y-16373085D01*
X14581236Y-16347357D01*
X14576534Y-16324629D01*
X14572052Y-16304545D01*
X14567674Y-16286750D01*
X14563281Y-16270888D01*
X14558758Y-16256604D01*
X14553986Y-16243541D01*
X14548849Y-16231344D01*
X14543229Y-16219657D01*
X14537009Y-16208124D01*
X14530072Y-16196390D01*
X14522301Y-16184099D01*
X14503787Y-16156423D01*
X14495290Y-16143840D01*
X14487675Y-16132315D01*
X14480905Y-16121762D01*
X14474946Y-16112094D01*
X14469761Y-16103224D01*
X14465316Y-16095064D01*
X14461573Y-16087529D01*
X14459844Y-16083593D01*
X14567469Y-16083593D01*
X14567492Y-16085904D01*
X14567731Y-16088248D01*
X14568189Y-16090634D01*
X14568867Y-16093071D01*
X14569767Y-16095568D01*
X14570891Y-16098133D01*
X14572242Y-16100776D01*
X14573820Y-16103505D01*
X14575629Y-16106329D01*
X14577669Y-16109256D01*
X14582454Y-16115457D01*
X14588191Y-16122179D01*
X14594894Y-16129492D01*
X14602581Y-16137465D01*
X14611266Y-16146170D01*
X14620508Y-16162861D01*
X14630243Y-16194045D01*
X14653505Y-16295601D01*
X14685676Y-16442258D01*
X14731379Y-16625435D01*
X14760749Y-16728039D01*
X14795237Y-16836555D01*
X14835420Y-16949912D01*
X14881875Y-17067037D01*
X14935181Y-17186858D01*
X14995915Y-17308302D01*
X15064657Y-17430297D01*
X15141983Y-17551771D01*
X15150118Y-17563516D01*
X15158866Y-17575439D01*
X15168098Y-17587410D01*
X15177686Y-17599300D01*
X15187502Y-17610979D01*
X15197416Y-17622320D01*
X15207302Y-17633193D01*
X15217029Y-17643469D01*
X15226471Y-17653019D01*
X15235497Y-17661715D01*
X15243981Y-17669426D01*
X15251793Y-17676024D01*
X15258805Y-17681381D01*
X15264889Y-17685367D01*
X15267542Y-17686806D01*
X15269916Y-17687853D01*
X15271993Y-17688494D01*
X15273757Y-17688711D01*
X15274092Y-17688471D01*
X15274224Y-17687773D01*
X15273930Y-17685122D01*
X15272975Y-17681001D01*
X15271461Y-17675653D01*
X15267157Y-17662255D01*
X15261825Y-17646875D01*
X15246368Y-17604513D01*
X15213786Y-17503067D01*
X15188873Y-17403556D01*
X15171258Y-17305696D01*
X15160574Y-17209205D01*
X15156451Y-17113800D01*
X15158521Y-17019198D01*
X15166413Y-16925118D01*
X15179760Y-16831277D01*
X15198192Y-16737393D01*
X15221340Y-16643182D01*
X15248835Y-16548363D01*
X15280308Y-16452652D01*
X15315391Y-16355768D01*
X15353714Y-16257428D01*
X15438604Y-16055250D01*
X15438879Y-16053195D01*
X15437923Y-16051229D01*
X15432473Y-16047560D01*
X15422563Y-16044232D01*
X15408500Y-16041238D01*
X15369155Y-16036211D01*
X15316907Y-16032402D01*
X15254227Y-16029737D01*
X15183585Y-16028140D01*
X15107450Y-16027537D01*
X15028293Y-16027853D01*
X15028289Y-16027876D01*
X14948591Y-16029053D01*
X14870831Y-16031031D01*
X14797480Y-16033731D01*
X14731011Y-16037074D01*
X14673892Y-16040979D01*
X14628596Y-16045367D01*
X14611154Y-16047717D01*
X14597594Y-16050158D01*
X14588225Y-16052680D01*
X14585208Y-16053968D01*
X14583356Y-16055273D01*
X14578707Y-16060392D01*
X14574839Y-16065257D01*
X14573201Y-16067617D01*
X14571765Y-16069939D01*
X14570531Y-16072234D01*
X14569501Y-16074510D01*
X14568678Y-16076774D01*
X14568064Y-16079037D01*
X14567660Y-16081307D01*
X14567469Y-16083593D01*
X14459844Y-16083593D01*
X14458498Y-16080530D01*
X14457200Y-16077205D01*
X14456055Y-16073981D01*
X14455060Y-16070849D01*
X14454209Y-16067796D01*
X14453498Y-16064812D01*
X14452923Y-16061886D01*
X14452479Y-16059007D01*
X14452162Y-16056165D01*
X14451967Y-16053348D01*
X14451891Y-16050546D01*
X14451927Y-16047747D01*
X14452073Y-16044941D01*
X14452674Y-16039265D01*
X14453657Y-16033430D01*
X14459469Y-16021684D01*
X14471673Y-16010896D01*
X14489825Y-16001040D01*
X14513481Y-15992090D01*
X14575529Y-15976801D01*
X14654265Y-15964818D01*
X14746136Y-15955930D01*
X14847589Y-15949924D01*
X14955071Y-15946590D01*
X15065031Y-15945716D01*
X15278173Y-15950503D01*
X15374250Y-15955742D01*
X15458594Y-15962595D01*
X15527653Y-15970852D01*
X15577874Y-15980300D01*
X15605704Y-15990730D01*
X15610113Y-15996246D01*
X15607592Y-16001928D01*
X15590868Y-16023143D01*
X15566380Y-16062626D01*
X15500996Y-16189517D01*
X15463541Y-16273484D01*
X15425206Y-16368840D01*
X15387710Y-16473863D01*
X15352775Y-16586835D01*
X15322120Y-16706033D01*
X15297468Y-16829740D01*
X15280538Y-16956234D01*
X15273051Y-17083795D01*
X15273386Y-17147438D01*
X15276727Y-17210703D01*
X15283290Y-17273375D01*
X15293289Y-17335238D01*
X15306939Y-17396079D01*
X15324455Y-17455681D01*
X15346053Y-17513830D01*
X15371947Y-17570310D01*
X15418606Y-17655590D01*
X15469278Y-17733183D01*
X15523648Y-17803357D01*
X15581404Y-17866381D01*
X15642232Y-17922521D01*
X15705818Y-17972047D01*
X15771849Y-18015226D01*
X15840012Y-18052326D01*
X15909993Y-18083616D01*
X15981479Y-18109362D01*
X16054157Y-18129833D01*
X16127712Y-18145297D01*
X16201832Y-18156022D01*
X16276203Y-18162276D01*
X16350512Y-18164327D01*
X16424444Y-18162443D01*
X16497688Y-18156891D01*
X16569929Y-18147940D01*
X16640854Y-18135858D01*
X16710150Y-18120913D01*
X16758258Y-18107325D01*
X17240758Y-18107325D01*
X17240927Y-18112348D01*
X17241280Y-18117560D01*
X17242466Y-18128677D01*
X17244178Y-18140928D01*
X17248761Y-18173307D01*
X17251122Y-18186183D01*
X17254256Y-18197072D01*
X17258706Y-18206138D01*
X17261594Y-18210039D01*
X17265016Y-18213547D01*
X17269038Y-18216682D01*
X17273730Y-18219465D01*
X17285392Y-18224057D01*
X17300547Y-18227488D01*
X17319737Y-18229926D01*
X17343508Y-18231534D01*
X17372403Y-18232478D01*
X17447740Y-18233038D01*
X17550101Y-18232931D01*
X17652452Y-18233038D01*
X17693224Y-18232924D01*
X17727785Y-18232477D01*
X17756679Y-18231532D01*
X17769171Y-18230821D01*
X17780450Y-18229924D01*
X17790584Y-18228819D01*
X17799641Y-18227486D01*
X17807690Y-18225905D01*
X17814798Y-18224054D01*
X17821032Y-18221913D01*
X17826462Y-18219461D01*
X17831155Y-18216678D01*
X17835179Y-18213543D01*
X17838602Y-18210036D01*
X17841491Y-18206134D01*
X17843916Y-18201819D01*
X17845944Y-18197068D01*
X17847642Y-18191862D01*
X17849080Y-18186180D01*
X17850324Y-18180001D01*
X17851443Y-18173304D01*
X17856027Y-18140928D01*
X17857738Y-18128678D01*
X17858926Y-18117561D01*
X17859449Y-18107328D01*
X17859170Y-18097729D01*
X17857947Y-18088513D01*
X17856938Y-18083970D01*
X17855642Y-18079430D01*
X17854039Y-18074861D01*
X17852114Y-18070231D01*
X17849848Y-18065510D01*
X17847225Y-18060666D01*
X17840834Y-18050483D01*
X17832803Y-18039434D01*
X17822991Y-18027269D01*
X17811259Y-18013736D01*
X17797467Y-17998587D01*
X17781476Y-17981571D01*
X17742337Y-17940938D01*
X17733399Y-17931524D01*
X17724228Y-17921495D01*
X17705456Y-17899977D01*
X17686557Y-17877155D01*
X17668071Y-17853798D01*
X17650535Y-17830676D01*
X17634488Y-17808556D01*
X17620467Y-17788210D01*
X17609012Y-17770406D01*
X17609014Y-17770406D01*
X17589952Y-17737764D01*
X17581919Y-17724876D01*
X17574671Y-17714289D01*
X17571291Y-17709862D01*
X17568048Y-17706014D01*
X17564921Y-17702746D01*
X17561890Y-17700061D01*
X17558935Y-17697958D01*
X17556037Y-17696439D01*
X17553174Y-17695505D01*
X17550328Y-17695158D01*
X17547478Y-17695399D01*
X17544605Y-17696230D01*
X17541687Y-17697650D01*
X17538706Y-17699662D01*
X17535641Y-17702267D01*
X17532472Y-17705466D01*
X17529180Y-17709261D01*
X17525743Y-17713652D01*
X17518359Y-17724228D01*
X17510159Y-17737206D01*
X17500984Y-17752596D01*
X17490674Y-17770406D01*
X17479241Y-17788204D01*
X17465278Y-17808547D01*
X17449313Y-17830665D01*
X17431872Y-17853790D01*
X17413480Y-17877149D01*
X17394664Y-17899974D01*
X17375950Y-17921494D01*
X17366797Y-17931524D01*
X17357865Y-17940938D01*
X17318741Y-17981562D01*
X17302754Y-17998576D01*
X17288964Y-18013723D01*
X17277233Y-18027255D01*
X17272096Y-18033493D01*
X17267421Y-18039421D01*
X17263191Y-18045070D01*
X17259388Y-18050471D01*
X17255996Y-18055655D01*
X17252996Y-18060654D01*
X17250371Y-18065499D01*
X17248104Y-18070221D01*
X17246178Y-18074852D01*
X17244574Y-18079422D01*
X17243276Y-18083963D01*
X17242266Y-18088506D01*
X17241527Y-18093083D01*
X17241041Y-18097724D01*
X17240790Y-18102461D01*
X17240758Y-18107325D01*
X16758258Y-18107325D01*
X16842599Y-18083504D01*
X16964769Y-18037858D01*
X17074153Y-17986117D01*
X17168243Y-17930427D01*
X17208769Y-17901770D01*
X17244531Y-17872930D01*
X17275217Y-17844174D01*
X17300512Y-17815771D01*
X17323404Y-17786443D01*
X17348417Y-17752834D01*
X17374191Y-17716317D01*
X17399367Y-17678270D01*
X17411306Y-17659101D01*
X17422586Y-17640066D01*
X17433037Y-17621336D01*
X17442488Y-17603082D01*
X17450771Y-17585477D01*
X17457716Y-17568693D01*
X17463151Y-17552901D01*
X17466909Y-17538274D01*
X17480990Y-17465713D01*
X17487115Y-17429455D01*
X17492322Y-17393290D01*
X17496382Y-17357275D01*
X17499067Y-17321467D01*
X17500145Y-17285923D01*
X17499389Y-17250701D01*
X17496567Y-17215859D01*
X17491452Y-17181453D01*
X17483813Y-17147541D01*
X17478975Y-17130788D01*
X17473420Y-17114180D01*
X17467120Y-17097725D01*
X17460045Y-17081429D01*
X17452167Y-17065299D01*
X17443458Y-17049344D01*
X17433888Y-17033569D01*
X17423428Y-17017982D01*
X17412051Y-17002590D01*
X17399728Y-16987401D01*
X17382123Y-16967156D01*
X17366897Y-16948003D01*
X17353933Y-16929896D01*
X17343110Y-16912788D01*
X17334309Y-16896634D01*
X17327411Y-16881389D01*
X17322295Y-16867006D01*
X17318844Y-16853439D01*
X17316936Y-16840643D01*
X17316453Y-16828572D01*
X17317276Y-16817180D01*
X17319284Y-16806421D01*
X17322358Y-16796249D01*
X17326380Y-16786619D01*
X17331229Y-16777484D01*
X17336786Y-16768798D01*
X17342932Y-16760517D01*
X17349547Y-16752593D01*
X17363706Y-16737637D01*
X17392399Y-16710001D01*
X17405022Y-16696589D01*
X17410484Y-16689823D01*
X17415221Y-16682957D01*
X17419113Y-16675945D01*
X17422042Y-16668740D01*
X17423886Y-16661297D01*
X17424527Y-16653570D01*
X17424184Y-16651875D01*
X17423228Y-16649086D01*
X17419599Y-16640503D01*
X17413882Y-16628379D01*
X17406321Y-16613274D01*
X17397161Y-16595745D01*
X17386644Y-16576351D01*
X17375015Y-16555650D01*
X17362517Y-16534200D01*
X17334831Y-16476622D01*
X17308771Y-16418712D01*
X17284295Y-16360459D01*
X17261358Y-16301852D01*
X17239920Y-16242883D01*
X17219936Y-16183540D01*
X17201364Y-16123813D01*
X17184162Y-16063693D01*
X17168286Y-16003168D01*
X17153693Y-15942230D01*
X17128188Y-15819069D01*
X17107304Y-15694129D01*
X17090699Y-15567327D01*
X17067377Y-15435602D01*
X17035737Y-15280750D01*
X16998195Y-15112566D01*
X16957166Y-14940844D01*
X16915065Y-14775375D01*
X16874307Y-14625954D01*
X16837306Y-14502373D01*
X16806479Y-14414427D01*
X16784666Y-14362367D01*
X16762291Y-14313239D01*
X16739244Y-14266915D01*
X16715416Y-14223269D01*
X16690699Y-14182173D01*
X16664984Y-14143499D01*
X16638161Y-14107121D01*
X16610123Y-14072910D01*
X16580760Y-14040741D01*
X16549964Y-14010485D01*
X16517625Y-13982016D01*
X16483635Y-13955205D01*
X16447885Y-13929926D01*
X16410267Y-13906051D01*
X16370671Y-13883453D01*
X16328988Y-13862005D01*
X16281921Y-13839679D01*
X16214084Y-13809659D01*
X16174987Y-13793551D01*
X16133830Y-13777662D01*
X16091656Y-13762709D01*
X16049509Y-13749405D01*
X16008433Y-13738465D01*
X15969473Y-13730604D01*
X15951112Y-13728052D01*
X15933671Y-13726537D01*
X15917281Y-13726148D01*
X15902072Y-13726977D01*
X15888174Y-13729110D01*
X15875719Y-13732639D01*
X15864836Y-13737652D01*
X15855657Y-13744239D01*
X15848311Y-13752488D01*
X15842929Y-13762490D01*
X15839642Y-13774333D01*
X15838580Y-13788107D01*
X15840457Y-13803946D01*
X15845665Y-13831701D01*
X15864270Y-13915925D01*
X15921613Y-14149996D01*
X15981751Y-14377790D01*
X16003851Y-14454167D01*
X16011331Y-14476822D01*
X16015829Y-14486776D01*
X16018757Y-14489227D01*
X16022089Y-14490869D01*
X16025793Y-14491738D01*
X16029836Y-14491870D01*
X16034187Y-14491302D01*
X16038811Y-14490070D01*
X16043677Y-14488211D01*
X16048751Y-14485761D01*
X16054002Y-14482756D01*
X16059395Y-14479233D01*
X16070482Y-14470777D01*
X16081749Y-14460684D01*
X16092935Y-14449244D01*
X16103779Y-14436748D01*
X16114018Y-14423487D01*
X16123392Y-14409753D01*
X16131639Y-14395835D01*
X16138496Y-14382024D01*
X16141323Y-14375250D01*
X16143704Y-14368612D01*
X16145607Y-14362146D01*
X16146999Y-14355888D01*
X16147848Y-14349876D01*
X16148120Y-14344145D01*
X16147798Y-14333409D01*
X16146964Y-14322081D01*
X16143959Y-14297903D01*
X16139506Y-14272130D01*
X16134007Y-14245279D01*
X16109583Y-14137447D01*
X16104878Y-14112969D01*
X16101537Y-14090518D01*
X16099961Y-14070612D01*
X16099961Y-14061775D01*
X16100552Y-14053768D01*
X16101786Y-14046656D01*
X16103712Y-14040504D01*
X16106381Y-14035376D01*
X16109842Y-14031337D01*
X16114147Y-14028452D01*
X16119345Y-14026785D01*
X16125486Y-14026401D01*
X16132620Y-14027365D01*
X16144825Y-14030268D01*
X16157247Y-14033745D01*
X16169847Y-14037760D01*
X16182585Y-14042277D01*
X16195423Y-14047262D01*
X16208320Y-14052679D01*
X16234138Y-14064668D01*
X16259724Y-14077960D01*
X16284764Y-14092275D01*
X16308943Y-14107328D01*
X16331948Y-14122837D01*
X16353463Y-14138520D01*
X16373174Y-14154094D01*
X16390768Y-14169277D01*
X16405929Y-14183785D01*
X16412499Y-14190698D01*
X16418343Y-14197336D01*
X16423421Y-14203664D01*
X16427696Y-14209648D01*
X16431126Y-14215250D01*
X16433673Y-14220437D01*
X16435297Y-14225173D01*
X16435960Y-14229422D01*
X16435426Y-14234068D01*
X16433538Y-14239982D01*
X16425988Y-14255374D01*
X16413876Y-14275125D01*
X16397769Y-14298760D01*
X16355835Y-14355793D01*
X16304716Y-14422686D01*
X16248945Y-14495651D01*
X16193052Y-14570901D01*
X16166477Y-14608200D01*
X16141570Y-14644650D01*
X16118899Y-14679778D01*
X16099030Y-14713110D01*
X16051963Y-14811134D01*
X16009011Y-14909017D01*
X15969926Y-15005968D01*
X15934459Y-15101196D01*
X15902362Y-15193909D01*
X15873385Y-15283317D01*
X15823801Y-15449052D01*
X15751152Y-15706052D01*
X15737064Y-15750173D01*
X15724109Y-15784660D01*
X15712039Y-15808723D01*
X15706258Y-15816597D01*
X15700605Y-15821569D01*
X15676621Y-15828935D01*
X15629362Y-15836797D01*
X15478779Y-15852272D01*
X15276371Y-15864515D01*
X15049656Y-15870047D01*
X14935782Y-15869208D01*
X14826149Y-15865387D01*
X14724197Y-15858148D01*
X14633365Y-15847057D01*
X14557094Y-15831678D01*
X14525493Y-15822245D01*
X14498822Y-15811577D01*
X14477511Y-15799620D01*
X14461989Y-15786319D01*
X14452687Y-15771620D01*
X14450035Y-15755468D01*
X14450035Y-15754957D01*
X14451142Y-15739217D01*
X14452838Y-15724837D01*
X14453018Y-15723789D01*
X14568521Y-15723789D01*
X14569349Y-15726572D01*
X14571112Y-15729158D01*
X14573867Y-15731539D01*
X14577675Y-15733709D01*
X14593233Y-15739785D01*
X14612662Y-15745151D01*
X14662013Y-15753880D01*
X14723484Y-15760144D01*
X14794831Y-15764193D01*
X14873810Y-15766277D01*
X14958177Y-15766644D01*
X15134097Y-15763224D01*
X15304641Y-15755927D01*
X15451855Y-15746747D01*
X15557787Y-15737677D01*
X15604485Y-15730711D01*
X15611030Y-15723063D01*
X15619448Y-15706009D01*
X15641158Y-15647531D01*
X15668127Y-15562968D01*
X15698867Y-15460012D01*
X15765714Y-15229687D01*
X15798844Y-15117701D01*
X15829795Y-15018087D01*
X15838124Y-14979441D01*
X15844789Y-14939530D01*
X15853448Y-14856436D01*
X15856421Y-14769845D01*
X15854354Y-14680798D01*
X15847895Y-14590337D01*
X15837693Y-14499502D01*
X15824393Y-14409333D01*
X15808645Y-14320872D01*
X15791094Y-14235160D01*
X15772389Y-14153237D01*
X15734107Y-14004922D01*
X15698978Y-13884254D01*
X15672182Y-13799559D01*
X15672182Y-13799460D01*
X15575419Y-13887784D01*
X15483510Y-13979978D01*
X15396417Y-14075890D01*
X15314105Y-14175370D01*
X15236538Y-14278264D01*
X15163679Y-14384422D01*
X15095494Y-14493691D01*
X15031946Y-14605921D01*
X14973000Y-14720959D01*
X14918619Y-14838654D01*
X14868767Y-14958854D01*
X14823409Y-15081407D01*
X14782509Y-15206163D01*
X14746030Y-15332968D01*
X14713938Y-15461672D01*
X14686195Y-15592123D01*
X14684715Y-15597788D01*
X14682523Y-15603439D01*
X14679680Y-15609069D01*
X14676242Y-15614670D01*
X14672271Y-15620238D01*
X14667823Y-15625764D01*
X14662958Y-15631244D01*
X14657735Y-15636669D01*
X14646448Y-15647332D01*
X14634433Y-15657701D01*
X14610099Y-15677347D01*
X14598721Y-15686520D01*
X14588495Y-15695189D01*
X14579892Y-15703303D01*
X14576346Y-15707136D01*
X14573382Y-15710810D01*
X14571059Y-15714318D01*
X14569435Y-15717656D01*
X14568570Y-15720815D01*
X14568521Y-15723789D01*
X14453018Y-15723789D01*
X14455089Y-15711707D01*
X14457861Y-15699715D01*
X14461122Y-15688750D01*
X14464838Y-15678701D01*
X14468975Y-15669456D01*
X14473500Y-15660904D01*
X14483582Y-15645434D01*
X14494816Y-15631399D01*
X14519672Y-15604075D01*
X14532760Y-15589005D01*
X14545932Y-15571808D01*
X14558922Y-15551594D01*
X14565264Y-15540077D01*
X14571461Y-15527473D01*
X14577479Y-15513668D01*
X14583284Y-15498553D01*
X14588843Y-15482015D01*
X14594123Y-15463944D01*
X14599090Y-15444228D01*
X14603711Y-15422756D01*
X14607953Y-15399416D01*
X14611782Y-15374098D01*
X14637560Y-15257955D01*
X14665815Y-15145952D01*
X14696690Y-15037813D01*
X14730331Y-14933261D01*
X14766883Y-14832020D01*
X14806489Y-14733814D01*
X14849295Y-14638366D01*
X14895446Y-14545402D01*
X14945087Y-14454643D01*
X14998361Y-14365815D01*
X15055415Y-14278640D01*
X15116392Y-14192843D01*
X15181437Y-14108148D01*
X15250696Y-14024278D01*
X15324313Y-13940957D01*
X15402432Y-13857908D01*
X15484702Y-13775776D01*
X15567373Y-13698752D01*
X15650306Y-13626672D01*
X15715007Y-13574248D01*
X15985342Y-13574248D01*
X15995763Y-13583216D01*
X16012954Y-13592066D01*
X16036314Y-13601037D01*
X16065241Y-13610368D01*
X16224592Y-13656061D01*
X16322034Y-13687272D01*
X16373091Y-13705804D01*
X16424903Y-13726606D01*
X16476870Y-13749915D01*
X16528389Y-13775971D01*
X16578860Y-13805013D01*
X16627680Y-13837279D01*
X16649734Y-13852753D01*
X16669652Y-13866187D01*
X16687793Y-13877595D01*
X16704515Y-13886995D01*
X16712456Y-13890947D01*
X16720177Y-13894404D01*
X16727721Y-13897366D01*
X16735135Y-13899837D01*
X16742462Y-13901818D01*
X16749748Y-13903312D01*
X16757037Y-13904320D01*
X16764374Y-13904844D01*
X16771804Y-13904888D01*
X16779371Y-13904452D01*
X16787121Y-13903538D01*
X16795097Y-13902150D01*
X16803346Y-13900288D01*
X16811911Y-13897956D01*
X16830170Y-13891886D01*
X16850232Y-13883957D01*
X16872456Y-13874185D01*
X16897199Y-13862588D01*
X16924819Y-13849180D01*
X16924819Y-13849699D01*
X16986613Y-13822475D01*
X17054955Y-13798879D01*
X17128908Y-13778914D01*
X17207538Y-13762578D01*
X17289908Y-13749872D01*
X17375085Y-13740796D01*
X17462132Y-13735349D01*
X17550113Y-13733533D01*
X17638095Y-13735347D01*
X17725141Y-13740792D01*
X17810316Y-13749866D01*
X17892685Y-13762571D01*
X17971312Y-13778907D01*
X18045262Y-13798874D01*
X18113599Y-13822471D01*
X18175389Y-13849699D01*
X18175389Y-13849180D01*
X18203010Y-13862588D01*
X18227753Y-13874185D01*
X18249976Y-13883956D01*
X18270038Y-13891885D01*
X18279371Y-13895153D01*
X18288297Y-13897954D01*
X18296862Y-13900287D01*
X18305111Y-13902148D01*
X18313088Y-13903536D01*
X18320837Y-13904449D01*
X18328405Y-13904885D01*
X18335834Y-13904842D01*
X18343171Y-13904317D01*
X18350460Y-13903309D01*
X18357746Y-13901815D01*
X18365073Y-13899834D01*
X18372487Y-13897363D01*
X18380031Y-13894400D01*
X18387752Y-13890944D01*
X18395692Y-13886992D01*
X18403898Y-13882542D01*
X18412414Y-13877592D01*
X18430556Y-13866184D01*
X18450474Y-13852752D01*
X18472527Y-13837279D01*
X18496694Y-13820726D01*
X18521348Y-13805009D01*
X18546415Y-13790099D01*
X18571819Y-13775966D01*
X18623338Y-13749909D01*
X18675305Y-13726600D01*
X18727118Y-13705800D01*
X18778176Y-13687270D01*
X18827876Y-13670771D01*
X18875617Y-13656064D01*
X19034969Y-13610378D01*
X19063896Y-13601047D01*
X19087255Y-13592074D01*
X19104445Y-13583221D01*
X19110539Y-13578764D01*
X19114865Y-13574248D01*
X19044788Y-13514349D01*
X18969346Y-13458315D01*
X18888896Y-13406145D01*
X18803796Y-13357839D01*
X18714404Y-13313399D01*
X18621077Y-13272822D01*
X18424051Y-13203263D01*
X18215578Y-13149161D01*
X17998521Y-13110517D01*
X17775742Y-13087331D01*
X17550100Y-13079603D01*
X17324459Y-13087332D01*
X17101679Y-13110519D01*
X16884623Y-13149163D01*
X16676151Y-13203265D01*
X16479126Y-13272824D01*
X16385800Y-13313401D01*
X16296408Y-13357841D01*
X16211309Y-13406146D01*
X16130860Y-13458316D01*
X16055418Y-13514350D01*
X15985342Y-13574248D01*
X15715007Y-13574248D01*
X15733363Y-13559374D01*
X15816407Y-13496692D01*
X15899300Y-13438464D01*
X15981905Y-13384523D01*
X16064083Y-13334708D01*
X16145696Y-13288853D01*
X16226607Y-13246794D01*
X16306678Y-13208368D01*
X16385772Y-13173411D01*
X16540474Y-13113245D01*
X16689612Y-13064984D01*
X16832082Y-13027316D01*
X16966783Y-12998928D01*
X17092613Y-12978508D01*
X17208469Y-12964744D01*
X17313248Y-12956323D01*
X17405848Y-12951933D01*
X17550103Y-12949995D01*
X17695626Y-12952020D01*
G37*
G04 #@! TD.AperFunction*
D11*
X16150000Y-27420000D03*
D12*
X16150000Y-32500000D03*
X16150000Y-37580000D03*
D13*
X46200000Y-22420000D03*
D14*
X46200000Y-19880000D03*
X46200000Y-17340000D03*
X46200000Y-14800000D03*
D11*
X47100000Y-33880000D03*
D12*
X47100000Y-28800000D03*
D15*
X39987034Y-41013807D03*
X39987034Y-38473807D03*
X39987034Y-35933807D03*
X39987034Y-33393807D03*
X39987034Y-28313807D03*
X39987034Y-30853807D03*
X23470000Y-23220000D03*
X39987034Y-23233807D03*
X23470000Y-25760000D03*
X23470000Y-28300000D03*
X23470000Y-30840000D03*
X23470000Y-33380000D03*
X23470000Y-35920000D03*
X23470000Y-38460000D03*
X23470000Y-41000000D03*
X39987034Y-25773807D03*
D16*
X37600000Y-17300000D03*
X37600000Y-16000000D03*
X37600000Y-14700000D03*
X25600000Y-14700000D03*
X25600000Y-16000000D03*
X25600000Y-17300000D03*
D17*
X33250000Y-23250000D03*
X31200000Y-39800000D03*
X35500000Y-41050000D03*
X37700000Y-38500000D03*
X27500000Y-30750000D03*
X34400000Y-38500000D03*
X37700000Y-41050000D03*
X29000000Y-38500000D03*
X30100000Y-39800000D03*
X35500000Y-38500000D03*
X30100000Y-38500000D03*
X29650000Y-29500000D03*
X36600000Y-38500000D03*
X29650000Y-30750000D03*
X36600000Y-37300000D03*
X31200000Y-41050000D03*
X35500000Y-36200000D03*
X26450000Y-30750000D03*
X34400000Y-37300000D03*
X36600000Y-39800000D03*
X36100000Y-28450000D03*
X31800000Y-28400000D03*
X30700000Y-30750000D03*
X30400000Y-23800000D03*
X35000000Y-32900000D03*
X32300000Y-39800000D03*
X27500000Y-29500000D03*
X31200000Y-38500000D03*
X33350000Y-39800000D03*
X30150000Y-41050000D03*
X33350000Y-41050000D03*
X37700000Y-37300000D03*
X30700000Y-29500000D03*
X31800000Y-29500000D03*
X26400000Y-32200000D03*
X33350000Y-38500000D03*
X31800000Y-27350000D03*
X27900000Y-38500000D03*
X35500000Y-39800000D03*
X26400000Y-29500000D03*
X34400000Y-35100000D03*
X34400000Y-36200000D03*
X34400000Y-41050000D03*
X37700000Y-39800000D03*
X32300000Y-35500000D03*
X33000000Y-28400000D03*
X31800000Y-30750000D03*
X33300000Y-35100000D03*
X35500000Y-37300000D03*
X37500000Y-24200000D03*
X33900000Y-34000000D03*
X35500000Y-35100000D03*
X26350000Y-28100000D03*
X37850000Y-20900000D03*
X36600000Y-41050000D03*
X34400000Y-39800000D03*
X32300000Y-38500000D03*
X35000000Y-34000000D03*
X28600000Y-30750000D03*
X32300000Y-41050000D03*
X28600000Y-29500000D03*
X36250000Y-25000000D03*
X26775000Y-38250000D03*
X22275000Y-17475000D03*
X42800000Y-27000000D03*
X28509630Y-17197110D03*
X23470000Y-23220000D03*
D18*
X33266193Y-23233807D02*
X39987034Y-23233807D01*
X33250000Y-23250000D02*
X33266193Y-23233807D01*
X37600000Y-16000000D02*
X39250000Y-16000000D01*
X39250000Y-16000000D02*
X39987034Y-16737034D01*
X39987034Y-16737034D02*
X39987034Y-23233807D01*
X38273807Y-25773807D02*
X39987034Y-25773807D01*
X39987034Y-25773807D02*
X42226193Y-25773807D01*
D19*
X39987034Y-25773807D02*
X41326193Y-25773807D01*
D18*
X38273807Y-25773807D02*
X37600000Y-25100000D01*
X36200000Y-25800000D02*
X38713807Y-28313807D01*
X36200000Y-25050000D02*
X36200000Y-25800000D01*
X38713807Y-28313807D02*
X39987034Y-28313807D01*
X36250000Y-25000000D02*
X36200000Y-25050000D01*
X41950000Y-14700000D02*
X43515000Y-16265000D01*
X43515000Y-16265000D02*
X43515000Y-19735000D01*
X25600000Y-14700000D02*
X37600000Y-14700000D01*
D20*
X46200000Y-22420000D02*
X47000000Y-23220000D01*
D18*
X37600000Y-14700000D02*
X41950000Y-14700000D01*
X43515000Y-19735000D02*
X46200000Y-22420000D01*
D20*
X47000000Y-28700000D02*
X47100000Y-28800000D01*
X47000000Y-23220000D02*
X47000000Y-28700000D01*
D18*
X32250000Y-24300000D02*
X32250000Y-20000000D01*
X31912500Y-33087500D02*
X34300000Y-30700000D01*
X34300000Y-26350000D02*
X32250000Y-24300000D01*
X26775000Y-38250000D02*
X31912500Y-33112500D01*
X31912500Y-33112500D02*
X31912500Y-33087500D01*
X34300000Y-30700000D02*
X34300000Y-26350000D01*
X32250000Y-20000000D02*
X34950000Y-17300000D01*
X34950000Y-17300000D02*
X37600000Y-17300000D01*
X25600000Y-16000000D02*
X23750000Y-16000000D01*
X23750000Y-16000000D02*
X22275000Y-17475000D01*
D19*
X42800000Y-29100000D02*
X41046193Y-30853807D01*
X42800000Y-27000000D02*
X42800000Y-29100000D01*
X41046193Y-30853807D02*
X39987034Y-30853807D01*
D18*
X25609630Y-17247110D02*
X28459630Y-17247110D01*
X28459630Y-17247110D02*
X28509630Y-17197110D01*
G04 #@! TA.AperFunction,Conductor*
G36*
X48601509Y-12100037D02*
G01*
X48607232Y-12100177D01*
X48687583Y-12102145D01*
X48708728Y-12104490D01*
X48879013Y-12138362D01*
X48902261Y-12145413D01*
X49061257Y-12211272D01*
X49082692Y-12222730D01*
X49225775Y-12318335D01*
X49244565Y-12333756D01*
X49366243Y-12455434D01*
X49381664Y-12474224D01*
X49477269Y-12617307D01*
X49488728Y-12638745D01*
X49554583Y-12797731D01*
X49561639Y-12820993D01*
X49595508Y-12991266D01*
X49597854Y-13012419D01*
X49599963Y-13098488D01*
X49600000Y-13101526D01*
X49600000Y-41098473D01*
X49599963Y-41101511D01*
X49597854Y-41187580D01*
X49595508Y-41208733D01*
X49561639Y-41379006D01*
X49554583Y-41402268D01*
X49488728Y-41561254D01*
X49477269Y-41582692D01*
X49381664Y-41725775D01*
X49366243Y-41744565D01*
X49244565Y-41866243D01*
X49225775Y-41881664D01*
X49082692Y-41977269D01*
X49061254Y-41988728D01*
X48902268Y-42054583D01*
X48879006Y-42061639D01*
X48708733Y-42095508D01*
X48687580Y-42097854D01*
X48604250Y-42099895D01*
X48601509Y-42099963D01*
X48598473Y-42100000D01*
X41981748Y-42100000D01*
X41914709Y-42080315D01*
X41868954Y-42027511D01*
X41859010Y-41958353D01*
X41871839Y-41918589D01*
X41899182Y-41866243D01*
X41924271Y-41818213D01*
X41977451Y-41632359D01*
X41987534Y-41518945D01*
X41987534Y-40508669D01*
X41977451Y-40395255D01*
X41924271Y-40209401D01*
X41834768Y-40038056D01*
X41773686Y-39963146D01*
X41712605Y-39888235D01*
X41653337Y-39839909D01*
X41613820Y-39782288D01*
X41611728Y-39712450D01*
X41647726Y-39652567D01*
X41653337Y-39647705D01*
X41712605Y-39599378D01*
X41740882Y-39564699D01*
X41834768Y-39449558D01*
X41924271Y-39278213D01*
X41977451Y-39092359D01*
X41987534Y-38978945D01*
X41987534Y-37968669D01*
X41977451Y-37855255D01*
X41924271Y-37669401D01*
X41834768Y-37498056D01*
X41749808Y-37393861D01*
X41712605Y-37348235D01*
X41653337Y-37299909D01*
X41613820Y-37242288D01*
X41611728Y-37172450D01*
X41647726Y-37112567D01*
X41653337Y-37107705D01*
X41712605Y-37059378D01*
X41723863Y-37045571D01*
X41834768Y-36909558D01*
X41924271Y-36738213D01*
X41977451Y-36552359D01*
X41987534Y-36438945D01*
X41987534Y-35428669D01*
X41987461Y-35427844D01*
X45100000Y-35427844D01*
X45106401Y-35487372D01*
X45106403Y-35487379D01*
X45156645Y-35622086D01*
X45156649Y-35622093D01*
X45242809Y-35737187D01*
X45242812Y-35737190D01*
X45357906Y-35823350D01*
X45357913Y-35823354D01*
X45492620Y-35873596D01*
X45492627Y-35873598D01*
X45552155Y-35879999D01*
X45552172Y-35880000D01*
X46850000Y-35880000D01*
X46850000Y-34599064D01*
X46878316Y-34610793D01*
X47025147Y-34640000D01*
X47174853Y-34640000D01*
X47321684Y-34610793D01*
X47350000Y-34599064D01*
X47350000Y-35880000D01*
X48647828Y-35880000D01*
X48647844Y-35879999D01*
X48707372Y-35873598D01*
X48707379Y-35873596D01*
X48842086Y-35823354D01*
X48842093Y-35823350D01*
X48957187Y-35737190D01*
X48957190Y-35737187D01*
X49043350Y-35622093D01*
X49043354Y-35622086D01*
X49093596Y-35487379D01*
X49093598Y-35487372D01*
X49099999Y-35427844D01*
X49100000Y-35427827D01*
X49100000Y-34130000D01*
X47819064Y-34130000D01*
X47830793Y-34101684D01*
X47860000Y-33954853D01*
X47860000Y-33805147D01*
X47830793Y-33658316D01*
X47819064Y-33630000D01*
X49100000Y-33630000D01*
X49100000Y-32332172D01*
X49099999Y-32332155D01*
X49093598Y-32272627D01*
X49093596Y-32272620D01*
X49043354Y-32137913D01*
X49043350Y-32137906D01*
X48957190Y-32022812D01*
X48957187Y-32022809D01*
X48842093Y-31936649D01*
X48842086Y-31936645D01*
X48707379Y-31886403D01*
X48707372Y-31886401D01*
X48647844Y-31880000D01*
X47350000Y-31880000D01*
X47350000Y-33160935D01*
X47321684Y-33149207D01*
X47174853Y-33120000D01*
X47025147Y-33120000D01*
X46878316Y-33149207D01*
X46850000Y-33160935D01*
X46850000Y-31880000D01*
X45552155Y-31880000D01*
X45492627Y-31886401D01*
X45492620Y-31886403D01*
X45357913Y-31936645D01*
X45357906Y-31936649D01*
X45242812Y-32022809D01*
X45242809Y-32022812D01*
X45156649Y-32137906D01*
X45156645Y-32137913D01*
X45106403Y-32272620D01*
X45106401Y-32272627D01*
X45100000Y-32332155D01*
X45100000Y-33630000D01*
X46380936Y-33630000D01*
X46369207Y-33658316D01*
X46340000Y-33805147D01*
X46340000Y-33954853D01*
X46369207Y-34101684D01*
X46380936Y-34130000D01*
X45100000Y-34130000D01*
X45100000Y-35427844D01*
X41987461Y-35427844D01*
X41977451Y-35315255D01*
X41924271Y-35129401D01*
X41834768Y-34958056D01*
X41773686Y-34883146D01*
X41712605Y-34808235D01*
X41653337Y-34759909D01*
X41613820Y-34702288D01*
X41611728Y-34632450D01*
X41647726Y-34572567D01*
X41653337Y-34567705D01*
X41712605Y-34519378D01*
X41740477Y-34485196D01*
X41834768Y-34369558D01*
X41924271Y-34198213D01*
X41977451Y-34012359D01*
X41987534Y-33898945D01*
X41987534Y-32888669D01*
X41977451Y-32775255D01*
X41924271Y-32589401D01*
X41834768Y-32418056D01*
X41764738Y-32332172D01*
X41712605Y-32268235D01*
X41653337Y-32219909D01*
X41613820Y-32162288D01*
X41611728Y-32092450D01*
X41647726Y-32032567D01*
X41653337Y-32027705D01*
X41712605Y-31979378D01*
X41747449Y-31936645D01*
X41834768Y-31829558D01*
X41924271Y-31658213D01*
X41977451Y-31472359D01*
X41987534Y-31358945D01*
X41987534Y-30848418D01*
X42007219Y-30781379D01*
X42023853Y-30760737D01*
X43285855Y-29498736D01*
X43285855Y-29498735D01*
X43285858Y-29498733D01*
X43354312Y-29396285D01*
X43381932Y-29329603D01*
X43401463Y-29282452D01*
X43405451Y-29262402D01*
X43425357Y-29162331D01*
X43425501Y-29161607D01*
X43425501Y-29033283D01*
X43425500Y-29033257D01*
X43425500Y-27698687D01*
X43445185Y-27631648D01*
X43457350Y-27615715D01*
X43475891Y-27595122D01*
X43532533Y-27532216D01*
X43627179Y-27368284D01*
X43685674Y-27188256D01*
X43705460Y-27000000D01*
X43685674Y-26811744D01*
X43627179Y-26631716D01*
X43532533Y-26467784D01*
X43405871Y-26327112D01*
X43405870Y-26327111D01*
X43252734Y-26215851D01*
X43252729Y-26215848D01*
X43079807Y-26138857D01*
X43079802Y-26138855D01*
X42934001Y-26107865D01*
X42894646Y-26099500D01*
X42705354Y-26099500D01*
X42672897Y-26106398D01*
X42520197Y-26138855D01*
X42520192Y-26138857D01*
X42347270Y-26215848D01*
X42347265Y-26215851D01*
X42194124Y-26327114D01*
X42193988Y-26327238D01*
X42193891Y-26327284D01*
X42188871Y-26330932D01*
X42188203Y-26330012D01*
X42130990Y-26357455D01*
X42061657Y-26348817D01*
X42008000Y-26304066D01*
X41987055Y-26237409D01*
X41987033Y-26235072D01*
X41987033Y-25268714D01*
X41987032Y-25268708D01*
X41976955Y-25155346D01*
X41923805Y-24969591D01*
X41834347Y-24798332D01*
X41712249Y-24648591D01*
X41652941Y-24600231D01*
X41613424Y-24542610D01*
X41611332Y-24472771D01*
X41647331Y-24412889D01*
X41652920Y-24408044D01*
X41712605Y-24359378D01*
X41834768Y-24209558D01*
X41924271Y-24038213D01*
X41977451Y-23852359D01*
X41987534Y-23738945D01*
X41987534Y-22728669D01*
X41977451Y-22615255D01*
X41924271Y-22429401D01*
X41834768Y-22258056D01*
X41719202Y-22116326D01*
X41712605Y-22108235D01*
X41620734Y-22033325D01*
X41562785Y-21986073D01*
X41536351Y-21972265D01*
X41391439Y-21896569D01*
X41236879Y-21852344D01*
X41205586Y-21843390D01*
X41205585Y-21843389D01*
X41205582Y-21843389D01*
X41116696Y-21835487D01*
X41092172Y-21833307D01*
X41092170Y-21833307D01*
X40936534Y-21833307D01*
X40869495Y-21813622D01*
X40823740Y-21760818D01*
X40812534Y-21709307D01*
X40812534Y-16655726D01*
X40780811Y-16496250D01*
X40780810Y-16496249D01*
X40780810Y-16496245D01*
X40718582Y-16346013D01*
X40711869Y-16335966D01*
X40699085Y-16316832D01*
X40699085Y-16316833D01*
X40628240Y-16210805D01*
X40628239Y-16210804D01*
X40154615Y-15737181D01*
X40121130Y-15675858D01*
X40126114Y-15606167D01*
X40167985Y-15550233D01*
X40233450Y-15525816D01*
X40242296Y-15525500D01*
X41556705Y-15525500D01*
X41623744Y-15545185D01*
X41644386Y-15561819D01*
X42653181Y-16570614D01*
X42686666Y-16631937D01*
X42689500Y-16658295D01*
X42689500Y-19653695D01*
X42689500Y-19816305D01*
X42689500Y-19816307D01*
X42689499Y-19816307D01*
X42721222Y-19975783D01*
X42721225Y-19975793D01*
X42783450Y-20126019D01*
X42783452Y-20126023D01*
X42873788Y-20261220D01*
X42873794Y-20261228D01*
X44684216Y-22071650D01*
X44717701Y-22132973D01*
X44719008Y-22178728D01*
X44699500Y-22301902D01*
X44699500Y-22538097D01*
X44736447Y-22771369D01*
X44736447Y-22771372D01*
X44809430Y-22995988D01*
X44809430Y-22995989D01*
X44835985Y-23048106D01*
X44849500Y-23104399D01*
X44849500Y-23317869D01*
X44849501Y-23317876D01*
X44855908Y-23377483D01*
X44906202Y-23512328D01*
X44906206Y-23512335D01*
X44992452Y-23627544D01*
X44992455Y-23627547D01*
X45107664Y-23713793D01*
X45107671Y-23713797D01*
X45242516Y-23764091D01*
X45268419Y-23766875D01*
X45302127Y-23770500D01*
X45375499Y-23770499D01*
X45442538Y-23790183D01*
X45488294Y-23842986D01*
X45499500Y-23894499D01*
X45499500Y-27558561D01*
X45479815Y-27625600D01*
X45474767Y-27632871D01*
X45412775Y-27715682D01*
X45412770Y-27715690D01*
X45275635Y-27966833D01*
X45175628Y-28234962D01*
X45114804Y-28514566D01*
X45094390Y-28799998D01*
X45094390Y-28800001D01*
X45114804Y-29085433D01*
X45175628Y-29365037D01*
X45175630Y-29365043D01*
X45175631Y-29365046D01*
X45225494Y-29498733D01*
X45275635Y-29633166D01*
X45412770Y-29884309D01*
X45412775Y-29884317D01*
X45584254Y-30113387D01*
X45584270Y-30113405D01*
X45786594Y-30315729D01*
X45786612Y-30315745D01*
X46015682Y-30487224D01*
X46015690Y-30487229D01*
X46266833Y-30624364D01*
X46266832Y-30624364D01*
X46266836Y-30624365D01*
X46266839Y-30624367D01*
X46534954Y-30724369D01*
X46534960Y-30724370D01*
X46534962Y-30724371D01*
X46814566Y-30785195D01*
X46814568Y-30785195D01*
X46814572Y-30785196D01*
X47068220Y-30803337D01*
X47099999Y-30805610D01*
X47100000Y-30805610D01*
X47100001Y-30805610D01*
X47128595Y-30803564D01*
X47385428Y-30785196D01*
X47403306Y-30781307D01*
X47665037Y-30724371D01*
X47665037Y-30724370D01*
X47665046Y-30724369D01*
X47933161Y-30624367D01*
X48184315Y-30487226D01*
X48413395Y-30315739D01*
X48615739Y-30113395D01*
X48787226Y-29884315D01*
X48924367Y-29633161D01*
X49024369Y-29365046D01*
X49068467Y-29162331D01*
X49085195Y-29085433D01*
X49085195Y-29085432D01*
X49085196Y-29085428D01*
X49105610Y-28800000D01*
X49085196Y-28514572D01*
X49024369Y-28234954D01*
X48924367Y-27966839D01*
X48837999Y-27808669D01*
X48787229Y-27715690D01*
X48787224Y-27715682D01*
X48615745Y-27486612D01*
X48615729Y-27486594D01*
X48536819Y-27407684D01*
X48503334Y-27346361D01*
X48500500Y-27320003D01*
X48500500Y-23101902D01*
X48463553Y-22868631D01*
X48390566Y-22644003D01*
X48283342Y-22433566D01*
X48280316Y-22429401D01*
X48144517Y-22242490D01*
X47977510Y-22075483D01*
X47586818Y-21684791D01*
X47553333Y-21623468D01*
X47550499Y-21597110D01*
X47550499Y-21522129D01*
X47550498Y-21522123D01*
X47544091Y-21462516D01*
X47493797Y-21327671D01*
X47493793Y-21327664D01*
X47407547Y-21212455D01*
X47407544Y-21212452D01*
X47292335Y-21126206D01*
X47292328Y-21126202D01*
X47160917Y-21077189D01*
X47104983Y-21035318D01*
X47080566Y-20969853D01*
X47095418Y-20901580D01*
X47116563Y-20873332D01*
X47238495Y-20751401D01*
X47374035Y-20557830D01*
X47473903Y-20343663D01*
X47535063Y-20115408D01*
X47555659Y-19880000D01*
X47535063Y-19644592D01*
X47473903Y-19416337D01*
X47374035Y-19202171D01*
X47355911Y-19176286D01*
X47238494Y-19008597D01*
X47071402Y-18841506D01*
X47071396Y-18841501D01*
X46885842Y-18711575D01*
X46842217Y-18656998D01*
X46835023Y-18587500D01*
X46866546Y-18525145D01*
X46885842Y-18508425D01*
X46908026Y-18492891D01*
X47071401Y-18378495D01*
X47238495Y-18211401D01*
X47374035Y-18017830D01*
X47473903Y-17803663D01*
X47535063Y-17575408D01*
X47555659Y-17340000D01*
X47535063Y-17104592D01*
X47473903Y-16876337D01*
X47374035Y-16662171D01*
X47371671Y-16658794D01*
X47238494Y-16468597D01*
X47071402Y-16301506D01*
X47071401Y-16301505D01*
X46885405Y-16171269D01*
X46841781Y-16116692D01*
X46834588Y-16047193D01*
X46866110Y-15984839D01*
X46885405Y-15968119D01*
X47071082Y-15838105D01*
X47238105Y-15671082D01*
X47373600Y-15477578D01*
X47473429Y-15263492D01*
X47473432Y-15263486D01*
X47530636Y-15050000D01*
X46633012Y-15050000D01*
X46665925Y-14992993D01*
X46700000Y-14865826D01*
X46700000Y-14734174D01*
X46665925Y-14607007D01*
X46633012Y-14550000D01*
X47530636Y-14550000D01*
X47530635Y-14549999D01*
X47473432Y-14336513D01*
X47473429Y-14336507D01*
X47373600Y-14122422D01*
X47373599Y-14122420D01*
X47238113Y-13928926D01*
X47238108Y-13928920D01*
X47071082Y-13761894D01*
X46877578Y-13626399D01*
X46663492Y-13526570D01*
X46663486Y-13526567D01*
X46450000Y-13469364D01*
X46450000Y-14366988D01*
X46392993Y-14334075D01*
X46265826Y-14300000D01*
X46134174Y-14300000D01*
X46007007Y-14334075D01*
X45950000Y-14366988D01*
X45950000Y-13469364D01*
X45949999Y-13469364D01*
X45736513Y-13526567D01*
X45736507Y-13526570D01*
X45522422Y-13626399D01*
X45522420Y-13626400D01*
X45328926Y-13761886D01*
X45328920Y-13761891D01*
X45161891Y-13928920D01*
X45161886Y-13928926D01*
X45026400Y-14122420D01*
X45026399Y-14122422D01*
X44926570Y-14336507D01*
X44926567Y-14336513D01*
X44869364Y-14549999D01*
X44869364Y-14550000D01*
X45766988Y-14550000D01*
X45734075Y-14607007D01*
X45700000Y-14734174D01*
X45700000Y-14865826D01*
X45734075Y-14992993D01*
X45766988Y-15050000D01*
X44869364Y-15050000D01*
X44926567Y-15263486D01*
X44926570Y-15263492D01*
X45026399Y-15477578D01*
X45161894Y-15671082D01*
X45328917Y-15838105D01*
X45514595Y-15968119D01*
X45558219Y-16022696D01*
X45565412Y-16092195D01*
X45533890Y-16154549D01*
X45514595Y-16171269D01*
X45328594Y-16301508D01*
X45161505Y-16468597D01*
X45025965Y-16662169D01*
X45025964Y-16662171D01*
X44926098Y-16876335D01*
X44926094Y-16876344D01*
X44864938Y-17104586D01*
X44864936Y-17104596D01*
X44844341Y-17339999D01*
X44844341Y-17340000D01*
X44864936Y-17575403D01*
X44864938Y-17575413D01*
X44926094Y-17803655D01*
X44926096Y-17803659D01*
X44926097Y-17803663D01*
X44957030Y-17869998D01*
X45025965Y-18017830D01*
X45025967Y-18017834D01*
X45161501Y-18211395D01*
X45161506Y-18211402D01*
X45328597Y-18378493D01*
X45328603Y-18378498D01*
X45514158Y-18508425D01*
X45557783Y-18563002D01*
X45564977Y-18632500D01*
X45533454Y-18694855D01*
X45514158Y-18711575D01*
X45328597Y-18841505D01*
X45161505Y-19008597D01*
X45025965Y-19202169D01*
X45025964Y-19202171D01*
X44926098Y-19416335D01*
X44926094Y-19416344D01*
X44863536Y-19649821D01*
X44861765Y-19649346D01*
X44834337Y-19704644D01*
X44774378Y-19740515D01*
X44704544Y-19738275D01*
X44655594Y-19708160D01*
X44376819Y-19429385D01*
X44343334Y-19368062D01*
X44340500Y-19341704D01*
X44340500Y-16183692D01*
X44308777Y-16024216D01*
X44308776Y-16024215D01*
X44308776Y-16024211D01*
X44308774Y-16024206D01*
X44246549Y-15873980D01*
X44246547Y-15873976D01*
X44156211Y-15738779D01*
X44156209Y-15738776D01*
X44121059Y-15703626D01*
X44041225Y-15623792D01*
X43283259Y-14865826D01*
X42476228Y-14058794D01*
X42476220Y-14058788D01*
X42341023Y-13968452D01*
X42341019Y-13968450D01*
X42190793Y-13906225D01*
X42190783Y-13906222D01*
X42031307Y-13874500D01*
X42031305Y-13874500D01*
X38790954Y-13874500D01*
X38723915Y-13854815D01*
X38714842Y-13847504D01*
X38714645Y-13847768D01*
X38592335Y-13756206D01*
X38592328Y-13756202D01*
X38457482Y-13705908D01*
X38457483Y-13705908D01*
X38397883Y-13699501D01*
X38397881Y-13699500D01*
X38397873Y-13699500D01*
X38397864Y-13699500D01*
X36802129Y-13699500D01*
X36802123Y-13699501D01*
X36742516Y-13705908D01*
X36607671Y-13756202D01*
X36607664Y-13756206D01*
X36485355Y-13847768D01*
X36483560Y-13845370D01*
X36435404Y-13871666D01*
X36409046Y-13874500D01*
X26790954Y-13874500D01*
X26723915Y-13854815D01*
X26714842Y-13847504D01*
X26714645Y-13847768D01*
X26592335Y-13756206D01*
X26592328Y-13756202D01*
X26457482Y-13705908D01*
X26457483Y-13705908D01*
X26397883Y-13699501D01*
X26397881Y-13699500D01*
X26397873Y-13699500D01*
X26397864Y-13699500D01*
X24802129Y-13699500D01*
X24802123Y-13699501D01*
X24742516Y-13705908D01*
X24607671Y-13756202D01*
X24607664Y-13756206D01*
X24492455Y-13842452D01*
X24492452Y-13842455D01*
X24406206Y-13957664D01*
X24406202Y-13957671D01*
X24355908Y-14092517D01*
X24349501Y-14152116D01*
X24349500Y-14152127D01*
X24349500Y-14660408D01*
X24349501Y-15050500D01*
X24329817Y-15117539D01*
X24277013Y-15163294D01*
X24225501Y-15174500D01*
X23668693Y-15174500D01*
X23509216Y-15206222D01*
X23509206Y-15206225D01*
X23358980Y-15268450D01*
X23358976Y-15268452D01*
X23223779Y-15358788D01*
X23223771Y-15358794D01*
X21963704Y-16618861D01*
X21926460Y-16644459D01*
X21822267Y-16690849D01*
X21669129Y-16802111D01*
X21542466Y-16942785D01*
X21447821Y-17106715D01*
X21447818Y-17106722D01*
X21389327Y-17286740D01*
X21389326Y-17286744D01*
X21369540Y-17475000D01*
X21389326Y-17663256D01*
X21389327Y-17663259D01*
X21447818Y-17843277D01*
X21447821Y-17843284D01*
X21542467Y-18007216D01*
X21666695Y-18145185D01*
X21669129Y-18147888D01*
X21822265Y-18259148D01*
X21822270Y-18259151D01*
X21995192Y-18336142D01*
X21995197Y-18336144D01*
X22180354Y-18375500D01*
X22180355Y-18375500D01*
X22369644Y-18375500D01*
X22369646Y-18375500D01*
X22554803Y-18336144D01*
X22727730Y-18259151D01*
X22880871Y-18147888D01*
X23007533Y-18007216D01*
X23099530Y-17847872D01*
X23102177Y-17843288D01*
X23102177Y-17843286D01*
X23102179Y-17843284D01*
X23106470Y-17830076D01*
X23136718Y-17780713D01*
X24055614Y-16861819D01*
X24116937Y-16828334D01*
X24143295Y-16825500D01*
X24225500Y-16825500D01*
X24292539Y-16845185D01*
X24338294Y-16897989D01*
X24349500Y-16949500D01*
X24349500Y-17847870D01*
X24349501Y-17847876D01*
X24355908Y-17907483D01*
X24406202Y-18042328D01*
X24406206Y-18042335D01*
X24492452Y-18157544D01*
X24492455Y-18157547D01*
X24607664Y-18243793D01*
X24607671Y-18243797D01*
X24742517Y-18294091D01*
X24742516Y-18294091D01*
X24749444Y-18294835D01*
X24802127Y-18300500D01*
X26397872Y-18300499D01*
X26457483Y-18294091D01*
X26592331Y-18243796D01*
X26707546Y-18157546D01*
X26733932Y-18122297D01*
X26789865Y-18080428D01*
X26833198Y-18072610D01*
X28284336Y-18072610D01*
X28310116Y-18075319D01*
X28414984Y-18097610D01*
X28414985Y-18097610D01*
X28604274Y-18097610D01*
X28604276Y-18097610D01*
X28789433Y-18058254D01*
X28962360Y-17981261D01*
X29115501Y-17869998D01*
X29242163Y-17729326D01*
X29336809Y-17565394D01*
X29395304Y-17385366D01*
X29415090Y-17197110D01*
X29395304Y-17008854D01*
X29336809Y-16828826D01*
X29242163Y-16664894D01*
X29115501Y-16524222D01*
X29115500Y-16524221D01*
X28962364Y-16412961D01*
X28962359Y-16412958D01*
X28789437Y-16335967D01*
X28789432Y-16335965D01*
X28627305Y-16301505D01*
X28604276Y-16296610D01*
X28414984Y-16296610D01*
X28391955Y-16301505D01*
X28229827Y-16335965D01*
X28229822Y-16335967D01*
X28061548Y-16410889D01*
X28011112Y-16421610D01*
X26974500Y-16421610D01*
X26907461Y-16401925D01*
X26861706Y-16349121D01*
X26850500Y-16297610D01*
X26850499Y-15649500D01*
X26870183Y-15582461D01*
X26922987Y-15536706D01*
X26974499Y-15525500D01*
X36225500Y-15525500D01*
X36292539Y-15545185D01*
X36338294Y-15597989D01*
X36349500Y-15649500D01*
X36349501Y-16350500D01*
X36329817Y-16417539D01*
X36277013Y-16463294D01*
X36225501Y-16474500D01*
X34868693Y-16474500D01*
X34709216Y-16506222D01*
X34709206Y-16506225D01*
X34558980Y-16568450D01*
X34558976Y-16568452D01*
X34423779Y-16658788D01*
X34423771Y-16658794D01*
X32394254Y-18688313D01*
X31723775Y-19358792D01*
X31689501Y-19393066D01*
X31608790Y-19473776D01*
X31608788Y-19473779D01*
X31518452Y-19608976D01*
X31518450Y-19608980D01*
X31456225Y-19759206D01*
X31456222Y-19759216D01*
X31424500Y-19918692D01*
X31424500Y-19918695D01*
X31424500Y-24218695D01*
X31424500Y-24381305D01*
X31424500Y-24381307D01*
X31424499Y-24381307D01*
X31456222Y-24540783D01*
X31456225Y-24540793D01*
X31518450Y-24691019D01*
X31518452Y-24691023D01*
X31608788Y-24826220D01*
X31608794Y-24826228D01*
X33438181Y-26655614D01*
X33471666Y-26716937D01*
X33474500Y-26743295D01*
X33474500Y-30306705D01*
X33454815Y-30373744D01*
X33438181Y-30394386D01*
X31386275Y-32446292D01*
X31332569Y-32499998D01*
X31271294Y-32561272D01*
X31227733Y-32626464D01*
X31212313Y-32645252D01*
X26463704Y-37393861D01*
X26426460Y-37419459D01*
X26322267Y-37465849D01*
X26169129Y-37577111D01*
X26042466Y-37717785D01*
X25947821Y-37881715D01*
X25947818Y-37881722D01*
X25889327Y-38061740D01*
X25889326Y-38061744D01*
X25869540Y-38250000D01*
X25889326Y-38438256D01*
X25889327Y-38438259D01*
X25947818Y-38618277D01*
X25947821Y-38618284D01*
X26042467Y-38782216D01*
X26169129Y-38922888D01*
X26322265Y-39034148D01*
X26322270Y-39034151D01*
X26495192Y-39111142D01*
X26495197Y-39111144D01*
X26680354Y-39150500D01*
X26680355Y-39150500D01*
X26869644Y-39150500D01*
X26869646Y-39150500D01*
X27054803Y-39111144D01*
X27227730Y-39034151D01*
X27380871Y-38922888D01*
X27507533Y-38782216D01*
X27575758Y-38664047D01*
X27602177Y-38618288D01*
X27602177Y-38618286D01*
X27602179Y-38618284D01*
X27606470Y-38605076D01*
X27636718Y-38555713D01*
X32553708Y-33638725D01*
X32597269Y-33573529D01*
X32612682Y-33554749D01*
X34941208Y-31226225D01*
X35031548Y-31091021D01*
X35093776Y-30940789D01*
X35119240Y-30812775D01*
X35125500Y-30781307D01*
X35125500Y-26268692D01*
X35093777Y-26109216D01*
X35093776Y-26109215D01*
X35093776Y-26109211D01*
X35089754Y-26099500D01*
X35031549Y-25958980D01*
X35031547Y-25958976D01*
X34941211Y-25823779D01*
X34941209Y-25823776D01*
X34929949Y-25812516D01*
X34826225Y-25708792D01*
X33442869Y-24325436D01*
X33409384Y-24264113D01*
X33414368Y-24194421D01*
X33456240Y-24138488D01*
X33504766Y-24116465D01*
X33529803Y-24111144D01*
X33529807Y-24111142D01*
X33529808Y-24111142D01*
X33622150Y-24070028D01*
X33672586Y-24059307D01*
X35631099Y-24059307D01*
X35698138Y-24078992D01*
X35743893Y-24131796D01*
X35753837Y-24200954D01*
X35724812Y-24264510D01*
X35703984Y-24283625D01*
X35644129Y-24327111D01*
X35517466Y-24467785D01*
X35422821Y-24631715D01*
X35422818Y-24631722D01*
X35364327Y-24811740D01*
X35364326Y-24811744D01*
X35344540Y-25000000D01*
X35364326Y-25188256D01*
X35364326Y-25188258D01*
X35364327Y-25188260D01*
X35368430Y-25200887D01*
X35374500Y-25239207D01*
X35374500Y-25718695D01*
X35374500Y-25881305D01*
X35374500Y-25881307D01*
X35374499Y-25881307D01*
X35406222Y-26040783D01*
X35406225Y-26040793D01*
X35468450Y-26191019D01*
X35468452Y-26191023D01*
X35558788Y-26326220D01*
X35558794Y-26326228D01*
X37950215Y-28717648D01*
X37983700Y-28778971D01*
X37986534Y-28805329D01*
X37986534Y-28818943D01*
X37996616Y-28932355D01*
X38049796Y-29118212D01*
X38072842Y-29162331D01*
X38139300Y-29289558D01*
X38200853Y-29365046D01*
X38261463Y-29439378D01*
X38320731Y-29487706D01*
X38360247Y-29545327D01*
X38362338Y-29615165D01*
X38326340Y-29675048D01*
X38320731Y-29679908D01*
X38261463Y-29728235D01*
X38139299Y-29878057D01*
X38049796Y-30049401D01*
X37996616Y-30235258D01*
X37986534Y-30348670D01*
X37986534Y-31358943D01*
X37996616Y-31472355D01*
X38049796Y-31658212D01*
X38131638Y-31814889D01*
X38139300Y-31829558D01*
X38225240Y-31934954D01*
X38261463Y-31979378D01*
X38320731Y-32027706D01*
X38360247Y-32085327D01*
X38362338Y-32155165D01*
X38326340Y-32215048D01*
X38320731Y-32219908D01*
X38261463Y-32268235D01*
X38139299Y-32418057D01*
X38049796Y-32589401D01*
X37996616Y-32775258D01*
X37986534Y-32888670D01*
X37986534Y-33898943D01*
X37996616Y-34012355D01*
X38049796Y-34198212D01*
X38049797Y-34198213D01*
X38139300Y-34369558D01*
X38233590Y-34485195D01*
X38261463Y-34519378D01*
X38320731Y-34567706D01*
X38360247Y-34625327D01*
X38362338Y-34695165D01*
X38326340Y-34755048D01*
X38320731Y-34759908D01*
X38261463Y-34808235D01*
X38139299Y-34958057D01*
X38049796Y-35129401D01*
X37996616Y-35315258D01*
X37986534Y-35428670D01*
X37986534Y-36438943D01*
X37996616Y-36552355D01*
X38049796Y-36738212D01*
X38049797Y-36738213D01*
X38139300Y-36909558D01*
X38204623Y-36989670D01*
X38261463Y-37059378D01*
X38320731Y-37107706D01*
X38360247Y-37165327D01*
X38362338Y-37235165D01*
X38326340Y-37295048D01*
X38320731Y-37299908D01*
X38261463Y-37348235D01*
X38139299Y-37498057D01*
X38049796Y-37669401D01*
X37996616Y-37855258D01*
X37986534Y-37968670D01*
X37986534Y-38978943D01*
X37996616Y-39092355D01*
X38049796Y-39278212D01*
X38049797Y-39278213D01*
X38139300Y-39449558D01*
X38233186Y-39564699D01*
X38261463Y-39599378D01*
X38320731Y-39647706D01*
X38360247Y-39705327D01*
X38362338Y-39775165D01*
X38326340Y-39835048D01*
X38320731Y-39839908D01*
X38261463Y-39888235D01*
X38139299Y-40038057D01*
X38049796Y-40209401D01*
X37996616Y-40395258D01*
X37986534Y-40508670D01*
X37986534Y-41518943D01*
X37996616Y-41632355D01*
X38049796Y-41818212D01*
X38102229Y-41918589D01*
X38115820Y-41987124D01*
X38090201Y-42052127D01*
X38033505Y-42092961D01*
X37992320Y-42100000D01*
X25457502Y-42100000D01*
X25390463Y-42080315D01*
X25344708Y-42027511D01*
X25334764Y-41958353D01*
X25347593Y-41918589D01*
X25374936Y-41866243D01*
X25407237Y-41804406D01*
X25460417Y-41618552D01*
X25470500Y-41505138D01*
X25470500Y-40494862D01*
X25460417Y-40381448D01*
X25407237Y-40195594D01*
X25317734Y-40024249D01*
X25256652Y-39949339D01*
X25195571Y-39874428D01*
X25136303Y-39826102D01*
X25096786Y-39768481D01*
X25094694Y-39698643D01*
X25130692Y-39638760D01*
X25136303Y-39633898D01*
X25195571Y-39585571D01*
X25212590Y-39564699D01*
X25317734Y-39435751D01*
X25407237Y-39264406D01*
X25460417Y-39078552D01*
X25470500Y-38965138D01*
X25470500Y-37954862D01*
X25460417Y-37841448D01*
X25407237Y-37655594D01*
X25317734Y-37484249D01*
X25244032Y-37393861D01*
X25195571Y-37334428D01*
X25136303Y-37286102D01*
X25096786Y-37228481D01*
X25094694Y-37158643D01*
X25130692Y-37098760D01*
X25136303Y-37093898D01*
X25195571Y-37045571D01*
X25317734Y-36895751D01*
X25407237Y-36724406D01*
X25460417Y-36538552D01*
X25470500Y-36425138D01*
X25470500Y-35414862D01*
X25460417Y-35301448D01*
X25407237Y-35115594D01*
X25317734Y-34944249D01*
X25256652Y-34869339D01*
X25195571Y-34794428D01*
X25136303Y-34746102D01*
X25096786Y-34688481D01*
X25094694Y-34618643D01*
X25130692Y-34558760D01*
X25136303Y-34553898D01*
X25195571Y-34505571D01*
X25212185Y-34485196D01*
X25317734Y-34355751D01*
X25407237Y-34184406D01*
X25460417Y-33998552D01*
X25470500Y-33885138D01*
X25470500Y-32874862D01*
X25460417Y-32761448D01*
X25407237Y-32575594D01*
X25317734Y-32404249D01*
X25210410Y-32272627D01*
X25195571Y-32254428D01*
X25136303Y-32206102D01*
X25096786Y-32148481D01*
X25094694Y-32078643D01*
X25130692Y-32018760D01*
X25136303Y-32013898D01*
X25195571Y-31965571D01*
X25219157Y-31936645D01*
X25317734Y-31815751D01*
X25407237Y-31644406D01*
X25460417Y-31458552D01*
X25470500Y-31345138D01*
X25470500Y-30334862D01*
X25460417Y-30221448D01*
X25407237Y-30035594D01*
X25317734Y-29864249D01*
X25256652Y-29789339D01*
X25195571Y-29714428D01*
X25136303Y-29666102D01*
X25096786Y-29608481D01*
X25094694Y-29538643D01*
X25130692Y-29478760D01*
X25136303Y-29473898D01*
X25195571Y-29425571D01*
X25199707Y-29420499D01*
X25317734Y-29275751D01*
X25407237Y-29104406D01*
X25460417Y-28918552D01*
X25470500Y-28805138D01*
X25470500Y-27794862D01*
X25460417Y-27681448D01*
X25407237Y-27495594D01*
X25317734Y-27324249D01*
X25256652Y-27249339D01*
X25195571Y-27174428D01*
X25136303Y-27126102D01*
X25096786Y-27068481D01*
X25094694Y-26998643D01*
X25130692Y-26938760D01*
X25136303Y-26933898D01*
X25195571Y-26885571D01*
X25255769Y-26811744D01*
X25317734Y-26735751D01*
X25407237Y-26564406D01*
X25460417Y-26378552D01*
X25470500Y-26265138D01*
X25470500Y-25254862D01*
X25460417Y-25141448D01*
X25407237Y-24955594D01*
X25317734Y-24784249D01*
X25241716Y-24691021D01*
X25195571Y-24634428D01*
X25136303Y-24586102D01*
X25096786Y-24528481D01*
X25094694Y-24458643D01*
X25130692Y-24398760D01*
X25136303Y-24393898D01*
X25195571Y-24345571D01*
X25211989Y-24325436D01*
X25317734Y-24195751D01*
X25407237Y-24024406D01*
X25460417Y-23838552D01*
X25470500Y-23725138D01*
X25470500Y-22714862D01*
X25460417Y-22601448D01*
X25407237Y-22415594D01*
X25317734Y-22244249D01*
X25213426Y-22116326D01*
X25195571Y-22094428D01*
X25103700Y-22019518D01*
X25045751Y-21972266D01*
X25031082Y-21964604D01*
X24874405Y-21882762D01*
X24719845Y-21838537D01*
X24688552Y-21829583D01*
X24688551Y-21829582D01*
X24688548Y-21829582D01*
X24599662Y-21821680D01*
X24575138Y-21819500D01*
X22364862Y-21819500D01*
X22352599Y-21820590D01*
X22251451Y-21829582D01*
X22065594Y-21882762D01*
X21894250Y-21972265D01*
X21744428Y-22094428D01*
X21622265Y-22244250D01*
X21532762Y-22415594D01*
X21479582Y-22601451D01*
X21469500Y-22714863D01*
X21469500Y-23725136D01*
X21479582Y-23838548D01*
X21532762Y-24024405D01*
X21598629Y-24150500D01*
X21622266Y-24195751D01*
X21728011Y-24325436D01*
X21744429Y-24345571D01*
X21803697Y-24393899D01*
X21843213Y-24451520D01*
X21845304Y-24521358D01*
X21809306Y-24581241D01*
X21803697Y-24586101D01*
X21744429Y-24634428D01*
X21622265Y-24784250D01*
X21532762Y-24955594D01*
X21479582Y-25141451D01*
X21469500Y-25254863D01*
X21469500Y-26265136D01*
X21479582Y-26378548D01*
X21532762Y-26564405D01*
X21567926Y-26631722D01*
X21622266Y-26735751D01*
X21684231Y-26811744D01*
X21744429Y-26885571D01*
X21803697Y-26933899D01*
X21843213Y-26991520D01*
X21845304Y-27061358D01*
X21809306Y-27121241D01*
X21803697Y-27126101D01*
X21744429Y-27174428D01*
X21622265Y-27324250D01*
X21532762Y-27495594D01*
X21479582Y-27681451D01*
X21469500Y-27794863D01*
X21469500Y-28805136D01*
X21479582Y-28918548D01*
X21532762Y-29104405D01*
X21614604Y-29261082D01*
X21622266Y-29275751D01*
X21740293Y-29420499D01*
X21744429Y-29425571D01*
X21803697Y-29473899D01*
X21843213Y-29531520D01*
X21845304Y-29601358D01*
X21809306Y-29661241D01*
X21803697Y-29666101D01*
X21744429Y-29714428D01*
X21622265Y-29864250D01*
X21532762Y-30035594D01*
X21479582Y-30221451D01*
X21469500Y-30334863D01*
X21469500Y-31345136D01*
X21479582Y-31458548D01*
X21532762Y-31644405D01*
X21544481Y-31666839D01*
X21622266Y-31815751D01*
X21720843Y-31936645D01*
X21744429Y-31965571D01*
X21803697Y-32013899D01*
X21843213Y-32071520D01*
X21845304Y-32141358D01*
X21809306Y-32201241D01*
X21803697Y-32206101D01*
X21744429Y-32254428D01*
X21622265Y-32404250D01*
X21532762Y-32575594D01*
X21479582Y-32761451D01*
X21469500Y-32874863D01*
X21469500Y-33885136D01*
X21479582Y-33998548D01*
X21532762Y-34184405D01*
X21539975Y-34198213D01*
X21622266Y-34355751D01*
X21727815Y-34485196D01*
X21744429Y-34505571D01*
X21803697Y-34553899D01*
X21843213Y-34611520D01*
X21845304Y-34681358D01*
X21809306Y-34741241D01*
X21803697Y-34746101D01*
X21744429Y-34794428D01*
X21622265Y-34944250D01*
X21532762Y-35115594D01*
X21479582Y-35301451D01*
X21469500Y-35414863D01*
X21469500Y-36425136D01*
X21479582Y-36538548D01*
X21532762Y-36724405D01*
X21582697Y-36820000D01*
X21622266Y-36895751D01*
X21719586Y-37015104D01*
X21744429Y-37045571D01*
X21803697Y-37093899D01*
X21843213Y-37151520D01*
X21845304Y-37221358D01*
X21809306Y-37281241D01*
X21803697Y-37286101D01*
X21744429Y-37334428D01*
X21622265Y-37484250D01*
X21532762Y-37655594D01*
X21479582Y-37841451D01*
X21469500Y-37954863D01*
X21469500Y-38965136D01*
X21479582Y-39078548D01*
X21532762Y-39264405D01*
X21539975Y-39278213D01*
X21622266Y-39435751D01*
X21727410Y-39564699D01*
X21744429Y-39585571D01*
X21803697Y-39633899D01*
X21843213Y-39691520D01*
X21845304Y-39761358D01*
X21809306Y-39821241D01*
X21803697Y-39826101D01*
X21744429Y-39874428D01*
X21622265Y-40024250D01*
X21532762Y-40195594D01*
X21479582Y-40381451D01*
X21469500Y-40494863D01*
X21469500Y-41505136D01*
X21479582Y-41618548D01*
X21532762Y-41804405D01*
X21592407Y-41918589D01*
X21605998Y-41987124D01*
X21580379Y-42052127D01*
X21523683Y-42092961D01*
X21482498Y-42100000D01*
X14601527Y-42100000D01*
X14598490Y-42099963D01*
X14512420Y-42097854D01*
X14491266Y-42095508D01*
X14320993Y-42061639D01*
X14297731Y-42054583D01*
X14138745Y-41988728D01*
X14117307Y-41977269D01*
X13974224Y-41881664D01*
X13955434Y-41866243D01*
X13833756Y-41744565D01*
X13818335Y-41725775D01*
X13722730Y-41582692D01*
X13711271Y-41561254D01*
X13688026Y-41505136D01*
X13645413Y-41402261D01*
X13638362Y-41379013D01*
X13604490Y-41208728D01*
X13602145Y-41187583D01*
X13600037Y-41101509D01*
X13600000Y-41098473D01*
X13600000Y-37580001D01*
X14144891Y-37580001D01*
X14165300Y-37865362D01*
X14226109Y-38144895D01*
X14326091Y-38412958D01*
X14463191Y-38664038D01*
X14463196Y-38664046D01*
X14569882Y-38806561D01*
X14569883Y-38806562D01*
X15464767Y-37911677D01*
X15476497Y-37939995D01*
X15559670Y-38064472D01*
X15665528Y-38170330D01*
X15790005Y-38253503D01*
X15818320Y-38265231D01*
X14923436Y-39160115D01*
X15065960Y-39266807D01*
X15065961Y-39266808D01*
X15317042Y-39403908D01*
X15317041Y-39403908D01*
X15585104Y-39503890D01*
X15864637Y-39564699D01*
X16149999Y-39585109D01*
X16150001Y-39585109D01*
X16435362Y-39564699D01*
X16714895Y-39503890D01*
X16982958Y-39403908D01*
X17234047Y-39266803D01*
X17376561Y-39160116D01*
X17376562Y-39160115D01*
X16481679Y-38265231D01*
X16509995Y-38253503D01*
X16634472Y-38170330D01*
X16740330Y-38064472D01*
X16823503Y-37939995D01*
X16835231Y-37911678D01*
X17730115Y-38806562D01*
X17730116Y-38806561D01*
X17836803Y-38664047D01*
X17973908Y-38412958D01*
X18073890Y-38144895D01*
X18134699Y-37865362D01*
X18155109Y-37580001D01*
X18155109Y-37579998D01*
X18134699Y-37294637D01*
X18073890Y-37015104D01*
X17973908Y-36747041D01*
X17836808Y-36495961D01*
X17836807Y-36495960D01*
X17730115Y-36353436D01*
X16835231Y-37248320D01*
X16823503Y-37220005D01*
X16740330Y-37095528D01*
X16634472Y-36989670D01*
X16509995Y-36906497D01*
X16481678Y-36894767D01*
X17376562Y-35999883D01*
X17376561Y-35999882D01*
X17234046Y-35893196D01*
X17234038Y-35893191D01*
X16982957Y-35756091D01*
X16982958Y-35756091D01*
X16714895Y-35656109D01*
X16435362Y-35595300D01*
X16150001Y-35574891D01*
X16149999Y-35574891D01*
X15864637Y-35595300D01*
X15585104Y-35656109D01*
X15317041Y-35756091D01*
X15065961Y-35893191D01*
X15065953Y-35893196D01*
X14923437Y-35999882D01*
X14923436Y-35999883D01*
X15818321Y-36894767D01*
X15790005Y-36906497D01*
X15665528Y-36989670D01*
X15559670Y-37095528D01*
X15476497Y-37220005D01*
X15464768Y-37248321D01*
X14569883Y-36353436D01*
X14569882Y-36353437D01*
X14463196Y-36495953D01*
X14463191Y-36495961D01*
X14326091Y-36747041D01*
X14226109Y-37015104D01*
X14165300Y-37294637D01*
X14144891Y-37579998D01*
X14144891Y-37580001D01*
X13600000Y-37580001D01*
X13600000Y-32500001D01*
X14144390Y-32500001D01*
X14164804Y-32785433D01*
X14225628Y-33065037D01*
X14325635Y-33333166D01*
X14462770Y-33584309D01*
X14462775Y-33584317D01*
X14634254Y-33813387D01*
X14634270Y-33813405D01*
X14836594Y-34015729D01*
X14836612Y-34015745D01*
X15065682Y-34187224D01*
X15065690Y-34187229D01*
X15316833Y-34324364D01*
X15316832Y-34324364D01*
X15316836Y-34324365D01*
X15316839Y-34324367D01*
X15584954Y-34424369D01*
X15584960Y-34424370D01*
X15584962Y-34424371D01*
X15864566Y-34485195D01*
X15864568Y-34485195D01*
X15864572Y-34485196D01*
X16118220Y-34503337D01*
X16149999Y-34505610D01*
X16150000Y-34505610D01*
X16150001Y-34505610D01*
X16178595Y-34503564D01*
X16435428Y-34485196D01*
X16715046Y-34424369D01*
X16983161Y-34324367D01*
X17234315Y-34187226D01*
X17463395Y-34015739D01*
X17665739Y-33813395D01*
X17837226Y-33584315D01*
X17974367Y-33333161D01*
X18074369Y-33065046D01*
X18135196Y-32785428D01*
X18155610Y-32500000D01*
X18135196Y-32214572D01*
X18133353Y-32206102D01*
X18074371Y-31934962D01*
X18074370Y-31934960D01*
X18074369Y-31934954D01*
X17974367Y-31666839D01*
X17969656Y-31658212D01*
X17837229Y-31415690D01*
X17837224Y-31415682D01*
X17665745Y-31186612D01*
X17665729Y-31186594D01*
X17463405Y-30984270D01*
X17463387Y-30984254D01*
X17234317Y-30812775D01*
X17234309Y-30812770D01*
X16983166Y-30675635D01*
X16983167Y-30675635D01*
X16845704Y-30624364D01*
X16715046Y-30575631D01*
X16715043Y-30575630D01*
X16715037Y-30575628D01*
X16435433Y-30514804D01*
X16150001Y-30494390D01*
X16149999Y-30494390D01*
X15864566Y-30514804D01*
X15584962Y-30575628D01*
X15316833Y-30675635D01*
X15065690Y-30812770D01*
X15065682Y-30812775D01*
X14836612Y-30984254D01*
X14836594Y-30984270D01*
X14634270Y-31186594D01*
X14634254Y-31186612D01*
X14462775Y-31415682D01*
X14462770Y-31415690D01*
X14325635Y-31666833D01*
X14225628Y-31934962D01*
X14164804Y-32214566D01*
X14144390Y-32499998D01*
X14144390Y-32500001D01*
X13600000Y-32500001D01*
X13600000Y-28967870D01*
X14149500Y-28967870D01*
X14149501Y-28967876D01*
X14155908Y-29027483D01*
X14206202Y-29162328D01*
X14206206Y-29162335D01*
X14292452Y-29277544D01*
X14292455Y-29277547D01*
X14407664Y-29363793D01*
X14407671Y-29363797D01*
X14542517Y-29414091D01*
X14542516Y-29414091D01*
X14549444Y-29414835D01*
X14602127Y-29420500D01*
X17697872Y-29420499D01*
X17757483Y-29414091D01*
X17892331Y-29363796D01*
X18007546Y-29277546D01*
X18093796Y-29162331D01*
X18144091Y-29027483D01*
X18150500Y-28967873D01*
X18150499Y-25872128D01*
X18144091Y-25812517D01*
X18105404Y-25708793D01*
X18093797Y-25677671D01*
X18093793Y-25677664D01*
X18007547Y-25562455D01*
X18007544Y-25562452D01*
X17892335Y-25476206D01*
X17892328Y-25476202D01*
X17757482Y-25425908D01*
X17757483Y-25425908D01*
X17697883Y-25419501D01*
X17697881Y-25419500D01*
X17697873Y-25419500D01*
X17697864Y-25419500D01*
X14602129Y-25419500D01*
X14602123Y-25419501D01*
X14542516Y-25425908D01*
X14407671Y-25476202D01*
X14407664Y-25476206D01*
X14292455Y-25562452D01*
X14292452Y-25562455D01*
X14206206Y-25677664D01*
X14206202Y-25677671D01*
X14155908Y-25812517D01*
X14149501Y-25872116D01*
X14149501Y-25872123D01*
X14149500Y-25872135D01*
X14149500Y-28967870D01*
X13600000Y-28967870D01*
X13600000Y-15755474D01*
X13944535Y-15755474D01*
X13951213Y-15837369D01*
X13953859Y-15853488D01*
X13953866Y-15853522D01*
X13959688Y-15879477D01*
X13956798Y-15944399D01*
X13955182Y-15949450D01*
X13955181Y-15949454D01*
X13954198Y-15955289D01*
X13949984Y-15986038D01*
X13949383Y-15991714D01*
X13949028Y-15996207D01*
X13947256Y-16018670D01*
X13947108Y-16021507D01*
X13946469Y-16041232D01*
X13946432Y-16044061D01*
X13946577Y-16064276D01*
X13946651Y-16067014D01*
X13947674Y-16088258D01*
X13947870Y-16091090D01*
X13949778Y-16112204D01*
X13950095Y-16115045D01*
X13952886Y-16136066D01*
X13953320Y-16138881D01*
X13956913Y-16159375D01*
X13957489Y-16162307D01*
X13961766Y-16181992D01*
X13962467Y-16184932D01*
X13962475Y-16184962D01*
X13967272Y-16203526D01*
X13968123Y-16206579D01*
X13969852Y-16212381D01*
X13973285Y-16223896D01*
X13974294Y-16227072D01*
X13979692Y-16243122D01*
X13980856Y-16246400D01*
X13986313Y-16261040D01*
X13987610Y-16264364D01*
X13995712Y-16283899D01*
X13996192Y-16284992D01*
X13996199Y-16285009D01*
X13998754Y-16290827D01*
X13999144Y-16291660D01*
X13999991Y-16293510D01*
X14000901Y-16295543D01*
X14001713Y-16297152D01*
X14003749Y-16301506D01*
X14008853Y-16312417D01*
X14012596Y-16319952D01*
X14020931Y-16335965D01*
X14021418Y-16336901D01*
X14025857Y-16345049D01*
X14025894Y-16345114D01*
X14033353Y-16358328D01*
X14036548Y-16363794D01*
X14038544Y-16367209D01*
X14044629Y-16377346D01*
X14050547Y-16386947D01*
X14055449Y-16394742D01*
X14062183Y-16405238D01*
X14062201Y-16405266D01*
X14065923Y-16410982D01*
X14070413Y-16417777D01*
X14088643Y-16462293D01*
X14088839Y-16463294D01*
X14089660Y-16467481D01*
X14089864Y-16468547D01*
X14100940Y-16527828D01*
X14105090Y-16547796D01*
X14174818Y-16852275D01*
X14186505Y-16894722D01*
X14278439Y-17179521D01*
X14278443Y-17179533D01*
X14278448Y-17179547D01*
X14294263Y-17221948D01*
X14294270Y-17221965D01*
X14294271Y-17221967D01*
X14294281Y-17221993D01*
X14406931Y-17487104D01*
X14406945Y-17487135D01*
X14426896Y-17528710D01*
X14558843Y-17774270D01*
X14582737Y-17814205D01*
X14582777Y-17814269D01*
X14732461Y-18040126D01*
X14732465Y-18040131D01*
X14760033Y-18077824D01*
X14926036Y-18284077D01*
X14956797Y-18318891D01*
X15137595Y-18505484D01*
X15137624Y-18505513D01*
X15171032Y-18536994D01*
X15171038Y-18536999D01*
X15171040Y-18537001D01*
X15255922Y-18610000D01*
X15346984Y-18688313D01*
X15346990Y-18688319D01*
X15365192Y-18703973D01*
X15400729Y-18731871D01*
X15400732Y-18731873D01*
X15606727Y-18879196D01*
X15643879Y-18903376D01*
X15822188Y-19008599D01*
X15860253Y-19031062D01*
X15891667Y-19047824D01*
X15898541Y-19051492D01*
X16123791Y-19159528D01*
X16162864Y-19176286D01*
X16395520Y-19264679D01*
X16435085Y-19277871D01*
X16673666Y-19346620D01*
X16713514Y-19356370D01*
X16956538Y-19405477D01*
X16996543Y-19411904D01*
X17242530Y-19441367D01*
X17278723Y-19444247D01*
X17282614Y-19444557D01*
X17530059Y-19454376D01*
X17530071Y-19454376D01*
X17570175Y-19454376D01*
X17817614Y-19444554D01*
X17817622Y-19444553D01*
X17817631Y-19444553D01*
X17857701Y-19441363D01*
X18103688Y-19411898D01*
X18130793Y-19407543D01*
X18143689Y-19405472D01*
X18221877Y-19389671D01*
X18386717Y-19356362D01*
X18426567Y-19346611D01*
X18665147Y-19277859D01*
X18704709Y-19264668D01*
X18937365Y-19176273D01*
X18976437Y-19159515D01*
X19201687Y-19051478D01*
X19239986Y-19031042D01*
X19456349Y-18903362D01*
X19493502Y-18879180D01*
X19699496Y-18731856D01*
X19735043Y-18703950D01*
X19735051Y-18703942D01*
X19735060Y-18703936D01*
X19929146Y-18537020D01*
X19929167Y-18537001D01*
X19929187Y-18536984D01*
X19962614Y-18505484D01*
X20143428Y-18318875D01*
X20174188Y-18284062D01*
X20340190Y-18077811D01*
X20367758Y-18040117D01*
X20517467Y-17814223D01*
X20541392Y-17774237D01*
X20673327Y-17528700D01*
X20693280Y-17487120D01*
X20805959Y-17221940D01*
X20821775Y-17179541D01*
X20913718Y-16894719D01*
X20925406Y-16852271D01*
X20995130Y-16547806D01*
X20999283Y-16527825D01*
X21010081Y-16470041D01*
X21010371Y-16468547D01*
X21011784Y-16461516D01*
X21030294Y-16417001D01*
X21032721Y-16413374D01*
X21037969Y-16405364D01*
X21044737Y-16394818D01*
X21049605Y-16387079D01*
X21055563Y-16377415D01*
X21061671Y-16367242D01*
X21066855Y-16358374D01*
X21073833Y-16346013D01*
X21074341Y-16345114D01*
X21074352Y-16345094D01*
X21078798Y-16336933D01*
X21087653Y-16319918D01*
X21091396Y-16312380D01*
X21101451Y-16290878D01*
X21104527Y-16283876D01*
X21115356Y-16257183D01*
X21117800Y-16250629D01*
X21128547Y-16218573D01*
X21130395Y-16212381D01*
X21139951Y-16175289D01*
X21141238Y-16169374D01*
X21148379Y-16128572D01*
X21149141Y-16122845D01*
X21152967Y-16080598D01*
X21153239Y-16074975D01*
X21153566Y-16034244D01*
X21153385Y-16028636D01*
X21150849Y-15991822D01*
X21150249Y-15986144D01*
X21146024Y-15955289D01*
X21145041Y-15949454D01*
X21144448Y-15946007D01*
X21142966Y-15941486D01*
X21140792Y-15871651D01*
X21142540Y-15865576D01*
X21146337Y-15853541D01*
X21148989Y-15837394D01*
X21155672Y-15755468D01*
X21155672Y-15754957D01*
X21154418Y-15719367D01*
X21153307Y-15703626D01*
X21151069Y-15679904D01*
X21150027Y-15671082D01*
X21149373Y-15665546D01*
X21148294Y-15658093D01*
X21145574Y-15639309D01*
X21143320Y-15626179D01*
X21137596Y-15597752D01*
X21134821Y-15585759D01*
X21126839Y-15555545D01*
X21123576Y-15544579D01*
X21113182Y-15513396D01*
X21109465Y-15503346D01*
X21096742Y-15472177D01*
X21092603Y-15462930D01*
X21084711Y-15446751D01*
X21078010Y-15433010D01*
X21073486Y-15424462D01*
X21057799Y-15396938D01*
X21052919Y-15388968D01*
X21037211Y-15364879D01*
X21032014Y-15357385D01*
X21032008Y-15357376D01*
X21017429Y-15337412D01*
X21011940Y-15330269D01*
X21008157Y-15325541D01*
X20983075Y-15270790D01*
X20981911Y-15264543D01*
X20956127Y-15148400D01*
X20952769Y-15134241D01*
X20924498Y-15022238D01*
X20920415Y-15007063D01*
X20889514Y-14898924D01*
X20884628Y-14882842D01*
X20850954Y-14778290D01*
X20845197Y-14761439D01*
X20808606Y-14660198D01*
X20801942Y-14642770D01*
X20764487Y-14550000D01*
X20762291Y-14544561D01*
X20760448Y-14540239D01*
X20754708Y-14526771D01*
X20734391Y-14481519D01*
X20711872Y-14431359D01*
X20711855Y-14431323D01*
X20703384Y-14413403D01*
X20657185Y-14320439D01*
X20647900Y-14302649D01*
X20598211Y-14211890D01*
X20588224Y-14194479D01*
X20534903Y-14105651D01*
X20524454Y-14088994D01*
X20524381Y-14088877D01*
X20524037Y-14088352D01*
X20467265Y-14001673D01*
X20464911Y-13998225D01*
X20456334Y-13985659D01*
X20399841Y-13906224D01*
X20395328Y-13899878D01*
X20384292Y-13884952D01*
X20384231Y-13884869D01*
X20355723Y-13847768D01*
X20319137Y-13800153D01*
X20308022Y-13786204D01*
X20287937Y-13761891D01*
X20238744Y-13702341D01*
X20236316Y-13699500D01*
X20227802Y-13689536D01*
X20211261Y-13670818D01*
X20154169Y-13606214D01*
X20143595Y-13594617D01*
X20079579Y-13526567D01*
X20065450Y-13511547D01*
X20054361Y-13500126D01*
X19972260Y-13418181D01*
X19959741Y-13406108D01*
X19927161Y-13375755D01*
X19877251Y-13329254D01*
X19873546Y-13325919D01*
X19864303Y-13317601D01*
X19781549Y-13245663D01*
X19768222Y-13234475D01*
X19702857Y-13181490D01*
X19685329Y-13167282D01*
X19664893Y-13151564D01*
X19618703Y-13117884D01*
X19499283Y-13030808D01*
X19471018Y-13011627D01*
X19306591Y-12907979D01*
X19306585Y-12907975D01*
X19277833Y-12891149D01*
X19184020Y-12840325D01*
X19115634Y-12803276D01*
X19086843Y-12788845D01*
X19008453Y-12752630D01*
X18927983Y-12715454D01*
X18899606Y-12703381D01*
X18864530Y-12689705D01*
X18745156Y-12643163D01*
X18742225Y-12642117D01*
X18717613Y-12633332D01*
X18717615Y-12633332D01*
X18717602Y-12633328D01*
X18568661Y-12584981D01*
X18542264Y-12577199D01*
X18399921Y-12539421D01*
X18374963Y-12533470D01*
X18240290Y-12504952D01*
X18217078Y-12500602D01*
X18091129Y-12480038D01*
X18069827Y-12477025D01*
X17953803Y-12463130D01*
X17926877Y-12460633D01*
X17752095Y-12449141D01*
X17728793Y-12447609D01*
X17726193Y-12447505D01*
X17702653Y-12446568D01*
X17557138Y-12444543D01*
X17543326Y-12444541D01*
X17543325Y-12444541D01*
X17543312Y-12444541D01*
X17519685Y-12444858D01*
X17399060Y-12446478D01*
X17381903Y-12447000D01*
X17289333Y-12451388D01*
X17272696Y-12452451D01*
X17167994Y-12460866D01*
X17148829Y-12462774D01*
X17032991Y-12476536D01*
X17011643Y-12479535D01*
X16920959Y-12494251D01*
X16885809Y-12499956D01*
X16862540Y-12504293D01*
X16751453Y-12527704D01*
X16727810Y-12532687D01*
X16702902Y-12538600D01*
X16560388Y-12576280D01*
X16533984Y-12584036D01*
X16384838Y-12632300D01*
X16357255Y-12642117D01*
X16202545Y-12702287D01*
X16181414Y-12711060D01*
X16102323Y-12746015D01*
X16087973Y-12752628D01*
X16007913Y-12791049D01*
X15993437Y-12798283D01*
X15912558Y-12840325D01*
X15898082Y-12848151D01*
X15816466Y-12894009D01*
X15802032Y-12902434D01*
X15719851Y-12952251D01*
X15705533Y-12961263D01*
X15622902Y-13015221D01*
X15608756Y-13024804D01*
X15525819Y-13083062D01*
X15511873Y-13093219D01*
X15428822Y-13155906D01*
X15415120Y-13166623D01*
X15396781Y-13181485D01*
X15396775Y-13181490D01*
X15332050Y-13233933D01*
X15318715Y-13245124D01*
X15235766Y-13317218D01*
X15222792Y-13328893D01*
X15140113Y-13405925D01*
X15127548Y-13418045D01*
X15045297Y-13500157D01*
X15034218Y-13511569D01*
X14956149Y-13594566D01*
X14945462Y-13606289D01*
X14871863Y-13689589D01*
X14860947Y-13702367D01*
X14791659Y-13786273D01*
X14780520Y-13800257D01*
X14715476Y-13884952D01*
X14704333Y-13900032D01*
X14643395Y-13985774D01*
X14632446Y-14001823D01*
X14575398Y-14088989D01*
X14564852Y-14105814D01*
X14511567Y-14194660D01*
X14501594Y-14212064D01*
X14451938Y-14302851D01*
X14442687Y-14320590D01*
X14396507Y-14413612D01*
X14388058Y-14431505D01*
X14345245Y-14526970D01*
X14337684Y-14544729D01*
X14298080Y-14642932D01*
X14291403Y-14660408D01*
X14254870Y-14761598D01*
X14249137Y-14778399D01*
X14215484Y-14882985D01*
X14210608Y-14899047D01*
X14179743Y-15007155D01*
X14175668Y-15022310D01*
X14147415Y-15134304D01*
X14144070Y-15148417D01*
X14118286Y-15264585D01*
X14117100Y-15270950D01*
X14092026Y-15325685D01*
X14088944Y-15329535D01*
X14088938Y-15329543D01*
X14088935Y-15329548D01*
X14083246Y-15337412D01*
X14060083Y-15369429D01*
X14049999Y-15384901D01*
X14026678Y-15424512D01*
X14026677Y-15424514D01*
X14022165Y-15433041D01*
X14007569Y-15462971D01*
X14003425Y-15472231D01*
X13990719Y-15503367D01*
X13986993Y-15513443D01*
X13976600Y-15544634D01*
X13973335Y-15555616D01*
X13965348Y-15585866D01*
X13962574Y-15597869D01*
X13956860Y-15626281D01*
X13956856Y-15626302D01*
X13956856Y-15626304D01*
X13954902Y-15637698D01*
X13954623Y-15639323D01*
X13954578Y-15639638D01*
X13954373Y-15640991D01*
X13952456Y-15653159D01*
X13951907Y-15658093D01*
X13950819Y-15665612D01*
X13949611Y-15675858D01*
X13949122Y-15680008D01*
X13946888Y-15703753D01*
X13945781Y-15719493D01*
X13944536Y-15754954D01*
X13944535Y-15754970D01*
X13944535Y-15755474D01*
X13600000Y-15755474D01*
X13600000Y-13101526D01*
X13600037Y-13098490D01*
X13601842Y-13024804D01*
X13602145Y-13012415D01*
X13604490Y-12991272D01*
X13638362Y-12820983D01*
X13645412Y-12797741D01*
X13711274Y-12638738D01*
X13722726Y-12617314D01*
X13818338Y-12474219D01*
X13833751Y-12455439D01*
X13955439Y-12333751D01*
X13974219Y-12318338D01*
X14117314Y-12222726D01*
X14138738Y-12211274D01*
X14297741Y-12145412D01*
X14320983Y-12138362D01*
X14491272Y-12104490D01*
X14512415Y-12102145D01*
X14593037Y-12100170D01*
X14598491Y-12100037D01*
X14601527Y-12100000D01*
X48598473Y-12100000D01*
X48601509Y-12100037D01*
G37*
G04 #@! TD.AperFunction*
G04 #@! TA.AperFunction,Conductor*
G36*
X38052729Y-24078992D02*
G01*
X38095597Y-24125893D01*
X38139300Y-24209558D01*
X38154579Y-24228296D01*
X38261462Y-24359378D01*
X38321126Y-24408027D01*
X38360643Y-24465648D01*
X38362735Y-24535486D01*
X38326737Y-24595369D01*
X38321127Y-24600230D01*
X38261819Y-24648590D01*
X38139720Y-24798332D01*
X38050262Y-24969591D01*
X37997113Y-25155345D01*
X37997112Y-25155348D01*
X37987034Y-25268709D01*
X37987034Y-26120239D01*
X37967349Y-26187278D01*
X37914545Y-26233033D01*
X37845387Y-26242977D01*
X37781831Y-26213952D01*
X37775353Y-26207920D01*
X37092680Y-25525247D01*
X37059195Y-25463924D01*
X37064179Y-25394232D01*
X37072968Y-25375576D01*
X37077179Y-25368284D01*
X37135674Y-25188256D01*
X37155460Y-25000000D01*
X37135674Y-24811744D01*
X37077179Y-24631716D01*
X36982533Y-24467784D01*
X36855871Y-24327112D01*
X36853564Y-24325436D01*
X36796016Y-24283625D01*
X36753350Y-24228296D01*
X36747371Y-24158682D01*
X36779976Y-24096887D01*
X36840815Y-24062530D01*
X36868901Y-24059307D01*
X37985690Y-24059307D01*
X38052729Y-24078992D01*
G37*
G04 #@! TD.AperFunction*
G04 #@! TA.AperFunction,Conductor*
G36*
X39055702Y-16973581D02*
G01*
X39062180Y-16979613D01*
X39125215Y-17042648D01*
X39158700Y-17103971D01*
X39161534Y-17130329D01*
X39161534Y-21709307D01*
X39141849Y-21776346D01*
X39089045Y-21822101D01*
X39037534Y-21833307D01*
X38881896Y-21833307D01*
X38869633Y-21834397D01*
X38768485Y-21843389D01*
X38582628Y-21896569D01*
X38411284Y-21986072D01*
X38261462Y-22108235D01*
X38151994Y-22242488D01*
X38139300Y-22258056D01*
X38095597Y-22341720D01*
X38047112Y-22392026D01*
X37985690Y-22408307D01*
X33599847Y-22408307D01*
X33549412Y-22397586D01*
X33529803Y-22388856D01*
X33529801Y-22388855D01*
X33529800Y-22388855D01*
X33413102Y-22364050D01*
X33344646Y-22349500D01*
X33199500Y-22349500D01*
X33132461Y-22329815D01*
X33086706Y-22277011D01*
X33075500Y-22225500D01*
X33075500Y-20393295D01*
X33095185Y-20326256D01*
X33111819Y-20305614D01*
X35255614Y-18161819D01*
X35316937Y-18128334D01*
X35343295Y-18125500D01*
X36409046Y-18125500D01*
X36476085Y-18145185D01*
X36485157Y-18152495D01*
X36485355Y-18152232D01*
X36607664Y-18243793D01*
X36607671Y-18243797D01*
X36742517Y-18294091D01*
X36742516Y-18294091D01*
X36749444Y-18294835D01*
X36802127Y-18300500D01*
X38397872Y-18300499D01*
X38457483Y-18294091D01*
X38592331Y-18243796D01*
X38707546Y-18157546D01*
X38793796Y-18042331D01*
X38844091Y-17907483D01*
X38850500Y-17847873D01*
X38850499Y-17067293D01*
X38870183Y-17000255D01*
X38922987Y-16954500D01*
X38992146Y-16944556D01*
X39055702Y-16973581D01*
G37*
G04 #@! TD.AperFunction*
M02*
