G04 #@! TF.GenerationSoftware,KiCad,Pcbnew,8.0.6*
G04 #@! TF.CreationDate,2024-12-28T00:50:30+01:00*
G04 #@! TF.ProjectId,kurumi,6b757275-6d69-42e6-9b69-6361645f7063,rev?*
G04 #@! TF.SameCoordinates,Original*
G04 #@! TF.FileFunction,Legend,Top*
G04 #@! TF.FilePolarity,Positive*
%FSLAX46Y46*%
G04 Gerber Fmt 4.6, Leading zero omitted, Abs format (unit mm)*
G04 Created by KiCad (PCBNEW 8.0.6) date 2024-12-28 00:50:30*
%MOMM*%
%LPD*%
G01*
G04 APERTURE LIST*
G04 Aperture macros list*
%AMRoundRect*
0 Rectangle with rounded corners*
0 $1 Rounding radius*
0 $2 $3 $4 $5 $6 $7 $8 $9 X,Y pos of 4 corners*
0 Add a 4 corners polygon primitive as box body*
4,1,4,$2,$3,$4,$5,$6,$7,$8,$9,$2,$3,0*
0 Add four circle primitives for the rounded corners*
1,1,$1+$1,$2,$3*
1,1,$1+$1,$4,$5*
1,1,$1+$1,$6,$7*
1,1,$1+$1,$8,$9*
0 Add four rect primitives between the rounded corners*
20,1,$1+$1,$2,$3,$4,$5,0*
20,1,$1+$1,$4,$5,$6,$7,0*
20,1,$1+$1,$6,$7,$8,$9,0*
20,1,$1+$1,$8,$9,$2,$3,0*%
G04 Aperture macros list end*
%ADD10C,0.100000*%
%ADD11C,0.120000*%
%ADD12C,0.150000*%
%ADD13C,0.127000*%
%ADD14C,0.000000*%
%ADD15C,0.099999*%
%ADD16R,3.000000X3.000000*%
%ADD17C,3.000000*%
%ADD18R,1.700000X1.700000*%
%ADD19O,1.700000X1.700000*%
%ADD20RoundRect,0.450000X-1.050000X-0.450000X1.050000X-0.450000X1.050000X0.450000X-1.050000X0.450000X0*%
G04 APERTURE END LIST*
D10*
X20435104Y-32220000D02*
X21235104Y-32220000D01*
X21235104Y-32220000D02*
X21235104Y-32410476D01*
X21235104Y-32410476D02*
X21197009Y-32524762D01*
X21197009Y-32524762D02*
X21120819Y-32600952D01*
X21120819Y-32600952D02*
X21044628Y-32639047D01*
X21044628Y-32639047D02*
X20892247Y-32677143D01*
X20892247Y-32677143D02*
X20777961Y-32677143D01*
X20777961Y-32677143D02*
X20625580Y-32639047D01*
X20625580Y-32639047D02*
X20549390Y-32600952D01*
X20549390Y-32600952D02*
X20473200Y-32524762D01*
X20473200Y-32524762D02*
X20435104Y-32410476D01*
X20435104Y-32410476D02*
X20435104Y-32220000D01*
X20663676Y-32981904D02*
X20663676Y-33362857D01*
X20435104Y-32905714D02*
X21235104Y-33172381D01*
X21235104Y-33172381D02*
X20435104Y-33439047D01*
X21235104Y-33591428D02*
X21235104Y-34048571D01*
X20435104Y-33819999D02*
X21235104Y-33819999D01*
X20663676Y-34277142D02*
X20663676Y-34658095D01*
X20435104Y-34200952D02*
X21235104Y-34467619D01*
X21235104Y-34467619D02*
X20435104Y-34734285D01*
D11*
X48444807Y-23780952D02*
X48444807Y-23514286D01*
X48863855Y-23400000D02*
X48863855Y-23780952D01*
X48863855Y-23780952D02*
X48063855Y-23780952D01*
X48063855Y-23780952D02*
X48063855Y-23400000D01*
X48863855Y-23133333D02*
X48330521Y-22714285D01*
X48330521Y-23133333D02*
X48863855Y-22714285D01*
X48330521Y-22523809D02*
X48330521Y-22219047D01*
X48063855Y-22409523D02*
X48749569Y-22409523D01*
X48749569Y-22409523D02*
X48825760Y-22371428D01*
X48825760Y-22371428D02*
X48863855Y-22295238D01*
X48863855Y-22295238D02*
X48863855Y-22219047D01*
X48863855Y-21342856D02*
X48063855Y-21342856D01*
X48063855Y-21342856D02*
X48635283Y-21076190D01*
X48635283Y-21076190D02*
X48063855Y-20809523D01*
X48063855Y-20809523D02*
X48863855Y-20809523D01*
X48063855Y-20276189D02*
X48063855Y-20123808D01*
X48063855Y-20123808D02*
X48101950Y-20047618D01*
X48101950Y-20047618D02*
X48178140Y-19971427D01*
X48178140Y-19971427D02*
X48330521Y-19933332D01*
X48330521Y-19933332D02*
X48597188Y-19933332D01*
X48597188Y-19933332D02*
X48749569Y-19971427D01*
X48749569Y-19971427D02*
X48825760Y-20047618D01*
X48825760Y-20047618D02*
X48863855Y-20123808D01*
X48863855Y-20123808D02*
X48863855Y-20276189D01*
X48863855Y-20276189D02*
X48825760Y-20352380D01*
X48825760Y-20352380D02*
X48749569Y-20428570D01*
X48749569Y-20428570D02*
X48597188Y-20466666D01*
X48597188Y-20466666D02*
X48330521Y-20466666D01*
X48330521Y-20466666D02*
X48178140Y-20428570D01*
X48178140Y-20428570D02*
X48101950Y-20352380D01*
X48101950Y-20352380D02*
X48063855Y-20276189D01*
X48825760Y-19628571D02*
X48863855Y-19514285D01*
X48863855Y-19514285D02*
X48863855Y-19323809D01*
X48863855Y-19323809D02*
X48825760Y-19247618D01*
X48825760Y-19247618D02*
X48787664Y-19209523D01*
X48787664Y-19209523D02*
X48711474Y-19171428D01*
X48711474Y-19171428D02*
X48635283Y-19171428D01*
X48635283Y-19171428D02*
X48559093Y-19209523D01*
X48559093Y-19209523D02*
X48520998Y-19247618D01*
X48520998Y-19247618D02*
X48482902Y-19323809D01*
X48482902Y-19323809D02*
X48444807Y-19476190D01*
X48444807Y-19476190D02*
X48406712Y-19552380D01*
X48406712Y-19552380D02*
X48368617Y-19590475D01*
X48368617Y-19590475D02*
X48292426Y-19628571D01*
X48292426Y-19628571D02*
X48216236Y-19628571D01*
X48216236Y-19628571D02*
X48140045Y-19590475D01*
X48140045Y-19590475D02*
X48101950Y-19552380D01*
X48101950Y-19552380D02*
X48063855Y-19476190D01*
X48063855Y-19476190D02*
X48063855Y-19285713D01*
X48063855Y-19285713D02*
X48101950Y-19171428D01*
X48444807Y-18561904D02*
X48444807Y-18828570D01*
X48863855Y-18828570D02*
X48063855Y-18828570D01*
X48063855Y-18828570D02*
X48063855Y-18447618D01*
X48444807Y-18142856D02*
X48444807Y-17876190D01*
X48863855Y-17761904D02*
X48863855Y-18142856D01*
X48863855Y-18142856D02*
X48063855Y-18142856D01*
X48063855Y-18142856D02*
X48063855Y-17761904D01*
X48063855Y-17533332D02*
X48063855Y-17076189D01*
X48863855Y-17304761D02*
X48063855Y-17304761D01*
X48025760Y-16238094D02*
X49054331Y-16923808D01*
X48863855Y-15971427D02*
X48330521Y-15971427D01*
X48482902Y-15971427D02*
X48406712Y-15933332D01*
X48406712Y-15933332D02*
X48368617Y-15895237D01*
X48368617Y-15895237D02*
X48330521Y-15819046D01*
X48330521Y-15819046D02*
X48330521Y-15742856D01*
X48825760Y-15171427D02*
X48863855Y-15247618D01*
X48863855Y-15247618D02*
X48863855Y-15399999D01*
X48863855Y-15399999D02*
X48825760Y-15476189D01*
X48825760Y-15476189D02*
X48749569Y-15514285D01*
X48749569Y-15514285D02*
X48444807Y-15514285D01*
X48444807Y-15514285D02*
X48368617Y-15476189D01*
X48368617Y-15476189D02*
X48330521Y-15399999D01*
X48330521Y-15399999D02*
X48330521Y-15247618D01*
X48330521Y-15247618D02*
X48368617Y-15171427D01*
X48368617Y-15171427D02*
X48444807Y-15133332D01*
X48444807Y-15133332D02*
X48520998Y-15133332D01*
X48520998Y-15133332D02*
X48597188Y-15514285D01*
X48863855Y-14676190D02*
X48825760Y-14752380D01*
X48825760Y-14752380D02*
X48749569Y-14790475D01*
X48749569Y-14790475D02*
X48063855Y-14790475D01*
X48863855Y-14028570D02*
X48444807Y-14028570D01*
X48444807Y-14028570D02*
X48368617Y-14066665D01*
X48368617Y-14066665D02*
X48330521Y-14142856D01*
X48330521Y-14142856D02*
X48330521Y-14295237D01*
X48330521Y-14295237D02*
X48368617Y-14371427D01*
X48825760Y-14028570D02*
X48863855Y-14104761D01*
X48863855Y-14104761D02*
X48863855Y-14295237D01*
X48863855Y-14295237D02*
X48825760Y-14371427D01*
X48825760Y-14371427D02*
X48749569Y-14409523D01*
X48749569Y-14409523D02*
X48673379Y-14409523D01*
X48673379Y-14409523D02*
X48597188Y-14371427D01*
X48597188Y-14371427D02*
X48559093Y-14295237D01*
X48559093Y-14295237D02*
X48559093Y-14104761D01*
X48559093Y-14104761D02*
X48520998Y-14028570D01*
X48330521Y-13723808D02*
X48863855Y-13533332D01*
X48330521Y-13342855D02*
X48863855Y-13533332D01*
X48863855Y-13533332D02*
X49054331Y-13609522D01*
X49054331Y-13609522D02*
X49092426Y-13647617D01*
X49092426Y-13647617D02*
X49130521Y-13723808D01*
D10*
X21197009Y-37910476D02*
X21235104Y-37834286D01*
X21235104Y-37834286D02*
X21235104Y-37720000D01*
X21235104Y-37720000D02*
X21197009Y-37605714D01*
X21197009Y-37605714D02*
X21120819Y-37529524D01*
X21120819Y-37529524D02*
X21044628Y-37491429D01*
X21044628Y-37491429D02*
X20892247Y-37453333D01*
X20892247Y-37453333D02*
X20777961Y-37453333D01*
X20777961Y-37453333D02*
X20625580Y-37491429D01*
X20625580Y-37491429D02*
X20549390Y-37529524D01*
X20549390Y-37529524D02*
X20473200Y-37605714D01*
X20473200Y-37605714D02*
X20435104Y-37720000D01*
X20435104Y-37720000D02*
X20435104Y-37796191D01*
X20435104Y-37796191D02*
X20473200Y-37910476D01*
X20473200Y-37910476D02*
X20511295Y-37948572D01*
X20511295Y-37948572D02*
X20777961Y-37948572D01*
X20777961Y-37948572D02*
X20777961Y-37796191D01*
X20435104Y-38291429D02*
X21235104Y-38291429D01*
X21235104Y-38291429D02*
X20435104Y-38748572D01*
X20435104Y-38748572D02*
X21235104Y-38748572D01*
X20435104Y-39129524D02*
X21235104Y-39129524D01*
X21235104Y-39129524D02*
X21235104Y-39320000D01*
X21235104Y-39320000D02*
X21197009Y-39434286D01*
X21197009Y-39434286D02*
X21120819Y-39510476D01*
X21120819Y-39510476D02*
X21044628Y-39548571D01*
X21044628Y-39548571D02*
X20892247Y-39586667D01*
X20892247Y-39586667D02*
X20777961Y-39586667D01*
X20777961Y-39586667D02*
X20625580Y-39548571D01*
X20625580Y-39548571D02*
X20549390Y-39510476D01*
X20549390Y-39510476D02*
X20473200Y-39434286D01*
X20473200Y-39434286D02*
X20435104Y-39320000D01*
X20435104Y-39320000D02*
X20435104Y-39129524D01*
X21235104Y-27253333D02*
X20435104Y-27520000D01*
X20435104Y-27520000D02*
X21235104Y-27786666D01*
X20435104Y-28053333D02*
X21235104Y-28053333D01*
X21235104Y-28053333D02*
X21235104Y-28243809D01*
X21235104Y-28243809D02*
X21197009Y-28358095D01*
X21197009Y-28358095D02*
X21120819Y-28434285D01*
X21120819Y-28434285D02*
X21044628Y-28472380D01*
X21044628Y-28472380D02*
X20892247Y-28510476D01*
X20892247Y-28510476D02*
X20777961Y-28510476D01*
X20777961Y-28510476D02*
X20625580Y-28472380D01*
X20625580Y-28472380D02*
X20549390Y-28434285D01*
X20549390Y-28434285D02*
X20473200Y-28358095D01*
X20473200Y-28358095D02*
X20435104Y-28243809D01*
X20435104Y-28243809D02*
X20435104Y-28053333D01*
X20435104Y-28853333D02*
X21235104Y-28853333D01*
X21235104Y-28853333D02*
X21235104Y-29043809D01*
X21235104Y-29043809D02*
X21197009Y-29158095D01*
X21197009Y-29158095D02*
X21120819Y-29234285D01*
X21120819Y-29234285D02*
X21044628Y-29272380D01*
X21044628Y-29272380D02*
X20892247Y-29310476D01*
X20892247Y-29310476D02*
X20777961Y-29310476D01*
X20777961Y-29310476D02*
X20625580Y-29272380D01*
X20625580Y-29272380D02*
X20549390Y-29234285D01*
X20549390Y-29234285D02*
X20473200Y-29158095D01*
X20473200Y-29158095D02*
X20435104Y-29043809D01*
X20435104Y-29043809D02*
X20435104Y-28853333D01*
D11*
X42292481Y-14618085D02*
X42216291Y-14579990D01*
X42216291Y-14579990D02*
X42102005Y-14579990D01*
X42102005Y-14579990D02*
X41987719Y-14618085D01*
X41987719Y-14618085D02*
X41911529Y-14694275D01*
X41911529Y-14694275D02*
X41873434Y-14770466D01*
X41873434Y-14770466D02*
X41835338Y-14922847D01*
X41835338Y-14922847D02*
X41835338Y-15037133D01*
X41835338Y-15037133D02*
X41873434Y-15189514D01*
X41873434Y-15189514D02*
X41911529Y-15265704D01*
X41911529Y-15265704D02*
X41987719Y-15341895D01*
X41987719Y-15341895D02*
X42102005Y-15379990D01*
X42102005Y-15379990D02*
X42178196Y-15379990D01*
X42178196Y-15379990D02*
X42292481Y-15341895D01*
X42292481Y-15341895D02*
X42330577Y-15303799D01*
X42330577Y-15303799D02*
X42330577Y-15037133D01*
X42330577Y-15037133D02*
X42178196Y-15037133D01*
X42673434Y-15379990D02*
X42673434Y-14579990D01*
X42673434Y-14579990D02*
X43130577Y-15379990D01*
X43130577Y-15379990D02*
X43130577Y-14579990D01*
X43511529Y-15379990D02*
X43511529Y-14579990D01*
X43511529Y-14579990D02*
X43702005Y-14579990D01*
X43702005Y-14579990D02*
X43816291Y-14618085D01*
X43816291Y-14618085D02*
X43892481Y-14694275D01*
X43892481Y-14694275D02*
X43930576Y-14770466D01*
X43930576Y-14770466D02*
X43968672Y-14922847D01*
X43968672Y-14922847D02*
X43968672Y-15037133D01*
X43968672Y-15037133D02*
X43930576Y-15189514D01*
X43930576Y-15189514D02*
X43892481Y-15265704D01*
X43892481Y-15265704D02*
X43816291Y-15341895D01*
X43816291Y-15341895D02*
X43702005Y-15379990D01*
X43702005Y-15379990D02*
X43511529Y-15379990D01*
X42178196Y-17155900D02*
X42330577Y-17155900D01*
X42330577Y-17155900D02*
X42406767Y-17193995D01*
X42406767Y-17193995D02*
X42482958Y-17270185D01*
X42482958Y-17270185D02*
X42521053Y-17422566D01*
X42521053Y-17422566D02*
X42521053Y-17689233D01*
X42521053Y-17689233D02*
X42482958Y-17841614D01*
X42482958Y-17841614D02*
X42406767Y-17917805D01*
X42406767Y-17917805D02*
X42330577Y-17955900D01*
X42330577Y-17955900D02*
X42178196Y-17955900D01*
X42178196Y-17955900D02*
X42102005Y-17917805D01*
X42102005Y-17917805D02*
X42025815Y-17841614D01*
X42025815Y-17841614D02*
X41987719Y-17689233D01*
X41987719Y-17689233D02*
X41987719Y-17422566D01*
X41987719Y-17422566D02*
X42025815Y-17270185D01*
X42025815Y-17270185D02*
X42102005Y-17193995D01*
X42102005Y-17193995D02*
X42178196Y-17155900D01*
X42863910Y-17155900D02*
X42863910Y-17803519D01*
X42863910Y-17803519D02*
X42902005Y-17879709D01*
X42902005Y-17879709D02*
X42940100Y-17917805D01*
X42940100Y-17917805D02*
X43016291Y-17955900D01*
X43016291Y-17955900D02*
X43168672Y-17955900D01*
X43168672Y-17955900D02*
X43244862Y-17917805D01*
X43244862Y-17917805D02*
X43282957Y-17879709D01*
X43282957Y-17879709D02*
X43321053Y-17803519D01*
X43321053Y-17803519D02*
X43321053Y-17155900D01*
X43587719Y-17155900D02*
X44044862Y-17155900D01*
X43816290Y-17955900D02*
X43816290Y-17155900D01*
X42749624Y-20112762D02*
X43016290Y-20112762D01*
X43130576Y-20531810D02*
X42749624Y-20531810D01*
X42749624Y-20531810D02*
X42749624Y-19731810D01*
X42749624Y-19731810D02*
X43130576Y-19731810D01*
X43473434Y-20531810D02*
X43473434Y-19731810D01*
X43473434Y-19731810D02*
X43930577Y-20531810D01*
X43930577Y-20531810D02*
X43930577Y-19731810D01*
X41911529Y-22307720D02*
X42178196Y-23107720D01*
X42178196Y-23107720D02*
X42444862Y-22307720D01*
X43168672Y-23031529D02*
X43130576Y-23069625D01*
X43130576Y-23069625D02*
X43016291Y-23107720D01*
X43016291Y-23107720D02*
X42940100Y-23107720D01*
X42940100Y-23107720D02*
X42825814Y-23069625D01*
X42825814Y-23069625D02*
X42749624Y-22993434D01*
X42749624Y-22993434D02*
X42711529Y-22917244D01*
X42711529Y-22917244D02*
X42673433Y-22764863D01*
X42673433Y-22764863D02*
X42673433Y-22650577D01*
X42673433Y-22650577D02*
X42711529Y-22498196D01*
X42711529Y-22498196D02*
X42749624Y-22422005D01*
X42749624Y-22422005D02*
X42825814Y-22345815D01*
X42825814Y-22345815D02*
X42940100Y-22307720D01*
X42940100Y-22307720D02*
X43016291Y-22307720D01*
X43016291Y-22307720D02*
X43130576Y-22345815D01*
X43130576Y-22345815D02*
X43168672Y-22383910D01*
X43968672Y-23031529D02*
X43930576Y-23069625D01*
X43930576Y-23069625D02*
X43816291Y-23107720D01*
X43816291Y-23107720D02*
X43740100Y-23107720D01*
X43740100Y-23107720D02*
X43625814Y-23069625D01*
X43625814Y-23069625D02*
X43549624Y-22993434D01*
X43549624Y-22993434D02*
X43511529Y-22917244D01*
X43511529Y-22917244D02*
X43473433Y-22764863D01*
X43473433Y-22764863D02*
X43473433Y-22650577D01*
X43473433Y-22650577D02*
X43511529Y-22498196D01*
X43511529Y-22498196D02*
X43549624Y-22422005D01*
X43549624Y-22422005D02*
X43625814Y-22345815D01*
X43625814Y-22345815D02*
X43740100Y-22307720D01*
X43740100Y-22307720D02*
X43816291Y-22307720D01*
X43816291Y-22307720D02*
X43930576Y-22345815D01*
X43930576Y-22345815D02*
X43968672Y-22383910D01*
D10*
X42164895Y-29866666D02*
X42964895Y-29599999D01*
X42964895Y-29599999D02*
X42164895Y-29333333D01*
X42888704Y-28609523D02*
X42926800Y-28647619D01*
X42926800Y-28647619D02*
X42964895Y-28761904D01*
X42964895Y-28761904D02*
X42964895Y-28838095D01*
X42964895Y-28838095D02*
X42926800Y-28952381D01*
X42926800Y-28952381D02*
X42850609Y-29028571D01*
X42850609Y-29028571D02*
X42774419Y-29066666D01*
X42774419Y-29066666D02*
X42622038Y-29104762D01*
X42622038Y-29104762D02*
X42507752Y-29104762D01*
X42507752Y-29104762D02*
X42355371Y-29066666D01*
X42355371Y-29066666D02*
X42279180Y-29028571D01*
X42279180Y-29028571D02*
X42202990Y-28952381D01*
X42202990Y-28952381D02*
X42164895Y-28838095D01*
X42164895Y-28838095D02*
X42164895Y-28761904D01*
X42164895Y-28761904D02*
X42202990Y-28647619D01*
X42202990Y-28647619D02*
X42241085Y-28609523D01*
X42888704Y-27809523D02*
X42926800Y-27847619D01*
X42926800Y-27847619D02*
X42964895Y-27961904D01*
X42964895Y-27961904D02*
X42964895Y-28038095D01*
X42964895Y-28038095D02*
X42926800Y-28152381D01*
X42926800Y-28152381D02*
X42850609Y-28228571D01*
X42850609Y-28228571D02*
X42774419Y-28266666D01*
X42774419Y-28266666D02*
X42622038Y-28304762D01*
X42622038Y-28304762D02*
X42507752Y-28304762D01*
X42507752Y-28304762D02*
X42355371Y-28266666D01*
X42355371Y-28266666D02*
X42279180Y-28228571D01*
X42279180Y-28228571D02*
X42202990Y-28152381D01*
X42202990Y-28152381D02*
X42164895Y-28038095D01*
X42164895Y-28038095D02*
X42164895Y-27961904D01*
X42164895Y-27961904D02*
X42202990Y-27847619D01*
X42202990Y-27847619D02*
X42241085Y-27809523D01*
D11*
X43233334Y-38017593D02*
X43233334Y-37317593D01*
X43233334Y-37317593D02*
X43500001Y-37317593D01*
X43500001Y-37317593D02*
X43566668Y-37350926D01*
X43566668Y-37350926D02*
X43600001Y-37384260D01*
X43600001Y-37384260D02*
X43633334Y-37450926D01*
X43633334Y-37450926D02*
X43633334Y-37550926D01*
X43633334Y-37550926D02*
X43600001Y-37617593D01*
X43600001Y-37617593D02*
X43566668Y-37650926D01*
X43566668Y-37650926D02*
X43500001Y-37684260D01*
X43500001Y-37684260D02*
X43233334Y-37684260D01*
X44033334Y-38017593D02*
X43966668Y-37984260D01*
X43966668Y-37984260D02*
X43933334Y-37950926D01*
X43933334Y-37950926D02*
X43900001Y-37884260D01*
X43900001Y-37884260D02*
X43900001Y-37684260D01*
X43900001Y-37684260D02*
X43933334Y-37617593D01*
X43933334Y-37617593D02*
X43966668Y-37584260D01*
X43966668Y-37584260D02*
X44033334Y-37550926D01*
X44033334Y-37550926D02*
X44133334Y-37550926D01*
X44133334Y-37550926D02*
X44200001Y-37584260D01*
X44200001Y-37584260D02*
X44233334Y-37617593D01*
X44233334Y-37617593D02*
X44266668Y-37684260D01*
X44266668Y-37684260D02*
X44266668Y-37884260D01*
X44266668Y-37884260D02*
X44233334Y-37950926D01*
X44233334Y-37950926D02*
X44200001Y-37984260D01*
X44200001Y-37984260D02*
X44133334Y-38017593D01*
X44133334Y-38017593D02*
X44033334Y-38017593D01*
X44500001Y-37550926D02*
X44633334Y-38017593D01*
X44633334Y-38017593D02*
X44766667Y-37684260D01*
X44766667Y-37684260D02*
X44900001Y-38017593D01*
X44900001Y-38017593D02*
X45033334Y-37550926D01*
X45566667Y-37984260D02*
X45500000Y-38017593D01*
X45500000Y-38017593D02*
X45366667Y-38017593D01*
X45366667Y-38017593D02*
X45300000Y-37984260D01*
X45300000Y-37984260D02*
X45266667Y-37917593D01*
X45266667Y-37917593D02*
X45266667Y-37650926D01*
X45266667Y-37650926D02*
X45300000Y-37584260D01*
X45300000Y-37584260D02*
X45366667Y-37550926D01*
X45366667Y-37550926D02*
X45500000Y-37550926D01*
X45500000Y-37550926D02*
X45566667Y-37584260D01*
X45566667Y-37584260D02*
X45600000Y-37650926D01*
X45600000Y-37650926D02*
X45600000Y-37717593D01*
X45600000Y-37717593D02*
X45266667Y-37784260D01*
X45900000Y-38017593D02*
X45900000Y-37550926D01*
X45900000Y-37684260D02*
X45933334Y-37617593D01*
X45933334Y-37617593D02*
X45966667Y-37584260D01*
X45966667Y-37584260D02*
X46033334Y-37550926D01*
X46033334Y-37550926D02*
X46100000Y-37550926D01*
X46866666Y-38017593D02*
X46866666Y-37550926D01*
X46866666Y-37317593D02*
X46833333Y-37350926D01*
X46833333Y-37350926D02*
X46866666Y-37384260D01*
X46866666Y-37384260D02*
X46900000Y-37350926D01*
X46900000Y-37350926D02*
X46866666Y-37317593D01*
X46866666Y-37317593D02*
X46866666Y-37384260D01*
X47199999Y-37550926D02*
X47199999Y-38017593D01*
X47199999Y-37617593D02*
X47233333Y-37584260D01*
X47233333Y-37584260D02*
X47299999Y-37550926D01*
X47299999Y-37550926D02*
X47399999Y-37550926D01*
X47399999Y-37550926D02*
X47466666Y-37584260D01*
X47466666Y-37584260D02*
X47499999Y-37650926D01*
X47499999Y-37650926D02*
X47499999Y-38017593D01*
X47833332Y-37550926D02*
X47833332Y-38250926D01*
X47833332Y-37584260D02*
X47899999Y-37550926D01*
X47899999Y-37550926D02*
X48033332Y-37550926D01*
X48033332Y-37550926D02*
X48099999Y-37584260D01*
X48099999Y-37584260D02*
X48133332Y-37617593D01*
X48133332Y-37617593D02*
X48166666Y-37684260D01*
X48166666Y-37684260D02*
X48166666Y-37884260D01*
X48166666Y-37884260D02*
X48133332Y-37950926D01*
X48133332Y-37950926D02*
X48099999Y-37984260D01*
X48099999Y-37984260D02*
X48033332Y-38017593D01*
X48033332Y-38017593D02*
X47899999Y-38017593D01*
X47899999Y-38017593D02*
X47833332Y-37984260D01*
X48766665Y-37550926D02*
X48766665Y-38017593D01*
X48466665Y-37550926D02*
X48466665Y-37917593D01*
X48466665Y-37917593D02*
X48499999Y-37984260D01*
X48499999Y-37984260D02*
X48566665Y-38017593D01*
X48566665Y-38017593D02*
X48666665Y-38017593D01*
X48666665Y-38017593D02*
X48733332Y-37984260D01*
X48733332Y-37984260D02*
X48766665Y-37950926D01*
X48999998Y-37550926D02*
X49266665Y-37550926D01*
X49099998Y-37317593D02*
X49099998Y-37917593D01*
X49099998Y-37917593D02*
X49133332Y-37984260D01*
X49133332Y-37984260D02*
X49199998Y-38017593D01*
X49199998Y-38017593D02*
X49266665Y-38017593D01*
D12*
X43661904Y-38638485D02*
X43700000Y-38600390D01*
X43700000Y-38600390D02*
X43776190Y-38562295D01*
X43776190Y-38562295D02*
X43966666Y-38562295D01*
X43966666Y-38562295D02*
X44042857Y-38600390D01*
X44042857Y-38600390D02*
X44080952Y-38638485D01*
X44080952Y-38638485D02*
X44119047Y-38714676D01*
X44119047Y-38714676D02*
X44119047Y-38790866D01*
X44119047Y-38790866D02*
X44080952Y-38905152D01*
X44080952Y-38905152D02*
X43623809Y-39362295D01*
X43623809Y-39362295D02*
X44119047Y-39362295D01*
X44804762Y-38828961D02*
X44804762Y-39362295D01*
X44614286Y-38524200D02*
X44423809Y-39095628D01*
X44423809Y-39095628D02*
X44919048Y-39095628D01*
X45109524Y-38562295D02*
X45376191Y-39362295D01*
X45376191Y-39362295D02*
X45642857Y-38562295D01*
X46519048Y-39362295D02*
X46519048Y-38562295D01*
X46519048Y-38562295D02*
X46785714Y-39133723D01*
X46785714Y-39133723D02*
X47052381Y-38562295D01*
X47052381Y-38562295D02*
X47052381Y-39362295D01*
X47395238Y-39133723D02*
X47776191Y-39133723D01*
X47319048Y-39362295D02*
X47585715Y-38562295D01*
X47585715Y-38562295D02*
X47852381Y-39362295D01*
X48042857Y-38562295D02*
X48576191Y-39362295D01*
X48576191Y-38562295D02*
X48042857Y-39362295D01*
D10*
X42102990Y-34409523D02*
X42064895Y-34485713D01*
X42064895Y-34485713D02*
X42064895Y-34599999D01*
X42064895Y-34599999D02*
X42102990Y-34714285D01*
X42102990Y-34714285D02*
X42179180Y-34790475D01*
X42179180Y-34790475D02*
X42255371Y-34828570D01*
X42255371Y-34828570D02*
X42407752Y-34866666D01*
X42407752Y-34866666D02*
X42522038Y-34866666D01*
X42522038Y-34866666D02*
X42674419Y-34828570D01*
X42674419Y-34828570D02*
X42750609Y-34790475D01*
X42750609Y-34790475D02*
X42826800Y-34714285D01*
X42826800Y-34714285D02*
X42864895Y-34599999D01*
X42864895Y-34599999D02*
X42864895Y-34523808D01*
X42864895Y-34523808D02*
X42826800Y-34409523D01*
X42826800Y-34409523D02*
X42788704Y-34371427D01*
X42788704Y-34371427D02*
X42522038Y-34371427D01*
X42522038Y-34371427D02*
X42522038Y-34523808D01*
X42864895Y-34028570D02*
X42064895Y-34028570D01*
X42064895Y-34028570D02*
X42864895Y-33571427D01*
X42864895Y-33571427D02*
X42064895Y-33571427D01*
X42864895Y-33190475D02*
X42064895Y-33190475D01*
X42064895Y-33190475D02*
X42064895Y-32999999D01*
X42064895Y-32999999D02*
X42102990Y-32885713D01*
X42102990Y-32885713D02*
X42179180Y-32809523D01*
X42179180Y-32809523D02*
X42255371Y-32771428D01*
X42255371Y-32771428D02*
X42407752Y-32733332D01*
X42407752Y-32733332D02*
X42522038Y-32733332D01*
X42522038Y-32733332D02*
X42674419Y-32771428D01*
X42674419Y-32771428D02*
X42750609Y-32809523D01*
X42750609Y-32809523D02*
X42826800Y-32885713D01*
X42826800Y-32885713D02*
X42864895Y-32999999D01*
X42864895Y-32999999D02*
X42864895Y-33190475D01*
D12*
X20818095Y-20354819D02*
X20818095Y-21164342D01*
X20818095Y-21164342D02*
X20865714Y-21259580D01*
X20865714Y-21259580D02*
X20913333Y-21307200D01*
X20913333Y-21307200D02*
X21008571Y-21354819D01*
X21008571Y-21354819D02*
X21199047Y-21354819D01*
X21199047Y-21354819D02*
X21294285Y-21307200D01*
X21294285Y-21307200D02*
X21341904Y-21259580D01*
X21341904Y-21259580D02*
X21389523Y-21164342D01*
X21389523Y-21164342D02*
X21389523Y-20354819D01*
X22389523Y-21354819D02*
X21818095Y-21354819D01*
X22103809Y-21354819D02*
X22103809Y-20354819D01*
X22103809Y-20354819D02*
X22008571Y-20497676D01*
X22008571Y-20497676D02*
X21913333Y-20592914D01*
X21913333Y-20592914D02*
X21818095Y-20640533D01*
D11*
X12290000Y-25800000D02*
X12290000Y-41040000D01*
X12290000Y-25800000D02*
X19910000Y-25800000D01*
X12290000Y-41040000D02*
X19910000Y-41040000D01*
X13560000Y-25800000D02*
X13560000Y-41040000D01*
X19910000Y-25800000D02*
X19910000Y-41040000D01*
X44870000Y-21150000D02*
X44870000Y-13470000D01*
X47530000Y-13470000D02*
X44870000Y-13470000D01*
X47530000Y-21150000D02*
X44870000Y-21150000D01*
X47530000Y-21150000D02*
X47530000Y-13470000D01*
X47530000Y-22420000D02*
X47530000Y-23750000D01*
X47530000Y-23750000D02*
X46200000Y-23750000D01*
X43290000Y-26260000D02*
X43290000Y-36420000D01*
X43290000Y-36420000D02*
X50910000Y-36420000D01*
X49640000Y-26260000D02*
X49640000Y-36420000D01*
X50910000Y-26260000D02*
X43290000Y-26260000D01*
X50910000Y-36420000D02*
X50910000Y-26260000D01*
D13*
X22600000Y-44440000D02*
X22600000Y-21740000D01*
X27100000Y-20440000D02*
X27100000Y-21740000D01*
X27100000Y-21740000D02*
X22600000Y-21740000D01*
X36100000Y-20440000D02*
X27100000Y-20440000D01*
X36100000Y-20440000D02*
X36100000Y-21740000D01*
X40600000Y-21740000D02*
X36100000Y-21740000D01*
X40600000Y-44440000D02*
X22600000Y-44440000D01*
X40600000Y-44440000D02*
X40600000Y-21740000D01*
%LPC*%
D14*
D15*
X19856506Y-16860722D02*
X19865563Y-16865072D01*
X19873775Y-16870631D01*
X19881145Y-16877409D01*
X19887677Y-16885416D01*
X19893372Y-16894658D01*
X19898235Y-16905146D01*
X19902267Y-16916889D01*
X19905472Y-16929894D01*
X19907853Y-16944172D01*
X19909412Y-16959730D01*
X19910153Y-16976578D01*
X19910079Y-16994725D01*
X19909191Y-17014179D01*
X19907495Y-17034949D01*
X19904991Y-17057045D01*
X19899656Y-17092980D01*
X19893179Y-17127211D01*
X19885612Y-17159773D01*
X19877007Y-17190705D01*
X19867414Y-17220043D01*
X19856887Y-17247824D01*
X19845476Y-17274086D01*
X19833234Y-17298866D01*
X19820211Y-17322200D01*
X19806461Y-17344126D01*
X19792034Y-17364682D01*
X19776982Y-17383903D01*
X19761357Y-17401827D01*
X19745211Y-17418492D01*
X19728595Y-17433935D01*
X19711562Y-17448192D01*
X19694162Y-17461301D01*
X19676448Y-17473298D01*
X19658471Y-17484222D01*
X19640283Y-17494109D01*
X19621936Y-17502996D01*
X19603482Y-17510920D01*
X19566457Y-17524030D01*
X19529623Y-17533734D01*
X19493392Y-17540330D01*
X19458180Y-17544115D01*
X19424400Y-17545387D01*
X19398384Y-17544674D01*
X19373508Y-17542572D01*
X19349747Y-17539140D01*
X19327076Y-17534433D01*
X19305469Y-17528509D01*
X19284901Y-17521423D01*
X19265346Y-17513234D01*
X19246781Y-17503998D01*
X19229179Y-17493771D01*
X19212514Y-17482611D01*
X19196763Y-17470575D01*
X19181900Y-17457718D01*
X19167899Y-17444099D01*
X19154735Y-17429773D01*
X19142383Y-17414799D01*
X19130818Y-17399231D01*
X19120014Y-17383128D01*
X19109946Y-17366547D01*
X19091919Y-17332175D01*
X19076534Y-17296569D01*
X19063590Y-17260185D01*
X19052884Y-17223478D01*
X19044214Y-17186901D01*
X19037379Y-17150910D01*
X19032177Y-17115959D01*
X19029265Y-17091523D01*
X19027058Y-17069694D01*
X19025617Y-17050297D01*
X19025204Y-17041457D01*
X19025007Y-17033161D01*
X19025033Y-17025386D01*
X19025290Y-17018111D01*
X19025787Y-17011315D01*
X19026531Y-17004975D01*
X19027530Y-16999071D01*
X19028793Y-16993580D01*
X19030326Y-16988481D01*
X19032139Y-16983752D01*
X19034238Y-16979371D01*
X19036633Y-16975318D01*
X19039330Y-16971570D01*
X19042338Y-16968106D01*
X19045664Y-16964903D01*
X19049317Y-16961941D01*
X19053305Y-16959198D01*
X19057635Y-16956652D01*
X19062315Y-16954281D01*
X19067354Y-16952064D01*
X19072759Y-16949979D01*
X19078539Y-16948005D01*
X19091251Y-16944301D01*
X19105556Y-16940780D01*
X19170006Y-16928949D01*
X19266667Y-16915166D01*
X19383461Y-16900613D01*
X19508306Y-16886469D01*
X19733830Y-16864128D01*
X19810347Y-16858290D01*
X19846595Y-16857582D01*
X19846601Y-16857574D01*
X19856506Y-16860722D01*
G36*
X19856506Y-16860722D02*
G01*
X19865563Y-16865072D01*
X19873775Y-16870631D01*
X19881145Y-16877409D01*
X19887677Y-16885416D01*
X19893372Y-16894658D01*
X19898235Y-16905146D01*
X19902267Y-16916889D01*
X19905472Y-16929894D01*
X19907853Y-16944172D01*
X19909412Y-16959730D01*
X19910153Y-16976578D01*
X19910079Y-16994725D01*
X19909191Y-17014179D01*
X19907495Y-17034949D01*
X19904991Y-17057045D01*
X19899656Y-17092980D01*
X19893179Y-17127211D01*
X19885612Y-17159773D01*
X19877007Y-17190705D01*
X19867414Y-17220043D01*
X19856887Y-17247824D01*
X19845476Y-17274086D01*
X19833234Y-17298866D01*
X19820211Y-17322200D01*
X19806461Y-17344126D01*
X19792034Y-17364682D01*
X19776982Y-17383903D01*
X19761357Y-17401827D01*
X19745211Y-17418492D01*
X19728595Y-17433935D01*
X19711562Y-17448192D01*
X19694162Y-17461301D01*
X19676448Y-17473298D01*
X19658471Y-17484222D01*
X19640283Y-17494109D01*
X19621936Y-17502996D01*
X19603482Y-17510920D01*
X19566457Y-17524030D01*
X19529623Y-17533734D01*
X19493392Y-17540330D01*
X19458180Y-17544115D01*
X19424400Y-17545387D01*
X19398384Y-17544674D01*
X19373508Y-17542572D01*
X19349747Y-17539140D01*
X19327076Y-17534433D01*
X19305469Y-17528509D01*
X19284901Y-17521423D01*
X19265346Y-17513234D01*
X19246781Y-17503998D01*
X19229179Y-17493771D01*
X19212514Y-17482611D01*
X19196763Y-17470575D01*
X19181900Y-17457718D01*
X19167899Y-17444099D01*
X19154735Y-17429773D01*
X19142383Y-17414799D01*
X19130818Y-17399231D01*
X19120014Y-17383128D01*
X19109946Y-17366547D01*
X19091919Y-17332175D01*
X19076534Y-17296569D01*
X19063590Y-17260185D01*
X19052884Y-17223478D01*
X19044214Y-17186901D01*
X19037379Y-17150910D01*
X19032177Y-17115959D01*
X19029265Y-17091523D01*
X19027058Y-17069694D01*
X19025617Y-17050297D01*
X19025204Y-17041457D01*
X19025007Y-17033161D01*
X19025033Y-17025386D01*
X19025290Y-17018111D01*
X19025787Y-17011315D01*
X19026531Y-17004975D01*
X19027530Y-16999071D01*
X19028793Y-16993580D01*
X19030326Y-16988481D01*
X19032139Y-16983752D01*
X19034238Y-16979371D01*
X19036633Y-16975318D01*
X19039330Y-16971570D01*
X19042338Y-16968106D01*
X19045664Y-16964903D01*
X19049317Y-16961941D01*
X19053305Y-16959198D01*
X19057635Y-16956652D01*
X19062315Y-16954281D01*
X19067354Y-16952064D01*
X19072759Y-16949979D01*
X19078539Y-16948005D01*
X19091251Y-16944301D01*
X19105556Y-16940780D01*
X19170006Y-16928949D01*
X19266667Y-16915166D01*
X19383461Y-16900613D01*
X19508306Y-16886469D01*
X19733830Y-16864128D01*
X19810347Y-16858290D01*
X19846595Y-16857582D01*
X19846601Y-16857574D01*
X19856506Y-16860722D01*
G37*
X17103605Y-16857589D02*
X17139852Y-16858296D01*
X17216369Y-16864132D01*
X17441893Y-16886474D01*
X17683533Y-16915173D01*
X17780195Y-16928956D01*
X17844645Y-16940788D01*
X17858955Y-16944306D01*
X17871672Y-16948008D01*
X17882859Y-16952065D01*
X17892579Y-16956652D01*
X17896910Y-16959197D01*
X17900898Y-16961940D01*
X17904551Y-16964902D01*
X17907877Y-16968104D01*
X17910885Y-16971569D01*
X17913582Y-16975317D01*
X17915976Y-16979370D01*
X17918074Y-16983751D01*
X17919886Y-16988480D01*
X17921419Y-16993579D01*
X17922681Y-16999071D01*
X17923679Y-17004975D01*
X17924918Y-17018112D01*
X17925200Y-17033163D01*
X17924588Y-17050301D01*
X17923146Y-17069698D01*
X17920938Y-17091529D01*
X17918026Y-17115966D01*
X17912824Y-17150916D01*
X17905989Y-17186906D01*
X17897320Y-17223482D01*
X17886614Y-17260190D01*
X17873669Y-17296573D01*
X17858284Y-17332179D01*
X17849613Y-17349548D01*
X17840257Y-17366551D01*
X17830189Y-17383133D01*
X17819386Y-17399236D01*
X17807820Y-17414804D01*
X17795468Y-17429778D01*
X17782304Y-17444104D01*
X17768303Y-17457724D01*
X17753440Y-17470581D01*
X17737688Y-17482617D01*
X17721024Y-17493778D01*
X17703422Y-17504005D01*
X17684856Y-17513241D01*
X17665302Y-17521430D01*
X17644733Y-17528516D01*
X17623126Y-17534440D01*
X17600455Y-17539147D01*
X17576693Y-17542580D01*
X17551818Y-17544681D01*
X17525802Y-17545394D01*
X17492021Y-17544123D01*
X17456809Y-17540338D01*
X17420579Y-17533742D01*
X17383745Y-17524037D01*
X17346720Y-17510928D01*
X17309918Y-17494117D01*
X17291731Y-17484230D01*
X17273754Y-17473306D01*
X17256040Y-17461308D01*
X17238640Y-17448200D01*
X17221606Y-17433942D01*
X17204991Y-17418500D01*
X17188844Y-17401835D01*
X17173220Y-17383911D01*
X17158168Y-17364689D01*
X17143741Y-17344134D01*
X17129990Y-17322208D01*
X17116968Y-17298874D01*
X17104725Y-17274094D01*
X17093315Y-17247832D01*
X17082787Y-17220051D01*
X17073195Y-17190713D01*
X17064589Y-17159781D01*
X17057022Y-17127218D01*
X17050546Y-17092988D01*
X17045211Y-17057052D01*
X17043858Y-17045840D01*
X17042708Y-17034961D01*
X17041759Y-17024412D01*
X17041012Y-17014193D01*
X17040468Y-17004303D01*
X17040127Y-16994741D01*
X17039990Y-16985505D01*
X17040055Y-16976596D01*
X17040325Y-16968010D01*
X17040800Y-16959748D01*
X17041479Y-16951808D01*
X17042362Y-16944189D01*
X17043452Y-16936891D01*
X17044747Y-16929911D01*
X17046247Y-16923250D01*
X17047955Y-16916905D01*
X17049869Y-16910876D01*
X17051990Y-16905161D01*
X17054318Y-16899760D01*
X17056854Y-16894672D01*
X17059598Y-16889895D01*
X17062551Y-16885428D01*
X17065712Y-16881270D01*
X17069082Y-16877420D01*
X17072662Y-16873878D01*
X17076451Y-16870641D01*
X17080451Y-16867709D01*
X17084661Y-16865080D01*
X17089081Y-16862754D01*
X17093713Y-16860730D01*
X17098556Y-16859006D01*
X17103611Y-16857582D01*
X17103605Y-16857589D01*
G36*
X17103605Y-16857589D02*
G01*
X17139852Y-16858296D01*
X17216369Y-16864132D01*
X17441893Y-16886474D01*
X17683533Y-16915173D01*
X17780195Y-16928956D01*
X17844645Y-16940788D01*
X17858955Y-16944306D01*
X17871672Y-16948008D01*
X17882859Y-16952065D01*
X17892579Y-16956652D01*
X17896910Y-16959197D01*
X17900898Y-16961940D01*
X17904551Y-16964902D01*
X17907877Y-16968104D01*
X17910885Y-16971569D01*
X17913582Y-16975317D01*
X17915976Y-16979370D01*
X17918074Y-16983751D01*
X17919886Y-16988480D01*
X17921419Y-16993579D01*
X17922681Y-16999071D01*
X17923679Y-17004975D01*
X17924918Y-17018112D01*
X17925200Y-17033163D01*
X17924588Y-17050301D01*
X17923146Y-17069698D01*
X17920938Y-17091529D01*
X17918026Y-17115966D01*
X17912824Y-17150916D01*
X17905989Y-17186906D01*
X17897320Y-17223482D01*
X17886614Y-17260190D01*
X17873669Y-17296573D01*
X17858284Y-17332179D01*
X17849613Y-17349548D01*
X17840257Y-17366551D01*
X17830189Y-17383133D01*
X17819386Y-17399236D01*
X17807820Y-17414804D01*
X17795468Y-17429778D01*
X17782304Y-17444104D01*
X17768303Y-17457724D01*
X17753440Y-17470581D01*
X17737688Y-17482617D01*
X17721024Y-17493778D01*
X17703422Y-17504005D01*
X17684856Y-17513241D01*
X17665302Y-17521430D01*
X17644733Y-17528516D01*
X17623126Y-17534440D01*
X17600455Y-17539147D01*
X17576693Y-17542580D01*
X17551818Y-17544681D01*
X17525802Y-17545394D01*
X17492021Y-17544123D01*
X17456809Y-17540338D01*
X17420579Y-17533742D01*
X17383745Y-17524037D01*
X17346720Y-17510928D01*
X17309918Y-17494117D01*
X17291731Y-17484230D01*
X17273754Y-17473306D01*
X17256040Y-17461308D01*
X17238640Y-17448200D01*
X17221606Y-17433942D01*
X17204991Y-17418500D01*
X17188844Y-17401835D01*
X17173220Y-17383911D01*
X17158168Y-17364689D01*
X17143741Y-17344134D01*
X17129990Y-17322208D01*
X17116968Y-17298874D01*
X17104725Y-17274094D01*
X17093315Y-17247832D01*
X17082787Y-17220051D01*
X17073195Y-17190713D01*
X17064589Y-17159781D01*
X17057022Y-17127218D01*
X17050546Y-17092988D01*
X17045211Y-17057052D01*
X17043858Y-17045840D01*
X17042708Y-17034961D01*
X17041759Y-17024412D01*
X17041012Y-17014193D01*
X17040468Y-17004303D01*
X17040127Y-16994741D01*
X17039990Y-16985505D01*
X17040055Y-16976596D01*
X17040325Y-16968010D01*
X17040800Y-16959748D01*
X17041479Y-16951808D01*
X17042362Y-16944189D01*
X17043452Y-16936891D01*
X17044747Y-16929911D01*
X17046247Y-16923250D01*
X17047955Y-16916905D01*
X17049869Y-16910876D01*
X17051990Y-16905161D01*
X17054318Y-16899760D01*
X17056854Y-16894672D01*
X17059598Y-16889895D01*
X17062551Y-16885428D01*
X17065712Y-16881270D01*
X17069082Y-16877420D01*
X17072662Y-16873878D01*
X17076451Y-16870641D01*
X17080451Y-16867709D01*
X17084661Y-16865080D01*
X17089081Y-16862754D01*
X17093713Y-16860730D01*
X17098556Y-16859006D01*
X17103611Y-16857582D01*
X17103605Y-16857589D01*
G37*
X18620626Y-14052020D02*
X18818695Y-14065044D01*
X18934709Y-14078938D01*
X19060590Y-14099491D01*
X19195247Y-14128006D01*
X19337590Y-14165785D01*
X19486531Y-14214132D01*
X19640978Y-14274349D01*
X19799841Y-14347741D01*
X19962031Y-14435609D01*
X20126458Y-14539257D01*
X20292032Y-14659987D01*
X20374908Y-14727166D01*
X20457662Y-14799104D01*
X20540158Y-14875963D01*
X20622259Y-14957908D01*
X20700384Y-15040957D01*
X20774017Y-15124278D01*
X20843301Y-15208148D01*
X20908379Y-15292843D01*
X20969395Y-15378640D01*
X21026492Y-15465815D01*
X21079813Y-15554643D01*
X21129502Y-15645402D01*
X21175701Y-15738366D01*
X21218554Y-15833814D01*
X21258204Y-15932020D01*
X21294795Y-16033261D01*
X21328469Y-16137813D01*
X21359370Y-16245952D01*
X21387641Y-16357955D01*
X21413425Y-16474098D01*
X21417254Y-16499412D01*
X21421495Y-16522747D01*
X21426116Y-16544216D01*
X21431082Y-16563929D01*
X21436361Y-16581997D01*
X21441919Y-16598533D01*
X21447723Y-16613647D01*
X21453740Y-16627450D01*
X21459935Y-16640054D01*
X21466277Y-16651570D01*
X21472730Y-16662110D01*
X21479263Y-16671785D01*
X21485842Y-16680705D01*
X21492433Y-16688983D01*
X21505519Y-16704055D01*
X21530372Y-16731385D01*
X21536116Y-16738280D01*
X21541605Y-16745423D01*
X21546807Y-16752925D01*
X21551688Y-16760897D01*
X21556214Y-16769450D01*
X21560353Y-16778697D01*
X21564070Y-16788747D01*
X21567333Y-16799713D01*
X21570108Y-16811706D01*
X21572362Y-16824836D01*
X21574061Y-16839216D01*
X21575172Y-16854957D01*
X21575172Y-16855468D01*
X21572520Y-16871615D01*
X21563218Y-16886309D01*
X21547696Y-16899605D01*
X21526385Y-16911558D01*
X21499714Y-16922222D01*
X21468114Y-16931651D01*
X21391843Y-16947022D01*
X21301012Y-16958107D01*
X21199060Y-16965341D01*
X21089428Y-16969159D01*
X20975553Y-16969995D01*
X20748839Y-16964464D01*
X20546432Y-16952230D01*
X20395848Y-16936771D01*
X20348589Y-16928921D01*
X20324604Y-16921569D01*
X20313169Y-16908723D01*
X20301099Y-16884660D01*
X20274056Y-16806052D01*
X20201407Y-16549052D01*
X20151823Y-16383317D01*
X20090749Y-16201196D01*
X20055282Y-16105968D01*
X20016197Y-16009017D01*
X19973245Y-15911134D01*
X19953467Y-15869944D01*
X20168788Y-15869944D01*
X20171760Y-15956535D01*
X20180420Y-16039629D01*
X20195413Y-16118186D01*
X20226365Y-16217800D01*
X20259495Y-16329786D01*
X20326342Y-16560112D01*
X20357083Y-16663067D01*
X20384052Y-16747630D01*
X20395657Y-16780610D01*
X20405761Y-16806108D01*
X20414178Y-16823162D01*
X20417696Y-16828222D01*
X20420723Y-16830810D01*
X20467420Y-16837744D01*
X20573353Y-16846790D01*
X20720567Y-16855956D01*
X20891111Y-16863248D01*
X21067031Y-16866673D01*
X21230377Y-16864237D01*
X21301724Y-16860198D01*
X21363195Y-16853946D01*
X21412546Y-16845233D01*
X21447532Y-16833808D01*
X21451340Y-16831639D01*
X21454096Y-16829258D01*
X21455859Y-16826674D01*
X21456686Y-16823891D01*
X21456638Y-16820917D01*
X21455773Y-16817759D01*
X21454149Y-16814422D01*
X21451826Y-16810914D01*
X21448862Y-16807241D01*
X21445316Y-16803409D01*
X21436713Y-16795296D01*
X21426487Y-16786627D01*
X21415108Y-16777455D01*
X21390774Y-16757809D01*
X21378759Y-16747439D01*
X21367472Y-16736776D01*
X21357384Y-16725870D01*
X21352936Y-16720343D01*
X21348964Y-16714774D01*
X21345527Y-16709171D01*
X21342684Y-16703541D01*
X21340492Y-16697889D01*
X21339012Y-16692222D01*
X21311269Y-16561770D01*
X21279176Y-16433065D01*
X21242698Y-16306259D01*
X21201797Y-16181503D01*
X21156439Y-16058950D01*
X21106587Y-15938750D01*
X21052206Y-15821055D01*
X20993260Y-15706017D01*
X20929712Y-15593788D01*
X20861527Y-15484519D01*
X20788668Y-15378362D01*
X20711101Y-15275468D01*
X20628789Y-15175989D01*
X20541697Y-15080077D01*
X20449787Y-14987883D01*
X20353025Y-14899559D01*
X20353027Y-14899658D01*
X20326231Y-14984353D01*
X20291102Y-15105021D01*
X20252820Y-15253336D01*
X20216564Y-15420972D01*
X20200815Y-15509432D01*
X20187516Y-15599601D01*
X20177313Y-15690436D01*
X20170854Y-15780898D01*
X20168788Y-15869944D01*
X19953467Y-15869944D01*
X19926178Y-15813110D01*
X19906303Y-15779778D01*
X19883614Y-15744650D01*
X19858681Y-15708201D01*
X19832071Y-15670902D01*
X19776091Y-15595653D01*
X19720221Y-15522689D01*
X19669005Y-15455797D01*
X19626989Y-15398764D01*
X19610850Y-15375128D01*
X19598716Y-15355376D01*
X19591153Y-15339983D01*
X19589264Y-15334069D01*
X19588731Y-15329422D01*
X19589396Y-15325173D01*
X19591025Y-15320439D01*
X19597018Y-15309651D01*
X19606397Y-15297340D01*
X19618844Y-15283790D01*
X19634044Y-15269283D01*
X19651681Y-15254102D01*
X19671440Y-15238528D01*
X19693003Y-15222846D01*
X19716056Y-15207337D01*
X19740282Y-15192283D01*
X19765365Y-15177969D01*
X19790990Y-15164675D01*
X19816841Y-15152685D01*
X19842602Y-15142282D01*
X19867957Y-15133748D01*
X19892589Y-15127365D01*
X19899724Y-15126401D01*
X19905865Y-15126785D01*
X19911063Y-15128452D01*
X19915367Y-15131337D01*
X19918829Y-15135376D01*
X19921498Y-15140504D01*
X19923424Y-15146656D01*
X19924658Y-15153768D01*
X19925249Y-15170612D01*
X19923674Y-15190518D01*
X19920333Y-15212969D01*
X19915628Y-15237447D01*
X19891204Y-15345279D01*
X19885705Y-15372130D01*
X19881252Y-15397903D01*
X19878246Y-15422081D01*
X19877090Y-15444145D01*
X19877363Y-15449879D01*
X19878212Y-15455894D01*
X19879604Y-15462153D01*
X19881507Y-15468621D01*
X19883888Y-15475261D01*
X19886715Y-15482037D01*
X19889953Y-15488912D01*
X19893572Y-15495850D01*
X19897538Y-15502814D01*
X19901819Y-15509769D01*
X19911193Y-15523505D01*
X19921432Y-15536766D01*
X19932275Y-15549261D01*
X19943462Y-15560700D01*
X19949101Y-15565932D01*
X19954729Y-15570792D01*
X19960311Y-15575242D01*
X19965815Y-15579246D01*
X19971209Y-15582768D01*
X19976459Y-15585772D01*
X19981534Y-15588221D01*
X19986399Y-15590079D01*
X19991024Y-15591309D01*
X19995374Y-15591876D01*
X19999418Y-15591742D01*
X20003122Y-15590872D01*
X20006455Y-15589229D01*
X20009382Y-15586776D01*
X20013881Y-15576822D01*
X20021361Y-15554168D01*
X20043461Y-15477793D01*
X20103600Y-15250005D01*
X20160943Y-15015935D01*
X20179548Y-14931708D01*
X20184757Y-14903950D01*
X20186634Y-14888107D01*
X20185570Y-14874333D01*
X20182278Y-14862490D01*
X20176889Y-14852488D01*
X20169534Y-14844239D01*
X20160343Y-14837652D01*
X20149446Y-14832639D01*
X20136975Y-14829110D01*
X20123061Y-14826977D01*
X20107833Y-14826148D01*
X20091422Y-14826537D01*
X20055577Y-14830604D01*
X20016569Y-14838465D01*
X19975445Y-14849405D01*
X19933250Y-14862709D01*
X19891030Y-14877662D01*
X19810693Y-14909659D01*
X19742797Y-14939679D01*
X19695707Y-14962005D01*
X19654031Y-14983453D01*
X19614451Y-15006051D01*
X19576858Y-15029926D01*
X19541142Y-15055205D01*
X19507191Y-15082016D01*
X19474896Y-15110485D01*
X19444147Y-15140741D01*
X19414832Y-15172910D01*
X19386842Y-15207121D01*
X19360066Y-15243499D01*
X19334394Y-15282173D01*
X19309716Y-15323269D01*
X19285922Y-15366915D01*
X19262900Y-15413239D01*
X19240541Y-15462367D01*
X19218734Y-15514427D01*
X19187907Y-15602376D01*
X19150907Y-15725957D01*
X19110149Y-15875378D01*
X19068049Y-16040846D01*
X19027020Y-16212568D01*
X18989478Y-16380751D01*
X18957838Y-16535602D01*
X18934515Y-16667327D01*
X18917910Y-16794129D01*
X18897026Y-16919069D01*
X18884872Y-16980867D01*
X18871520Y-17042230D01*
X18856928Y-17103168D01*
X18841052Y-17163693D01*
X18823849Y-17223813D01*
X18805277Y-17283540D01*
X18785294Y-17342883D01*
X18763855Y-17401852D01*
X18740919Y-17460459D01*
X18716442Y-17518712D01*
X18690382Y-17576622D01*
X18662697Y-17634200D01*
X18650176Y-17655641D01*
X18638488Y-17676338D01*
X18627888Y-17695732D01*
X18618632Y-17713263D01*
X18610976Y-17728371D01*
X18605176Y-17740498D01*
X18603052Y-17745269D01*
X18601487Y-17749084D01*
X18600515Y-17751875D01*
X18600166Y-17753570D01*
X18600808Y-17761297D01*
X18602652Y-17768740D01*
X18605580Y-17775945D01*
X18609473Y-17782957D01*
X18614210Y-17789823D01*
X18619672Y-17796589D01*
X18632295Y-17810001D01*
X18660990Y-17837637D01*
X18675150Y-17852593D01*
X18681765Y-17860517D01*
X18687912Y-17868798D01*
X18693469Y-17877484D01*
X18698319Y-17886619D01*
X18702341Y-17896249D01*
X18705416Y-17906421D01*
X18707424Y-17917180D01*
X18708247Y-17928572D01*
X18707765Y-17940643D01*
X18705858Y-17953439D01*
X18702407Y-17967006D01*
X18697292Y-17981389D01*
X18690394Y-17996634D01*
X18681593Y-18012788D01*
X18670771Y-18029896D01*
X18657807Y-18048003D01*
X18642582Y-18067156D01*
X18624977Y-18087401D01*
X18612654Y-18102590D01*
X18601277Y-18117982D01*
X18590817Y-18133569D01*
X18581247Y-18149344D01*
X18572538Y-18165300D01*
X18564660Y-18181430D01*
X18551284Y-18214182D01*
X18540892Y-18247542D01*
X18533252Y-18281455D01*
X18528136Y-18315861D01*
X18525315Y-18350704D01*
X18524558Y-18385926D01*
X18525637Y-18421470D01*
X18528321Y-18457279D01*
X18532382Y-18493294D01*
X18537589Y-18529458D01*
X18543713Y-18565715D01*
X18557796Y-18638274D01*
X18561560Y-18652900D01*
X18567012Y-18668690D01*
X18573982Y-18685472D01*
X18582298Y-18703076D01*
X18591789Y-18721328D01*
X18602284Y-18740057D01*
X18613611Y-18759091D01*
X18625598Y-18778258D01*
X18650869Y-18816305D01*
X18676726Y-18852823D01*
X18701798Y-18886436D01*
X18724712Y-18915771D01*
X18750005Y-18944174D01*
X18780686Y-18972930D01*
X18856959Y-19030427D01*
X18951023Y-19086117D01*
X19060374Y-19137858D01*
X19182505Y-19183504D01*
X19314910Y-19220913D01*
X19455084Y-19247940D01*
X19527301Y-19256891D01*
X19600520Y-19262443D01*
X19674429Y-19264327D01*
X19748714Y-19262276D01*
X19823061Y-19256022D01*
X19897158Y-19245297D01*
X19970691Y-19229833D01*
X20043347Y-19209362D01*
X20114812Y-19183616D01*
X20184775Y-19152326D01*
X20252920Y-19115226D01*
X20318936Y-19072047D01*
X20382508Y-19022521D01*
X20443324Y-18966381D01*
X20501071Y-18903357D01*
X20555434Y-18833183D01*
X20606101Y-18755590D01*
X20652759Y-18670310D01*
X20678655Y-18613829D01*
X20700257Y-18555680D01*
X20717780Y-18496078D01*
X20731439Y-18435237D01*
X20741450Y-18373374D01*
X20748026Y-18310703D01*
X20751383Y-18247438D01*
X20751735Y-18183796D01*
X20749299Y-18119990D01*
X20744287Y-18056236D01*
X20736916Y-17992749D01*
X20727400Y-17929744D01*
X20702794Y-17806040D01*
X20672188Y-17686843D01*
X20637301Y-17573874D01*
X20599851Y-17468851D01*
X20561560Y-17373496D01*
X20524144Y-17289529D01*
X20489324Y-17218668D01*
X20458819Y-17162634D01*
X20452966Y-17153190D01*
X20585808Y-17153190D01*
X20586078Y-17155227D01*
X20670967Y-17357405D01*
X20709290Y-17455745D01*
X20744372Y-17552629D01*
X20775846Y-17648340D01*
X20803341Y-17743159D01*
X20826489Y-17837370D01*
X20844922Y-17931255D01*
X20858269Y-18025096D01*
X20866162Y-18119175D01*
X20868231Y-18213777D01*
X20864109Y-18309182D01*
X20853425Y-18405673D01*
X20835811Y-18503533D01*
X20810898Y-18603045D01*
X20778316Y-18704490D01*
X20762859Y-18746849D01*
X20757528Y-18762230D01*
X20753224Y-18775629D01*
X20751709Y-18780977D01*
X20750754Y-18785098D01*
X20750460Y-18787750D01*
X20750592Y-18788448D01*
X20750927Y-18788688D01*
X20752691Y-18788471D01*
X20754768Y-18787831D01*
X20759795Y-18785346D01*
X20765878Y-18781363D01*
X20772890Y-18776009D01*
X20780702Y-18769414D01*
X20789185Y-18761706D01*
X20798211Y-18753014D01*
X20807652Y-18743466D01*
X20817380Y-18733193D01*
X20827265Y-18722321D01*
X20837180Y-18710980D01*
X20846996Y-18699299D01*
X20856584Y-18687407D01*
X20865817Y-18675432D01*
X20874566Y-18663502D01*
X20882702Y-18651748D01*
X20922475Y-18591143D01*
X20960033Y-18530274D01*
X20995448Y-18469275D01*
X21028791Y-18408280D01*
X21060135Y-18347423D01*
X21089552Y-18286838D01*
X21142891Y-18167018D01*
X21189386Y-18049895D01*
X21229612Y-17936540D01*
X21264147Y-17828026D01*
X21293566Y-17725424D01*
X21318446Y-17629807D01*
X21339364Y-17542248D01*
X21371617Y-17395591D01*
X21394938Y-17294031D01*
X21404689Y-17262843D01*
X21409340Y-17252617D01*
X21413936Y-17246147D01*
X21422621Y-17237460D01*
X21430308Y-17229499D01*
X21437011Y-17222196D01*
X21439999Y-17218769D01*
X21442748Y-17215480D01*
X21445258Y-17212320D01*
X21447532Y-17209281D01*
X21449573Y-17206353D01*
X21451382Y-17203529D01*
X21452960Y-17200799D01*
X21454311Y-17198155D01*
X21455435Y-17195587D01*
X21456335Y-17193088D01*
X21457013Y-17190648D01*
X21457471Y-17188259D01*
X21457710Y-17185912D01*
X21457733Y-17183599D01*
X21457542Y-17181309D01*
X21457138Y-17179036D01*
X21456524Y-17176770D01*
X21455701Y-17174502D01*
X21454671Y-17172223D01*
X21453437Y-17169926D01*
X21452001Y-17167600D01*
X21450364Y-17165238D01*
X21448527Y-17162831D01*
X21446495Y-17160370D01*
X21444267Y-17157846D01*
X21441847Y-17155250D01*
X21436977Y-17152641D01*
X21427608Y-17150107D01*
X21396606Y-17145302D01*
X21351310Y-17140913D01*
X21294191Y-17137014D01*
X21227721Y-17133682D01*
X21154371Y-17130994D01*
X20996912Y-17127853D01*
X20996906Y-17127830D01*
X20917728Y-17127521D01*
X20841539Y-17128142D01*
X20770818Y-17129763D01*
X20708048Y-17132451D01*
X20680419Y-17134216D01*
X20655707Y-17136273D01*
X20634224Y-17138631D01*
X20616279Y-17141298D01*
X20602181Y-17144283D01*
X20596672Y-17145897D01*
X20592242Y-17147593D01*
X20588929Y-17149374D01*
X20586771Y-17151239D01*
X20585808Y-17153190D01*
X20452966Y-17153190D01*
X20434349Y-17123148D01*
X20417631Y-17101928D01*
X20415110Y-17096246D01*
X20419518Y-17090730D01*
X20447349Y-17080300D01*
X20497570Y-17070852D01*
X20566629Y-17062595D01*
X20747050Y-17050503D01*
X20960192Y-17045716D01*
X21070152Y-17046590D01*
X21177635Y-17049924D01*
X21279088Y-17055930D01*
X21370958Y-17064818D01*
X21449694Y-17076801D01*
X21511742Y-17092090D01*
X21535398Y-17101040D01*
X21553550Y-17110896D01*
X21565754Y-17121684D01*
X21571565Y-17133430D01*
X21572548Y-17139265D01*
X21573148Y-17144943D01*
X21573329Y-17150551D01*
X21573057Y-17156174D01*
X21572295Y-17161901D01*
X21571008Y-17167816D01*
X21569160Y-17174008D01*
X21566716Y-17180562D01*
X21563640Y-17187564D01*
X21559897Y-17195102D01*
X21555451Y-17203263D01*
X21550267Y-17212131D01*
X21544309Y-17221795D01*
X21537541Y-17232341D01*
X21521434Y-17256423D01*
X21502920Y-17284101D01*
X21495149Y-17296393D01*
X21488212Y-17308129D01*
X21481993Y-17319664D01*
X21476373Y-17331354D01*
X21471236Y-17343553D01*
X21466464Y-17356618D01*
X21461941Y-17370904D01*
X21457548Y-17386767D01*
X21453170Y-17404562D01*
X21448688Y-17424645D01*
X21438947Y-17473096D01*
X21427385Y-17534965D01*
X21357661Y-17839430D01*
X21265718Y-18124252D01*
X21153039Y-18389432D01*
X21021104Y-18634969D01*
X20871395Y-18860863D01*
X20705393Y-19067114D01*
X20524579Y-19253723D01*
X20330435Y-19420689D01*
X20124441Y-19568013D01*
X19908078Y-19695693D01*
X19682828Y-19803730D01*
X19450172Y-19892125D01*
X19211592Y-19960877D01*
X18968568Y-20009986D01*
X18722581Y-20039451D01*
X18475114Y-20049274D01*
X18227646Y-20039454D01*
X17981659Y-20009991D01*
X17738635Y-19960884D01*
X17500054Y-19892135D01*
X17267398Y-19803742D01*
X17042148Y-19695706D01*
X16825786Y-19568027D01*
X16619791Y-19420704D01*
X16603362Y-19406575D01*
X16845201Y-19406575D01*
X16846572Y-19413127D01*
X16862413Y-19433446D01*
X16895038Y-19462170D01*
X16943630Y-19497838D01*
X17007374Y-19538993D01*
X17085454Y-19584174D01*
X17177052Y-19631924D01*
X17281353Y-19680782D01*
X17397540Y-19729291D01*
X17524798Y-19775990D01*
X17662309Y-19819422D01*
X17809258Y-19858126D01*
X17964829Y-19890644D01*
X18128204Y-19915517D01*
X18298568Y-19931286D01*
X18475105Y-19936492D01*
X18564094Y-19935301D01*
X18651642Y-19931287D01*
X18737646Y-19924632D01*
X18822006Y-19915519D01*
X18904618Y-19904129D01*
X18985381Y-19890647D01*
X19064193Y-19875253D01*
X19140952Y-19858130D01*
X19215555Y-19839461D01*
X19287901Y-19819428D01*
X19357887Y-19798213D01*
X19425412Y-19775998D01*
X19490374Y-19752967D01*
X19552670Y-19729301D01*
X19668857Y-19680794D01*
X19773158Y-19631936D01*
X19864757Y-19584188D01*
X19942836Y-19539006D01*
X20006580Y-19497851D01*
X20055173Y-19462181D01*
X20087798Y-19433455D01*
X20097867Y-19422152D01*
X20103638Y-19413132D01*
X20105010Y-19406578D01*
X20101879Y-19402671D01*
X20090240Y-19400516D01*
X20067625Y-19400920D01*
X19992747Y-19406968D01*
X19883801Y-19415939D01*
X19747342Y-19422956D01*
X19670844Y-19424209D01*
X19589926Y-19423144D01*
X19505408Y-19419153D01*
X19418110Y-19411626D01*
X19328850Y-19399954D01*
X19238449Y-19383526D01*
X19147725Y-19361734D01*
X19057499Y-19333968D01*
X19032552Y-19326027D01*
X19010508Y-19319217D01*
X18991142Y-19313579D01*
X18974233Y-19309153D01*
X18966630Y-19307406D01*
X18959557Y-19305978D01*
X18952986Y-19304871D01*
X18946891Y-19304093D01*
X18941243Y-19303647D01*
X18936013Y-19303539D01*
X18931175Y-19303773D01*
X18926700Y-19304355D01*
X18922561Y-19305289D01*
X18918729Y-19306580D01*
X18915177Y-19308234D01*
X18911878Y-19310255D01*
X18908802Y-19312649D01*
X18905923Y-19315420D01*
X18903212Y-19318573D01*
X18900642Y-19322113D01*
X18898184Y-19326045D01*
X18895812Y-19330374D01*
X18893496Y-19335106D01*
X18891210Y-19340244D01*
X18886613Y-19351761D01*
X18881799Y-19364966D01*
X18878887Y-19372889D01*
X18875955Y-19380379D01*
X18872994Y-19387436D01*
X18869998Y-19394059D01*
X18866959Y-19400248D01*
X18863869Y-19406000D01*
X18860722Y-19411316D01*
X18857510Y-19416195D01*
X18855877Y-19418470D01*
X18854224Y-19420635D01*
X18852552Y-19422691D01*
X18850859Y-19424636D01*
X18849144Y-19426472D01*
X18847406Y-19428197D01*
X18845645Y-19429812D01*
X18843859Y-19431317D01*
X18842047Y-19432711D01*
X18840209Y-19433995D01*
X18838343Y-19435168D01*
X18836449Y-19436230D01*
X18834525Y-19437181D01*
X18832571Y-19438021D01*
X18830586Y-19438750D01*
X18828569Y-19439368D01*
X18815023Y-19442298D01*
X18789236Y-19444828D01*
X18707935Y-19448692D01*
X18598645Y-19450978D01*
X18475345Y-19451705D01*
X18352014Y-19450890D01*
X18242633Y-19448550D01*
X18161180Y-19444704D01*
X18135296Y-19442221D01*
X18121635Y-19439368D01*
X18117633Y-19438020D01*
X18113756Y-19436228D01*
X18109996Y-19433992D01*
X18106346Y-19431314D01*
X18102798Y-19428194D01*
X18099345Y-19424633D01*
X18095980Y-19420632D01*
X18092695Y-19416192D01*
X18089483Y-19411314D01*
X18086335Y-19405998D01*
X18083246Y-19400246D01*
X18080207Y-19394058D01*
X18077211Y-19387435D01*
X18074250Y-19380379D01*
X18071317Y-19372889D01*
X18068405Y-19364966D01*
X18065360Y-19356514D01*
X18062431Y-19348738D01*
X18059564Y-19341625D01*
X18056705Y-19335166D01*
X18053800Y-19329348D01*
X18052313Y-19326676D01*
X18050794Y-19324160D01*
X18049237Y-19321799D01*
X18047634Y-19319591D01*
X18045979Y-19317535D01*
X18044265Y-19315630D01*
X18042486Y-19313874D01*
X18040634Y-19312265D01*
X18038702Y-19310803D01*
X18036685Y-19309486D01*
X18034574Y-19308312D01*
X18032364Y-19307280D01*
X18030048Y-19306389D01*
X18027619Y-19305637D01*
X18025069Y-19305023D01*
X18022393Y-19304545D01*
X18019583Y-19304203D01*
X18016634Y-19303994D01*
X18013537Y-19303917D01*
X18010286Y-19303971D01*
X18006875Y-19304154D01*
X18003296Y-19304465D01*
X18003298Y-19304465D01*
X17993983Y-19305754D01*
X17983568Y-19307740D01*
X17971958Y-19310418D01*
X17959061Y-19313781D01*
X17944782Y-19317823D01*
X17929026Y-19322539D01*
X17892712Y-19333968D01*
X17847712Y-19348636D01*
X17802485Y-19361734D01*
X17757134Y-19373339D01*
X17711762Y-19383526D01*
X17666470Y-19392372D01*
X17621360Y-19399954D01*
X17532101Y-19411626D01*
X17444802Y-19419153D01*
X17360284Y-19423144D01*
X17279367Y-19424209D01*
X17202869Y-19422956D01*
X17131610Y-19419997D01*
X17066410Y-19415939D01*
X16957463Y-19406968D01*
X16882585Y-19400920D01*
X16859971Y-19400516D01*
X16852728Y-19401235D01*
X16848332Y-19402671D01*
X16845201Y-19406575D01*
X16603362Y-19406575D01*
X16425646Y-19253739D01*
X16244832Y-19067130D01*
X16078829Y-18860877D01*
X15929120Y-18634982D01*
X15797185Y-18389443D01*
X15684505Y-18124260D01*
X15592562Y-17839434D01*
X15522837Y-17534965D01*
X15511276Y-17473085D01*
X15506236Y-17447357D01*
X15501534Y-17424629D01*
X15497052Y-17404545D01*
X15492674Y-17386750D01*
X15488281Y-17370888D01*
X15483758Y-17356604D01*
X15478986Y-17343541D01*
X15473849Y-17331344D01*
X15468229Y-17319657D01*
X15462009Y-17308124D01*
X15455072Y-17296390D01*
X15447301Y-17284099D01*
X15428787Y-17256423D01*
X15420290Y-17243840D01*
X15412675Y-17232315D01*
X15405905Y-17221762D01*
X15399946Y-17212094D01*
X15394761Y-17203224D01*
X15390316Y-17195064D01*
X15386573Y-17187529D01*
X15384844Y-17183593D01*
X15492469Y-17183593D01*
X15492492Y-17185904D01*
X15492731Y-17188248D01*
X15493189Y-17190634D01*
X15493867Y-17193071D01*
X15494767Y-17195568D01*
X15495891Y-17198133D01*
X15497242Y-17200776D01*
X15498820Y-17203505D01*
X15500629Y-17206329D01*
X15502669Y-17209256D01*
X15507454Y-17215457D01*
X15513191Y-17222179D01*
X15519894Y-17229492D01*
X15527581Y-17237465D01*
X15536266Y-17246170D01*
X15545508Y-17262861D01*
X15555243Y-17294045D01*
X15578505Y-17395601D01*
X15610676Y-17542258D01*
X15656379Y-17725435D01*
X15685749Y-17828039D01*
X15720237Y-17936555D01*
X15760420Y-18049912D01*
X15806875Y-18167037D01*
X15860181Y-18286858D01*
X15920915Y-18408302D01*
X15989657Y-18530297D01*
X16066983Y-18651771D01*
X16075118Y-18663516D01*
X16083866Y-18675439D01*
X16093098Y-18687410D01*
X16102686Y-18699300D01*
X16112502Y-18710979D01*
X16122416Y-18722320D01*
X16132302Y-18733193D01*
X16142029Y-18743469D01*
X16151471Y-18753019D01*
X16160497Y-18761715D01*
X16168981Y-18769426D01*
X16176793Y-18776024D01*
X16183805Y-18781381D01*
X16189889Y-18785367D01*
X16192542Y-18786806D01*
X16194916Y-18787853D01*
X16196993Y-18788494D01*
X16198757Y-18788711D01*
X16199092Y-18788471D01*
X16199224Y-18787773D01*
X16198930Y-18785122D01*
X16197975Y-18781001D01*
X16196461Y-18775653D01*
X16192157Y-18762255D01*
X16186825Y-18746875D01*
X16171368Y-18704513D01*
X16138786Y-18603067D01*
X16113873Y-18503556D01*
X16096258Y-18405696D01*
X16085574Y-18309205D01*
X16081451Y-18213800D01*
X16083521Y-18119198D01*
X16091413Y-18025118D01*
X16104760Y-17931277D01*
X16123192Y-17837393D01*
X16146340Y-17743182D01*
X16173835Y-17648363D01*
X16205308Y-17552652D01*
X16240391Y-17455768D01*
X16278714Y-17357428D01*
X16363604Y-17155250D01*
X16363879Y-17153195D01*
X16362923Y-17151229D01*
X16357473Y-17147560D01*
X16347563Y-17144232D01*
X16333500Y-17141238D01*
X16294155Y-17136211D01*
X16241907Y-17132402D01*
X16179227Y-17129737D01*
X16108585Y-17128140D01*
X16032450Y-17127537D01*
X15953293Y-17127853D01*
X15953289Y-17127876D01*
X15873591Y-17129053D01*
X15795831Y-17131031D01*
X15722480Y-17133731D01*
X15656011Y-17137074D01*
X15598892Y-17140979D01*
X15553596Y-17145367D01*
X15536154Y-17147717D01*
X15522594Y-17150158D01*
X15513225Y-17152680D01*
X15510208Y-17153968D01*
X15508356Y-17155273D01*
X15503707Y-17160392D01*
X15499839Y-17165257D01*
X15498201Y-17167617D01*
X15496765Y-17169939D01*
X15495531Y-17172234D01*
X15494501Y-17174510D01*
X15493678Y-17176774D01*
X15493064Y-17179037D01*
X15492660Y-17181307D01*
X15492469Y-17183593D01*
X15384844Y-17183593D01*
X15383498Y-17180530D01*
X15382200Y-17177205D01*
X15381055Y-17173981D01*
X15380060Y-17170849D01*
X15379209Y-17167796D01*
X15378498Y-17164812D01*
X15377923Y-17161886D01*
X15377479Y-17159007D01*
X15377162Y-17156165D01*
X15376967Y-17153348D01*
X15376891Y-17150546D01*
X15376927Y-17147747D01*
X15377073Y-17144941D01*
X15377674Y-17139265D01*
X15378657Y-17133430D01*
X15384469Y-17121684D01*
X15396673Y-17110896D01*
X15414825Y-17101040D01*
X15438481Y-17092090D01*
X15500529Y-17076801D01*
X15579265Y-17064818D01*
X15671136Y-17055930D01*
X15772589Y-17049924D01*
X15880071Y-17046590D01*
X15990031Y-17045716D01*
X16203173Y-17050503D01*
X16299250Y-17055742D01*
X16383594Y-17062595D01*
X16452653Y-17070852D01*
X16502874Y-17080300D01*
X16530704Y-17090730D01*
X16535113Y-17096246D01*
X16532592Y-17101928D01*
X16515868Y-17123143D01*
X16491380Y-17162626D01*
X16425996Y-17289517D01*
X16388541Y-17373484D01*
X16350206Y-17468840D01*
X16312710Y-17573863D01*
X16277775Y-17686835D01*
X16247120Y-17806033D01*
X16222468Y-17929740D01*
X16205538Y-18056234D01*
X16198051Y-18183795D01*
X16198386Y-18247438D01*
X16201727Y-18310703D01*
X16208290Y-18373375D01*
X16218289Y-18435238D01*
X16231939Y-18496079D01*
X16249455Y-18555681D01*
X16271053Y-18613830D01*
X16296947Y-18670310D01*
X16343606Y-18755590D01*
X16394278Y-18833183D01*
X16448648Y-18903357D01*
X16506404Y-18966381D01*
X16567232Y-19022521D01*
X16630818Y-19072047D01*
X16696849Y-19115226D01*
X16765012Y-19152326D01*
X16834993Y-19183616D01*
X16906479Y-19209362D01*
X16979157Y-19229833D01*
X17052712Y-19245297D01*
X17126832Y-19256022D01*
X17201203Y-19262276D01*
X17275512Y-19264327D01*
X17349444Y-19262443D01*
X17422688Y-19256891D01*
X17494929Y-19247940D01*
X17565854Y-19235858D01*
X17635150Y-19220913D01*
X17683258Y-19207325D01*
X18165758Y-19207325D01*
X18165927Y-19212348D01*
X18166280Y-19217560D01*
X18167466Y-19228677D01*
X18169178Y-19240928D01*
X18173761Y-19273307D01*
X18176122Y-19286183D01*
X18179256Y-19297072D01*
X18183706Y-19306138D01*
X18186594Y-19310039D01*
X18190016Y-19313547D01*
X18194038Y-19316682D01*
X18198730Y-19319465D01*
X18210392Y-19324057D01*
X18225547Y-19327488D01*
X18244737Y-19329926D01*
X18268508Y-19331534D01*
X18297403Y-19332478D01*
X18372740Y-19333038D01*
X18475101Y-19332931D01*
X18577452Y-19333038D01*
X18618224Y-19332924D01*
X18652785Y-19332477D01*
X18681679Y-19331532D01*
X18694171Y-19330821D01*
X18705450Y-19329924D01*
X18715584Y-19328819D01*
X18724641Y-19327486D01*
X18732690Y-19325905D01*
X18739798Y-19324054D01*
X18746032Y-19321913D01*
X18751462Y-19319461D01*
X18756155Y-19316678D01*
X18760179Y-19313543D01*
X18763602Y-19310036D01*
X18766491Y-19306134D01*
X18768916Y-19301819D01*
X18770944Y-19297068D01*
X18772642Y-19291862D01*
X18774080Y-19286180D01*
X18775324Y-19280001D01*
X18776443Y-19273304D01*
X18781027Y-19240928D01*
X18782738Y-19228678D01*
X18783926Y-19217561D01*
X18784449Y-19207328D01*
X18784170Y-19197729D01*
X18782947Y-19188513D01*
X18781938Y-19183970D01*
X18780642Y-19179430D01*
X18779039Y-19174861D01*
X18777114Y-19170231D01*
X18774848Y-19165510D01*
X18772225Y-19160666D01*
X18765834Y-19150483D01*
X18757803Y-19139434D01*
X18747991Y-19127269D01*
X18736259Y-19113736D01*
X18722467Y-19098587D01*
X18706476Y-19081571D01*
X18667337Y-19040938D01*
X18658399Y-19031524D01*
X18649228Y-19021495D01*
X18630456Y-18999977D01*
X18611557Y-18977155D01*
X18593071Y-18953798D01*
X18575535Y-18930676D01*
X18559488Y-18908556D01*
X18545467Y-18888210D01*
X18534012Y-18870406D01*
X18534014Y-18870406D01*
X18514952Y-18837764D01*
X18506919Y-18824876D01*
X18499671Y-18814289D01*
X18496291Y-18809862D01*
X18493048Y-18806014D01*
X18489921Y-18802746D01*
X18486890Y-18800061D01*
X18483935Y-18797958D01*
X18481037Y-18796439D01*
X18478174Y-18795505D01*
X18475328Y-18795158D01*
X18472478Y-18795399D01*
X18469605Y-18796230D01*
X18466687Y-18797650D01*
X18463706Y-18799662D01*
X18460641Y-18802267D01*
X18457472Y-18805466D01*
X18454180Y-18809261D01*
X18450743Y-18813652D01*
X18443359Y-18824228D01*
X18435159Y-18837206D01*
X18425984Y-18852596D01*
X18415674Y-18870406D01*
X18404241Y-18888204D01*
X18390278Y-18908547D01*
X18374313Y-18930665D01*
X18356872Y-18953790D01*
X18338480Y-18977149D01*
X18319664Y-18999974D01*
X18300950Y-19021494D01*
X18291797Y-19031524D01*
X18282865Y-19040938D01*
X18243741Y-19081562D01*
X18227754Y-19098576D01*
X18213964Y-19113723D01*
X18202233Y-19127255D01*
X18197096Y-19133493D01*
X18192421Y-19139421D01*
X18188191Y-19145070D01*
X18184388Y-19150471D01*
X18180996Y-19155655D01*
X18177996Y-19160654D01*
X18175371Y-19165499D01*
X18173104Y-19170221D01*
X18171178Y-19174852D01*
X18169574Y-19179422D01*
X18168276Y-19183963D01*
X18167266Y-19188506D01*
X18166527Y-19193083D01*
X18166041Y-19197724D01*
X18165790Y-19202461D01*
X18165758Y-19207325D01*
X17683258Y-19207325D01*
X17767599Y-19183504D01*
X17889769Y-19137858D01*
X17999153Y-19086117D01*
X18093243Y-19030427D01*
X18133769Y-19001770D01*
X18169531Y-18972930D01*
X18200217Y-18944174D01*
X18225512Y-18915771D01*
X18248404Y-18886443D01*
X18273417Y-18852834D01*
X18299191Y-18816317D01*
X18324367Y-18778270D01*
X18336306Y-18759101D01*
X18347586Y-18740066D01*
X18358037Y-18721336D01*
X18367488Y-18703082D01*
X18375771Y-18685477D01*
X18382716Y-18668693D01*
X18388151Y-18652901D01*
X18391909Y-18638274D01*
X18405990Y-18565713D01*
X18412115Y-18529455D01*
X18417322Y-18493290D01*
X18421382Y-18457275D01*
X18424067Y-18421467D01*
X18425145Y-18385923D01*
X18424389Y-18350701D01*
X18421567Y-18315859D01*
X18416452Y-18281453D01*
X18408813Y-18247541D01*
X18403975Y-18230788D01*
X18398420Y-18214180D01*
X18392120Y-18197725D01*
X18385045Y-18181429D01*
X18377167Y-18165299D01*
X18368458Y-18149344D01*
X18358888Y-18133569D01*
X18348428Y-18117982D01*
X18337051Y-18102590D01*
X18324728Y-18087401D01*
X18307123Y-18067156D01*
X18291897Y-18048003D01*
X18278933Y-18029896D01*
X18268110Y-18012788D01*
X18259309Y-17996634D01*
X18252411Y-17981389D01*
X18247295Y-17967006D01*
X18243844Y-17953439D01*
X18241936Y-17940643D01*
X18241453Y-17928572D01*
X18242276Y-17917180D01*
X18244284Y-17906421D01*
X18247358Y-17896249D01*
X18251380Y-17886619D01*
X18256229Y-17877484D01*
X18261786Y-17868798D01*
X18267932Y-17860517D01*
X18274547Y-17852593D01*
X18288706Y-17837637D01*
X18317399Y-17810001D01*
X18330022Y-17796589D01*
X18335484Y-17789823D01*
X18340221Y-17782957D01*
X18344113Y-17775945D01*
X18347042Y-17768740D01*
X18348886Y-17761297D01*
X18349527Y-17753570D01*
X18349184Y-17751875D01*
X18348228Y-17749086D01*
X18344599Y-17740503D01*
X18338882Y-17728379D01*
X18331321Y-17713274D01*
X18322161Y-17695745D01*
X18311644Y-17676351D01*
X18300015Y-17655650D01*
X18287517Y-17634200D01*
X18259831Y-17576622D01*
X18233771Y-17518712D01*
X18209295Y-17460459D01*
X18186358Y-17401852D01*
X18164920Y-17342883D01*
X18144936Y-17283540D01*
X18126364Y-17223813D01*
X18109162Y-17163693D01*
X18093286Y-17103168D01*
X18078693Y-17042230D01*
X18053188Y-16919069D01*
X18032304Y-16794129D01*
X18015699Y-16667327D01*
X17992377Y-16535602D01*
X17960737Y-16380750D01*
X17923195Y-16212566D01*
X17882166Y-16040844D01*
X17840065Y-15875375D01*
X17799307Y-15725954D01*
X17762306Y-15602373D01*
X17731479Y-15514427D01*
X17709666Y-15462367D01*
X17687291Y-15413239D01*
X17664244Y-15366915D01*
X17640416Y-15323269D01*
X17615699Y-15282173D01*
X17589984Y-15243499D01*
X17563161Y-15207121D01*
X17535123Y-15172910D01*
X17505760Y-15140741D01*
X17474964Y-15110485D01*
X17442625Y-15082016D01*
X17408635Y-15055205D01*
X17372885Y-15029926D01*
X17335267Y-15006051D01*
X17295671Y-14983453D01*
X17253988Y-14962005D01*
X17206921Y-14939679D01*
X17139084Y-14909659D01*
X17099987Y-14893551D01*
X17058830Y-14877662D01*
X17016656Y-14862709D01*
X16974509Y-14849405D01*
X16933433Y-14838465D01*
X16894473Y-14830604D01*
X16876112Y-14828052D01*
X16858671Y-14826537D01*
X16842281Y-14826148D01*
X16827072Y-14826977D01*
X16813174Y-14829110D01*
X16800719Y-14832639D01*
X16789836Y-14837652D01*
X16780657Y-14844239D01*
X16773311Y-14852488D01*
X16767929Y-14862490D01*
X16764642Y-14874333D01*
X16763580Y-14888107D01*
X16765457Y-14903946D01*
X16770665Y-14931701D01*
X16789270Y-15015925D01*
X16846613Y-15249996D01*
X16906751Y-15477790D01*
X16928851Y-15554167D01*
X16936331Y-15576822D01*
X16940829Y-15586776D01*
X16943757Y-15589227D01*
X16947089Y-15590869D01*
X16950793Y-15591738D01*
X16954836Y-15591870D01*
X16959187Y-15591302D01*
X16963811Y-15590070D01*
X16968677Y-15588211D01*
X16973751Y-15585761D01*
X16979002Y-15582756D01*
X16984395Y-15579233D01*
X16995482Y-15570777D01*
X17006749Y-15560684D01*
X17017935Y-15549244D01*
X17028779Y-15536748D01*
X17039018Y-15523487D01*
X17048392Y-15509753D01*
X17056639Y-15495835D01*
X17063496Y-15482024D01*
X17066323Y-15475250D01*
X17068704Y-15468612D01*
X17070607Y-15462146D01*
X17071999Y-15455888D01*
X17072848Y-15449876D01*
X17073120Y-15444145D01*
X17072798Y-15433409D01*
X17071964Y-15422081D01*
X17068959Y-15397903D01*
X17064506Y-15372130D01*
X17059007Y-15345279D01*
X17034583Y-15237447D01*
X17029878Y-15212969D01*
X17026537Y-15190518D01*
X17024961Y-15170612D01*
X17024961Y-15161775D01*
X17025552Y-15153768D01*
X17026786Y-15146656D01*
X17028712Y-15140504D01*
X17031381Y-15135376D01*
X17034842Y-15131337D01*
X17039147Y-15128452D01*
X17044345Y-15126785D01*
X17050486Y-15126401D01*
X17057620Y-15127365D01*
X17069825Y-15130268D01*
X17082247Y-15133745D01*
X17094847Y-15137760D01*
X17107585Y-15142277D01*
X17120423Y-15147262D01*
X17133320Y-15152679D01*
X17159138Y-15164668D01*
X17184724Y-15177960D01*
X17209764Y-15192275D01*
X17233943Y-15207328D01*
X17256948Y-15222837D01*
X17278463Y-15238520D01*
X17298174Y-15254094D01*
X17315768Y-15269277D01*
X17330929Y-15283785D01*
X17337499Y-15290698D01*
X17343343Y-15297336D01*
X17348421Y-15303664D01*
X17352696Y-15309648D01*
X17356126Y-15315250D01*
X17358673Y-15320437D01*
X17360297Y-15325173D01*
X17360960Y-15329422D01*
X17360426Y-15334068D01*
X17358538Y-15339982D01*
X17350988Y-15355374D01*
X17338876Y-15375125D01*
X17322769Y-15398760D01*
X17280835Y-15455793D01*
X17229716Y-15522686D01*
X17173945Y-15595651D01*
X17118052Y-15670901D01*
X17091477Y-15708200D01*
X17066570Y-15744650D01*
X17043899Y-15779778D01*
X17024030Y-15813110D01*
X16976963Y-15911134D01*
X16934011Y-16009017D01*
X16894926Y-16105968D01*
X16859459Y-16201196D01*
X16827362Y-16293909D01*
X16798385Y-16383317D01*
X16748801Y-16549052D01*
X16676152Y-16806052D01*
X16662064Y-16850173D01*
X16649109Y-16884660D01*
X16637039Y-16908723D01*
X16631258Y-16916597D01*
X16625605Y-16921569D01*
X16601621Y-16928935D01*
X16554362Y-16936797D01*
X16403779Y-16952272D01*
X16201371Y-16964515D01*
X15974656Y-16970047D01*
X15860782Y-16969208D01*
X15751149Y-16965387D01*
X15649197Y-16958148D01*
X15558365Y-16947057D01*
X15482094Y-16931678D01*
X15450493Y-16922245D01*
X15423822Y-16911577D01*
X15402511Y-16899620D01*
X15386989Y-16886319D01*
X15377687Y-16871620D01*
X15375035Y-16855468D01*
X15375035Y-16854957D01*
X15376142Y-16839217D01*
X15377838Y-16824837D01*
X15378018Y-16823789D01*
X15493521Y-16823789D01*
X15494349Y-16826572D01*
X15496112Y-16829158D01*
X15498867Y-16831539D01*
X15502675Y-16833709D01*
X15518233Y-16839785D01*
X15537662Y-16845151D01*
X15587013Y-16853880D01*
X15648484Y-16860144D01*
X15719831Y-16864193D01*
X15798810Y-16866277D01*
X15883177Y-16866644D01*
X16059097Y-16863224D01*
X16229641Y-16855927D01*
X16376855Y-16846747D01*
X16482787Y-16837677D01*
X16529485Y-16830711D01*
X16536030Y-16823063D01*
X16544448Y-16806009D01*
X16566158Y-16747531D01*
X16593127Y-16662968D01*
X16623867Y-16560012D01*
X16690714Y-16329687D01*
X16723844Y-16217701D01*
X16754795Y-16118087D01*
X16763124Y-16079441D01*
X16769789Y-16039530D01*
X16778448Y-15956436D01*
X16781421Y-15869845D01*
X16779354Y-15780798D01*
X16772895Y-15690337D01*
X16762693Y-15599502D01*
X16749393Y-15509333D01*
X16733645Y-15420872D01*
X16716094Y-15335160D01*
X16697389Y-15253237D01*
X16659107Y-15104922D01*
X16623978Y-14984254D01*
X16597182Y-14899559D01*
X16597182Y-14899460D01*
X16500419Y-14987784D01*
X16408510Y-15079978D01*
X16321417Y-15175890D01*
X16239105Y-15275370D01*
X16161538Y-15378264D01*
X16088679Y-15484422D01*
X16020494Y-15593691D01*
X15956946Y-15705921D01*
X15898000Y-15820959D01*
X15843619Y-15938654D01*
X15793767Y-16058854D01*
X15748409Y-16181407D01*
X15707509Y-16306163D01*
X15671030Y-16432968D01*
X15638938Y-16561672D01*
X15611195Y-16692123D01*
X15609715Y-16697788D01*
X15607523Y-16703439D01*
X15604680Y-16709069D01*
X15601242Y-16714670D01*
X15597271Y-16720238D01*
X15592823Y-16725764D01*
X15587958Y-16731244D01*
X15582735Y-16736669D01*
X15571448Y-16747332D01*
X15559433Y-16757701D01*
X15535099Y-16777347D01*
X15523721Y-16786520D01*
X15513495Y-16795189D01*
X15504892Y-16803303D01*
X15501346Y-16807136D01*
X15498382Y-16810810D01*
X15496059Y-16814318D01*
X15494435Y-16817656D01*
X15493570Y-16820815D01*
X15493521Y-16823789D01*
X15378018Y-16823789D01*
X15380089Y-16811707D01*
X15382861Y-16799715D01*
X15386122Y-16788750D01*
X15389838Y-16778701D01*
X15393975Y-16769456D01*
X15398500Y-16760904D01*
X15408582Y-16745434D01*
X15419816Y-16731399D01*
X15444672Y-16704075D01*
X15457760Y-16689005D01*
X15470932Y-16671808D01*
X15483922Y-16651594D01*
X15490264Y-16640077D01*
X15496461Y-16627473D01*
X15502479Y-16613668D01*
X15508284Y-16598553D01*
X15513843Y-16582015D01*
X15519123Y-16563944D01*
X15524090Y-16544228D01*
X15528711Y-16522756D01*
X15532953Y-16499416D01*
X15536782Y-16474098D01*
X15562560Y-16357955D01*
X15590815Y-16245952D01*
X15621690Y-16137813D01*
X15655331Y-16033261D01*
X15691883Y-15932020D01*
X15731489Y-15833814D01*
X15774295Y-15738366D01*
X15820446Y-15645402D01*
X15870087Y-15554643D01*
X15923361Y-15465815D01*
X15980415Y-15378640D01*
X16041392Y-15292843D01*
X16106437Y-15208148D01*
X16175696Y-15124278D01*
X16249313Y-15040957D01*
X16327432Y-14957908D01*
X16409702Y-14875776D01*
X16492373Y-14798752D01*
X16575306Y-14726672D01*
X16640007Y-14674248D01*
X16910342Y-14674248D01*
X16920763Y-14683216D01*
X16937954Y-14692066D01*
X16961314Y-14701037D01*
X16990241Y-14710368D01*
X17149592Y-14756061D01*
X17247034Y-14787272D01*
X17298091Y-14805804D01*
X17349903Y-14826606D01*
X17401870Y-14849915D01*
X17453389Y-14875971D01*
X17503860Y-14905013D01*
X17552680Y-14937279D01*
X17574734Y-14952753D01*
X17594652Y-14966187D01*
X17612793Y-14977595D01*
X17629515Y-14986995D01*
X17637456Y-14990947D01*
X17645177Y-14994404D01*
X17652721Y-14997366D01*
X17660135Y-14999837D01*
X17667462Y-15001818D01*
X17674748Y-15003312D01*
X17682037Y-15004320D01*
X17689374Y-15004844D01*
X17696804Y-15004888D01*
X17704371Y-15004452D01*
X17712121Y-15003538D01*
X17720097Y-15002150D01*
X17728346Y-15000288D01*
X17736911Y-14997956D01*
X17755170Y-14991886D01*
X17775232Y-14983957D01*
X17797456Y-14974185D01*
X17822199Y-14962588D01*
X17849819Y-14949180D01*
X17849819Y-14949699D01*
X17911613Y-14922475D01*
X17979955Y-14898879D01*
X18053908Y-14878914D01*
X18132538Y-14862578D01*
X18214908Y-14849872D01*
X18300085Y-14840796D01*
X18387132Y-14835349D01*
X18475113Y-14833533D01*
X18563095Y-14835347D01*
X18650141Y-14840792D01*
X18735316Y-14849866D01*
X18817685Y-14862571D01*
X18896312Y-14878907D01*
X18970262Y-14898874D01*
X19038599Y-14922471D01*
X19100389Y-14949699D01*
X19100389Y-14949180D01*
X19128010Y-14962588D01*
X19152753Y-14974185D01*
X19174976Y-14983956D01*
X19195038Y-14991885D01*
X19204371Y-14995153D01*
X19213297Y-14997954D01*
X19221862Y-15000287D01*
X19230111Y-15002148D01*
X19238088Y-15003536D01*
X19245837Y-15004449D01*
X19253405Y-15004885D01*
X19260834Y-15004842D01*
X19268171Y-15004317D01*
X19275460Y-15003309D01*
X19282746Y-15001815D01*
X19290073Y-14999834D01*
X19297487Y-14997363D01*
X19305031Y-14994400D01*
X19312752Y-14990944D01*
X19320692Y-14986992D01*
X19328898Y-14982542D01*
X19337414Y-14977592D01*
X19355556Y-14966184D01*
X19375474Y-14952752D01*
X19397527Y-14937279D01*
X19421694Y-14920726D01*
X19446348Y-14905009D01*
X19471415Y-14890099D01*
X19496819Y-14875966D01*
X19548338Y-14849909D01*
X19600305Y-14826600D01*
X19652118Y-14805800D01*
X19703176Y-14787270D01*
X19752876Y-14770771D01*
X19800617Y-14756064D01*
X19959969Y-14710378D01*
X19988896Y-14701047D01*
X20012255Y-14692074D01*
X20029445Y-14683221D01*
X20035539Y-14678764D01*
X20039865Y-14674248D01*
X19969788Y-14614349D01*
X19894346Y-14558315D01*
X19813896Y-14506145D01*
X19728796Y-14457839D01*
X19639404Y-14413399D01*
X19546077Y-14372822D01*
X19349051Y-14303263D01*
X19140578Y-14249161D01*
X18923521Y-14210517D01*
X18700742Y-14187331D01*
X18475100Y-14179603D01*
X18249459Y-14187332D01*
X18026679Y-14210519D01*
X17809623Y-14249163D01*
X17601151Y-14303265D01*
X17404126Y-14372824D01*
X17310800Y-14413401D01*
X17221408Y-14457841D01*
X17136309Y-14506146D01*
X17055860Y-14558316D01*
X16980418Y-14614350D01*
X16910342Y-14674248D01*
X16640007Y-14674248D01*
X16658363Y-14659374D01*
X16741407Y-14596692D01*
X16824300Y-14538464D01*
X16906905Y-14484523D01*
X16989083Y-14434708D01*
X17070696Y-14388853D01*
X17151607Y-14346794D01*
X17231678Y-14308368D01*
X17310772Y-14273411D01*
X17465474Y-14213245D01*
X17614612Y-14164984D01*
X17757082Y-14127316D01*
X17891783Y-14098928D01*
X18017613Y-14078508D01*
X18133469Y-14064744D01*
X18238248Y-14056323D01*
X18330848Y-14051933D01*
X18475103Y-14049995D01*
X18620626Y-14052020D01*
G36*
X18620626Y-14052020D02*
G01*
X18818695Y-14065044D01*
X18934709Y-14078938D01*
X19060590Y-14099491D01*
X19195247Y-14128006D01*
X19337590Y-14165785D01*
X19486531Y-14214132D01*
X19640978Y-14274349D01*
X19799841Y-14347741D01*
X19962031Y-14435609D01*
X20126458Y-14539257D01*
X20292032Y-14659987D01*
X20374908Y-14727166D01*
X20457662Y-14799104D01*
X20540158Y-14875963D01*
X20622259Y-14957908D01*
X20700384Y-15040957D01*
X20774017Y-15124278D01*
X20843301Y-15208148D01*
X20908379Y-15292843D01*
X20969395Y-15378640D01*
X21026492Y-15465815D01*
X21079813Y-15554643D01*
X21129502Y-15645402D01*
X21175701Y-15738366D01*
X21218554Y-15833814D01*
X21258204Y-15932020D01*
X21294795Y-16033261D01*
X21328469Y-16137813D01*
X21359370Y-16245952D01*
X21387641Y-16357955D01*
X21413425Y-16474098D01*
X21417254Y-16499412D01*
X21421495Y-16522747D01*
X21426116Y-16544216D01*
X21431082Y-16563929D01*
X21436361Y-16581997D01*
X21441919Y-16598533D01*
X21447723Y-16613647D01*
X21453740Y-16627450D01*
X21459935Y-16640054D01*
X21466277Y-16651570D01*
X21472730Y-16662110D01*
X21479263Y-16671785D01*
X21485842Y-16680705D01*
X21492433Y-16688983D01*
X21505519Y-16704055D01*
X21530372Y-16731385D01*
X21536116Y-16738280D01*
X21541605Y-16745423D01*
X21546807Y-16752925D01*
X21551688Y-16760897D01*
X21556214Y-16769450D01*
X21560353Y-16778697D01*
X21564070Y-16788747D01*
X21567333Y-16799713D01*
X21570108Y-16811706D01*
X21572362Y-16824836D01*
X21574061Y-16839216D01*
X21575172Y-16854957D01*
X21575172Y-16855468D01*
X21572520Y-16871615D01*
X21563218Y-16886309D01*
X21547696Y-16899605D01*
X21526385Y-16911558D01*
X21499714Y-16922222D01*
X21468114Y-16931651D01*
X21391843Y-16947022D01*
X21301012Y-16958107D01*
X21199060Y-16965341D01*
X21089428Y-16969159D01*
X20975553Y-16969995D01*
X20748839Y-16964464D01*
X20546432Y-16952230D01*
X20395848Y-16936771D01*
X20348589Y-16928921D01*
X20324604Y-16921569D01*
X20313169Y-16908723D01*
X20301099Y-16884660D01*
X20274056Y-16806052D01*
X20201407Y-16549052D01*
X20151823Y-16383317D01*
X20090749Y-16201196D01*
X20055282Y-16105968D01*
X20016197Y-16009017D01*
X19973245Y-15911134D01*
X19953467Y-15869944D01*
X20168788Y-15869944D01*
X20171760Y-15956535D01*
X20180420Y-16039629D01*
X20195413Y-16118186D01*
X20226365Y-16217800D01*
X20259495Y-16329786D01*
X20326342Y-16560112D01*
X20357083Y-16663067D01*
X20384052Y-16747630D01*
X20395657Y-16780610D01*
X20405761Y-16806108D01*
X20414178Y-16823162D01*
X20417696Y-16828222D01*
X20420723Y-16830810D01*
X20467420Y-16837744D01*
X20573353Y-16846790D01*
X20720567Y-16855956D01*
X20891111Y-16863248D01*
X21067031Y-16866673D01*
X21230377Y-16864237D01*
X21301724Y-16860198D01*
X21363195Y-16853946D01*
X21412546Y-16845233D01*
X21447532Y-16833808D01*
X21451340Y-16831639D01*
X21454096Y-16829258D01*
X21455859Y-16826674D01*
X21456686Y-16823891D01*
X21456638Y-16820917D01*
X21455773Y-16817759D01*
X21454149Y-16814422D01*
X21451826Y-16810914D01*
X21448862Y-16807241D01*
X21445316Y-16803409D01*
X21436713Y-16795296D01*
X21426487Y-16786627D01*
X21415108Y-16777455D01*
X21390774Y-16757809D01*
X21378759Y-16747439D01*
X21367472Y-16736776D01*
X21357384Y-16725870D01*
X21352936Y-16720343D01*
X21348964Y-16714774D01*
X21345527Y-16709171D01*
X21342684Y-16703541D01*
X21340492Y-16697889D01*
X21339012Y-16692222D01*
X21311269Y-16561770D01*
X21279176Y-16433065D01*
X21242698Y-16306259D01*
X21201797Y-16181503D01*
X21156439Y-16058950D01*
X21106587Y-15938750D01*
X21052206Y-15821055D01*
X20993260Y-15706017D01*
X20929712Y-15593788D01*
X20861527Y-15484519D01*
X20788668Y-15378362D01*
X20711101Y-15275468D01*
X20628789Y-15175989D01*
X20541697Y-15080077D01*
X20449787Y-14987883D01*
X20353025Y-14899559D01*
X20353027Y-14899658D01*
X20326231Y-14984353D01*
X20291102Y-15105021D01*
X20252820Y-15253336D01*
X20216564Y-15420972D01*
X20200815Y-15509432D01*
X20187516Y-15599601D01*
X20177313Y-15690436D01*
X20170854Y-15780898D01*
X20168788Y-15869944D01*
X19953467Y-15869944D01*
X19926178Y-15813110D01*
X19906303Y-15779778D01*
X19883614Y-15744650D01*
X19858681Y-15708201D01*
X19832071Y-15670902D01*
X19776091Y-15595653D01*
X19720221Y-15522689D01*
X19669005Y-15455797D01*
X19626989Y-15398764D01*
X19610850Y-15375128D01*
X19598716Y-15355376D01*
X19591153Y-15339983D01*
X19589264Y-15334069D01*
X19588731Y-15329422D01*
X19589396Y-15325173D01*
X19591025Y-15320439D01*
X19597018Y-15309651D01*
X19606397Y-15297340D01*
X19618844Y-15283790D01*
X19634044Y-15269283D01*
X19651681Y-15254102D01*
X19671440Y-15238528D01*
X19693003Y-15222846D01*
X19716056Y-15207337D01*
X19740282Y-15192283D01*
X19765365Y-15177969D01*
X19790990Y-15164675D01*
X19816841Y-15152685D01*
X19842602Y-15142282D01*
X19867957Y-15133748D01*
X19892589Y-15127365D01*
X19899724Y-15126401D01*
X19905865Y-15126785D01*
X19911063Y-15128452D01*
X19915367Y-15131337D01*
X19918829Y-15135376D01*
X19921498Y-15140504D01*
X19923424Y-15146656D01*
X19924658Y-15153768D01*
X19925249Y-15170612D01*
X19923674Y-15190518D01*
X19920333Y-15212969D01*
X19915628Y-15237447D01*
X19891204Y-15345279D01*
X19885705Y-15372130D01*
X19881252Y-15397903D01*
X19878246Y-15422081D01*
X19877090Y-15444145D01*
X19877363Y-15449879D01*
X19878212Y-15455894D01*
X19879604Y-15462153D01*
X19881507Y-15468621D01*
X19883888Y-15475261D01*
X19886715Y-15482037D01*
X19889953Y-15488912D01*
X19893572Y-15495850D01*
X19897538Y-15502814D01*
X19901819Y-15509769D01*
X19911193Y-15523505D01*
X19921432Y-15536766D01*
X19932275Y-15549261D01*
X19943462Y-15560700D01*
X19949101Y-15565932D01*
X19954729Y-15570792D01*
X19960311Y-15575242D01*
X19965815Y-15579246D01*
X19971209Y-15582768D01*
X19976459Y-15585772D01*
X19981534Y-15588221D01*
X19986399Y-15590079D01*
X19991024Y-15591309D01*
X19995374Y-15591876D01*
X19999418Y-15591742D01*
X20003122Y-15590872D01*
X20006455Y-15589229D01*
X20009382Y-15586776D01*
X20013881Y-15576822D01*
X20021361Y-15554168D01*
X20043461Y-15477793D01*
X20103600Y-15250005D01*
X20160943Y-15015935D01*
X20179548Y-14931708D01*
X20184757Y-14903950D01*
X20186634Y-14888107D01*
X20185570Y-14874333D01*
X20182278Y-14862490D01*
X20176889Y-14852488D01*
X20169534Y-14844239D01*
X20160343Y-14837652D01*
X20149446Y-14832639D01*
X20136975Y-14829110D01*
X20123061Y-14826977D01*
X20107833Y-14826148D01*
X20091422Y-14826537D01*
X20055577Y-14830604D01*
X20016569Y-14838465D01*
X19975445Y-14849405D01*
X19933250Y-14862709D01*
X19891030Y-14877662D01*
X19810693Y-14909659D01*
X19742797Y-14939679D01*
X19695707Y-14962005D01*
X19654031Y-14983453D01*
X19614451Y-15006051D01*
X19576858Y-15029926D01*
X19541142Y-15055205D01*
X19507191Y-15082016D01*
X19474896Y-15110485D01*
X19444147Y-15140741D01*
X19414832Y-15172910D01*
X19386842Y-15207121D01*
X19360066Y-15243499D01*
X19334394Y-15282173D01*
X19309716Y-15323269D01*
X19285922Y-15366915D01*
X19262900Y-15413239D01*
X19240541Y-15462367D01*
X19218734Y-15514427D01*
X19187907Y-15602376D01*
X19150907Y-15725957D01*
X19110149Y-15875378D01*
X19068049Y-16040846D01*
X19027020Y-16212568D01*
X18989478Y-16380751D01*
X18957838Y-16535602D01*
X18934515Y-16667327D01*
X18917910Y-16794129D01*
X18897026Y-16919069D01*
X18884872Y-16980867D01*
X18871520Y-17042230D01*
X18856928Y-17103168D01*
X18841052Y-17163693D01*
X18823849Y-17223813D01*
X18805277Y-17283540D01*
X18785294Y-17342883D01*
X18763855Y-17401852D01*
X18740919Y-17460459D01*
X18716442Y-17518712D01*
X18690382Y-17576622D01*
X18662697Y-17634200D01*
X18650176Y-17655641D01*
X18638488Y-17676338D01*
X18627888Y-17695732D01*
X18618632Y-17713263D01*
X18610976Y-17728371D01*
X18605176Y-17740498D01*
X18603052Y-17745269D01*
X18601487Y-17749084D01*
X18600515Y-17751875D01*
X18600166Y-17753570D01*
X18600808Y-17761297D01*
X18602652Y-17768740D01*
X18605580Y-17775945D01*
X18609473Y-17782957D01*
X18614210Y-17789823D01*
X18619672Y-17796589D01*
X18632295Y-17810001D01*
X18660990Y-17837637D01*
X18675150Y-17852593D01*
X18681765Y-17860517D01*
X18687912Y-17868798D01*
X18693469Y-17877484D01*
X18698319Y-17886619D01*
X18702341Y-17896249D01*
X18705416Y-17906421D01*
X18707424Y-17917180D01*
X18708247Y-17928572D01*
X18707765Y-17940643D01*
X18705858Y-17953439D01*
X18702407Y-17967006D01*
X18697292Y-17981389D01*
X18690394Y-17996634D01*
X18681593Y-18012788D01*
X18670771Y-18029896D01*
X18657807Y-18048003D01*
X18642582Y-18067156D01*
X18624977Y-18087401D01*
X18612654Y-18102590D01*
X18601277Y-18117982D01*
X18590817Y-18133569D01*
X18581247Y-18149344D01*
X18572538Y-18165300D01*
X18564660Y-18181430D01*
X18551284Y-18214182D01*
X18540892Y-18247542D01*
X18533252Y-18281455D01*
X18528136Y-18315861D01*
X18525315Y-18350704D01*
X18524558Y-18385926D01*
X18525637Y-18421470D01*
X18528321Y-18457279D01*
X18532382Y-18493294D01*
X18537589Y-18529458D01*
X18543713Y-18565715D01*
X18557796Y-18638274D01*
X18561560Y-18652900D01*
X18567012Y-18668690D01*
X18573982Y-18685472D01*
X18582298Y-18703076D01*
X18591789Y-18721328D01*
X18602284Y-18740057D01*
X18613611Y-18759091D01*
X18625598Y-18778258D01*
X18650869Y-18816305D01*
X18676726Y-18852823D01*
X18701798Y-18886436D01*
X18724712Y-18915771D01*
X18750005Y-18944174D01*
X18780686Y-18972930D01*
X18856959Y-19030427D01*
X18951023Y-19086117D01*
X19060374Y-19137858D01*
X19182505Y-19183504D01*
X19314910Y-19220913D01*
X19455084Y-19247940D01*
X19527301Y-19256891D01*
X19600520Y-19262443D01*
X19674429Y-19264327D01*
X19748714Y-19262276D01*
X19823061Y-19256022D01*
X19897158Y-19245297D01*
X19970691Y-19229833D01*
X20043347Y-19209362D01*
X20114812Y-19183616D01*
X20184775Y-19152326D01*
X20252920Y-19115226D01*
X20318936Y-19072047D01*
X20382508Y-19022521D01*
X20443324Y-18966381D01*
X20501071Y-18903357D01*
X20555434Y-18833183D01*
X20606101Y-18755590D01*
X20652759Y-18670310D01*
X20678655Y-18613829D01*
X20700257Y-18555680D01*
X20717780Y-18496078D01*
X20731439Y-18435237D01*
X20741450Y-18373374D01*
X20748026Y-18310703D01*
X20751383Y-18247438D01*
X20751735Y-18183796D01*
X20749299Y-18119990D01*
X20744287Y-18056236D01*
X20736916Y-17992749D01*
X20727400Y-17929744D01*
X20702794Y-17806040D01*
X20672188Y-17686843D01*
X20637301Y-17573874D01*
X20599851Y-17468851D01*
X20561560Y-17373496D01*
X20524144Y-17289529D01*
X20489324Y-17218668D01*
X20458819Y-17162634D01*
X20452966Y-17153190D01*
X20585808Y-17153190D01*
X20586078Y-17155227D01*
X20670967Y-17357405D01*
X20709290Y-17455745D01*
X20744372Y-17552629D01*
X20775846Y-17648340D01*
X20803341Y-17743159D01*
X20826489Y-17837370D01*
X20844922Y-17931255D01*
X20858269Y-18025096D01*
X20866162Y-18119175D01*
X20868231Y-18213777D01*
X20864109Y-18309182D01*
X20853425Y-18405673D01*
X20835811Y-18503533D01*
X20810898Y-18603045D01*
X20778316Y-18704490D01*
X20762859Y-18746849D01*
X20757528Y-18762230D01*
X20753224Y-18775629D01*
X20751709Y-18780977D01*
X20750754Y-18785098D01*
X20750460Y-18787750D01*
X20750592Y-18788448D01*
X20750927Y-18788688D01*
X20752691Y-18788471D01*
X20754768Y-18787831D01*
X20759795Y-18785346D01*
X20765878Y-18781363D01*
X20772890Y-18776009D01*
X20780702Y-18769414D01*
X20789185Y-18761706D01*
X20798211Y-18753014D01*
X20807652Y-18743466D01*
X20817380Y-18733193D01*
X20827265Y-18722321D01*
X20837180Y-18710980D01*
X20846996Y-18699299D01*
X20856584Y-18687407D01*
X20865817Y-18675432D01*
X20874566Y-18663502D01*
X20882702Y-18651748D01*
X20922475Y-18591143D01*
X20960033Y-18530274D01*
X20995448Y-18469275D01*
X21028791Y-18408280D01*
X21060135Y-18347423D01*
X21089552Y-18286838D01*
X21142891Y-18167018D01*
X21189386Y-18049895D01*
X21229612Y-17936540D01*
X21264147Y-17828026D01*
X21293566Y-17725424D01*
X21318446Y-17629807D01*
X21339364Y-17542248D01*
X21371617Y-17395591D01*
X21394938Y-17294031D01*
X21404689Y-17262843D01*
X21409340Y-17252617D01*
X21413936Y-17246147D01*
X21422621Y-17237460D01*
X21430308Y-17229499D01*
X21437011Y-17222196D01*
X21439999Y-17218769D01*
X21442748Y-17215480D01*
X21445258Y-17212320D01*
X21447532Y-17209281D01*
X21449573Y-17206353D01*
X21451382Y-17203529D01*
X21452960Y-17200799D01*
X21454311Y-17198155D01*
X21455435Y-17195587D01*
X21456335Y-17193088D01*
X21457013Y-17190648D01*
X21457471Y-17188259D01*
X21457710Y-17185912D01*
X21457733Y-17183599D01*
X21457542Y-17181309D01*
X21457138Y-17179036D01*
X21456524Y-17176770D01*
X21455701Y-17174502D01*
X21454671Y-17172223D01*
X21453437Y-17169926D01*
X21452001Y-17167600D01*
X21450364Y-17165238D01*
X21448527Y-17162831D01*
X21446495Y-17160370D01*
X21444267Y-17157846D01*
X21441847Y-17155250D01*
X21436977Y-17152641D01*
X21427608Y-17150107D01*
X21396606Y-17145302D01*
X21351310Y-17140913D01*
X21294191Y-17137014D01*
X21227721Y-17133682D01*
X21154371Y-17130994D01*
X20996912Y-17127853D01*
X20996906Y-17127830D01*
X20917728Y-17127521D01*
X20841539Y-17128142D01*
X20770818Y-17129763D01*
X20708048Y-17132451D01*
X20680419Y-17134216D01*
X20655707Y-17136273D01*
X20634224Y-17138631D01*
X20616279Y-17141298D01*
X20602181Y-17144283D01*
X20596672Y-17145897D01*
X20592242Y-17147593D01*
X20588929Y-17149374D01*
X20586771Y-17151239D01*
X20585808Y-17153190D01*
X20452966Y-17153190D01*
X20434349Y-17123148D01*
X20417631Y-17101928D01*
X20415110Y-17096246D01*
X20419518Y-17090730D01*
X20447349Y-17080300D01*
X20497570Y-17070852D01*
X20566629Y-17062595D01*
X20747050Y-17050503D01*
X20960192Y-17045716D01*
X21070152Y-17046590D01*
X21177635Y-17049924D01*
X21279088Y-17055930D01*
X21370958Y-17064818D01*
X21449694Y-17076801D01*
X21511742Y-17092090D01*
X21535398Y-17101040D01*
X21553550Y-17110896D01*
X21565754Y-17121684D01*
X21571565Y-17133430D01*
X21572548Y-17139265D01*
X21573148Y-17144943D01*
X21573329Y-17150551D01*
X21573057Y-17156174D01*
X21572295Y-17161901D01*
X21571008Y-17167816D01*
X21569160Y-17174008D01*
X21566716Y-17180562D01*
X21563640Y-17187564D01*
X21559897Y-17195102D01*
X21555451Y-17203263D01*
X21550267Y-17212131D01*
X21544309Y-17221795D01*
X21537541Y-17232341D01*
X21521434Y-17256423D01*
X21502920Y-17284101D01*
X21495149Y-17296393D01*
X21488212Y-17308129D01*
X21481993Y-17319664D01*
X21476373Y-17331354D01*
X21471236Y-17343553D01*
X21466464Y-17356618D01*
X21461941Y-17370904D01*
X21457548Y-17386767D01*
X21453170Y-17404562D01*
X21448688Y-17424645D01*
X21438947Y-17473096D01*
X21427385Y-17534965D01*
X21357661Y-17839430D01*
X21265718Y-18124252D01*
X21153039Y-18389432D01*
X21021104Y-18634969D01*
X20871395Y-18860863D01*
X20705393Y-19067114D01*
X20524579Y-19253723D01*
X20330435Y-19420689D01*
X20124441Y-19568013D01*
X19908078Y-19695693D01*
X19682828Y-19803730D01*
X19450172Y-19892125D01*
X19211592Y-19960877D01*
X18968568Y-20009986D01*
X18722581Y-20039451D01*
X18475114Y-20049274D01*
X18227646Y-20039454D01*
X17981659Y-20009991D01*
X17738635Y-19960884D01*
X17500054Y-19892135D01*
X17267398Y-19803742D01*
X17042148Y-19695706D01*
X16825786Y-19568027D01*
X16619791Y-19420704D01*
X16603362Y-19406575D01*
X16845201Y-19406575D01*
X16846572Y-19413127D01*
X16862413Y-19433446D01*
X16895038Y-19462170D01*
X16943630Y-19497838D01*
X17007374Y-19538993D01*
X17085454Y-19584174D01*
X17177052Y-19631924D01*
X17281353Y-19680782D01*
X17397540Y-19729291D01*
X17524798Y-19775990D01*
X17662309Y-19819422D01*
X17809258Y-19858126D01*
X17964829Y-19890644D01*
X18128204Y-19915517D01*
X18298568Y-19931286D01*
X18475105Y-19936492D01*
X18564094Y-19935301D01*
X18651642Y-19931287D01*
X18737646Y-19924632D01*
X18822006Y-19915519D01*
X18904618Y-19904129D01*
X18985381Y-19890647D01*
X19064193Y-19875253D01*
X19140952Y-19858130D01*
X19215555Y-19839461D01*
X19287901Y-19819428D01*
X19357887Y-19798213D01*
X19425412Y-19775998D01*
X19490374Y-19752967D01*
X19552670Y-19729301D01*
X19668857Y-19680794D01*
X19773158Y-19631936D01*
X19864757Y-19584188D01*
X19942836Y-19539006D01*
X20006580Y-19497851D01*
X20055173Y-19462181D01*
X20087798Y-19433455D01*
X20097867Y-19422152D01*
X20103638Y-19413132D01*
X20105010Y-19406578D01*
X20101879Y-19402671D01*
X20090240Y-19400516D01*
X20067625Y-19400920D01*
X19992747Y-19406968D01*
X19883801Y-19415939D01*
X19747342Y-19422956D01*
X19670844Y-19424209D01*
X19589926Y-19423144D01*
X19505408Y-19419153D01*
X19418110Y-19411626D01*
X19328850Y-19399954D01*
X19238449Y-19383526D01*
X19147725Y-19361734D01*
X19057499Y-19333968D01*
X19032552Y-19326027D01*
X19010508Y-19319217D01*
X18991142Y-19313579D01*
X18974233Y-19309153D01*
X18966630Y-19307406D01*
X18959557Y-19305978D01*
X18952986Y-19304871D01*
X18946891Y-19304093D01*
X18941243Y-19303647D01*
X18936013Y-19303539D01*
X18931175Y-19303773D01*
X18926700Y-19304355D01*
X18922561Y-19305289D01*
X18918729Y-19306580D01*
X18915177Y-19308234D01*
X18911878Y-19310255D01*
X18908802Y-19312649D01*
X18905923Y-19315420D01*
X18903212Y-19318573D01*
X18900642Y-19322113D01*
X18898184Y-19326045D01*
X18895812Y-19330374D01*
X18893496Y-19335106D01*
X18891210Y-19340244D01*
X18886613Y-19351761D01*
X18881799Y-19364966D01*
X18878887Y-19372889D01*
X18875955Y-19380379D01*
X18872994Y-19387436D01*
X18869998Y-19394059D01*
X18866959Y-19400248D01*
X18863869Y-19406000D01*
X18860722Y-19411316D01*
X18857510Y-19416195D01*
X18855877Y-19418470D01*
X18854224Y-19420635D01*
X18852552Y-19422691D01*
X18850859Y-19424636D01*
X18849144Y-19426472D01*
X18847406Y-19428197D01*
X18845645Y-19429812D01*
X18843859Y-19431317D01*
X18842047Y-19432711D01*
X18840209Y-19433995D01*
X18838343Y-19435168D01*
X18836449Y-19436230D01*
X18834525Y-19437181D01*
X18832571Y-19438021D01*
X18830586Y-19438750D01*
X18828569Y-19439368D01*
X18815023Y-19442298D01*
X18789236Y-19444828D01*
X18707935Y-19448692D01*
X18598645Y-19450978D01*
X18475345Y-19451705D01*
X18352014Y-19450890D01*
X18242633Y-19448550D01*
X18161180Y-19444704D01*
X18135296Y-19442221D01*
X18121635Y-19439368D01*
X18117633Y-19438020D01*
X18113756Y-19436228D01*
X18109996Y-19433992D01*
X18106346Y-19431314D01*
X18102798Y-19428194D01*
X18099345Y-19424633D01*
X18095980Y-19420632D01*
X18092695Y-19416192D01*
X18089483Y-19411314D01*
X18086335Y-19405998D01*
X18083246Y-19400246D01*
X18080207Y-19394058D01*
X18077211Y-19387435D01*
X18074250Y-19380379D01*
X18071317Y-19372889D01*
X18068405Y-19364966D01*
X18065360Y-19356514D01*
X18062431Y-19348738D01*
X18059564Y-19341625D01*
X18056705Y-19335166D01*
X18053800Y-19329348D01*
X18052313Y-19326676D01*
X18050794Y-19324160D01*
X18049237Y-19321799D01*
X18047634Y-19319591D01*
X18045979Y-19317535D01*
X18044265Y-19315630D01*
X18042486Y-19313874D01*
X18040634Y-19312265D01*
X18038702Y-19310803D01*
X18036685Y-19309486D01*
X18034574Y-19308312D01*
X18032364Y-19307280D01*
X18030048Y-19306389D01*
X18027619Y-19305637D01*
X18025069Y-19305023D01*
X18022393Y-19304545D01*
X18019583Y-19304203D01*
X18016634Y-19303994D01*
X18013537Y-19303917D01*
X18010286Y-19303971D01*
X18006875Y-19304154D01*
X18003296Y-19304465D01*
X18003298Y-19304465D01*
X17993983Y-19305754D01*
X17983568Y-19307740D01*
X17971958Y-19310418D01*
X17959061Y-19313781D01*
X17944782Y-19317823D01*
X17929026Y-19322539D01*
X17892712Y-19333968D01*
X17847712Y-19348636D01*
X17802485Y-19361734D01*
X17757134Y-19373339D01*
X17711762Y-19383526D01*
X17666470Y-19392372D01*
X17621360Y-19399954D01*
X17532101Y-19411626D01*
X17444802Y-19419153D01*
X17360284Y-19423144D01*
X17279367Y-19424209D01*
X17202869Y-19422956D01*
X17131610Y-19419997D01*
X17066410Y-19415939D01*
X16957463Y-19406968D01*
X16882585Y-19400920D01*
X16859971Y-19400516D01*
X16852728Y-19401235D01*
X16848332Y-19402671D01*
X16845201Y-19406575D01*
X16603362Y-19406575D01*
X16425646Y-19253739D01*
X16244832Y-19067130D01*
X16078829Y-18860877D01*
X15929120Y-18634982D01*
X15797185Y-18389443D01*
X15684505Y-18124260D01*
X15592562Y-17839434D01*
X15522837Y-17534965D01*
X15511276Y-17473085D01*
X15506236Y-17447357D01*
X15501534Y-17424629D01*
X15497052Y-17404545D01*
X15492674Y-17386750D01*
X15488281Y-17370888D01*
X15483758Y-17356604D01*
X15478986Y-17343541D01*
X15473849Y-17331344D01*
X15468229Y-17319657D01*
X15462009Y-17308124D01*
X15455072Y-17296390D01*
X15447301Y-17284099D01*
X15428787Y-17256423D01*
X15420290Y-17243840D01*
X15412675Y-17232315D01*
X15405905Y-17221762D01*
X15399946Y-17212094D01*
X15394761Y-17203224D01*
X15390316Y-17195064D01*
X15386573Y-17187529D01*
X15384844Y-17183593D01*
X15492469Y-17183593D01*
X15492492Y-17185904D01*
X15492731Y-17188248D01*
X15493189Y-17190634D01*
X15493867Y-17193071D01*
X15494767Y-17195568D01*
X15495891Y-17198133D01*
X15497242Y-17200776D01*
X15498820Y-17203505D01*
X15500629Y-17206329D01*
X15502669Y-17209256D01*
X15507454Y-17215457D01*
X15513191Y-17222179D01*
X15519894Y-17229492D01*
X15527581Y-17237465D01*
X15536266Y-17246170D01*
X15545508Y-17262861D01*
X15555243Y-17294045D01*
X15578505Y-17395601D01*
X15610676Y-17542258D01*
X15656379Y-17725435D01*
X15685749Y-17828039D01*
X15720237Y-17936555D01*
X15760420Y-18049912D01*
X15806875Y-18167037D01*
X15860181Y-18286858D01*
X15920915Y-18408302D01*
X15989657Y-18530297D01*
X16066983Y-18651771D01*
X16075118Y-18663516D01*
X16083866Y-18675439D01*
X16093098Y-18687410D01*
X16102686Y-18699300D01*
X16112502Y-18710979D01*
X16122416Y-18722320D01*
X16132302Y-18733193D01*
X16142029Y-18743469D01*
X16151471Y-18753019D01*
X16160497Y-18761715D01*
X16168981Y-18769426D01*
X16176793Y-18776024D01*
X16183805Y-18781381D01*
X16189889Y-18785367D01*
X16192542Y-18786806D01*
X16194916Y-18787853D01*
X16196993Y-18788494D01*
X16198757Y-18788711D01*
X16199092Y-18788471D01*
X16199224Y-18787773D01*
X16198930Y-18785122D01*
X16197975Y-18781001D01*
X16196461Y-18775653D01*
X16192157Y-18762255D01*
X16186825Y-18746875D01*
X16171368Y-18704513D01*
X16138786Y-18603067D01*
X16113873Y-18503556D01*
X16096258Y-18405696D01*
X16085574Y-18309205D01*
X16081451Y-18213800D01*
X16083521Y-18119198D01*
X16091413Y-18025118D01*
X16104760Y-17931277D01*
X16123192Y-17837393D01*
X16146340Y-17743182D01*
X16173835Y-17648363D01*
X16205308Y-17552652D01*
X16240391Y-17455768D01*
X16278714Y-17357428D01*
X16363604Y-17155250D01*
X16363879Y-17153195D01*
X16362923Y-17151229D01*
X16357473Y-17147560D01*
X16347563Y-17144232D01*
X16333500Y-17141238D01*
X16294155Y-17136211D01*
X16241907Y-17132402D01*
X16179227Y-17129737D01*
X16108585Y-17128140D01*
X16032450Y-17127537D01*
X15953293Y-17127853D01*
X15953289Y-17127876D01*
X15873591Y-17129053D01*
X15795831Y-17131031D01*
X15722480Y-17133731D01*
X15656011Y-17137074D01*
X15598892Y-17140979D01*
X15553596Y-17145367D01*
X15536154Y-17147717D01*
X15522594Y-17150158D01*
X15513225Y-17152680D01*
X15510208Y-17153968D01*
X15508356Y-17155273D01*
X15503707Y-17160392D01*
X15499839Y-17165257D01*
X15498201Y-17167617D01*
X15496765Y-17169939D01*
X15495531Y-17172234D01*
X15494501Y-17174510D01*
X15493678Y-17176774D01*
X15493064Y-17179037D01*
X15492660Y-17181307D01*
X15492469Y-17183593D01*
X15384844Y-17183593D01*
X15383498Y-17180530D01*
X15382200Y-17177205D01*
X15381055Y-17173981D01*
X15380060Y-17170849D01*
X15379209Y-17167796D01*
X15378498Y-17164812D01*
X15377923Y-17161886D01*
X15377479Y-17159007D01*
X15377162Y-17156165D01*
X15376967Y-17153348D01*
X15376891Y-17150546D01*
X15376927Y-17147747D01*
X15377073Y-17144941D01*
X15377674Y-17139265D01*
X15378657Y-17133430D01*
X15384469Y-17121684D01*
X15396673Y-17110896D01*
X15414825Y-17101040D01*
X15438481Y-17092090D01*
X15500529Y-17076801D01*
X15579265Y-17064818D01*
X15671136Y-17055930D01*
X15772589Y-17049924D01*
X15880071Y-17046590D01*
X15990031Y-17045716D01*
X16203173Y-17050503D01*
X16299250Y-17055742D01*
X16383594Y-17062595D01*
X16452653Y-17070852D01*
X16502874Y-17080300D01*
X16530704Y-17090730D01*
X16535113Y-17096246D01*
X16532592Y-17101928D01*
X16515868Y-17123143D01*
X16491380Y-17162626D01*
X16425996Y-17289517D01*
X16388541Y-17373484D01*
X16350206Y-17468840D01*
X16312710Y-17573863D01*
X16277775Y-17686835D01*
X16247120Y-17806033D01*
X16222468Y-17929740D01*
X16205538Y-18056234D01*
X16198051Y-18183795D01*
X16198386Y-18247438D01*
X16201727Y-18310703D01*
X16208290Y-18373375D01*
X16218289Y-18435238D01*
X16231939Y-18496079D01*
X16249455Y-18555681D01*
X16271053Y-18613830D01*
X16296947Y-18670310D01*
X16343606Y-18755590D01*
X16394278Y-18833183D01*
X16448648Y-18903357D01*
X16506404Y-18966381D01*
X16567232Y-19022521D01*
X16630818Y-19072047D01*
X16696849Y-19115226D01*
X16765012Y-19152326D01*
X16834993Y-19183616D01*
X16906479Y-19209362D01*
X16979157Y-19229833D01*
X17052712Y-19245297D01*
X17126832Y-19256022D01*
X17201203Y-19262276D01*
X17275512Y-19264327D01*
X17349444Y-19262443D01*
X17422688Y-19256891D01*
X17494929Y-19247940D01*
X17565854Y-19235858D01*
X17635150Y-19220913D01*
X17683258Y-19207325D01*
X18165758Y-19207325D01*
X18165927Y-19212348D01*
X18166280Y-19217560D01*
X18167466Y-19228677D01*
X18169178Y-19240928D01*
X18173761Y-19273307D01*
X18176122Y-19286183D01*
X18179256Y-19297072D01*
X18183706Y-19306138D01*
X18186594Y-19310039D01*
X18190016Y-19313547D01*
X18194038Y-19316682D01*
X18198730Y-19319465D01*
X18210392Y-19324057D01*
X18225547Y-19327488D01*
X18244737Y-19329926D01*
X18268508Y-19331534D01*
X18297403Y-19332478D01*
X18372740Y-19333038D01*
X18475101Y-19332931D01*
X18577452Y-19333038D01*
X18618224Y-19332924D01*
X18652785Y-19332477D01*
X18681679Y-19331532D01*
X18694171Y-19330821D01*
X18705450Y-19329924D01*
X18715584Y-19328819D01*
X18724641Y-19327486D01*
X18732690Y-19325905D01*
X18739798Y-19324054D01*
X18746032Y-19321913D01*
X18751462Y-19319461D01*
X18756155Y-19316678D01*
X18760179Y-19313543D01*
X18763602Y-19310036D01*
X18766491Y-19306134D01*
X18768916Y-19301819D01*
X18770944Y-19297068D01*
X18772642Y-19291862D01*
X18774080Y-19286180D01*
X18775324Y-19280001D01*
X18776443Y-19273304D01*
X18781027Y-19240928D01*
X18782738Y-19228678D01*
X18783926Y-19217561D01*
X18784449Y-19207328D01*
X18784170Y-19197729D01*
X18782947Y-19188513D01*
X18781938Y-19183970D01*
X18780642Y-19179430D01*
X18779039Y-19174861D01*
X18777114Y-19170231D01*
X18774848Y-19165510D01*
X18772225Y-19160666D01*
X18765834Y-19150483D01*
X18757803Y-19139434D01*
X18747991Y-19127269D01*
X18736259Y-19113736D01*
X18722467Y-19098587D01*
X18706476Y-19081571D01*
X18667337Y-19040938D01*
X18658399Y-19031524D01*
X18649228Y-19021495D01*
X18630456Y-18999977D01*
X18611557Y-18977155D01*
X18593071Y-18953798D01*
X18575535Y-18930676D01*
X18559488Y-18908556D01*
X18545467Y-18888210D01*
X18534012Y-18870406D01*
X18534014Y-18870406D01*
X18514952Y-18837764D01*
X18506919Y-18824876D01*
X18499671Y-18814289D01*
X18496291Y-18809862D01*
X18493048Y-18806014D01*
X18489921Y-18802746D01*
X18486890Y-18800061D01*
X18483935Y-18797958D01*
X18481037Y-18796439D01*
X18478174Y-18795505D01*
X18475328Y-18795158D01*
X18472478Y-18795399D01*
X18469605Y-18796230D01*
X18466687Y-18797650D01*
X18463706Y-18799662D01*
X18460641Y-18802267D01*
X18457472Y-18805466D01*
X18454180Y-18809261D01*
X18450743Y-18813652D01*
X18443359Y-18824228D01*
X18435159Y-18837206D01*
X18425984Y-18852596D01*
X18415674Y-18870406D01*
X18404241Y-18888204D01*
X18390278Y-18908547D01*
X18374313Y-18930665D01*
X18356872Y-18953790D01*
X18338480Y-18977149D01*
X18319664Y-18999974D01*
X18300950Y-19021494D01*
X18291797Y-19031524D01*
X18282865Y-19040938D01*
X18243741Y-19081562D01*
X18227754Y-19098576D01*
X18213964Y-19113723D01*
X18202233Y-19127255D01*
X18197096Y-19133493D01*
X18192421Y-19139421D01*
X18188191Y-19145070D01*
X18184388Y-19150471D01*
X18180996Y-19155655D01*
X18177996Y-19160654D01*
X18175371Y-19165499D01*
X18173104Y-19170221D01*
X18171178Y-19174852D01*
X18169574Y-19179422D01*
X18168276Y-19183963D01*
X18167266Y-19188506D01*
X18166527Y-19193083D01*
X18166041Y-19197724D01*
X18165790Y-19202461D01*
X18165758Y-19207325D01*
X17683258Y-19207325D01*
X17767599Y-19183504D01*
X17889769Y-19137858D01*
X17999153Y-19086117D01*
X18093243Y-19030427D01*
X18133769Y-19001770D01*
X18169531Y-18972930D01*
X18200217Y-18944174D01*
X18225512Y-18915771D01*
X18248404Y-18886443D01*
X18273417Y-18852834D01*
X18299191Y-18816317D01*
X18324367Y-18778270D01*
X18336306Y-18759101D01*
X18347586Y-18740066D01*
X18358037Y-18721336D01*
X18367488Y-18703082D01*
X18375771Y-18685477D01*
X18382716Y-18668693D01*
X18388151Y-18652901D01*
X18391909Y-18638274D01*
X18405990Y-18565713D01*
X18412115Y-18529455D01*
X18417322Y-18493290D01*
X18421382Y-18457275D01*
X18424067Y-18421467D01*
X18425145Y-18385923D01*
X18424389Y-18350701D01*
X18421567Y-18315859D01*
X18416452Y-18281453D01*
X18408813Y-18247541D01*
X18403975Y-18230788D01*
X18398420Y-18214180D01*
X18392120Y-18197725D01*
X18385045Y-18181429D01*
X18377167Y-18165299D01*
X18368458Y-18149344D01*
X18358888Y-18133569D01*
X18348428Y-18117982D01*
X18337051Y-18102590D01*
X18324728Y-18087401D01*
X18307123Y-18067156D01*
X18291897Y-18048003D01*
X18278933Y-18029896D01*
X18268110Y-18012788D01*
X18259309Y-17996634D01*
X18252411Y-17981389D01*
X18247295Y-17967006D01*
X18243844Y-17953439D01*
X18241936Y-17940643D01*
X18241453Y-17928572D01*
X18242276Y-17917180D01*
X18244284Y-17906421D01*
X18247358Y-17896249D01*
X18251380Y-17886619D01*
X18256229Y-17877484D01*
X18261786Y-17868798D01*
X18267932Y-17860517D01*
X18274547Y-17852593D01*
X18288706Y-17837637D01*
X18317399Y-17810001D01*
X18330022Y-17796589D01*
X18335484Y-17789823D01*
X18340221Y-17782957D01*
X18344113Y-17775945D01*
X18347042Y-17768740D01*
X18348886Y-17761297D01*
X18349527Y-17753570D01*
X18349184Y-17751875D01*
X18348228Y-17749086D01*
X18344599Y-17740503D01*
X18338882Y-17728379D01*
X18331321Y-17713274D01*
X18322161Y-17695745D01*
X18311644Y-17676351D01*
X18300015Y-17655650D01*
X18287517Y-17634200D01*
X18259831Y-17576622D01*
X18233771Y-17518712D01*
X18209295Y-17460459D01*
X18186358Y-17401852D01*
X18164920Y-17342883D01*
X18144936Y-17283540D01*
X18126364Y-17223813D01*
X18109162Y-17163693D01*
X18093286Y-17103168D01*
X18078693Y-17042230D01*
X18053188Y-16919069D01*
X18032304Y-16794129D01*
X18015699Y-16667327D01*
X17992377Y-16535602D01*
X17960737Y-16380750D01*
X17923195Y-16212566D01*
X17882166Y-16040844D01*
X17840065Y-15875375D01*
X17799307Y-15725954D01*
X17762306Y-15602373D01*
X17731479Y-15514427D01*
X17709666Y-15462367D01*
X17687291Y-15413239D01*
X17664244Y-15366915D01*
X17640416Y-15323269D01*
X17615699Y-15282173D01*
X17589984Y-15243499D01*
X17563161Y-15207121D01*
X17535123Y-15172910D01*
X17505760Y-15140741D01*
X17474964Y-15110485D01*
X17442625Y-15082016D01*
X17408635Y-15055205D01*
X17372885Y-15029926D01*
X17335267Y-15006051D01*
X17295671Y-14983453D01*
X17253988Y-14962005D01*
X17206921Y-14939679D01*
X17139084Y-14909659D01*
X17099987Y-14893551D01*
X17058830Y-14877662D01*
X17016656Y-14862709D01*
X16974509Y-14849405D01*
X16933433Y-14838465D01*
X16894473Y-14830604D01*
X16876112Y-14828052D01*
X16858671Y-14826537D01*
X16842281Y-14826148D01*
X16827072Y-14826977D01*
X16813174Y-14829110D01*
X16800719Y-14832639D01*
X16789836Y-14837652D01*
X16780657Y-14844239D01*
X16773311Y-14852488D01*
X16767929Y-14862490D01*
X16764642Y-14874333D01*
X16763580Y-14888107D01*
X16765457Y-14903946D01*
X16770665Y-14931701D01*
X16789270Y-15015925D01*
X16846613Y-15249996D01*
X16906751Y-15477790D01*
X16928851Y-15554167D01*
X16936331Y-15576822D01*
X16940829Y-15586776D01*
X16943757Y-15589227D01*
X16947089Y-15590869D01*
X16950793Y-15591738D01*
X16954836Y-15591870D01*
X16959187Y-15591302D01*
X16963811Y-15590070D01*
X16968677Y-15588211D01*
X16973751Y-15585761D01*
X16979002Y-15582756D01*
X16984395Y-15579233D01*
X16995482Y-15570777D01*
X17006749Y-15560684D01*
X17017935Y-15549244D01*
X17028779Y-15536748D01*
X17039018Y-15523487D01*
X17048392Y-15509753D01*
X17056639Y-15495835D01*
X17063496Y-15482024D01*
X17066323Y-15475250D01*
X17068704Y-15468612D01*
X17070607Y-15462146D01*
X17071999Y-15455888D01*
X17072848Y-15449876D01*
X17073120Y-15444145D01*
X17072798Y-15433409D01*
X17071964Y-15422081D01*
X17068959Y-15397903D01*
X17064506Y-15372130D01*
X17059007Y-15345279D01*
X17034583Y-15237447D01*
X17029878Y-15212969D01*
X17026537Y-15190518D01*
X17024961Y-15170612D01*
X17024961Y-15161775D01*
X17025552Y-15153768D01*
X17026786Y-15146656D01*
X17028712Y-15140504D01*
X17031381Y-15135376D01*
X17034842Y-15131337D01*
X17039147Y-15128452D01*
X17044345Y-15126785D01*
X17050486Y-15126401D01*
X17057620Y-15127365D01*
X17069825Y-15130268D01*
X17082247Y-15133745D01*
X17094847Y-15137760D01*
X17107585Y-15142277D01*
X17120423Y-15147262D01*
X17133320Y-15152679D01*
X17159138Y-15164668D01*
X17184724Y-15177960D01*
X17209764Y-15192275D01*
X17233943Y-15207328D01*
X17256948Y-15222837D01*
X17278463Y-15238520D01*
X17298174Y-15254094D01*
X17315768Y-15269277D01*
X17330929Y-15283785D01*
X17337499Y-15290698D01*
X17343343Y-15297336D01*
X17348421Y-15303664D01*
X17352696Y-15309648D01*
X17356126Y-15315250D01*
X17358673Y-15320437D01*
X17360297Y-15325173D01*
X17360960Y-15329422D01*
X17360426Y-15334068D01*
X17358538Y-15339982D01*
X17350988Y-15355374D01*
X17338876Y-15375125D01*
X17322769Y-15398760D01*
X17280835Y-15455793D01*
X17229716Y-15522686D01*
X17173945Y-15595651D01*
X17118052Y-15670901D01*
X17091477Y-15708200D01*
X17066570Y-15744650D01*
X17043899Y-15779778D01*
X17024030Y-15813110D01*
X16976963Y-15911134D01*
X16934011Y-16009017D01*
X16894926Y-16105968D01*
X16859459Y-16201196D01*
X16827362Y-16293909D01*
X16798385Y-16383317D01*
X16748801Y-16549052D01*
X16676152Y-16806052D01*
X16662064Y-16850173D01*
X16649109Y-16884660D01*
X16637039Y-16908723D01*
X16631258Y-16916597D01*
X16625605Y-16921569D01*
X16601621Y-16928935D01*
X16554362Y-16936797D01*
X16403779Y-16952272D01*
X16201371Y-16964515D01*
X15974656Y-16970047D01*
X15860782Y-16969208D01*
X15751149Y-16965387D01*
X15649197Y-16958148D01*
X15558365Y-16947057D01*
X15482094Y-16931678D01*
X15450493Y-16922245D01*
X15423822Y-16911577D01*
X15402511Y-16899620D01*
X15386989Y-16886319D01*
X15377687Y-16871620D01*
X15375035Y-16855468D01*
X15375035Y-16854957D01*
X15376142Y-16839217D01*
X15377838Y-16824837D01*
X15378018Y-16823789D01*
X15493521Y-16823789D01*
X15494349Y-16826572D01*
X15496112Y-16829158D01*
X15498867Y-16831539D01*
X15502675Y-16833709D01*
X15518233Y-16839785D01*
X15537662Y-16845151D01*
X15587013Y-16853880D01*
X15648484Y-16860144D01*
X15719831Y-16864193D01*
X15798810Y-16866277D01*
X15883177Y-16866644D01*
X16059097Y-16863224D01*
X16229641Y-16855927D01*
X16376855Y-16846747D01*
X16482787Y-16837677D01*
X16529485Y-16830711D01*
X16536030Y-16823063D01*
X16544448Y-16806009D01*
X16566158Y-16747531D01*
X16593127Y-16662968D01*
X16623867Y-16560012D01*
X16690714Y-16329687D01*
X16723844Y-16217701D01*
X16754795Y-16118087D01*
X16763124Y-16079441D01*
X16769789Y-16039530D01*
X16778448Y-15956436D01*
X16781421Y-15869845D01*
X16779354Y-15780798D01*
X16772895Y-15690337D01*
X16762693Y-15599502D01*
X16749393Y-15509333D01*
X16733645Y-15420872D01*
X16716094Y-15335160D01*
X16697389Y-15253237D01*
X16659107Y-15104922D01*
X16623978Y-14984254D01*
X16597182Y-14899559D01*
X16597182Y-14899460D01*
X16500419Y-14987784D01*
X16408510Y-15079978D01*
X16321417Y-15175890D01*
X16239105Y-15275370D01*
X16161538Y-15378264D01*
X16088679Y-15484422D01*
X16020494Y-15593691D01*
X15956946Y-15705921D01*
X15898000Y-15820959D01*
X15843619Y-15938654D01*
X15793767Y-16058854D01*
X15748409Y-16181407D01*
X15707509Y-16306163D01*
X15671030Y-16432968D01*
X15638938Y-16561672D01*
X15611195Y-16692123D01*
X15609715Y-16697788D01*
X15607523Y-16703439D01*
X15604680Y-16709069D01*
X15601242Y-16714670D01*
X15597271Y-16720238D01*
X15592823Y-16725764D01*
X15587958Y-16731244D01*
X15582735Y-16736669D01*
X15571448Y-16747332D01*
X15559433Y-16757701D01*
X15535099Y-16777347D01*
X15523721Y-16786520D01*
X15513495Y-16795189D01*
X15504892Y-16803303D01*
X15501346Y-16807136D01*
X15498382Y-16810810D01*
X15496059Y-16814318D01*
X15494435Y-16817656D01*
X15493570Y-16820815D01*
X15493521Y-16823789D01*
X15378018Y-16823789D01*
X15380089Y-16811707D01*
X15382861Y-16799715D01*
X15386122Y-16788750D01*
X15389838Y-16778701D01*
X15393975Y-16769456D01*
X15398500Y-16760904D01*
X15408582Y-16745434D01*
X15419816Y-16731399D01*
X15444672Y-16704075D01*
X15457760Y-16689005D01*
X15470932Y-16671808D01*
X15483922Y-16651594D01*
X15490264Y-16640077D01*
X15496461Y-16627473D01*
X15502479Y-16613668D01*
X15508284Y-16598553D01*
X15513843Y-16582015D01*
X15519123Y-16563944D01*
X15524090Y-16544228D01*
X15528711Y-16522756D01*
X15532953Y-16499416D01*
X15536782Y-16474098D01*
X15562560Y-16357955D01*
X15590815Y-16245952D01*
X15621690Y-16137813D01*
X15655331Y-16033261D01*
X15691883Y-15932020D01*
X15731489Y-15833814D01*
X15774295Y-15738366D01*
X15820446Y-15645402D01*
X15870087Y-15554643D01*
X15923361Y-15465815D01*
X15980415Y-15378640D01*
X16041392Y-15292843D01*
X16106437Y-15208148D01*
X16175696Y-15124278D01*
X16249313Y-15040957D01*
X16327432Y-14957908D01*
X16409702Y-14875776D01*
X16492373Y-14798752D01*
X16575306Y-14726672D01*
X16640007Y-14674248D01*
X16910342Y-14674248D01*
X16920763Y-14683216D01*
X16937954Y-14692066D01*
X16961314Y-14701037D01*
X16990241Y-14710368D01*
X17149592Y-14756061D01*
X17247034Y-14787272D01*
X17298091Y-14805804D01*
X17349903Y-14826606D01*
X17401870Y-14849915D01*
X17453389Y-14875971D01*
X17503860Y-14905013D01*
X17552680Y-14937279D01*
X17574734Y-14952753D01*
X17594652Y-14966187D01*
X17612793Y-14977595D01*
X17629515Y-14986995D01*
X17637456Y-14990947D01*
X17645177Y-14994404D01*
X17652721Y-14997366D01*
X17660135Y-14999837D01*
X17667462Y-15001818D01*
X17674748Y-15003312D01*
X17682037Y-15004320D01*
X17689374Y-15004844D01*
X17696804Y-15004888D01*
X17704371Y-15004452D01*
X17712121Y-15003538D01*
X17720097Y-15002150D01*
X17728346Y-15000288D01*
X17736911Y-14997956D01*
X17755170Y-14991886D01*
X17775232Y-14983957D01*
X17797456Y-14974185D01*
X17822199Y-14962588D01*
X17849819Y-14949180D01*
X17849819Y-14949699D01*
X17911613Y-14922475D01*
X17979955Y-14898879D01*
X18053908Y-14878914D01*
X18132538Y-14862578D01*
X18214908Y-14849872D01*
X18300085Y-14840796D01*
X18387132Y-14835349D01*
X18475113Y-14833533D01*
X18563095Y-14835347D01*
X18650141Y-14840792D01*
X18735316Y-14849866D01*
X18817685Y-14862571D01*
X18896312Y-14878907D01*
X18970262Y-14898874D01*
X19038599Y-14922471D01*
X19100389Y-14949699D01*
X19100389Y-14949180D01*
X19128010Y-14962588D01*
X19152753Y-14974185D01*
X19174976Y-14983956D01*
X19195038Y-14991885D01*
X19204371Y-14995153D01*
X19213297Y-14997954D01*
X19221862Y-15000287D01*
X19230111Y-15002148D01*
X19238088Y-15003536D01*
X19245837Y-15004449D01*
X19253405Y-15004885D01*
X19260834Y-15004842D01*
X19268171Y-15004317D01*
X19275460Y-15003309D01*
X19282746Y-15001815D01*
X19290073Y-14999834D01*
X19297487Y-14997363D01*
X19305031Y-14994400D01*
X19312752Y-14990944D01*
X19320692Y-14986992D01*
X19328898Y-14982542D01*
X19337414Y-14977592D01*
X19355556Y-14966184D01*
X19375474Y-14952752D01*
X19397527Y-14937279D01*
X19421694Y-14920726D01*
X19446348Y-14905009D01*
X19471415Y-14890099D01*
X19496819Y-14875966D01*
X19548338Y-14849909D01*
X19600305Y-14826600D01*
X19652118Y-14805800D01*
X19703176Y-14787270D01*
X19752876Y-14770771D01*
X19800617Y-14756064D01*
X19959969Y-14710378D01*
X19988896Y-14701047D01*
X20012255Y-14692074D01*
X20029445Y-14683221D01*
X20035539Y-14678764D01*
X20039865Y-14674248D01*
X19969788Y-14614349D01*
X19894346Y-14558315D01*
X19813896Y-14506145D01*
X19728796Y-14457839D01*
X19639404Y-14413399D01*
X19546077Y-14372822D01*
X19349051Y-14303263D01*
X19140578Y-14249161D01*
X18923521Y-14210517D01*
X18700742Y-14187331D01*
X18475100Y-14179603D01*
X18249459Y-14187332D01*
X18026679Y-14210519D01*
X17809623Y-14249163D01*
X17601151Y-14303265D01*
X17404126Y-14372824D01*
X17310800Y-14413401D01*
X17221408Y-14457841D01*
X17136309Y-14506146D01*
X17055860Y-14558316D01*
X16980418Y-14614350D01*
X16910342Y-14674248D01*
X16640007Y-14674248D01*
X16658363Y-14659374D01*
X16741407Y-14596692D01*
X16824300Y-14538464D01*
X16906905Y-14484523D01*
X16989083Y-14434708D01*
X17070696Y-14388853D01*
X17151607Y-14346794D01*
X17231678Y-14308368D01*
X17310772Y-14273411D01*
X17465474Y-14213245D01*
X17614612Y-14164984D01*
X17757082Y-14127316D01*
X17891783Y-14098928D01*
X18017613Y-14078508D01*
X18133469Y-14064744D01*
X18238248Y-14056323D01*
X18330848Y-14051933D01*
X18475103Y-14049995D01*
X18620626Y-14052020D01*
G37*
D16*
X16100000Y-28340000D03*
D17*
X16100000Y-33420000D03*
X16100000Y-38500000D03*
D18*
X46200000Y-22420000D03*
D19*
X46200000Y-19880000D03*
X46200000Y-17340000D03*
X46200000Y-14800000D03*
D16*
X47100000Y-33880000D03*
D17*
X47100000Y-28800000D03*
D20*
X39867034Y-41013807D03*
X39867034Y-38473807D03*
X39867034Y-35933807D03*
X39867034Y-33393807D03*
X39867034Y-28313807D03*
X39867034Y-30853807D03*
X23350000Y-23220000D03*
X39867034Y-23233807D03*
X23350000Y-25760000D03*
X23350000Y-28300000D03*
X23350000Y-30840000D03*
X23350000Y-33380000D03*
X23350000Y-35920000D03*
X23350000Y-38460000D03*
X23350000Y-41000000D03*
X39867034Y-25773807D03*
%LPD*%
M02*
