G04 #@! TF.GenerationSoftware,KiCad,Pcbnew,8.0.1*
G04 #@! TF.CreationDate,2024-03-27T23:44:17+01:00*
G04 #@! TF.ProjectId,kurumi,6b757275-6d69-42e6-9b69-6361645f7063,rev?*
G04 #@! TF.SameCoordinates,Original*
G04 #@! TF.FileFunction,Copper,L2,Bot*
G04 #@! TF.FilePolarity,Positive*
%FSLAX46Y46*%
G04 Gerber Fmt 4.6, Leading zero omitted, Abs format (unit mm)*
G04 Created by KiCad (PCBNEW 8.0.1) date 2024-03-27 23:44:17*
%MOMM*%
%LPD*%
G01*
G04 APERTURE LIST*
G04 Aperture macros list*
%AMRoundRect*
0 Rectangle with rounded corners*
0 $1 Rounding radius*
0 $2 $3 $4 $5 $6 $7 $8 $9 X,Y pos of 4 corners*
0 Add a 4 corners polygon primitive as box body*
4,1,4,$2,$3,$4,$5,$6,$7,$8,$9,$2,$3,0*
0 Add four circle primitives for the rounded corners*
1,1,$1+$1,$2,$3*
1,1,$1+$1,$4,$5*
1,1,$1+$1,$6,$7*
1,1,$1+$1,$8,$9*
0 Add four rect primitives between the rounded corners*
20,1,$1+$1,$2,$3,$4,$5,0*
20,1,$1+$1,$4,$5,$6,$7,0*
20,1,$1+$1,$6,$7,$8,$9,0*
20,1,$1+$1,$8,$9,$2,$3,0*%
G04 Aperture macros list end*
G04 #@! TA.AperFunction,ComponentPad*
%ADD10R,1.700000X1.700000*%
G04 #@! TD*
G04 #@! TA.AperFunction,ComponentPad*
%ADD11O,1.700000X1.700000*%
G04 #@! TD*
G04 #@! TA.AperFunction,ComponentPad*
%ADD12R,3.000000X3.000000*%
G04 #@! TD*
G04 #@! TA.AperFunction,ComponentPad*
%ADD13C,3.000000*%
G04 #@! TD*
G04 #@! TA.AperFunction,SMDPad,CuDef*
%ADD14RoundRect,0.250000X-0.350000X-0.450000X0.350000X-0.450000X0.350000X0.450000X-0.350000X0.450000X0*%
G04 #@! TD*
G04 #@! TA.AperFunction,SMDPad,CuDef*
%ADD15RoundRect,0.250000X-0.337500X-0.475000X0.337500X-0.475000X0.337500X0.475000X-0.337500X0.475000X0*%
G04 #@! TD*
G04 #@! TA.AperFunction,SMDPad,CuDef*
%ADD16RoundRect,0.085000X0.085000X-0.265000X0.085000X0.265000X-0.085000X0.265000X-0.085000X-0.265000X0*%
G04 #@! TD*
G04 #@! TA.AperFunction,SMDPad,CuDef*
%ADD17RoundRect,0.162500X0.617500X0.162500X-0.617500X0.162500X-0.617500X-0.162500X0.617500X-0.162500X0*%
G04 #@! TD*
G04 #@! TA.AperFunction,SMDPad,CuDef*
%ADD18RoundRect,0.237500X-0.250000X-0.237500X0.250000X-0.237500X0.250000X0.237500X-0.250000X0.237500X0*%
G04 #@! TD*
G04 #@! TA.AperFunction,SMDPad,CuDef*
%ADD19RoundRect,0.237500X-0.300000X-0.237500X0.300000X-0.237500X0.300000X0.237500X-0.300000X0.237500X0*%
G04 #@! TD*
G04 #@! TA.AperFunction,SMDPad,CuDef*
%ADD20R,3.500000X2.350000*%
G04 #@! TD*
G04 #@! TA.AperFunction,SMDPad,CuDef*
%ADD21RoundRect,0.237500X-0.237500X0.300000X-0.237500X-0.300000X0.237500X-0.300000X0.237500X0.300000X0*%
G04 #@! TD*
G04 #@! TA.AperFunction,SMDPad,CuDef*
%ADD22RoundRect,0.237500X0.300000X0.237500X-0.300000X0.237500X-0.300000X-0.237500X0.300000X-0.237500X0*%
G04 #@! TD*
G04 #@! TA.AperFunction,SMDPad,CuDef*
%ADD23RoundRect,0.237500X0.237500X-0.250000X0.237500X0.250000X-0.237500X0.250000X-0.237500X-0.250000X0*%
G04 #@! TD*
G04 #@! TA.AperFunction,SMDPad,CuDef*
%ADD24RoundRect,0.250000X1.000000X-1.950000X1.000000X1.950000X-1.000000X1.950000X-1.000000X-1.950000X0*%
G04 #@! TD*
G04 #@! TA.AperFunction,ViaPad*
%ADD25C,0.800000*%
G04 #@! TD*
G04 #@! TA.AperFunction,Conductor*
%ADD26C,0.650000*%
G04 #@! TD*
G04 #@! TA.AperFunction,Conductor*
%ADD27C,0.250000*%
G04 #@! TD*
G04 #@! TA.AperFunction,Conductor*
%ADD28C,0.500000*%
G04 #@! TD*
G04 #@! TA.AperFunction,Conductor*
%ADD29C,2.000000*%
G04 #@! TD*
G04 #@! TA.AperFunction,Conductor*
%ADD30C,0.800000*%
G04 #@! TD*
G04 APERTURE END LIST*
D10*
X46200000Y-22420000D03*
D11*
X46200000Y-19880000D03*
X46200000Y-17340000D03*
X46200000Y-14800000D03*
D12*
X47100000Y-33880000D03*
D13*
X47100000Y-28800000D03*
D12*
X16150000Y-28340000D03*
D13*
X16150000Y-33420000D03*
X16150000Y-38500000D03*
D14*
X30900000Y-36900000D03*
X32900000Y-36900000D03*
X26687500Y-36900000D03*
X28687500Y-36900000D03*
D15*
X26700000Y-39800000D03*
X28775000Y-39800000D03*
D16*
X33200000Y-20100000D03*
X32700000Y-20100000D03*
X32200000Y-20100000D03*
X32200000Y-18600000D03*
X32700000Y-18600000D03*
X33200000Y-18600000D03*
D17*
X36900000Y-29650000D03*
X36900000Y-30600000D03*
X36900000Y-31550000D03*
X34200000Y-31550000D03*
X34200000Y-30600000D03*
X34200000Y-29650000D03*
D18*
X19337500Y-33420000D03*
X21162500Y-33420000D03*
D19*
X31537500Y-16500000D03*
X33262500Y-16500000D03*
D20*
X29100000Y-27150000D03*
X29100000Y-32850000D03*
D21*
X36912500Y-34037500D03*
X36912500Y-35762500D03*
D22*
X33262500Y-22200000D03*
X31537500Y-22200000D03*
D23*
X42300000Y-19900000D03*
X42300000Y-18075000D03*
D22*
X35712500Y-27300000D03*
X33987500Y-27300000D03*
D24*
X19100000Y-22200000D03*
X19100000Y-14800000D03*
D23*
X27300000Y-23212500D03*
X27300000Y-21387500D03*
D25*
X32300000Y-35400000D03*
X27900000Y-38300000D03*
X33250000Y-23250000D03*
X31200000Y-39800000D03*
X35500000Y-41050000D03*
X37700000Y-38500000D03*
X27500000Y-30750000D03*
X34400000Y-38500000D03*
X37700000Y-41050000D03*
X29000000Y-38300000D03*
X30100000Y-39800000D03*
X35500000Y-38500000D03*
X30100000Y-38500000D03*
X29650000Y-29500000D03*
X36600000Y-38500000D03*
X29650000Y-30750000D03*
X36600000Y-37300000D03*
X31200000Y-41050000D03*
X35500000Y-36200000D03*
X26450000Y-30750000D03*
X34400000Y-37300000D03*
X36600000Y-39800000D03*
X36100000Y-28450000D03*
X31800000Y-28400000D03*
X30700000Y-30750000D03*
X30400000Y-23800000D03*
X35000000Y-32900000D03*
X32300000Y-39800000D03*
X27500000Y-29500000D03*
X31200000Y-38500000D03*
X33350000Y-39800000D03*
X30150000Y-41050000D03*
X33350000Y-41050000D03*
X37700000Y-37300000D03*
X30700000Y-29500000D03*
X31800000Y-29500000D03*
X26400000Y-32200000D03*
X33350000Y-38500000D03*
X31800000Y-27350000D03*
X35500000Y-39800000D03*
X26400000Y-29500000D03*
X34400000Y-35100000D03*
X34400000Y-36200000D03*
X34400000Y-41050000D03*
X37700000Y-39800000D03*
X33000000Y-28400000D03*
X31800000Y-30750000D03*
X33300000Y-35100000D03*
X35500000Y-37300000D03*
X37500000Y-24200000D03*
X33900000Y-34000000D03*
X35500000Y-35100000D03*
X26350000Y-28100000D03*
X37850000Y-20900000D03*
X36600000Y-41050000D03*
X34400000Y-39800000D03*
X32300000Y-38500000D03*
X35000000Y-34000000D03*
X28600000Y-30750000D03*
X32300000Y-41050000D03*
X28600000Y-29500000D03*
X36250000Y-25000000D03*
X26687500Y-38300000D03*
X21800000Y-20700000D03*
X42800000Y-27000000D03*
X28509630Y-17197110D03*
X23470000Y-23220000D03*
D26*
X26837500Y-39900000D02*
X26687500Y-39750000D01*
X26687500Y-39750000D02*
X26687500Y-35462500D01*
X26687500Y-35462500D02*
X29300000Y-32850000D01*
X33250000Y-23250000D02*
X33250000Y-22212500D01*
D27*
X33200000Y-20100000D02*
X33200000Y-22137500D01*
D26*
X33250000Y-22212500D02*
X33262500Y-22200000D01*
D27*
X33200000Y-22137500D02*
X33262500Y-22200000D01*
X32700000Y-18600000D02*
X32700000Y-17900000D01*
D28*
X35400000Y-30400000D02*
X36150000Y-29650000D01*
D27*
X32700000Y-17900000D02*
X32475000Y-17675000D01*
X32700000Y-20100000D02*
X32700000Y-18600000D01*
D28*
X35200000Y-30600000D02*
X35400000Y-30400000D01*
X35500000Y-28600000D02*
X35500000Y-30300000D01*
X34200000Y-30600000D02*
X35200000Y-30600000D01*
D27*
X32700000Y-21037500D02*
X31537500Y-22200000D01*
D28*
X35500000Y-28600000D02*
X35950000Y-28600000D01*
X35500000Y-30300000D02*
X35400000Y-30400000D01*
X35500000Y-30300000D02*
X35500000Y-32700000D01*
X36150000Y-29650000D02*
X36900000Y-29650000D01*
D27*
X32700000Y-20100000D02*
X32700000Y-21037500D01*
D28*
X35950000Y-28600000D02*
X36100000Y-28450000D01*
D26*
X35000000Y-23750000D02*
X35000000Y-17750000D01*
X35000000Y-17750000D02*
X33750000Y-16500000D01*
X36250000Y-25000000D02*
X35000000Y-23750000D01*
D27*
X33200000Y-16562500D02*
X33262500Y-16500000D01*
D26*
X33750000Y-16500000D02*
X33262500Y-16500000D01*
D27*
X33200000Y-18600000D02*
X33200000Y-16562500D01*
D29*
X44450000Y-28800000D02*
X41700000Y-31550000D01*
D26*
X36900000Y-31550000D02*
X38700000Y-31550000D01*
X36912500Y-31562500D02*
X36900000Y-31550000D01*
X36912500Y-33800000D02*
X36912500Y-31800000D01*
D29*
X47100000Y-28800000D02*
X44450000Y-28800000D01*
X41700000Y-31550000D02*
X39600000Y-31550000D01*
D30*
X35712500Y-27300000D02*
X37800000Y-27300000D01*
D26*
X35750000Y-27262500D02*
X35750000Y-26250000D01*
D30*
X38350000Y-27850000D02*
X38350000Y-30400000D01*
D26*
X34800000Y-25300000D02*
X30050000Y-25300000D01*
X35750000Y-26250000D02*
X34800000Y-25300000D01*
X29300000Y-26050000D02*
X29300000Y-27150000D01*
D30*
X37800000Y-27300000D02*
X38350000Y-27850000D01*
D26*
X38250000Y-30600000D02*
X37000000Y-30600000D01*
X30050000Y-25300000D02*
X29300000Y-26050000D01*
D30*
X38350000Y-30400000D02*
X38250000Y-30500000D01*
D26*
X21800000Y-20700000D02*
X20750000Y-21750000D01*
X20750000Y-21750000D02*
X17350000Y-21750000D01*
X16150000Y-22950000D02*
X16150000Y-27420000D01*
X17350000Y-21750000D02*
X16150000Y-22950000D01*
D27*
X19337500Y-33420000D02*
X16150000Y-33420000D01*
X46200000Y-19880000D02*
X42587500Y-19880000D01*
X42587500Y-19880000D02*
X42500000Y-19967500D01*
X42200000Y-21300000D02*
X42200000Y-20000000D01*
X46112500Y-19967500D02*
X46200000Y-19880000D01*
X42800000Y-21900000D02*
X42200000Y-21300000D01*
X42800000Y-27000000D02*
X42800000Y-21900000D01*
X42200000Y-20000000D02*
X42300000Y-19900000D01*
D26*
X31009630Y-14697110D02*
X28509630Y-17197110D01*
X42000000Y-14700000D02*
X31000000Y-14700000D01*
X46209630Y-17287110D02*
X44537110Y-17287110D01*
X44537110Y-17287110D02*
X42000000Y-14700000D01*
D27*
X27300000Y-23212500D02*
X26750000Y-23212500D01*
X23477500Y-23212500D02*
X23470000Y-23220000D01*
X26750000Y-23212500D02*
X27587500Y-23212500D01*
X27587500Y-23212500D02*
X32200000Y-18600000D01*
X26750000Y-23212500D02*
X23477500Y-23212500D01*
X32100000Y-20100000D02*
X21162500Y-31037500D01*
X32200000Y-20100000D02*
X32100000Y-20100000D01*
X21162500Y-31037500D02*
X21162500Y-33420000D01*
D26*
X34000000Y-27312500D02*
X34000000Y-29450000D01*
D27*
X34200000Y-27512500D02*
X33987500Y-27300000D01*
D26*
X29750000Y-36900000D02*
X30987500Y-36900000D01*
X28600000Y-36900000D02*
X29750000Y-36900000D01*
X34200000Y-31550000D02*
X34200000Y-31700000D01*
X34200000Y-31700000D02*
X29750000Y-36150000D01*
X29750000Y-36150000D02*
X29750000Y-36900000D01*
G04 #@! TA.AperFunction,Conductor*
G36*
X41668304Y-15545185D02*
G01*
X41689798Y-15562678D01*
X43143817Y-17045352D01*
X43176702Y-17106999D01*
X43171037Y-17176639D01*
X43128622Y-17232161D01*
X43062923Y-17255938D01*
X42994798Y-17240421D01*
X42990187Y-17237712D01*
X42851311Y-17152051D01*
X42851300Y-17152046D01*
X42687652Y-17097819D01*
X42586654Y-17087500D01*
X42550000Y-17087500D01*
X42550000Y-17825000D01*
X43274999Y-17825000D01*
X43274999Y-17775860D01*
X43274998Y-17775845D01*
X43264680Y-17674847D01*
X43210453Y-17511199D01*
X43210450Y-17511192D01*
X43130522Y-17381611D01*
X43112081Y-17314218D01*
X43133003Y-17247555D01*
X43186645Y-17202785D01*
X43255975Y-17194123D01*
X43318983Y-17224319D01*
X43324593Y-17229691D01*
X43886652Y-17802827D01*
X43893967Y-17810978D01*
X43895899Y-17813332D01*
X43950014Y-17867447D01*
X43950865Y-17868306D01*
X44004652Y-17923152D01*
X44006992Y-17925111D01*
X44007125Y-17925233D01*
X44007308Y-17925383D01*
X44008226Y-17926144D01*
X44008377Y-17926270D01*
X44008522Y-17926379D01*
X44010887Y-17928320D01*
X44041212Y-17948582D01*
X44074651Y-17970925D01*
X44075584Y-17971555D01*
X44089808Y-17981261D01*
X44138970Y-18014808D01*
X44138978Y-18014811D01*
X44141626Y-18016260D01*
X44141789Y-18016359D01*
X44141970Y-18016456D01*
X44143026Y-18017027D01*
X44143241Y-18017144D01*
X44143422Y-18017231D01*
X44146079Y-18018651D01*
X44146089Y-18018658D01*
X44217024Y-18048039D01*
X44217919Y-18048415D01*
X44288587Y-18078499D01*
X44288594Y-18078500D01*
X44291502Y-18079414D01*
X44291670Y-18079475D01*
X44291821Y-18079521D01*
X44292966Y-18079875D01*
X44293208Y-18079951D01*
X44293413Y-18080003D01*
X44296312Y-18080882D01*
X44296321Y-18080886D01*
X44371711Y-18095882D01*
X44372493Y-18096041D01*
X44447754Y-18111777D01*
X44447758Y-18111777D01*
X44450760Y-18112102D01*
X44450945Y-18112131D01*
X44451189Y-18112155D01*
X44452382Y-18112278D01*
X44452621Y-18112303D01*
X44452794Y-18112313D01*
X44455805Y-18112610D01*
X44532507Y-18112610D01*
X44533717Y-18112615D01*
X44610357Y-18113364D01*
X44610357Y-18113363D01*
X44610360Y-18113364D01*
X44613400Y-18113095D01*
X44624351Y-18112610D01*
X45027781Y-18112610D01*
X45094820Y-18132295D01*
X45129355Y-18165486D01*
X45156412Y-18204128D01*
X45161507Y-18211404D01*
X45328597Y-18378493D01*
X45328603Y-18378498D01*
X45514158Y-18508425D01*
X45557783Y-18563002D01*
X45564977Y-18632500D01*
X45533454Y-18694855D01*
X45514158Y-18711575D01*
X45328597Y-18841505D01*
X45161505Y-19008597D01*
X45026348Y-19201623D01*
X44971771Y-19245248D01*
X44924773Y-19254500D01*
X43229855Y-19254500D01*
X43162816Y-19234815D01*
X43124317Y-19195598D01*
X43120340Y-19189150D01*
X43006017Y-19074827D01*
X42972532Y-19013504D01*
X42977516Y-18943812D01*
X43006017Y-18899464D01*
X43119948Y-18785533D01*
X43210448Y-18638811D01*
X43210453Y-18638800D01*
X43264680Y-18475152D01*
X43274999Y-18374154D01*
X43275000Y-18374141D01*
X43275000Y-18325000D01*
X41325001Y-18325000D01*
X41325001Y-18374154D01*
X41335319Y-18475152D01*
X41389546Y-18638800D01*
X41389551Y-18638811D01*
X41480052Y-18785534D01*
X41480055Y-18785538D01*
X41593982Y-18899465D01*
X41627467Y-18960788D01*
X41622483Y-19030480D01*
X41593983Y-19074827D01*
X41479659Y-19189151D01*
X41389093Y-19335981D01*
X41389092Y-19335984D01*
X41334826Y-19499747D01*
X41334826Y-19499748D01*
X41334825Y-19499748D01*
X41324500Y-19600815D01*
X41324500Y-20199169D01*
X41324501Y-20199187D01*
X41334825Y-20300252D01*
X41389092Y-20464015D01*
X41389093Y-20464018D01*
X41418528Y-20511740D01*
X41479659Y-20610849D01*
X41479661Y-20610851D01*
X41538181Y-20669371D01*
X41571666Y-20730694D01*
X41574500Y-20757052D01*
X41574500Y-21361610D01*
X41594572Y-21462517D01*
X41598537Y-21482452D01*
X41606489Y-21501650D01*
X41645688Y-21596286D01*
X41661300Y-21619651D01*
X41676807Y-21642859D01*
X41676808Y-21642860D01*
X41680566Y-21648484D01*
X41714142Y-21698733D01*
X41714145Y-21698736D01*
X41714148Y-21698740D01*
X41805586Y-21790178D01*
X41805608Y-21790198D01*
X42138181Y-22122771D01*
X42171666Y-22184094D01*
X42174500Y-22210452D01*
X42174500Y-26301312D01*
X42154815Y-26368351D01*
X42142650Y-26384284D01*
X42067467Y-26467784D01*
X42067466Y-26467784D01*
X41972821Y-26631715D01*
X41972818Y-26631722D01*
X41914327Y-26811740D01*
X41914326Y-26811744D01*
X41894540Y-27000000D01*
X41914326Y-27188256D01*
X41914327Y-27188259D01*
X41972818Y-27368277D01*
X41972821Y-27368284D01*
X42067467Y-27532216D01*
X42194129Y-27672888D01*
X42347265Y-27784148D01*
X42347270Y-27784151D01*
X42520192Y-27861142D01*
X42520197Y-27861144D01*
X42705354Y-27900500D01*
X42705355Y-27900500D01*
X42894644Y-27900500D01*
X42894646Y-27900500D01*
X42907846Y-27897694D01*
X42977511Y-27903009D01*
X43033245Y-27945146D01*
X43057351Y-28010725D01*
X43042175Y-28078927D01*
X43021307Y-28106665D01*
X41114792Y-30013181D01*
X41053469Y-30046666D01*
X41027111Y-30049500D01*
X39481901Y-30049500D01*
X39393897Y-30063438D01*
X39324604Y-30054483D01*
X39271152Y-30009487D01*
X39250513Y-29942735D01*
X39250500Y-29940965D01*
X39250500Y-27761306D01*
X39250499Y-27761304D01*
X39215896Y-27587341D01*
X39215893Y-27587332D01*
X39215618Y-27586669D01*
X39151721Y-27432405D01*
X39148016Y-27423459D01*
X39148009Y-27423446D01*
X39049465Y-27275966D01*
X39048266Y-27274767D01*
X38924035Y-27150536D01*
X38786814Y-27013315D01*
X38374041Y-26600540D01*
X38374040Y-26600539D01*
X38369745Y-26597669D01*
X38314959Y-26561063D01*
X38314958Y-26561061D01*
X38226544Y-26501985D01*
X38226542Y-26501984D01*
X38143973Y-26467784D01*
X38062666Y-26434105D01*
X38062658Y-26434103D01*
X37888696Y-26399500D01*
X37888692Y-26399500D01*
X37888691Y-26399500D01*
X36699500Y-26399500D01*
X36632461Y-26379815D01*
X36586706Y-26327011D01*
X36575500Y-26275500D01*
X36575500Y-26168692D01*
X36543777Y-26009216D01*
X36543775Y-26009209D01*
X36536045Y-25990548D01*
X36528575Y-25921079D01*
X36559849Y-25858599D01*
X36600165Y-25829816D01*
X36702730Y-25784151D01*
X36855871Y-25672888D01*
X36982533Y-25532216D01*
X37077179Y-25368284D01*
X37135674Y-25188256D01*
X37155460Y-25000000D01*
X37135674Y-24811744D01*
X37077179Y-24631716D01*
X36982533Y-24467784D01*
X36855871Y-24327112D01*
X36822407Y-24302799D01*
X36702730Y-24215848D01*
X36598539Y-24169459D01*
X36561294Y-24143861D01*
X35861819Y-23444386D01*
X35828334Y-23383063D01*
X35825500Y-23356705D01*
X35825500Y-17825000D01*
X41325000Y-17825000D01*
X42050000Y-17825000D01*
X42050000Y-17087500D01*
X42013361Y-17087500D01*
X42013343Y-17087501D01*
X41912347Y-17097819D01*
X41748699Y-17152046D01*
X41748688Y-17152051D01*
X41601965Y-17242552D01*
X41601961Y-17242555D01*
X41480055Y-17364461D01*
X41480052Y-17364465D01*
X41389551Y-17511188D01*
X41389546Y-17511199D01*
X41335319Y-17674847D01*
X41325000Y-17775845D01*
X41325000Y-17825000D01*
X35825500Y-17825000D01*
X35825500Y-17668692D01*
X35793777Y-17509216D01*
X35793776Y-17509215D01*
X35793776Y-17509211D01*
X35762770Y-17434356D01*
X35731549Y-17358980D01*
X35731547Y-17358976D01*
X35641211Y-17223779D01*
X35641209Y-17223776D01*
X35594072Y-17176639D01*
X35526225Y-17108792D01*
X34941654Y-16524221D01*
X34276228Y-15858794D01*
X34276224Y-15858791D01*
X34141027Y-15768455D01*
X34141021Y-15768452D01*
X34130420Y-15764061D01*
X34076017Y-15720219D01*
X34053953Y-15653925D01*
X34071233Y-15586226D01*
X34122370Y-15538616D01*
X34177874Y-15525500D01*
X41601265Y-15525500D01*
X41668304Y-15545185D01*
G37*
G04 #@! TD.AperFunction*
G04 #@! TA.AperFunction,Conductor*
G36*
X35014597Y-28159166D02*
G01*
X35098475Y-28210903D01*
X35098478Y-28210904D01*
X35098484Y-28210908D01*
X35262247Y-28265174D01*
X35363323Y-28275500D01*
X36061676Y-28275499D01*
X36061684Y-28275498D01*
X36061687Y-28275498D01*
X36117030Y-28269844D01*
X36162753Y-28265174D01*
X36326516Y-28210908D01*
X36326516Y-28210907D01*
X36333372Y-28208636D01*
X36333800Y-28209928D01*
X36376326Y-28200500D01*
X37325500Y-28200500D01*
X37392539Y-28220185D01*
X37438294Y-28272989D01*
X37449500Y-28324500D01*
X37449500Y-28701000D01*
X37429815Y-28768039D01*
X37377011Y-28813794D01*
X37325500Y-28825000D01*
X37150000Y-28825000D01*
X37150000Y-29650500D01*
X37130315Y-29717539D01*
X37077511Y-29763294D01*
X37026000Y-29774500D01*
X36774000Y-29774500D01*
X36706961Y-29754815D01*
X36661206Y-29702011D01*
X36650000Y-29650500D01*
X36650000Y-28825000D01*
X36228957Y-28825000D01*
X36162207Y-28831065D01*
X36008603Y-28878929D01*
X35870919Y-28962163D01*
X35757163Y-29075919D01*
X35673928Y-29213605D01*
X35668647Y-29230554D01*
X35629908Y-29288701D01*
X35565883Y-29316674D01*
X35496898Y-29305592D01*
X35444855Y-29258972D01*
X35431877Y-29230553D01*
X35429971Y-29224439D01*
X35426531Y-29213398D01*
X35343236Y-29075612D01*
X35343234Y-29075610D01*
X35343233Y-29075608D01*
X35229391Y-28961766D01*
X35091602Y-28878469D01*
X34937887Y-28830570D01*
X34937883Y-28830569D01*
X34937878Y-28830568D01*
X34931452Y-28829290D01*
X34931706Y-28828012D01*
X34873283Y-28804925D01*
X34832502Y-28748192D01*
X34825500Y-28707114D01*
X34825500Y-28264704D01*
X34845185Y-28197665D01*
X34897989Y-28151910D01*
X34967147Y-28141966D01*
X35014597Y-28159166D01*
G37*
G04 #@! TD.AperFunction*
G04 #@! TA.AperFunction,Conductor*
G36*
X31730539Y-21969685D02*
G01*
X31776294Y-22022489D01*
X31787500Y-22074000D01*
X31787500Y-23174999D01*
X31886640Y-23174999D01*
X31886654Y-23174998D01*
X31987652Y-23164680D01*
X32151300Y-23110453D01*
X32151305Y-23110450D01*
X32158814Y-23105819D01*
X32226205Y-23087374D01*
X32292870Y-23108292D01*
X32337643Y-23161930D01*
X32347239Y-23224311D01*
X32344540Y-23249997D01*
X32344540Y-23250000D01*
X32364326Y-23438256D01*
X32364327Y-23438259D01*
X32422818Y-23618277D01*
X32422821Y-23618284D01*
X32517467Y-23782216D01*
X32617116Y-23892887D01*
X32644129Y-23922888D01*
X32797265Y-24034148D01*
X32797270Y-24034151D01*
X32970192Y-24111142D01*
X32970197Y-24111144D01*
X33155354Y-24150500D01*
X33155355Y-24150500D01*
X33344644Y-24150500D01*
X33344646Y-24150500D01*
X33529803Y-24111144D01*
X33702730Y-24034151D01*
X33855871Y-23922888D01*
X33966256Y-23800292D01*
X34025743Y-23763644D01*
X34095600Y-23764975D01*
X34153648Y-23803861D01*
X34180023Y-23859073D01*
X34206222Y-23990783D01*
X34206225Y-23990793D01*
X34268450Y-24141019D01*
X34268452Y-24141023D01*
X34362176Y-24281291D01*
X34359854Y-24282842D01*
X34382497Y-24336098D01*
X34370732Y-24404970D01*
X34323599Y-24456548D01*
X34259336Y-24474500D01*
X29968693Y-24474500D01*
X29809216Y-24506222D01*
X29809206Y-24506225D01*
X29658980Y-24568450D01*
X29658976Y-24568452D01*
X29523779Y-24658788D01*
X29523771Y-24658794D01*
X28744385Y-25438181D01*
X28683062Y-25471666D01*
X28656704Y-25474500D01*
X27909451Y-25474500D01*
X27842412Y-25454815D01*
X27796657Y-25402011D01*
X27786713Y-25332853D01*
X27815738Y-25269297D01*
X27821770Y-25262819D01*
X28452874Y-24631715D01*
X30365784Y-22718804D01*
X30427103Y-22685322D01*
X30496795Y-22690306D01*
X30552728Y-22732178D01*
X30560567Y-22745271D01*
X30560755Y-22745156D01*
X30655052Y-22898034D01*
X30655055Y-22898038D01*
X30776961Y-23019944D01*
X30776965Y-23019947D01*
X30923688Y-23110448D01*
X30923699Y-23110453D01*
X31087347Y-23164680D01*
X31188351Y-23174999D01*
X31287500Y-23174998D01*
X31287500Y-22074000D01*
X31307185Y-22006961D01*
X31359989Y-21961206D01*
X31411500Y-21950000D01*
X31663500Y-21950000D01*
X31730539Y-21969685D01*
G37*
G04 #@! TD.AperFunction*
G04 #@! TA.AperFunction,Conductor*
G36*
X32313642Y-20873459D02*
G01*
X32317760Y-20875080D01*
X32462280Y-20934941D01*
X32462286Y-20934943D01*
X32466683Y-20935522D01*
X32470119Y-20937042D01*
X32470134Y-20937046D01*
X32470133Y-20937048D01*
X32530580Y-20963787D01*
X32569052Y-21022110D01*
X32574500Y-21058461D01*
X32574500Y-21265518D01*
X32554815Y-21332557D01*
X32515600Y-21371055D01*
X32501650Y-21379660D01*
X32501648Y-21379661D01*
X32487325Y-21393984D01*
X32426001Y-21427468D01*
X32356309Y-21422482D01*
X32311965Y-21393982D01*
X32298038Y-21380055D01*
X32298034Y-21380052D01*
X32151311Y-21289551D01*
X32151300Y-21289546D01*
X32074540Y-21264111D01*
X32017095Y-21224339D01*
X31990272Y-21159823D01*
X32002587Y-21091047D01*
X32025857Y-21058731D01*
X32182631Y-20901957D01*
X32243950Y-20868475D01*
X32313642Y-20873459D01*
G37*
G04 #@! TD.AperFunction*
G04 #@! TA.AperFunction,Conductor*
G36*
X32743333Y-19043771D02*
G01*
X32787680Y-19072272D01*
X32801261Y-19085853D01*
X32801264Y-19085855D01*
X32801267Y-19085858D01*
X32814890Y-19094960D01*
X32859694Y-19148568D01*
X32870000Y-19198062D01*
X32870000Y-19501936D01*
X32850315Y-19568975D01*
X32814892Y-19605037D01*
X32801269Y-19614139D01*
X32801263Y-19614144D01*
X32787681Y-19627727D01*
X32726358Y-19661212D01*
X32656666Y-19656228D01*
X32612319Y-19627727D01*
X32598736Y-19614144D01*
X32598730Y-19614139D01*
X32585108Y-19605037D01*
X32540303Y-19551424D01*
X32530000Y-19501936D01*
X32530000Y-19205952D01*
X32549685Y-19138913D01*
X32566319Y-19118271D01*
X32612318Y-19072272D01*
X32673641Y-19038787D01*
X32743333Y-19043771D01*
G37*
G04 #@! TD.AperFunction*
G04 #@! TA.AperFunction,Conductor*
G36*
X17557016Y-12119685D02*
G01*
X17602771Y-12172489D01*
X17612715Y-12241647D01*
X17583690Y-12305203D01*
X17577658Y-12311681D01*
X17507684Y-12381654D01*
X17415643Y-12530875D01*
X17415641Y-12530880D01*
X17360494Y-12697302D01*
X17360493Y-12697309D01*
X17350000Y-12800013D01*
X17350000Y-14550000D01*
X20849999Y-14550000D01*
X20849999Y-12800028D01*
X20849998Y-12800013D01*
X20839505Y-12697302D01*
X20784358Y-12530880D01*
X20784356Y-12530875D01*
X20692315Y-12381654D01*
X20622342Y-12311681D01*
X20588857Y-12250358D01*
X20593841Y-12180666D01*
X20635713Y-12124733D01*
X20701177Y-12100316D01*
X20710023Y-12100000D01*
X48598473Y-12100000D01*
X48601509Y-12100037D01*
X48607232Y-12100177D01*
X48687583Y-12102145D01*
X48708728Y-12104490D01*
X48879013Y-12138362D01*
X48902261Y-12145413D01*
X49061257Y-12211272D01*
X49082689Y-12222728D01*
X49215817Y-12311681D01*
X49225775Y-12318335D01*
X49244565Y-12333756D01*
X49366243Y-12455434D01*
X49381664Y-12474224D01*
X49477269Y-12617307D01*
X49488728Y-12638745D01*
X49554583Y-12797731D01*
X49561639Y-12820993D01*
X49595508Y-12991266D01*
X49597854Y-13012419D01*
X49599963Y-13098488D01*
X49600000Y-13101526D01*
X49600000Y-41098473D01*
X49599963Y-41101511D01*
X49597854Y-41187580D01*
X49595508Y-41208733D01*
X49561639Y-41379006D01*
X49554583Y-41402268D01*
X49488728Y-41561254D01*
X49477269Y-41582692D01*
X49381664Y-41725775D01*
X49366243Y-41744565D01*
X49244565Y-41866243D01*
X49225775Y-41881664D01*
X49082692Y-41977269D01*
X49061254Y-41988728D01*
X48902268Y-42054583D01*
X48879006Y-42061639D01*
X48708733Y-42095508D01*
X48687580Y-42097854D01*
X48604250Y-42099895D01*
X48601509Y-42099963D01*
X48598473Y-42100000D01*
X14601527Y-42100000D01*
X14598490Y-42099963D01*
X14512420Y-42097854D01*
X14491266Y-42095508D01*
X14320993Y-42061639D01*
X14297731Y-42054583D01*
X14138745Y-41988728D01*
X14117307Y-41977269D01*
X13974224Y-41881664D01*
X13955434Y-41866243D01*
X13833756Y-41744565D01*
X13818335Y-41725775D01*
X13722730Y-41582692D01*
X13711271Y-41561254D01*
X13645413Y-41402261D01*
X13638362Y-41379013D01*
X13604490Y-41208728D01*
X13602145Y-41187583D01*
X13600037Y-41101509D01*
X13600000Y-41098473D01*
X13600000Y-38500001D01*
X14144891Y-38500001D01*
X14165300Y-38785362D01*
X14226109Y-39064895D01*
X14326091Y-39332958D01*
X14463191Y-39584038D01*
X14463196Y-39584046D01*
X14569882Y-39726561D01*
X14569883Y-39726562D01*
X15464767Y-38831677D01*
X15476497Y-38859995D01*
X15559670Y-38984472D01*
X15665528Y-39090330D01*
X15790005Y-39173503D01*
X15818320Y-39185231D01*
X14923436Y-40080115D01*
X15065960Y-40186807D01*
X15065961Y-40186808D01*
X15317042Y-40323908D01*
X15317041Y-40323908D01*
X15585104Y-40423890D01*
X15864637Y-40484699D01*
X16149999Y-40505109D01*
X16150001Y-40505109D01*
X16435362Y-40484699D01*
X16714895Y-40423890D01*
X16982958Y-40323908D01*
X17234047Y-40186803D01*
X17376561Y-40080116D01*
X17376562Y-40080115D01*
X16481679Y-39185231D01*
X16509995Y-39173503D01*
X16634472Y-39090330D01*
X16740330Y-38984472D01*
X16823503Y-38859995D01*
X16835231Y-38831678D01*
X17730115Y-39726562D01*
X17730116Y-39726561D01*
X17836803Y-39584047D01*
X17973908Y-39332958D01*
X18073890Y-39064895D01*
X18134699Y-38785362D01*
X18155109Y-38500001D01*
X18155109Y-38499998D01*
X18134699Y-38214637D01*
X18073890Y-37935104D01*
X17973908Y-37667041D01*
X17836808Y-37415961D01*
X17836807Y-37415960D01*
X17730115Y-37273436D01*
X16835231Y-38168320D01*
X16823503Y-38140005D01*
X16740330Y-38015528D01*
X16634472Y-37909670D01*
X16509995Y-37826497D01*
X16481678Y-37814767D01*
X17376562Y-36919883D01*
X17376561Y-36919882D01*
X17234046Y-36813196D01*
X17234038Y-36813191D01*
X16982957Y-36676091D01*
X16982958Y-36676091D01*
X16714895Y-36576109D01*
X16435362Y-36515300D01*
X16150001Y-36494891D01*
X16149999Y-36494891D01*
X15864637Y-36515300D01*
X15585104Y-36576109D01*
X15317041Y-36676091D01*
X15065961Y-36813191D01*
X15065953Y-36813196D01*
X14923437Y-36919882D01*
X14923436Y-36919883D01*
X15818321Y-37814767D01*
X15790005Y-37826497D01*
X15665528Y-37909670D01*
X15559670Y-38015528D01*
X15476497Y-38140005D01*
X15464768Y-38168321D01*
X14569883Y-37273436D01*
X14569882Y-37273437D01*
X14463196Y-37415953D01*
X14463191Y-37415961D01*
X14326091Y-37667041D01*
X14226109Y-37935104D01*
X14165300Y-38214637D01*
X14144891Y-38499998D01*
X14144891Y-38500001D01*
X13600000Y-38500001D01*
X13600000Y-33420001D01*
X14144390Y-33420001D01*
X14164804Y-33705433D01*
X14225628Y-33985037D01*
X14225630Y-33985043D01*
X14225631Y-33985046D01*
X14279696Y-34130000D01*
X14325635Y-34253166D01*
X14462770Y-34504309D01*
X14462775Y-34504317D01*
X14634254Y-34733387D01*
X14634270Y-34733405D01*
X14836594Y-34935729D01*
X14836612Y-34935745D01*
X15065682Y-35107224D01*
X15065690Y-35107229D01*
X15316833Y-35244364D01*
X15316832Y-35244364D01*
X15316836Y-35244365D01*
X15316839Y-35244367D01*
X15584954Y-35344369D01*
X15584960Y-35344370D01*
X15584962Y-35344371D01*
X15864566Y-35405195D01*
X15864568Y-35405195D01*
X15864572Y-35405196D01*
X16118220Y-35423337D01*
X16149999Y-35425610D01*
X16150000Y-35425610D01*
X16150001Y-35425610D01*
X16178595Y-35423564D01*
X16435428Y-35405196D01*
X16715046Y-35344369D01*
X16983161Y-35244367D01*
X17234315Y-35107226D01*
X17463395Y-34935739D01*
X17665739Y-34733395D01*
X17837226Y-34504315D01*
X17974367Y-34253161D01*
X18021734Y-34126166D01*
X18063606Y-34070232D01*
X18129071Y-34045816D01*
X18137916Y-34045500D01*
X18390519Y-34045500D01*
X18457558Y-34065185D01*
X18496058Y-34104404D01*
X18504660Y-34118350D01*
X18626650Y-34240340D01*
X18773484Y-34330908D01*
X18937247Y-34385174D01*
X19038323Y-34395500D01*
X19636676Y-34395499D01*
X19636684Y-34395498D01*
X19636687Y-34395498D01*
X19722941Y-34386687D01*
X19737753Y-34385174D01*
X19901516Y-34330908D01*
X20048350Y-34240340D01*
X20162319Y-34126371D01*
X20223642Y-34092886D01*
X20293334Y-34097870D01*
X20337681Y-34126371D01*
X20451650Y-34240340D01*
X20598484Y-34330908D01*
X20762247Y-34385174D01*
X20863323Y-34395500D01*
X21461676Y-34395499D01*
X21461684Y-34395498D01*
X21461687Y-34395498D01*
X21547941Y-34386687D01*
X21562753Y-34385174D01*
X21726516Y-34330908D01*
X21873350Y-34240340D01*
X21995340Y-34118350D01*
X22085908Y-33971516D01*
X22140174Y-33807753D01*
X22150500Y-33706677D01*
X22150499Y-33133324D01*
X22140174Y-33032247D01*
X22085908Y-32868484D01*
X21995340Y-32721650D01*
X21873350Y-32599660D01*
X21873347Y-32599657D01*
X21846901Y-32583345D01*
X21800178Y-32531397D01*
X21788000Y-32477808D01*
X21788000Y-31347951D01*
X21807685Y-31280912D01*
X21824314Y-31260275D01*
X26637821Y-26446767D01*
X26699142Y-26413284D01*
X26768834Y-26418268D01*
X26824767Y-26460140D01*
X26849184Y-26525604D01*
X26849500Y-26534450D01*
X26849500Y-28372870D01*
X26849501Y-28372876D01*
X26855908Y-28432483D01*
X26906202Y-28567328D01*
X26906206Y-28567335D01*
X26992452Y-28682544D01*
X26992455Y-28682547D01*
X27107664Y-28768793D01*
X27107671Y-28768797D01*
X27242517Y-28819091D01*
X27242516Y-28819091D01*
X27249444Y-28819835D01*
X27302127Y-28825500D01*
X30897872Y-28825499D01*
X30957483Y-28819091D01*
X31092331Y-28768796D01*
X31207546Y-28682546D01*
X31293796Y-28567331D01*
X31344091Y-28432483D01*
X31350500Y-28372873D01*
X31350499Y-26249499D01*
X31370184Y-26182461D01*
X31422987Y-26136706D01*
X31474499Y-26125500D01*
X33400528Y-26125500D01*
X33467567Y-26145185D01*
X33513322Y-26197989D01*
X33523266Y-26267147D01*
X33494241Y-26330703D01*
X33439532Y-26367205D01*
X33410339Y-26376879D01*
X33373486Y-26389091D01*
X33373481Y-26389093D01*
X33226648Y-26479661D01*
X33104661Y-26601648D01*
X33014093Y-26748481D01*
X33014092Y-26748484D01*
X32959826Y-26912247D01*
X32959826Y-26912248D01*
X32959825Y-26912248D01*
X32949500Y-27013315D01*
X32949500Y-27586669D01*
X32949501Y-27586687D01*
X32959825Y-27687752D01*
X33014092Y-27851515D01*
X33014093Y-27851518D01*
X33042575Y-27897694D01*
X33071843Y-27945146D01*
X33104661Y-27998351D01*
X33138181Y-28031871D01*
X33171666Y-28093194D01*
X33174500Y-28119552D01*
X33174500Y-28906513D01*
X33154815Y-28973552D01*
X33138181Y-28994194D01*
X33056767Y-29075607D01*
X33056766Y-29075608D01*
X32973469Y-29213397D01*
X32925569Y-29367116D01*
X32919500Y-29433911D01*
X32919500Y-29866098D01*
X32925568Y-29932882D01*
X32925571Y-29932893D01*
X32974200Y-30088951D01*
X32975351Y-30158811D01*
X32974201Y-30162731D01*
X32926065Y-30317205D01*
X32926064Y-30317207D01*
X32923085Y-30349999D01*
X32923085Y-30350000D01*
X33155504Y-30350000D01*
X33219653Y-30367882D01*
X33308398Y-30421531D01*
X33462113Y-30469430D01*
X33528909Y-30475500D01*
X34326001Y-30475499D01*
X34393039Y-30495183D01*
X34438794Y-30547987D01*
X34450000Y-30599499D01*
X34450000Y-30600500D01*
X34430315Y-30667539D01*
X34377511Y-30713294D01*
X34326000Y-30724500D01*
X33528901Y-30724500D01*
X33462117Y-30730568D01*
X33462106Y-30730571D01*
X33308401Y-30778467D01*
X33219654Y-30832117D01*
X33155504Y-30850000D01*
X32923085Y-30850000D01*
X32926064Y-30882792D01*
X32926067Y-30882802D01*
X32974200Y-31037268D01*
X32975352Y-31107128D01*
X32974201Y-31111047D01*
X32954429Y-31174500D01*
X32927703Y-31260270D01*
X32925570Y-31267114D01*
X32919500Y-31333911D01*
X32919500Y-31761702D01*
X32899815Y-31828741D01*
X32883181Y-31849383D01*
X31562180Y-33170385D01*
X31500857Y-33203870D01*
X31431165Y-33198886D01*
X31375232Y-33157014D01*
X31350815Y-33091550D01*
X31350499Y-33082704D01*
X31350499Y-31627129D01*
X31350498Y-31627123D01*
X31350497Y-31627116D01*
X31344091Y-31567517D01*
X31317279Y-31495631D01*
X31293797Y-31432671D01*
X31293793Y-31432664D01*
X31207547Y-31317455D01*
X31207544Y-31317452D01*
X31092335Y-31231206D01*
X31092328Y-31231202D01*
X30957482Y-31180908D01*
X30957483Y-31180908D01*
X30897883Y-31174501D01*
X30897881Y-31174500D01*
X30897873Y-31174500D01*
X30897864Y-31174500D01*
X27302129Y-31174500D01*
X27302123Y-31174501D01*
X27242516Y-31180908D01*
X27107671Y-31231202D01*
X27107664Y-31231206D01*
X26992455Y-31317452D01*
X26992452Y-31317455D01*
X26906206Y-31432664D01*
X26906202Y-31432671D01*
X26855908Y-31567517D01*
X26849501Y-31627116D01*
X26849501Y-31627123D01*
X26849500Y-31627135D01*
X26849500Y-34072870D01*
X26849604Y-34074795D01*
X26849500Y-34075230D01*
X26849501Y-34076192D01*
X26849274Y-34076192D01*
X26833531Y-34142791D01*
X26813462Y-34169104D01*
X26478258Y-34504309D01*
X26161275Y-34821292D01*
X26125548Y-34857019D01*
X26046290Y-34936276D01*
X26046288Y-34936279D01*
X25955952Y-35071476D01*
X25955950Y-35071480D01*
X25893725Y-35221706D01*
X25893722Y-35221716D01*
X25862000Y-35381192D01*
X25862000Y-35812770D01*
X25842315Y-35879809D01*
X25825681Y-35900451D01*
X25744789Y-35981342D01*
X25652687Y-36130663D01*
X25652685Y-36130668D01*
X25652615Y-36130880D01*
X25597501Y-36297203D01*
X25597501Y-36297204D01*
X25597500Y-36297204D01*
X25587000Y-36399983D01*
X25587000Y-37400001D01*
X25587001Y-37400019D01*
X25597500Y-37502796D01*
X25597501Y-37502799D01*
X25651926Y-37667041D01*
X25652686Y-37669334D01*
X25744596Y-37818345D01*
X25744789Y-37818657D01*
X25805982Y-37879850D01*
X25839467Y-37941173D01*
X25836233Y-38005847D01*
X25801826Y-38111743D01*
X25801826Y-38111744D01*
X25782040Y-38300000D01*
X25801826Y-38488256D01*
X25801827Y-38488259D01*
X25855931Y-38654773D01*
X25862000Y-38693091D01*
X25862000Y-38712770D01*
X25842315Y-38779809D01*
X25825681Y-38800451D01*
X25769789Y-38856342D01*
X25677687Y-39005663D01*
X25677685Y-39005668D01*
X25677615Y-39005880D01*
X25622501Y-39172203D01*
X25622501Y-39172204D01*
X25622500Y-39172204D01*
X25612000Y-39274983D01*
X25612000Y-40325001D01*
X25612001Y-40325019D01*
X25622500Y-40427796D01*
X25622501Y-40427799D01*
X25677615Y-40594119D01*
X25677686Y-40594334D01*
X25769788Y-40743656D01*
X25893844Y-40867712D01*
X26043166Y-40959814D01*
X26209703Y-41014999D01*
X26312491Y-41025500D01*
X27087508Y-41025499D01*
X27087516Y-41025498D01*
X27087519Y-41025498D01*
X27143802Y-41019748D01*
X27190297Y-41014999D01*
X27356834Y-40959814D01*
X27506156Y-40867712D01*
X27630212Y-40743656D01*
X27632252Y-40740347D01*
X27634245Y-40738555D01*
X27634693Y-40737989D01*
X27634789Y-40738065D01*
X27684194Y-40693623D01*
X27753156Y-40682395D01*
X27817240Y-40710234D01*
X27843329Y-40740339D01*
X27845181Y-40743341D01*
X27845183Y-40743344D01*
X27969154Y-40867315D01*
X28118375Y-40959356D01*
X28118380Y-40959358D01*
X28284802Y-41014505D01*
X28284809Y-41014506D01*
X28387519Y-41024999D01*
X28524999Y-41024999D01*
X28525000Y-41024998D01*
X28525000Y-40050000D01*
X29025000Y-40050000D01*
X29025000Y-41024999D01*
X29162472Y-41024999D01*
X29162486Y-41024998D01*
X29265197Y-41014505D01*
X29431619Y-40959358D01*
X29431624Y-40959356D01*
X29580845Y-40867315D01*
X29704815Y-40743345D01*
X29796856Y-40594124D01*
X29796858Y-40594119D01*
X29852005Y-40427697D01*
X29852006Y-40427690D01*
X29862499Y-40324986D01*
X29862500Y-40324973D01*
X29862500Y-40050000D01*
X29025000Y-40050000D01*
X28525000Y-40050000D01*
X28525000Y-38575000D01*
X29025000Y-38575000D01*
X29025000Y-39550000D01*
X29862499Y-39550000D01*
X29862499Y-39275028D01*
X29862498Y-39275013D01*
X29852005Y-39172302D01*
X29796858Y-39005880D01*
X29796856Y-39005875D01*
X29704815Y-38856654D01*
X29580845Y-38732684D01*
X29431624Y-38640643D01*
X29431619Y-38640641D01*
X29265197Y-38585494D01*
X29265190Y-38585493D01*
X29162486Y-38575000D01*
X29025000Y-38575000D01*
X28525000Y-38575000D01*
X28387527Y-38575000D01*
X28387512Y-38575001D01*
X28284802Y-38585494D01*
X28118380Y-38640641D01*
X28118375Y-38640643D01*
X27969154Y-38732684D01*
X27845183Y-38856655D01*
X27845179Y-38856660D01*
X27843326Y-38859665D01*
X27841518Y-38861290D01*
X27840702Y-38862323D01*
X27840525Y-38862183D01*
X27791374Y-38906385D01*
X27722411Y-38917601D01*
X27658331Y-38889752D01*
X27632253Y-38859653D01*
X27632237Y-38859628D01*
X27630212Y-38856344D01*
X27550624Y-38776756D01*
X27517139Y-38715433D01*
X27520374Y-38650757D01*
X27541579Y-38585494D01*
X27573174Y-38488256D01*
X27592960Y-38300000D01*
X27573174Y-38111744D01*
X27538766Y-38005847D01*
X27536771Y-37936010D01*
X27569015Y-37879852D01*
X27599821Y-37849046D01*
X27661144Y-37815563D01*
X27730835Y-37820549D01*
X27775181Y-37849049D01*
X27868844Y-37942712D01*
X28018166Y-38034814D01*
X28184703Y-38089999D01*
X28287491Y-38100500D01*
X29087508Y-38100499D01*
X29087516Y-38100498D01*
X29087519Y-38100498D01*
X29143802Y-38094748D01*
X29190297Y-38089999D01*
X29356834Y-38034814D01*
X29506156Y-37942712D01*
X29630212Y-37818656D01*
X29651339Y-37784402D01*
X29703287Y-37737679D01*
X29756878Y-37725500D01*
X29830622Y-37725500D01*
X29897661Y-37745185D01*
X29936159Y-37784401D01*
X29957288Y-37818656D01*
X30081344Y-37942712D01*
X30230666Y-38034814D01*
X30397203Y-38089999D01*
X30499991Y-38100500D01*
X31300008Y-38100499D01*
X31300016Y-38100498D01*
X31300019Y-38100498D01*
X31356302Y-38094748D01*
X31402797Y-38089999D01*
X31569334Y-38034814D01*
X31718656Y-37942712D01*
X31812675Y-37848692D01*
X31873994Y-37815210D01*
X31943686Y-37820194D01*
X31988034Y-37848695D01*
X32081654Y-37942315D01*
X32230875Y-38034356D01*
X32230880Y-38034358D01*
X32397302Y-38089505D01*
X32397309Y-38089506D01*
X32500019Y-38099999D01*
X32649999Y-38099999D01*
X32650000Y-38099998D01*
X32650000Y-37150000D01*
X33150000Y-37150000D01*
X33150000Y-38099999D01*
X33299972Y-38099999D01*
X33299986Y-38099998D01*
X33402697Y-38089505D01*
X33569119Y-38034358D01*
X33569124Y-38034356D01*
X33718345Y-37942315D01*
X33842315Y-37818345D01*
X33934356Y-37669124D01*
X33934358Y-37669119D01*
X33989505Y-37502697D01*
X33989506Y-37502690D01*
X33999999Y-37399986D01*
X34000000Y-37399973D01*
X34000000Y-37150000D01*
X33150000Y-37150000D01*
X32650000Y-37150000D01*
X32650000Y-35700000D01*
X33150000Y-35700000D01*
X33150000Y-36650000D01*
X33999999Y-36650000D01*
X33999999Y-36400028D01*
X33999998Y-36400013D01*
X33989505Y-36297302D01*
X33934358Y-36130880D01*
X33934356Y-36130875D01*
X33861341Y-36012500D01*
X35937501Y-36012500D01*
X35937501Y-36111654D01*
X35947819Y-36212652D01*
X36002046Y-36376300D01*
X36002051Y-36376311D01*
X36092552Y-36523034D01*
X36092555Y-36523038D01*
X36214461Y-36644944D01*
X36214465Y-36644947D01*
X36361188Y-36735448D01*
X36361199Y-36735453D01*
X36524847Y-36789680D01*
X36625852Y-36799999D01*
X36662500Y-36799999D01*
X36662500Y-36012500D01*
X37162500Y-36012500D01*
X37162500Y-36799999D01*
X37199140Y-36799999D01*
X37199154Y-36799998D01*
X37300152Y-36789680D01*
X37463800Y-36735453D01*
X37463811Y-36735448D01*
X37610534Y-36644947D01*
X37610538Y-36644944D01*
X37732444Y-36523038D01*
X37732447Y-36523034D01*
X37822948Y-36376311D01*
X37822953Y-36376300D01*
X37877180Y-36212652D01*
X37887499Y-36111654D01*
X37887500Y-36111641D01*
X37887500Y-36012500D01*
X37162500Y-36012500D01*
X36662500Y-36012500D01*
X35937501Y-36012500D01*
X33861341Y-36012500D01*
X33842315Y-35981654D01*
X33718345Y-35857684D01*
X33569124Y-35765643D01*
X33569119Y-35765641D01*
X33402697Y-35710494D01*
X33402690Y-35710493D01*
X33299986Y-35700000D01*
X33150000Y-35700000D01*
X32650000Y-35700000D01*
X32500027Y-35700000D01*
X32500012Y-35700001D01*
X32397302Y-35710494D01*
X32230880Y-35765641D01*
X32230875Y-35765643D01*
X32081657Y-35857682D01*
X31988034Y-35951305D01*
X31926710Y-35984789D01*
X31857019Y-35979805D01*
X31812672Y-35951304D01*
X31718657Y-35857289D01*
X31718656Y-35857288D01*
X31569334Y-35765186D01*
X31559549Y-35761943D01*
X31502107Y-35722174D01*
X31475283Y-35657659D01*
X31487597Y-35588883D01*
X31510871Y-35556561D01*
X34655615Y-32411818D01*
X34716938Y-32378333D01*
X34743296Y-32375499D01*
X34871097Y-32375499D01*
X34937882Y-32369431D01*
X34937885Y-32369430D01*
X34937887Y-32369430D01*
X35091602Y-32321531D01*
X35229388Y-32238236D01*
X35343236Y-32124388D01*
X35426531Y-31986602D01*
X35431613Y-31970290D01*
X35470347Y-31912143D01*
X35534371Y-31884167D01*
X35603357Y-31895245D01*
X35655402Y-31941862D01*
X35668383Y-31970284D01*
X35673467Y-31986598D01*
X35756766Y-32124391D01*
X35870608Y-32238233D01*
X35870610Y-32238234D01*
X35870612Y-32238236D01*
X36008398Y-32321531D01*
X36008405Y-32321533D01*
X36013886Y-32324000D01*
X36066943Y-32369462D01*
X36086998Y-32436392D01*
X36087000Y-32437078D01*
X36087000Y-33249848D01*
X36068539Y-33314944D01*
X36001595Y-33423477D01*
X36001592Y-33423484D01*
X35947326Y-33587247D01*
X35947326Y-33587248D01*
X35947325Y-33587248D01*
X35937000Y-33688315D01*
X35937000Y-34386669D01*
X35937001Y-34386687D01*
X35947325Y-34487752D01*
X35971869Y-34561818D01*
X36001592Y-34651516D01*
X36092159Y-34798349D01*
X36092161Y-34798351D01*
X36106482Y-34812672D01*
X36139967Y-34873995D01*
X36134983Y-34943687D01*
X36106485Y-34988032D01*
X36092552Y-35001965D01*
X36002051Y-35148688D01*
X36002046Y-35148699D01*
X35947819Y-35312347D01*
X35937500Y-35413345D01*
X35937500Y-35512500D01*
X37887499Y-35512500D01*
X37887499Y-35427844D01*
X45100000Y-35427844D01*
X45106401Y-35487372D01*
X45106403Y-35487379D01*
X45156645Y-35622086D01*
X45156649Y-35622093D01*
X45242809Y-35737187D01*
X45242812Y-35737190D01*
X45357906Y-35823350D01*
X45357913Y-35823354D01*
X45492620Y-35873596D01*
X45492627Y-35873598D01*
X45552155Y-35879999D01*
X45552172Y-35880000D01*
X46850000Y-35880000D01*
X46850000Y-34599064D01*
X46878316Y-34610793D01*
X47025147Y-34640000D01*
X47174853Y-34640000D01*
X47321684Y-34610793D01*
X47350000Y-34599064D01*
X47350000Y-35880000D01*
X48647828Y-35880000D01*
X48647844Y-35879999D01*
X48707372Y-35873598D01*
X48707379Y-35873596D01*
X48842086Y-35823354D01*
X48842093Y-35823350D01*
X48957187Y-35737190D01*
X48957190Y-35737187D01*
X49043350Y-35622093D01*
X49043354Y-35622086D01*
X49093596Y-35487379D01*
X49093598Y-35487372D01*
X49099999Y-35427844D01*
X49100000Y-35427827D01*
X49100000Y-34130000D01*
X47819064Y-34130000D01*
X47830793Y-34101684D01*
X47860000Y-33954853D01*
X47860000Y-33805147D01*
X47830793Y-33658316D01*
X47819064Y-33630000D01*
X49100000Y-33630000D01*
X49100000Y-32332172D01*
X49099999Y-32332155D01*
X49093598Y-32272627D01*
X49093596Y-32272620D01*
X49043354Y-32137913D01*
X49043350Y-32137906D01*
X48957190Y-32022812D01*
X48957187Y-32022809D01*
X48842093Y-31936649D01*
X48842086Y-31936645D01*
X48707379Y-31886403D01*
X48707372Y-31886401D01*
X48647844Y-31880000D01*
X47350000Y-31880000D01*
X47350000Y-33160935D01*
X47321684Y-33149207D01*
X47174853Y-33120000D01*
X47025147Y-33120000D01*
X46878316Y-33149207D01*
X46850000Y-33160935D01*
X46850000Y-31880000D01*
X45552155Y-31880000D01*
X45492627Y-31886401D01*
X45492620Y-31886403D01*
X45357913Y-31936645D01*
X45357906Y-31936649D01*
X45242812Y-32022809D01*
X45242809Y-32022812D01*
X45156649Y-32137906D01*
X45156645Y-32137913D01*
X45106403Y-32272620D01*
X45106401Y-32272627D01*
X45100000Y-32332155D01*
X45100000Y-33630000D01*
X46380936Y-33630000D01*
X46369207Y-33658316D01*
X46340000Y-33805147D01*
X46340000Y-33954853D01*
X46369207Y-34101684D01*
X46380936Y-34130000D01*
X45100000Y-34130000D01*
X45100000Y-35427844D01*
X37887499Y-35427844D01*
X37887499Y-35413360D01*
X37887498Y-35413345D01*
X37877180Y-35312347D01*
X37822953Y-35148699D01*
X37822948Y-35148688D01*
X37732447Y-35001965D01*
X37732444Y-35001961D01*
X37718517Y-34988034D01*
X37685032Y-34926711D01*
X37690016Y-34857019D01*
X37718517Y-34812672D01*
X37732840Y-34798350D01*
X37823408Y-34651516D01*
X37877674Y-34487753D01*
X37888000Y-34386677D01*
X37887999Y-33688324D01*
X37877674Y-33587247D01*
X37823408Y-33423484D01*
X37806165Y-33395528D01*
X37756461Y-33314944D01*
X37738000Y-33249848D01*
X37738000Y-32499500D01*
X37757685Y-32432461D01*
X37810489Y-32386706D01*
X37862000Y-32375500D01*
X38281860Y-32375500D01*
X38348899Y-32395185D01*
X38382176Y-32426612D01*
X38455483Y-32527510D01*
X38622490Y-32694517D01*
X38813567Y-32833343D01*
X38882535Y-32868484D01*
X39024003Y-32940566D01*
X39024005Y-32940566D01*
X39024008Y-32940568D01*
X39144412Y-32979689D01*
X39248631Y-33013553D01*
X39481903Y-33050500D01*
X39481908Y-33050500D01*
X41818097Y-33050500D01*
X42051368Y-33013553D01*
X42275992Y-32940568D01*
X42486434Y-32833343D01*
X42677510Y-32694517D01*
X45035208Y-30336819D01*
X45096531Y-30303334D01*
X45122889Y-30300500D01*
X45724977Y-30300500D01*
X45792016Y-30320185D01*
X45799287Y-30325233D01*
X46015682Y-30487224D01*
X46015690Y-30487229D01*
X46266833Y-30624364D01*
X46266832Y-30624364D01*
X46266836Y-30624365D01*
X46266839Y-30624367D01*
X46534954Y-30724369D01*
X46534960Y-30724370D01*
X46534962Y-30724371D01*
X46814566Y-30785195D01*
X46814568Y-30785195D01*
X46814572Y-30785196D01*
X47068220Y-30803337D01*
X47099999Y-30805610D01*
X47100000Y-30805610D01*
X47100001Y-30805610D01*
X47128595Y-30803564D01*
X47385428Y-30785196D01*
X47636541Y-30730570D01*
X47665037Y-30724371D01*
X47665037Y-30724370D01*
X47665046Y-30724369D01*
X47933161Y-30624367D01*
X48184315Y-30487226D01*
X48413395Y-30315739D01*
X48615739Y-30113395D01*
X48787226Y-29884315D01*
X48924367Y-29633161D01*
X49024369Y-29365046D01*
X49057313Y-29213605D01*
X49085195Y-29085433D01*
X49085195Y-29085432D01*
X49085196Y-29085428D01*
X49105610Y-28800000D01*
X49085196Y-28514572D01*
X49067338Y-28432482D01*
X49024371Y-28234962D01*
X49024370Y-28234960D01*
X49024369Y-28234954D01*
X48924367Y-27966839D01*
X48824611Y-27784151D01*
X48787229Y-27715690D01*
X48787224Y-27715682D01*
X48615745Y-27486612D01*
X48615729Y-27486594D01*
X48413405Y-27284270D01*
X48413387Y-27284254D01*
X48184317Y-27112775D01*
X48184309Y-27112770D01*
X47933166Y-26975635D01*
X47933167Y-26975635D01*
X47825915Y-26935632D01*
X47665046Y-26875631D01*
X47665043Y-26875630D01*
X47665037Y-26875628D01*
X47385433Y-26814804D01*
X47100001Y-26794390D01*
X47099999Y-26794390D01*
X46814566Y-26814804D01*
X46534962Y-26875628D01*
X46266833Y-26975635D01*
X46015690Y-27112770D01*
X46015682Y-27112775D01*
X45799287Y-27274767D01*
X45733823Y-27299184D01*
X45724977Y-27299500D01*
X44331903Y-27299500D01*
X44098631Y-27336446D01*
X43944689Y-27386466D01*
X43906936Y-27398733D01*
X43889082Y-27404534D01*
X43874001Y-27409434D01*
X43828919Y-27432405D01*
X43760250Y-27445301D01*
X43695510Y-27419024D01*
X43655253Y-27361918D01*
X43652261Y-27292112D01*
X43654694Y-27283602D01*
X43657565Y-27274767D01*
X43685674Y-27188256D01*
X43705460Y-27000000D01*
X43685674Y-26811744D01*
X43627179Y-26631716D01*
X43532533Y-26467784D01*
X43513611Y-26446769D01*
X43457350Y-26384284D01*
X43427120Y-26321292D01*
X43425500Y-26301312D01*
X43425500Y-21838393D01*
X43425499Y-21838389D01*
X43420299Y-21812247D01*
X43401463Y-21717548D01*
X43372856Y-21648484D01*
X43354312Y-21603714D01*
X43320084Y-21552490D01*
X43285858Y-21501267D01*
X43285856Y-21501264D01*
X43195637Y-21411045D01*
X43195606Y-21411016D01*
X42861819Y-21077229D01*
X42828334Y-21015906D01*
X42825500Y-20989548D01*
X42825500Y-20908661D01*
X42845185Y-20841622D01*
X42884402Y-20803123D01*
X42998350Y-20732840D01*
X43120340Y-20610850D01*
X43148988Y-20564404D01*
X43200936Y-20517679D01*
X43254527Y-20505500D01*
X44924773Y-20505500D01*
X44991812Y-20525185D01*
X45026348Y-20558377D01*
X45161501Y-20751396D01*
X45161506Y-20751402D01*
X45283430Y-20873326D01*
X45316915Y-20934649D01*
X45311931Y-21004341D01*
X45270059Y-21060274D01*
X45239083Y-21077189D01*
X45107669Y-21126203D01*
X45107664Y-21126206D01*
X44992455Y-21212452D01*
X44992452Y-21212455D01*
X44906206Y-21327664D01*
X44906202Y-21327671D01*
X44855908Y-21462517D01*
X44849501Y-21522116D01*
X44849501Y-21522123D01*
X44849500Y-21522135D01*
X44849500Y-23317870D01*
X44849501Y-23317876D01*
X44855908Y-23377483D01*
X44906202Y-23512328D01*
X44906206Y-23512335D01*
X44992452Y-23627544D01*
X44992455Y-23627547D01*
X45107664Y-23713793D01*
X45107671Y-23713797D01*
X45242517Y-23764091D01*
X45242516Y-23764091D01*
X45249444Y-23764835D01*
X45302127Y-23770500D01*
X47097872Y-23770499D01*
X47157483Y-23764091D01*
X47292331Y-23713796D01*
X47407546Y-23627546D01*
X47493796Y-23512331D01*
X47544091Y-23377483D01*
X47550500Y-23317873D01*
X47550499Y-21522128D01*
X47544091Y-21462517D01*
X47526048Y-21414142D01*
X47493797Y-21327671D01*
X47493793Y-21327664D01*
X47407547Y-21212455D01*
X47407544Y-21212452D01*
X47292335Y-21126206D01*
X47292328Y-21126202D01*
X47160917Y-21077189D01*
X47104983Y-21035318D01*
X47080566Y-20969853D01*
X47095418Y-20901580D01*
X47116563Y-20873332D01*
X47238495Y-20751401D01*
X47374035Y-20557830D01*
X47473903Y-20343663D01*
X47535063Y-20115408D01*
X47555659Y-19880000D01*
X47535063Y-19644592D01*
X47488626Y-19471285D01*
X47473905Y-19416344D01*
X47473904Y-19416343D01*
X47473903Y-19416337D01*
X47374035Y-19202171D01*
X47373652Y-19201623D01*
X47238494Y-19008597D01*
X47071402Y-18841506D01*
X47071396Y-18841501D01*
X46885842Y-18711575D01*
X46842217Y-18656998D01*
X46835023Y-18587500D01*
X46866546Y-18525145D01*
X46885842Y-18508425D01*
X46933361Y-18475152D01*
X47071401Y-18378495D01*
X47238495Y-18211401D01*
X47374035Y-18017830D01*
X47473903Y-17803663D01*
X47535063Y-17575408D01*
X47555659Y-17340000D01*
X47535063Y-17104592D01*
X47473903Y-16876337D01*
X47374035Y-16662171D01*
X47277443Y-16524222D01*
X47238494Y-16468597D01*
X47071402Y-16301506D01*
X47071401Y-16301505D01*
X46885405Y-16171269D01*
X46841781Y-16116692D01*
X46834588Y-16047193D01*
X46866110Y-15984839D01*
X46885405Y-15968119D01*
X47071082Y-15838105D01*
X47238105Y-15671082D01*
X47373600Y-15477578D01*
X47473429Y-15263492D01*
X47473432Y-15263486D01*
X47530636Y-15050000D01*
X46633012Y-15050000D01*
X46665925Y-14992993D01*
X46700000Y-14865826D01*
X46700000Y-14734174D01*
X46665925Y-14607007D01*
X46633012Y-14550000D01*
X47530636Y-14550000D01*
X47530635Y-14549999D01*
X47473432Y-14336513D01*
X47473429Y-14336507D01*
X47373600Y-14122422D01*
X47373599Y-14122420D01*
X47238113Y-13928926D01*
X47238108Y-13928920D01*
X47071082Y-13761894D01*
X46877578Y-13626399D01*
X46663492Y-13526570D01*
X46663486Y-13526567D01*
X46450000Y-13469364D01*
X46450000Y-14366988D01*
X46392993Y-14334075D01*
X46265826Y-14300000D01*
X46134174Y-14300000D01*
X46007007Y-14334075D01*
X45950000Y-14366988D01*
X45950000Y-13469364D01*
X45949999Y-13469364D01*
X45736513Y-13526567D01*
X45736507Y-13526570D01*
X45522422Y-13626399D01*
X45522420Y-13626400D01*
X45328926Y-13761886D01*
X45328920Y-13761891D01*
X45161891Y-13928920D01*
X45161886Y-13928926D01*
X45026400Y-14122420D01*
X45026399Y-14122422D01*
X44926570Y-14336507D01*
X44926567Y-14336513D01*
X44869364Y-14549999D01*
X44869364Y-14550000D01*
X45766988Y-14550000D01*
X45734075Y-14607007D01*
X45700000Y-14734174D01*
X45700000Y-14865826D01*
X45734075Y-14992993D01*
X45766988Y-15050000D01*
X44869364Y-15050000D01*
X44926567Y-15263486D01*
X44926570Y-15263492D01*
X45026399Y-15477578D01*
X45161894Y-15671082D01*
X45328917Y-15838105D01*
X45514595Y-15968119D01*
X45558219Y-16022696D01*
X45565412Y-16092195D01*
X45533890Y-16154549D01*
X45514595Y-16171269D01*
X45328598Y-16301505D01*
X45289133Y-16340971D01*
X45204811Y-16425292D01*
X45143491Y-16458776D01*
X45117132Y-16461610D01*
X44935845Y-16461610D01*
X44868806Y-16441925D01*
X44847312Y-16424432D01*
X42650458Y-14184284D01*
X42643130Y-14176117D01*
X42641205Y-14173771D01*
X42587095Y-14119662D01*
X42586243Y-14118802D01*
X42532455Y-14063955D01*
X42530115Y-14061996D01*
X42529992Y-14061884D01*
X42529822Y-14061744D01*
X42528874Y-14060958D01*
X42528730Y-14060837D01*
X42528595Y-14060736D01*
X42526228Y-14058793D01*
X42462479Y-14016198D01*
X42461554Y-14015574D01*
X42398140Y-13972302D01*
X42398138Y-13972301D01*
X42398135Y-13972299D01*
X42395459Y-13970835D01*
X42395313Y-13970746D01*
X42395198Y-13970685D01*
X42394119Y-13970102D01*
X42393877Y-13969969D01*
X42393703Y-13969886D01*
X42391023Y-13968453D01*
X42320200Y-13939117D01*
X42319087Y-13938649D01*
X42248517Y-13908609D01*
X42245607Y-13907695D01*
X42245438Y-13907634D01*
X42245129Y-13907540D01*
X42244099Y-13907222D01*
X42243882Y-13907154D01*
X42243723Y-13907113D01*
X42240792Y-13906224D01*
X42165611Y-13891269D01*
X42164427Y-13891028D01*
X42089348Y-13875331D01*
X42086311Y-13875002D01*
X42086121Y-13874973D01*
X42085794Y-13874941D01*
X42084730Y-13874831D01*
X42084535Y-13874810D01*
X42084373Y-13874801D01*
X42081313Y-13874500D01*
X42081305Y-13874500D01*
X42004603Y-13874500D01*
X42003392Y-13874494D01*
X41926749Y-13873745D01*
X41923710Y-13874015D01*
X41912759Y-13874500D01*
X31117677Y-13874500D01*
X31093485Y-13872117D01*
X31090935Y-13871610D01*
X30928325Y-13871610D01*
X30928323Y-13871610D01*
X30768835Y-13903334D01*
X30765295Y-13904408D01*
X30764696Y-13904558D01*
X30759210Y-13906223D01*
X30608980Y-13968450D01*
X30608976Y-13968452D01*
X30473779Y-14058788D01*
X30473776Y-14058790D01*
X30358789Y-14173778D01*
X30358788Y-14173780D01*
X30352000Y-14183938D01*
X30336583Y-14202722D01*
X28198334Y-16340971D01*
X28161090Y-16366569D01*
X28056897Y-16412959D01*
X27903759Y-16524221D01*
X27777096Y-16664895D01*
X27682451Y-16828825D01*
X27682448Y-16828832D01*
X27623957Y-17008850D01*
X27623956Y-17008854D01*
X27604170Y-17197110D01*
X27623956Y-17385366D01*
X27623957Y-17385369D01*
X27682448Y-17565387D01*
X27682451Y-17565394D01*
X27777097Y-17729326D01*
X27862342Y-17824000D01*
X27903759Y-17869998D01*
X28056895Y-17981258D01*
X28056900Y-17981261D01*
X28229822Y-18058252D01*
X28229827Y-18058254D01*
X28414984Y-18097610D01*
X28414985Y-18097610D01*
X28604274Y-18097610D01*
X28604276Y-18097610D01*
X28789433Y-18058254D01*
X28962360Y-17981261D01*
X29115501Y-17869998D01*
X29242163Y-17729326D01*
X29331025Y-17575413D01*
X29336807Y-17565398D01*
X29336807Y-17565396D01*
X29336809Y-17565394D01*
X29341100Y-17552186D01*
X29371348Y-17502823D01*
X30288322Y-16585850D01*
X30349642Y-16552367D01*
X30419334Y-16557351D01*
X30475267Y-16599223D01*
X30499684Y-16664687D01*
X30500000Y-16673532D01*
X30500000Y-16786638D01*
X30500001Y-16786655D01*
X30510319Y-16887652D01*
X30564546Y-17051300D01*
X30564551Y-17051311D01*
X30655052Y-17198034D01*
X30655055Y-17198038D01*
X30776961Y-17319944D01*
X30776965Y-17319947D01*
X30923688Y-17410448D01*
X30923699Y-17410453D01*
X31087347Y-17464680D01*
X31188351Y-17474999D01*
X31287500Y-17474998D01*
X31287500Y-16374000D01*
X31307185Y-16306961D01*
X31359989Y-16261206D01*
X31411500Y-16250000D01*
X31663500Y-16250000D01*
X31730539Y-16269685D01*
X31776294Y-16322489D01*
X31787500Y-16374000D01*
X31787500Y-17474999D01*
X31886640Y-17474999D01*
X31886654Y-17474998D01*
X31987652Y-17464680D01*
X32151300Y-17410453D01*
X32151311Y-17410448D01*
X32298035Y-17319947D01*
X32311960Y-17306021D01*
X32373282Y-17272533D01*
X32442973Y-17277514D01*
X32487327Y-17306017D01*
X32501650Y-17320340D01*
X32513920Y-17327908D01*
X32515596Y-17328942D01*
X32562321Y-17380890D01*
X32574500Y-17434481D01*
X32574500Y-17641538D01*
X32554815Y-17708577D01*
X32502011Y-17754332D01*
X32466691Y-17764476D01*
X32462286Y-17765056D01*
X32462284Y-17765056D01*
X32319980Y-17824000D01*
X32319979Y-17824000D01*
X32197771Y-17917775D01*
X32185508Y-17933756D01*
X32129079Y-17974957D01*
X32111327Y-17979883D01*
X32017553Y-17998536D01*
X32017538Y-17998540D01*
X31903718Y-18045685D01*
X31903709Y-18045690D01*
X31801272Y-18114139D01*
X31801264Y-18114145D01*
X28314227Y-21601181D01*
X28252904Y-21634666D01*
X28226546Y-21637500D01*
X26325001Y-21637500D01*
X26325001Y-21686654D01*
X26335319Y-21787652D01*
X26389546Y-21951300D01*
X26389551Y-21951311D01*
X26480052Y-22098034D01*
X26480055Y-22098038D01*
X26593982Y-22211965D01*
X26627467Y-22273288D01*
X26622483Y-22342980D01*
X26593983Y-22387327D01*
X26479658Y-22501652D01*
X26463348Y-22528096D01*
X26411400Y-22574821D01*
X26357809Y-22587000D01*
X24166995Y-22587000D01*
X24099956Y-22567315D01*
X24080961Y-22551171D01*
X24080701Y-22551461D01*
X24075869Y-22547110D01*
X23922734Y-22435851D01*
X23922729Y-22435848D01*
X23749807Y-22358857D01*
X23749802Y-22358855D01*
X23604001Y-22327865D01*
X23564646Y-22319500D01*
X23375354Y-22319500D01*
X23342897Y-22326398D01*
X23190197Y-22358855D01*
X23190192Y-22358857D01*
X23017270Y-22435848D01*
X23017265Y-22435851D01*
X22864129Y-22547111D01*
X22737466Y-22687785D01*
X22642821Y-22851715D01*
X22642818Y-22851722D01*
X22612278Y-22945716D01*
X22584326Y-23031744D01*
X22564540Y-23220000D01*
X22584326Y-23408256D01*
X22584327Y-23408259D01*
X22642818Y-23588277D01*
X22642821Y-23588284D01*
X22737467Y-23752216D01*
X22864128Y-23892887D01*
X22864129Y-23892888D01*
X23017265Y-24004148D01*
X23017270Y-24004151D01*
X23190192Y-24081142D01*
X23190197Y-24081144D01*
X23375354Y-24120500D01*
X23375355Y-24120500D01*
X23564644Y-24120500D01*
X23564646Y-24120500D01*
X23749803Y-24081144D01*
X23922730Y-24004151D01*
X24075871Y-23892888D01*
X24088352Y-23879027D01*
X24147839Y-23842379D01*
X24180501Y-23838000D01*
X26357809Y-23838000D01*
X26424848Y-23857685D01*
X26463348Y-23896904D01*
X26479660Y-23923350D01*
X26601650Y-24045340D01*
X26748484Y-24135908D01*
X26881394Y-24179950D01*
X26938839Y-24219723D01*
X26965662Y-24284239D01*
X26953347Y-24353015D01*
X26930071Y-24385337D01*
X23828815Y-27486594D01*
X20763770Y-30551639D01*
X20763767Y-30551642D01*
X20720204Y-30595204D01*
X20676642Y-30638766D01*
X20662383Y-30660106D01*
X20648219Y-30681305D01*
X20608190Y-30741210D01*
X20608185Y-30741219D01*
X20581514Y-30805608D01*
X20581515Y-30805609D01*
X20566946Y-30840784D01*
X20566944Y-30840790D01*
X20561037Y-30855048D01*
X20537376Y-30974008D01*
X20537370Y-30974035D01*
X20537001Y-30975886D01*
X20537000Y-30975899D01*
X20537000Y-32477808D01*
X20517315Y-32544847D01*
X20478099Y-32583345D01*
X20451652Y-32599657D01*
X20451649Y-32599660D01*
X20337681Y-32713629D01*
X20276358Y-32747114D01*
X20206666Y-32742130D01*
X20162319Y-32713629D01*
X20048351Y-32599661D01*
X20048350Y-32599660D01*
X19901516Y-32509092D01*
X19737753Y-32454826D01*
X19737751Y-32454825D01*
X19636678Y-32444500D01*
X19038330Y-32444500D01*
X19038312Y-32444501D01*
X18937247Y-32454825D01*
X18773484Y-32509092D01*
X18773481Y-32509093D01*
X18626648Y-32599661D01*
X18504660Y-32721649D01*
X18504659Y-32721651D01*
X18496058Y-32735596D01*
X18444110Y-32782321D01*
X18390519Y-32794500D01*
X18137916Y-32794500D01*
X18070877Y-32774815D01*
X18025122Y-32722011D01*
X18021734Y-32713834D01*
X17979149Y-32599661D01*
X17974367Y-32586839D01*
X17952621Y-32547015D01*
X17837229Y-32335690D01*
X17837224Y-32335682D01*
X17665745Y-32106612D01*
X17665729Y-32106594D01*
X17463405Y-31904270D01*
X17463387Y-31904254D01*
X17234317Y-31732775D01*
X17234309Y-31732770D01*
X16983166Y-31595635D01*
X16983167Y-31595635D01*
X16875915Y-31555632D01*
X16715046Y-31495631D01*
X16715043Y-31495630D01*
X16715037Y-31495628D01*
X16435433Y-31434804D01*
X16150001Y-31414390D01*
X16149999Y-31414390D01*
X15864566Y-31434804D01*
X15584962Y-31495628D01*
X15316833Y-31595635D01*
X15065690Y-31732770D01*
X15065682Y-31732775D01*
X14836612Y-31904254D01*
X14836594Y-31904270D01*
X14634270Y-32106594D01*
X14634254Y-32106612D01*
X14462775Y-32335682D01*
X14462770Y-32335690D01*
X14325635Y-32586833D01*
X14225628Y-32854962D01*
X14164804Y-33134566D01*
X14144390Y-33419998D01*
X14144390Y-33420001D01*
X13600000Y-33420001D01*
X13600000Y-29887870D01*
X14149500Y-29887870D01*
X14149501Y-29887876D01*
X14155908Y-29947483D01*
X14206202Y-30082328D01*
X14206206Y-30082335D01*
X14292452Y-30197544D01*
X14292455Y-30197547D01*
X14407664Y-30283793D01*
X14407671Y-30283797D01*
X14542517Y-30334091D01*
X14542516Y-30334091D01*
X14549444Y-30334835D01*
X14602127Y-30340500D01*
X17697872Y-30340499D01*
X17757483Y-30334091D01*
X17892331Y-30283796D01*
X18007546Y-30197546D01*
X18093796Y-30082331D01*
X18144091Y-29947483D01*
X18150500Y-29887873D01*
X18150499Y-26792128D01*
X18144091Y-26732517D01*
X18106494Y-26631715D01*
X18093797Y-26597671D01*
X18093793Y-26597664D01*
X18007547Y-26482455D01*
X18007544Y-26482452D01*
X17892335Y-26396206D01*
X17892328Y-26396202D01*
X17757482Y-26345908D01*
X17757483Y-26345908D01*
X17697883Y-26339501D01*
X17697881Y-26339500D01*
X17697873Y-26339500D01*
X17697865Y-26339500D01*
X17099500Y-26339500D01*
X17032461Y-26319815D01*
X16986706Y-26267011D01*
X16975500Y-26215500D01*
X16975500Y-23343294D01*
X16995185Y-23276255D01*
X17011815Y-23255617D01*
X17137820Y-23129612D01*
X17199142Y-23096128D01*
X17268834Y-23101112D01*
X17324767Y-23142984D01*
X17349184Y-23208448D01*
X17349500Y-23217294D01*
X17349500Y-24200001D01*
X17349501Y-24200018D01*
X17360000Y-24302796D01*
X17360001Y-24302799D01*
X17415185Y-24469331D01*
X17415187Y-24469336D01*
X17437940Y-24506224D01*
X17507288Y-24618656D01*
X17631344Y-24742712D01*
X17780666Y-24834814D01*
X17947203Y-24889999D01*
X18049991Y-24900500D01*
X20150008Y-24900499D01*
X20252797Y-24889999D01*
X20419334Y-24834814D01*
X20568656Y-24742712D01*
X20692712Y-24618656D01*
X20784814Y-24469334D01*
X20839999Y-24302797D01*
X20850500Y-24200009D01*
X20850499Y-22673444D01*
X20870184Y-22606406D01*
X20922987Y-22560651D01*
X20950302Y-22551829D01*
X20990789Y-22543776D01*
X21141021Y-22481548D01*
X21141023Y-22481547D01*
X21227485Y-22423775D01*
X21276225Y-22391208D01*
X22111297Y-21556134D01*
X22148538Y-21530539D01*
X22252730Y-21484151D01*
X22405871Y-21372888D01*
X22532533Y-21232216D01*
X22587217Y-21137500D01*
X26325000Y-21137500D01*
X27050000Y-21137500D01*
X27050000Y-20400000D01*
X27550000Y-20400000D01*
X27550000Y-21137500D01*
X28274999Y-21137500D01*
X28274999Y-21088360D01*
X28274998Y-21088345D01*
X28264680Y-20987347D01*
X28210453Y-20823699D01*
X28210448Y-20823688D01*
X28119947Y-20676965D01*
X28119944Y-20676961D01*
X27998038Y-20555055D01*
X27998034Y-20555052D01*
X27851311Y-20464551D01*
X27851300Y-20464546D01*
X27687652Y-20410319D01*
X27586654Y-20400000D01*
X27550000Y-20400000D01*
X27050000Y-20400000D01*
X27013361Y-20400000D01*
X27013343Y-20400001D01*
X26912347Y-20410319D01*
X26748699Y-20464546D01*
X26748688Y-20464551D01*
X26601965Y-20555052D01*
X26601961Y-20555055D01*
X26480055Y-20676961D01*
X26480052Y-20676965D01*
X26389551Y-20823688D01*
X26389546Y-20823699D01*
X26335319Y-20987347D01*
X26325000Y-21088345D01*
X26325000Y-21137500D01*
X22587217Y-21137500D01*
X22627179Y-21068284D01*
X22685674Y-20888256D01*
X22705460Y-20700000D01*
X22685674Y-20511744D01*
X22627179Y-20331716D01*
X22532533Y-20167784D01*
X22405871Y-20027112D01*
X22405870Y-20027111D01*
X22252734Y-19915851D01*
X22252729Y-19915848D01*
X22079807Y-19838857D01*
X22079802Y-19838855D01*
X21934001Y-19807865D01*
X21894646Y-19799500D01*
X21705354Y-19799500D01*
X21685529Y-19803714D01*
X21520197Y-19838855D01*
X21520192Y-19838857D01*
X21347270Y-19915848D01*
X21347265Y-19915851D01*
X21194129Y-20027111D01*
X21067463Y-20167788D01*
X21065055Y-20171102D01*
X21063173Y-20172552D01*
X21063119Y-20172613D01*
X21063107Y-20172603D01*
X21009720Y-20213761D01*
X20940106Y-20219731D01*
X20878315Y-20187118D01*
X20843965Y-20126275D01*
X20841388Y-20110802D01*
X20839999Y-20097204D01*
X20839998Y-20097200D01*
X20784814Y-19930666D01*
X20692712Y-19781344D01*
X20568656Y-19657288D01*
X20419334Y-19565186D01*
X20252797Y-19510001D01*
X20252795Y-19510000D01*
X20150010Y-19499500D01*
X18049998Y-19499500D01*
X18049981Y-19499501D01*
X17947203Y-19510000D01*
X17947200Y-19510001D01*
X17780668Y-19565185D01*
X17780663Y-19565187D01*
X17631342Y-19657289D01*
X17507289Y-19781342D01*
X17415187Y-19930663D01*
X17415186Y-19930666D01*
X17360001Y-20097203D01*
X17360001Y-20097204D01*
X17360000Y-20097204D01*
X17349500Y-20199983D01*
X17349500Y-20806662D01*
X17329815Y-20873701D01*
X17277011Y-20919456D01*
X17249692Y-20928279D01*
X17109216Y-20956222D01*
X17109206Y-20956225D01*
X16958980Y-21018450D01*
X16958976Y-21018452D01*
X16823775Y-21108790D01*
X16823768Y-21108796D01*
X15809796Y-22122771D01*
X15623775Y-22308792D01*
X15589587Y-22342980D01*
X15508790Y-22423776D01*
X15508788Y-22423779D01*
X15418452Y-22558976D01*
X15418450Y-22558980D01*
X15356225Y-22709206D01*
X15356222Y-22709216D01*
X15324500Y-22868692D01*
X15324500Y-26215500D01*
X15304815Y-26282539D01*
X15252011Y-26328294D01*
X15200500Y-26339500D01*
X14602129Y-26339500D01*
X14602123Y-26339501D01*
X14542516Y-26345908D01*
X14407671Y-26396202D01*
X14407664Y-26396206D01*
X14292455Y-26482452D01*
X14292452Y-26482455D01*
X14206206Y-26597664D01*
X14206202Y-26597671D01*
X14155908Y-26732517D01*
X14149501Y-26792116D01*
X14149501Y-26792123D01*
X14149500Y-26792135D01*
X14149500Y-29887870D01*
X13600000Y-29887870D01*
X13600000Y-15050000D01*
X17350001Y-15050000D01*
X17350001Y-16799986D01*
X17360494Y-16902697D01*
X17415641Y-17069119D01*
X17415643Y-17069124D01*
X17507684Y-17218345D01*
X17631654Y-17342315D01*
X17780875Y-17434356D01*
X17780880Y-17434358D01*
X17947302Y-17489505D01*
X17947309Y-17489506D01*
X18050019Y-17499999D01*
X18849999Y-17499999D01*
X18850000Y-17499998D01*
X18850000Y-15050000D01*
X19350000Y-15050000D01*
X19350000Y-17499999D01*
X20149972Y-17499999D01*
X20149986Y-17499998D01*
X20252697Y-17489505D01*
X20419119Y-17434358D01*
X20419124Y-17434356D01*
X20568345Y-17342315D01*
X20692315Y-17218345D01*
X20784356Y-17069124D01*
X20784358Y-17069119D01*
X20839505Y-16902697D01*
X20839506Y-16902690D01*
X20849999Y-16799986D01*
X20850000Y-16799973D01*
X20850000Y-15050000D01*
X19350000Y-15050000D01*
X18850000Y-15050000D01*
X17350001Y-15050000D01*
X13600000Y-15050000D01*
X13600000Y-13101526D01*
X13600037Y-13098490D01*
X13602145Y-13012421D01*
X13602146Y-13012419D01*
X13602145Y-13012415D01*
X13604490Y-12991272D01*
X13638362Y-12820983D01*
X13645412Y-12797741D01*
X13711274Y-12638738D01*
X13722726Y-12617314D01*
X13818338Y-12474219D01*
X13833751Y-12455439D01*
X13955439Y-12333751D01*
X13974219Y-12318338D01*
X14117314Y-12222726D01*
X14138738Y-12211274D01*
X14297741Y-12145412D01*
X14320983Y-12138362D01*
X14491272Y-12104490D01*
X14512415Y-12102145D01*
X14593037Y-12100170D01*
X14598491Y-12100037D01*
X14601527Y-12100000D01*
X17489977Y-12100000D01*
X17557016Y-12119685D01*
G37*
G04 #@! TD.AperFunction*
M02*
