G04 #@! TF.GenerationSoftware,KiCad,Pcbnew,8.0.1*
G04 #@! TF.CreationDate,2024-03-27T22:14:34+01:00*
G04 #@! TF.ProjectId,kurumi,6b757275-6d69-42e6-9b69-6361645f7063,rev?*
G04 #@! TF.SameCoordinates,Original*
G04 #@! TF.FileFunction,Copper,L2,Bot*
G04 #@! TF.FilePolarity,Positive*
%FSLAX46Y46*%
G04 Gerber Fmt 4.6, Leading zero omitted, Abs format (unit mm)*
G04 Created by KiCad (PCBNEW 8.0.1) date 2024-03-27 22:14:34*
%MOMM*%
%LPD*%
G01*
G04 APERTURE LIST*
G04 Aperture macros list*
%AMRoundRect*
0 Rectangle with rounded corners*
0 $1 Rounding radius*
0 $2 $3 $4 $5 $6 $7 $8 $9 X,Y pos of 4 corners*
0 Add a 4 corners polygon primitive as box body*
4,1,4,$2,$3,$4,$5,$6,$7,$8,$9,$2,$3,0*
0 Add four circle primitives for the rounded corners*
1,1,$1+$1,$2,$3*
1,1,$1+$1,$4,$5*
1,1,$1+$1,$6,$7*
1,1,$1+$1,$8,$9*
0 Add four rect primitives between the rounded corners*
20,1,$1+$1,$2,$3,$4,$5,0*
20,1,$1+$1,$4,$5,$6,$7,0*
20,1,$1+$1,$6,$7,$8,$9,0*
20,1,$1+$1,$8,$9,$2,$3,0*%
G04 Aperture macros list end*
G04 #@! TA.AperFunction,ComponentPad*
%ADD10R,3.000000X3.000000*%
G04 #@! TD*
G04 #@! TA.AperFunction,ComponentPad*
%ADD11C,3.000000*%
G04 #@! TD*
G04 #@! TA.AperFunction,ComponentPad*
%ADD12R,1.700000X1.700000*%
G04 #@! TD*
G04 #@! TA.AperFunction,ComponentPad*
%ADD13O,1.700000X1.700000*%
G04 #@! TD*
G04 #@! TA.AperFunction,SMDPad,CuDef*
%ADD14RoundRect,0.237500X-0.250000X-0.237500X0.250000X-0.237500X0.250000X0.237500X-0.250000X0.237500X0*%
G04 #@! TD*
G04 #@! TA.AperFunction,SMDPad,CuDef*
%ADD15RoundRect,0.085000X0.085000X-0.265000X0.085000X0.265000X-0.085000X0.265000X-0.085000X-0.265000X0*%
G04 #@! TD*
G04 #@! TA.AperFunction,SMDPad,CuDef*
%ADD16RoundRect,0.162500X0.617500X0.162500X-0.617500X0.162500X-0.617500X-0.162500X0.617500X-0.162500X0*%
G04 #@! TD*
G04 #@! TA.AperFunction,SMDPad,CuDef*
%ADD17RoundRect,0.237500X-0.300000X-0.237500X0.300000X-0.237500X0.300000X0.237500X-0.300000X0.237500X0*%
G04 #@! TD*
G04 #@! TA.AperFunction,SMDPad,CuDef*
%ADD18R,3.500000X2.350000*%
G04 #@! TD*
G04 #@! TA.AperFunction,SMDPad,CuDef*
%ADD19RoundRect,0.237500X-0.237500X0.300000X-0.237500X-0.300000X0.237500X-0.300000X0.237500X0.300000X0*%
G04 #@! TD*
G04 #@! TA.AperFunction,SMDPad,CuDef*
%ADD20RoundRect,0.237500X0.300000X0.237500X-0.300000X0.237500X-0.300000X-0.237500X0.300000X-0.237500X0*%
G04 #@! TD*
G04 #@! TA.AperFunction,SMDPad,CuDef*
%ADD21RoundRect,0.237500X0.237500X-0.250000X0.237500X0.250000X-0.237500X0.250000X-0.237500X-0.250000X0*%
G04 #@! TD*
G04 #@! TA.AperFunction,SMDPad,CuDef*
%ADD22RoundRect,0.250000X1.000000X-1.500000X1.000000X1.500000X-1.000000X1.500000X-1.000000X-1.500000X0*%
G04 #@! TD*
G04 #@! TA.AperFunction,ViaPad*
%ADD23C,0.800000*%
G04 #@! TD*
G04 #@! TA.AperFunction,Conductor*
%ADD24C,0.650000*%
G04 #@! TD*
G04 #@! TA.AperFunction,Conductor*
%ADD25C,0.250000*%
G04 #@! TD*
G04 #@! TA.AperFunction,Conductor*
%ADD26C,0.500000*%
G04 #@! TD*
G04 #@! TA.AperFunction,Conductor*
%ADD27C,2.000000*%
G04 #@! TD*
G04 #@! TA.AperFunction,Conductor*
%ADD28C,0.800000*%
G04 #@! TD*
G04 APERTURE END LIST*
D10*
X16150000Y-27420000D03*
D11*
X16150000Y-32500000D03*
X16150000Y-37580000D03*
D12*
X46200000Y-22420000D03*
D13*
X46200000Y-19880000D03*
X46200000Y-17340000D03*
X46200000Y-14800000D03*
D10*
X47100000Y-33880000D03*
D11*
X47100000Y-28800000D03*
D14*
X26775000Y-36900000D03*
X28600000Y-36900000D03*
D15*
X33200000Y-20100000D03*
X32700000Y-20100000D03*
X32200000Y-20100000D03*
X32200000Y-18600000D03*
X32700000Y-18600000D03*
X33200000Y-18600000D03*
D14*
X30987500Y-36900000D03*
X32812500Y-36900000D03*
D16*
X36900000Y-29650000D03*
X36900000Y-30600000D03*
X36900000Y-31550000D03*
X34200000Y-31550000D03*
X34200000Y-30600000D03*
X34200000Y-29650000D03*
D14*
X19337500Y-32500000D03*
X21162500Y-32500000D03*
D17*
X31537500Y-16500000D03*
X33262500Y-16500000D03*
D18*
X29100000Y-27150000D03*
X29100000Y-32850000D03*
D19*
X36912500Y-34037500D03*
X36912500Y-35762500D03*
D17*
X26837500Y-39900000D03*
X28562500Y-39900000D03*
D20*
X33262500Y-22200000D03*
X31537500Y-22200000D03*
D21*
X42300000Y-19900000D03*
X42300000Y-18075000D03*
D20*
X35712500Y-27300000D03*
X33987500Y-27300000D03*
D22*
X19100000Y-21750000D03*
X19100000Y-15250000D03*
D21*
X27300000Y-23212500D03*
X27300000Y-21387500D03*
D23*
X33250000Y-23250000D03*
X31200000Y-39800000D03*
X35500000Y-41050000D03*
X37700000Y-38500000D03*
X27500000Y-30750000D03*
X34400000Y-38500000D03*
X37700000Y-41050000D03*
X29000000Y-38500000D03*
X30100000Y-39800000D03*
X35500000Y-38500000D03*
X30100000Y-38500000D03*
X29650000Y-29500000D03*
X36600000Y-38500000D03*
X29650000Y-30750000D03*
X36600000Y-37300000D03*
X31200000Y-41050000D03*
X35500000Y-36200000D03*
X26450000Y-30750000D03*
X34400000Y-37300000D03*
X36600000Y-39800000D03*
X36100000Y-28450000D03*
X31800000Y-28400000D03*
X30700000Y-30750000D03*
X30400000Y-23800000D03*
X35000000Y-32900000D03*
X32300000Y-39800000D03*
X27500000Y-29500000D03*
X31200000Y-38500000D03*
X33350000Y-39800000D03*
X30150000Y-41050000D03*
X33350000Y-41050000D03*
X37700000Y-37300000D03*
X30700000Y-29500000D03*
X31800000Y-29500000D03*
X26400000Y-32200000D03*
X33350000Y-38500000D03*
X31800000Y-27350000D03*
X27900000Y-38500000D03*
X35500000Y-39800000D03*
X26400000Y-29500000D03*
X34400000Y-35100000D03*
X34400000Y-36200000D03*
X34400000Y-41050000D03*
X37700000Y-39800000D03*
X32300000Y-35500000D03*
X33000000Y-28400000D03*
X31800000Y-30750000D03*
X33300000Y-35100000D03*
X35500000Y-37300000D03*
X37500000Y-24200000D03*
X33900000Y-34000000D03*
X35500000Y-35100000D03*
X26350000Y-28100000D03*
X37850000Y-20900000D03*
X36600000Y-41050000D03*
X34400000Y-39800000D03*
X32300000Y-38500000D03*
X35000000Y-34000000D03*
X28600000Y-30750000D03*
X32300000Y-41050000D03*
X28600000Y-29500000D03*
X36250000Y-25000000D03*
X26775000Y-38250000D03*
X22275000Y-17475000D03*
X42800000Y-27000000D03*
X28509630Y-17197110D03*
X23470000Y-23220000D03*
D24*
X33250000Y-23250000D02*
X33250000Y-22212500D01*
D25*
X33200000Y-20100000D02*
X33200000Y-22137500D01*
D24*
X33250000Y-22212500D02*
X33262500Y-22200000D01*
D25*
X33200000Y-22137500D02*
X33262500Y-22200000D01*
X32700000Y-18600000D02*
X32700000Y-17900000D01*
D26*
X35400000Y-30400000D02*
X36150000Y-29650000D01*
D25*
X32700000Y-17900000D02*
X32475000Y-17675000D01*
X32700000Y-20100000D02*
X32700000Y-18600000D01*
D26*
X35200000Y-30600000D02*
X35400000Y-30400000D01*
X35500000Y-28600000D02*
X35500000Y-30300000D01*
X34200000Y-30600000D02*
X35200000Y-30600000D01*
D25*
X32700000Y-21037500D02*
X31537500Y-22200000D01*
D26*
X35500000Y-28600000D02*
X35950000Y-28600000D01*
X35500000Y-30300000D02*
X35400000Y-30400000D01*
X35500000Y-30300000D02*
X35500000Y-32700000D01*
X36150000Y-29650000D02*
X36900000Y-29650000D01*
D25*
X32700000Y-20100000D02*
X32700000Y-21037500D01*
D26*
X35950000Y-28600000D02*
X36100000Y-28450000D01*
D24*
X35000000Y-23750000D02*
X35000000Y-17750000D01*
X35000000Y-17750000D02*
X33750000Y-16500000D01*
X36250000Y-25000000D02*
X35000000Y-23750000D01*
D25*
X33200000Y-16562500D02*
X33262500Y-16500000D01*
D24*
X33750000Y-16500000D02*
X33262500Y-16500000D01*
D25*
X33200000Y-18600000D02*
X33200000Y-16562500D01*
D27*
X44450000Y-28800000D02*
X41700000Y-31550000D01*
D24*
X36900000Y-31550000D02*
X38700000Y-31550000D01*
X36912500Y-31562500D02*
X36900000Y-31550000D01*
X36912500Y-33800000D02*
X36912500Y-31800000D01*
D27*
X47100000Y-28800000D02*
X44450000Y-28800000D01*
X41700000Y-31550000D02*
X39600000Y-31550000D01*
D28*
X35712500Y-27300000D02*
X37800000Y-27300000D01*
D24*
X35750000Y-27262500D02*
X35750000Y-26250000D01*
D28*
X38350000Y-27850000D02*
X38350000Y-30400000D01*
D24*
X34800000Y-25300000D02*
X30050000Y-25300000D01*
X35750000Y-26250000D02*
X34800000Y-25300000D01*
X29300000Y-26050000D02*
X29300000Y-27150000D01*
D28*
X37800000Y-27300000D02*
X38350000Y-27850000D01*
D24*
X38250000Y-30600000D02*
X37000000Y-30600000D01*
X30050000Y-25300000D02*
X29300000Y-26050000D01*
D28*
X38350000Y-30400000D02*
X38250000Y-30500000D01*
D24*
X26775000Y-36900000D02*
X26775000Y-35375000D01*
X26775000Y-36900000D02*
X26775000Y-39837500D01*
X26775000Y-35375000D02*
X29300000Y-32850000D01*
X26775000Y-39837500D02*
X26837500Y-39900000D01*
X19100000Y-20650000D02*
X19100000Y-21750000D01*
X22275000Y-17475000D02*
X19100000Y-20650000D01*
X16150000Y-24700000D02*
X19100000Y-21750000D01*
X16150000Y-27420000D02*
X16150000Y-24700000D01*
D25*
X19337500Y-32500000D02*
X16150000Y-32500000D01*
X46200000Y-19880000D02*
X42587500Y-19880000D01*
X42587500Y-19880000D02*
X42500000Y-19967500D01*
X42200000Y-21300000D02*
X42200000Y-20000000D01*
X46112500Y-19967500D02*
X46200000Y-19880000D01*
X42800000Y-21900000D02*
X42200000Y-21300000D01*
X42800000Y-27000000D02*
X42800000Y-21900000D01*
X42200000Y-20000000D02*
X42300000Y-19900000D01*
D24*
X31009630Y-14697110D02*
X28509630Y-17197110D01*
X42000000Y-14700000D02*
X31000000Y-14700000D01*
X46209630Y-17287110D02*
X44537110Y-17287110D01*
X44537110Y-17287110D02*
X42000000Y-14700000D01*
D25*
X27300000Y-23212500D02*
X26750000Y-23212500D01*
X23477500Y-23212500D02*
X23470000Y-23220000D01*
X26750000Y-23212500D02*
X27587500Y-23212500D01*
X27587500Y-23212500D02*
X32200000Y-18600000D01*
X26750000Y-23212500D02*
X23477500Y-23212500D01*
X32100000Y-20100000D02*
X21162500Y-31037500D01*
X32200000Y-20100000D02*
X32100000Y-20100000D01*
X21162500Y-31037500D02*
X21162500Y-32500000D01*
D24*
X34000000Y-27312500D02*
X34000000Y-29450000D01*
D25*
X34200000Y-27512500D02*
X33987500Y-27300000D01*
D24*
X29750000Y-36900000D02*
X30987500Y-36900000D01*
X28600000Y-36900000D02*
X29750000Y-36900000D01*
X34200000Y-31550000D02*
X34200000Y-31700000D01*
X34200000Y-31700000D02*
X29750000Y-36150000D01*
X29750000Y-36150000D02*
X29750000Y-36900000D01*
G04 #@! TA.AperFunction,Conductor*
G36*
X41668304Y-15545185D02*
G01*
X41689798Y-15562678D01*
X43143817Y-17045352D01*
X43176702Y-17106999D01*
X43171037Y-17176639D01*
X43128622Y-17232161D01*
X43062923Y-17255938D01*
X42994798Y-17240421D01*
X42990187Y-17237712D01*
X42851311Y-17152051D01*
X42851300Y-17152046D01*
X42687652Y-17097819D01*
X42586654Y-17087500D01*
X42550000Y-17087500D01*
X42550000Y-17825000D01*
X43274999Y-17825000D01*
X43274999Y-17775860D01*
X43274998Y-17775845D01*
X43264680Y-17674847D01*
X43210453Y-17511199D01*
X43210450Y-17511192D01*
X43130522Y-17381611D01*
X43112081Y-17314218D01*
X43133003Y-17247555D01*
X43186645Y-17202785D01*
X43255975Y-17194123D01*
X43318983Y-17224319D01*
X43324593Y-17229691D01*
X43886652Y-17802827D01*
X43893967Y-17810978D01*
X43895899Y-17813332D01*
X43950014Y-17867447D01*
X43950865Y-17868306D01*
X44004652Y-17923152D01*
X44006992Y-17925111D01*
X44007125Y-17925233D01*
X44007308Y-17925383D01*
X44008226Y-17926144D01*
X44008377Y-17926270D01*
X44008522Y-17926379D01*
X44010887Y-17928320D01*
X44041212Y-17948582D01*
X44074651Y-17970925D01*
X44075584Y-17971555D01*
X44089808Y-17981261D01*
X44138970Y-18014808D01*
X44138978Y-18014811D01*
X44141626Y-18016260D01*
X44141789Y-18016359D01*
X44141970Y-18016456D01*
X44143026Y-18017027D01*
X44143241Y-18017144D01*
X44143422Y-18017231D01*
X44146079Y-18018651D01*
X44146089Y-18018658D01*
X44217024Y-18048039D01*
X44217919Y-18048415D01*
X44288587Y-18078499D01*
X44288594Y-18078500D01*
X44291502Y-18079414D01*
X44291670Y-18079475D01*
X44291821Y-18079521D01*
X44292966Y-18079875D01*
X44293208Y-18079951D01*
X44293413Y-18080003D01*
X44296312Y-18080882D01*
X44296321Y-18080886D01*
X44371711Y-18095882D01*
X44372493Y-18096041D01*
X44447754Y-18111777D01*
X44447758Y-18111777D01*
X44450760Y-18112102D01*
X44450945Y-18112131D01*
X44451189Y-18112155D01*
X44452382Y-18112278D01*
X44452621Y-18112303D01*
X44452794Y-18112313D01*
X44455805Y-18112610D01*
X44532507Y-18112610D01*
X44533717Y-18112615D01*
X44610357Y-18113364D01*
X44610357Y-18113363D01*
X44610360Y-18113364D01*
X44613400Y-18113095D01*
X44624351Y-18112610D01*
X45027781Y-18112610D01*
X45094820Y-18132295D01*
X45129355Y-18165486D01*
X45156412Y-18204128D01*
X45161507Y-18211404D01*
X45328597Y-18378493D01*
X45328603Y-18378498D01*
X45514158Y-18508425D01*
X45557783Y-18563002D01*
X45564977Y-18632500D01*
X45533454Y-18694855D01*
X45514158Y-18711575D01*
X45328597Y-18841505D01*
X45161505Y-19008597D01*
X45026348Y-19201623D01*
X44971771Y-19245248D01*
X44924773Y-19254500D01*
X43229855Y-19254500D01*
X43162816Y-19234815D01*
X43124317Y-19195598D01*
X43120340Y-19189150D01*
X43006017Y-19074827D01*
X42972532Y-19013504D01*
X42977516Y-18943812D01*
X43006017Y-18899464D01*
X43119948Y-18785533D01*
X43210448Y-18638811D01*
X43210453Y-18638800D01*
X43264680Y-18475152D01*
X43274999Y-18374154D01*
X43275000Y-18374141D01*
X43275000Y-18325000D01*
X41325001Y-18325000D01*
X41325001Y-18374154D01*
X41335319Y-18475152D01*
X41389546Y-18638800D01*
X41389551Y-18638811D01*
X41480052Y-18785534D01*
X41480055Y-18785538D01*
X41593982Y-18899465D01*
X41627467Y-18960788D01*
X41622483Y-19030480D01*
X41593983Y-19074827D01*
X41479659Y-19189151D01*
X41389093Y-19335981D01*
X41389092Y-19335984D01*
X41334826Y-19499747D01*
X41334826Y-19499748D01*
X41334825Y-19499748D01*
X41324500Y-19600815D01*
X41324500Y-20199169D01*
X41324501Y-20199187D01*
X41334825Y-20300252D01*
X41389092Y-20464015D01*
X41389093Y-20464018D01*
X41422192Y-20517679D01*
X41479659Y-20610849D01*
X41479661Y-20610851D01*
X41538181Y-20669371D01*
X41571666Y-20730694D01*
X41574500Y-20757052D01*
X41574500Y-21238393D01*
X41574500Y-21361607D01*
X41574500Y-21361609D01*
X41574499Y-21361609D01*
X41579550Y-21386997D01*
X41579550Y-21386999D01*
X41598535Y-21482443D01*
X41598537Y-21482452D01*
X41606489Y-21501650D01*
X41645688Y-21596286D01*
X41661300Y-21619651D01*
X41676807Y-21642859D01*
X41676808Y-21642860D01*
X41680566Y-21648484D01*
X41714142Y-21698733D01*
X41714145Y-21698736D01*
X41714148Y-21698740D01*
X41805586Y-21790178D01*
X41805608Y-21790198D01*
X42138181Y-22122771D01*
X42171666Y-22184094D01*
X42174500Y-22210452D01*
X42174500Y-26301312D01*
X42154815Y-26368351D01*
X42142650Y-26384284D01*
X42067467Y-26467784D01*
X42067466Y-26467784D01*
X41972821Y-26631715D01*
X41972818Y-26631722D01*
X41914327Y-26811740D01*
X41914326Y-26811744D01*
X41894540Y-27000000D01*
X41914326Y-27188256D01*
X41914327Y-27188259D01*
X41972818Y-27368277D01*
X41972821Y-27368284D01*
X42067467Y-27532216D01*
X42194129Y-27672888D01*
X42347265Y-27784148D01*
X42347270Y-27784151D01*
X42520192Y-27861142D01*
X42520197Y-27861144D01*
X42705354Y-27900500D01*
X42705355Y-27900500D01*
X42894644Y-27900500D01*
X42894646Y-27900500D01*
X42907846Y-27897694D01*
X42977511Y-27903009D01*
X43033245Y-27945146D01*
X43057351Y-28010725D01*
X43042175Y-28078927D01*
X43021307Y-28106665D01*
X41114792Y-30013181D01*
X41053469Y-30046666D01*
X41027111Y-30049500D01*
X39481901Y-30049500D01*
X39393897Y-30063438D01*
X39324604Y-30054483D01*
X39271152Y-30009487D01*
X39250513Y-29942735D01*
X39250500Y-29940965D01*
X39250500Y-27761306D01*
X39250499Y-27761304D01*
X39215896Y-27587341D01*
X39215893Y-27587332D01*
X39215618Y-27586669D01*
X39151721Y-27432405D01*
X39148016Y-27423459D01*
X39148009Y-27423446D01*
X39049465Y-27275966D01*
X39048266Y-27274767D01*
X38924035Y-27150536D01*
X38786814Y-27013315D01*
X38374041Y-26600540D01*
X38374040Y-26600539D01*
X38374036Y-26600536D01*
X38314959Y-26561063D01*
X38314958Y-26561061D01*
X38226544Y-26501985D01*
X38226542Y-26501984D01*
X38143973Y-26467784D01*
X38062666Y-26434105D01*
X38062658Y-26434103D01*
X37888696Y-26399500D01*
X37888692Y-26399500D01*
X37888691Y-26399500D01*
X36699500Y-26399500D01*
X36632461Y-26379815D01*
X36586706Y-26327011D01*
X36575500Y-26275500D01*
X36575500Y-26168692D01*
X36543777Y-26009216D01*
X36543775Y-26009209D01*
X36536045Y-25990548D01*
X36528575Y-25921079D01*
X36559849Y-25858599D01*
X36600165Y-25829816D01*
X36702730Y-25784151D01*
X36855871Y-25672888D01*
X36982533Y-25532216D01*
X37077179Y-25368284D01*
X37135674Y-25188256D01*
X37155460Y-25000000D01*
X37135674Y-24811744D01*
X37077179Y-24631716D01*
X36982533Y-24467784D01*
X36855871Y-24327112D01*
X36855870Y-24327111D01*
X36702730Y-24215848D01*
X36598539Y-24169459D01*
X36561294Y-24143861D01*
X35861819Y-23444386D01*
X35828334Y-23383063D01*
X35825500Y-23356705D01*
X35825500Y-17825000D01*
X41325000Y-17825000D01*
X42050000Y-17825000D01*
X42050000Y-17087500D01*
X42013361Y-17087500D01*
X42013343Y-17087501D01*
X41912347Y-17097819D01*
X41748699Y-17152046D01*
X41748688Y-17152051D01*
X41601965Y-17242552D01*
X41601961Y-17242555D01*
X41480055Y-17364461D01*
X41480052Y-17364465D01*
X41389551Y-17511188D01*
X41389546Y-17511199D01*
X41335319Y-17674847D01*
X41325000Y-17775845D01*
X41325000Y-17825000D01*
X35825500Y-17825000D01*
X35825500Y-17668692D01*
X35793777Y-17509216D01*
X35793776Y-17509215D01*
X35793776Y-17509211D01*
X35785614Y-17489505D01*
X35731549Y-17358980D01*
X35731547Y-17358976D01*
X35641211Y-17223779D01*
X35641209Y-17223776D01*
X35586719Y-17169286D01*
X35526225Y-17108792D01*
X34941654Y-16524221D01*
X34276228Y-15858794D01*
X34276224Y-15858791D01*
X34141027Y-15768455D01*
X34141021Y-15768452D01*
X34130420Y-15764061D01*
X34076017Y-15720219D01*
X34053953Y-15653925D01*
X34071233Y-15586226D01*
X34122370Y-15538616D01*
X34177874Y-15525500D01*
X41601265Y-15525500D01*
X41668304Y-15545185D01*
G37*
G04 #@! TD.AperFunction*
G04 #@! TA.AperFunction,Conductor*
G36*
X35014597Y-28159166D02*
G01*
X35098475Y-28210903D01*
X35098478Y-28210904D01*
X35098484Y-28210908D01*
X35262247Y-28265174D01*
X35363323Y-28275500D01*
X36061676Y-28275499D01*
X36061684Y-28275498D01*
X36061687Y-28275498D01*
X36117030Y-28269844D01*
X36162753Y-28265174D01*
X36326516Y-28210908D01*
X36326516Y-28210907D01*
X36333372Y-28208636D01*
X36333800Y-28209928D01*
X36376326Y-28200500D01*
X37325500Y-28200500D01*
X37392539Y-28220185D01*
X37438294Y-28272989D01*
X37449500Y-28324500D01*
X37449500Y-28701000D01*
X37429815Y-28768039D01*
X37377011Y-28813794D01*
X37325500Y-28825000D01*
X37150000Y-28825000D01*
X37150000Y-29650500D01*
X37130315Y-29717539D01*
X37077511Y-29763294D01*
X37026000Y-29774500D01*
X36774000Y-29774500D01*
X36706961Y-29754815D01*
X36661206Y-29702011D01*
X36650000Y-29650500D01*
X36650000Y-28825000D01*
X36228957Y-28825000D01*
X36162207Y-28831065D01*
X36008603Y-28878929D01*
X35870919Y-28962163D01*
X35757163Y-29075919D01*
X35673928Y-29213605D01*
X35668647Y-29230554D01*
X35629908Y-29288701D01*
X35565883Y-29316674D01*
X35496898Y-29305592D01*
X35444855Y-29258972D01*
X35431877Y-29230553D01*
X35429971Y-29224439D01*
X35426531Y-29213398D01*
X35343236Y-29075612D01*
X35343234Y-29075610D01*
X35343233Y-29075608D01*
X35229391Y-28961766D01*
X35091602Y-28878469D01*
X34937887Y-28830570D01*
X34937883Y-28830569D01*
X34937878Y-28830568D01*
X34931452Y-28829290D01*
X34931706Y-28828012D01*
X34873283Y-28804925D01*
X34832502Y-28748192D01*
X34825500Y-28707114D01*
X34825500Y-28264704D01*
X34845185Y-28197665D01*
X34897989Y-28151910D01*
X34967147Y-28141966D01*
X35014597Y-28159166D01*
G37*
G04 #@! TD.AperFunction*
G04 #@! TA.AperFunction,Conductor*
G36*
X31730539Y-21969685D02*
G01*
X31776294Y-22022489D01*
X31787500Y-22074000D01*
X31787500Y-23174999D01*
X31886640Y-23174999D01*
X31886654Y-23174998D01*
X31987652Y-23164680D01*
X32151300Y-23110453D01*
X32151305Y-23110450D01*
X32158814Y-23105819D01*
X32226205Y-23087374D01*
X32292870Y-23108292D01*
X32337643Y-23161930D01*
X32347239Y-23224311D01*
X32344540Y-23249997D01*
X32344540Y-23250000D01*
X32364326Y-23438256D01*
X32364327Y-23438259D01*
X32422818Y-23618277D01*
X32422821Y-23618284D01*
X32517467Y-23782216D01*
X32617116Y-23892887D01*
X32644129Y-23922888D01*
X32797265Y-24034148D01*
X32797270Y-24034151D01*
X32970192Y-24111142D01*
X32970197Y-24111144D01*
X33155354Y-24150500D01*
X33155355Y-24150500D01*
X33344644Y-24150500D01*
X33344646Y-24150500D01*
X33529803Y-24111144D01*
X33702730Y-24034151D01*
X33855871Y-23922888D01*
X33966256Y-23800292D01*
X34025743Y-23763644D01*
X34095600Y-23764975D01*
X34153648Y-23803861D01*
X34180023Y-23859073D01*
X34206222Y-23990783D01*
X34206225Y-23990793D01*
X34268450Y-24141019D01*
X34268452Y-24141023D01*
X34362176Y-24281291D01*
X34359854Y-24282842D01*
X34382497Y-24336098D01*
X34370732Y-24404970D01*
X34323599Y-24456548D01*
X34259336Y-24474500D01*
X29968693Y-24474500D01*
X29809216Y-24506222D01*
X29809206Y-24506225D01*
X29658980Y-24568450D01*
X29658976Y-24568452D01*
X29523779Y-24658788D01*
X29523771Y-24658794D01*
X28744385Y-25438181D01*
X28683062Y-25471666D01*
X28656704Y-25474500D01*
X27909451Y-25474500D01*
X27842412Y-25454815D01*
X27796657Y-25402011D01*
X27786713Y-25332853D01*
X27815738Y-25269297D01*
X27821770Y-25262819D01*
X28452874Y-24631715D01*
X30365784Y-22718804D01*
X30427103Y-22685322D01*
X30496795Y-22690306D01*
X30552728Y-22732178D01*
X30560567Y-22745271D01*
X30560755Y-22745156D01*
X30655052Y-22898034D01*
X30655055Y-22898038D01*
X30776961Y-23019944D01*
X30776965Y-23019947D01*
X30923688Y-23110448D01*
X30923699Y-23110453D01*
X31087347Y-23164680D01*
X31188351Y-23174999D01*
X31287500Y-23174998D01*
X31287500Y-22074000D01*
X31307185Y-22006961D01*
X31359989Y-21961206D01*
X31411500Y-21950000D01*
X31663500Y-21950000D01*
X31730539Y-21969685D01*
G37*
G04 #@! TD.AperFunction*
G04 #@! TA.AperFunction,Conductor*
G36*
X32313642Y-20873459D02*
G01*
X32317760Y-20875080D01*
X32462280Y-20934941D01*
X32462286Y-20934943D01*
X32466683Y-20935522D01*
X32470119Y-20937042D01*
X32470134Y-20937046D01*
X32470133Y-20937048D01*
X32530580Y-20963787D01*
X32569052Y-21022110D01*
X32574500Y-21058461D01*
X32574500Y-21265518D01*
X32554815Y-21332557D01*
X32515600Y-21371055D01*
X32501650Y-21379660D01*
X32501648Y-21379661D01*
X32487325Y-21393984D01*
X32426001Y-21427468D01*
X32356309Y-21422482D01*
X32311965Y-21393982D01*
X32298038Y-21380055D01*
X32298034Y-21380052D01*
X32151311Y-21289551D01*
X32151300Y-21289546D01*
X32074540Y-21264111D01*
X32017095Y-21224339D01*
X31990272Y-21159823D01*
X32002587Y-21091047D01*
X32025857Y-21058731D01*
X32182631Y-20901957D01*
X32243950Y-20868475D01*
X32313642Y-20873459D01*
G37*
G04 #@! TD.AperFunction*
G04 #@! TA.AperFunction,Conductor*
G36*
X32743333Y-19043771D02*
G01*
X32787680Y-19072272D01*
X32801261Y-19085853D01*
X32801264Y-19085855D01*
X32801267Y-19085858D01*
X32814890Y-19094960D01*
X32859694Y-19148568D01*
X32870000Y-19198062D01*
X32870000Y-19501936D01*
X32850315Y-19568975D01*
X32814892Y-19605037D01*
X32801269Y-19614139D01*
X32801263Y-19614144D01*
X32787681Y-19627727D01*
X32726358Y-19661212D01*
X32656666Y-19656228D01*
X32612319Y-19627727D01*
X32598736Y-19614144D01*
X32598730Y-19614139D01*
X32585108Y-19605037D01*
X32540303Y-19551424D01*
X32530000Y-19501936D01*
X32530000Y-19205952D01*
X32549685Y-19138913D01*
X32566319Y-19118271D01*
X32612318Y-19072272D01*
X32673641Y-19038787D01*
X32743333Y-19043771D01*
G37*
G04 #@! TD.AperFunction*
G04 #@! TA.AperFunction,Conductor*
G36*
X48601509Y-12100037D02*
G01*
X48607232Y-12100177D01*
X48687583Y-12102145D01*
X48708728Y-12104490D01*
X48879013Y-12138362D01*
X48902261Y-12145413D01*
X49061257Y-12211272D01*
X49082692Y-12222730D01*
X49225775Y-12318335D01*
X49244565Y-12333756D01*
X49366243Y-12455434D01*
X49381664Y-12474224D01*
X49477269Y-12617307D01*
X49488728Y-12638745D01*
X49554583Y-12797731D01*
X49561639Y-12820993D01*
X49595508Y-12991266D01*
X49597854Y-13012419D01*
X49599963Y-13098488D01*
X49600000Y-13101526D01*
X49600000Y-41098473D01*
X49599963Y-41101511D01*
X49597854Y-41187580D01*
X49595508Y-41208733D01*
X49561639Y-41379006D01*
X49554583Y-41402268D01*
X49488728Y-41561254D01*
X49477269Y-41582692D01*
X49381664Y-41725775D01*
X49366243Y-41744565D01*
X49244565Y-41866243D01*
X49225775Y-41881664D01*
X49082692Y-41977269D01*
X49061254Y-41988728D01*
X48902268Y-42054583D01*
X48879006Y-42061639D01*
X48708733Y-42095508D01*
X48687580Y-42097854D01*
X48604250Y-42099895D01*
X48601509Y-42099963D01*
X48598473Y-42100000D01*
X14601527Y-42100000D01*
X14598490Y-42099963D01*
X14512420Y-42097854D01*
X14491266Y-42095508D01*
X14320993Y-42061639D01*
X14297731Y-42054583D01*
X14138745Y-41988728D01*
X14117307Y-41977269D01*
X13974224Y-41881664D01*
X13955434Y-41866243D01*
X13833756Y-41744565D01*
X13818335Y-41725775D01*
X13722730Y-41582692D01*
X13711271Y-41561254D01*
X13645413Y-41402261D01*
X13638362Y-41379013D01*
X13604490Y-41208728D01*
X13602145Y-41187583D01*
X13600037Y-41101509D01*
X13600000Y-41098473D01*
X13600000Y-37580001D01*
X14144891Y-37580001D01*
X14165300Y-37865362D01*
X14226109Y-38144895D01*
X14326091Y-38412958D01*
X14463191Y-38664038D01*
X14463196Y-38664046D01*
X14569882Y-38806561D01*
X14569883Y-38806562D01*
X15464767Y-37911677D01*
X15476497Y-37939995D01*
X15559670Y-38064472D01*
X15665528Y-38170330D01*
X15790005Y-38253503D01*
X15818320Y-38265231D01*
X14923436Y-39160115D01*
X15065960Y-39266807D01*
X15065961Y-39266808D01*
X15317042Y-39403908D01*
X15317041Y-39403908D01*
X15585104Y-39503890D01*
X15864637Y-39564699D01*
X16149999Y-39585109D01*
X16150001Y-39585109D01*
X16435362Y-39564699D01*
X16714895Y-39503890D01*
X16982958Y-39403908D01*
X17234047Y-39266803D01*
X17376561Y-39160116D01*
X17376562Y-39160115D01*
X16481679Y-38265231D01*
X16509995Y-38253503D01*
X16634472Y-38170330D01*
X16740330Y-38064472D01*
X16823503Y-37939995D01*
X16835231Y-37911678D01*
X17730115Y-38806562D01*
X17730116Y-38806561D01*
X17836803Y-38664047D01*
X17973908Y-38412958D01*
X18073890Y-38144895D01*
X18134699Y-37865362D01*
X18155109Y-37580001D01*
X18155109Y-37579998D01*
X18134699Y-37294637D01*
X18073890Y-37015104D01*
X17973908Y-36747041D01*
X17836808Y-36495961D01*
X17836807Y-36495960D01*
X17730115Y-36353436D01*
X16835231Y-37248320D01*
X16823503Y-37220005D01*
X16740330Y-37095528D01*
X16634472Y-36989670D01*
X16509995Y-36906497D01*
X16481678Y-36894767D01*
X17376562Y-35999883D01*
X17376561Y-35999882D01*
X17234046Y-35893196D01*
X17234038Y-35893191D01*
X16982957Y-35756091D01*
X16982958Y-35756091D01*
X16714895Y-35656109D01*
X16435362Y-35595300D01*
X16150001Y-35574891D01*
X16149999Y-35574891D01*
X15864637Y-35595300D01*
X15585104Y-35656109D01*
X15317041Y-35756091D01*
X15065961Y-35893191D01*
X15065953Y-35893196D01*
X14923437Y-35999882D01*
X14923436Y-35999883D01*
X15818321Y-36894767D01*
X15790005Y-36906497D01*
X15665528Y-36989670D01*
X15559670Y-37095528D01*
X15476497Y-37220005D01*
X15464768Y-37248321D01*
X14569883Y-36353436D01*
X14569882Y-36353437D01*
X14463196Y-36495953D01*
X14463191Y-36495961D01*
X14326091Y-36747041D01*
X14226109Y-37015104D01*
X14165300Y-37294637D01*
X14144891Y-37579998D01*
X14144891Y-37580001D01*
X13600000Y-37580001D01*
X13600000Y-32500001D01*
X14144390Y-32500001D01*
X14164804Y-32785433D01*
X14225628Y-33065037D01*
X14225630Y-33065043D01*
X14225631Y-33065046D01*
X14320850Y-33320338D01*
X14325635Y-33333166D01*
X14462770Y-33584309D01*
X14462775Y-33584317D01*
X14634254Y-33813387D01*
X14634270Y-33813405D01*
X14836594Y-34015729D01*
X14836612Y-34015745D01*
X15065682Y-34187224D01*
X15065690Y-34187229D01*
X15316833Y-34324364D01*
X15316832Y-34324364D01*
X15316836Y-34324365D01*
X15316839Y-34324367D01*
X15584954Y-34424369D01*
X15584960Y-34424370D01*
X15584962Y-34424371D01*
X15864566Y-34485195D01*
X15864568Y-34485195D01*
X15864572Y-34485196D01*
X16118220Y-34503337D01*
X16149999Y-34505610D01*
X16150000Y-34505610D01*
X16150001Y-34505610D01*
X16178595Y-34503564D01*
X16435428Y-34485196D01*
X16715046Y-34424369D01*
X16983161Y-34324367D01*
X17234315Y-34187226D01*
X17463395Y-34015739D01*
X17665739Y-33813395D01*
X17837226Y-33584315D01*
X17974367Y-33333161D01*
X18021734Y-33206166D01*
X18063606Y-33150232D01*
X18129071Y-33125816D01*
X18137916Y-33125500D01*
X18390519Y-33125500D01*
X18457558Y-33145185D01*
X18496058Y-33184404D01*
X18504660Y-33198350D01*
X18626650Y-33320340D01*
X18773484Y-33410908D01*
X18937247Y-33465174D01*
X19038323Y-33475500D01*
X19636676Y-33475499D01*
X19636684Y-33475498D01*
X19636687Y-33475498D01*
X19692030Y-33469844D01*
X19737753Y-33465174D01*
X19901516Y-33410908D01*
X20048350Y-33320340D01*
X20162319Y-33206371D01*
X20223642Y-33172886D01*
X20293334Y-33177870D01*
X20337681Y-33206371D01*
X20451650Y-33320340D01*
X20598484Y-33410908D01*
X20762247Y-33465174D01*
X20863323Y-33475500D01*
X21461676Y-33475499D01*
X21461684Y-33475498D01*
X21461687Y-33475498D01*
X21517030Y-33469844D01*
X21562753Y-33465174D01*
X21726516Y-33410908D01*
X21873350Y-33320340D01*
X21995340Y-33198350D01*
X22085908Y-33051516D01*
X22140174Y-32887753D01*
X22150500Y-32786677D01*
X22150499Y-32213324D01*
X22140174Y-32112247D01*
X22085908Y-31948484D01*
X21995340Y-31801650D01*
X21873350Y-31679660D01*
X21873347Y-31679657D01*
X21846901Y-31663345D01*
X21800178Y-31611397D01*
X21788000Y-31557808D01*
X21788000Y-31347951D01*
X21807685Y-31280912D01*
X21824314Y-31260275D01*
X26637821Y-26446767D01*
X26699142Y-26413284D01*
X26768834Y-26418268D01*
X26824767Y-26460140D01*
X26849184Y-26525604D01*
X26849500Y-26534450D01*
X26849500Y-28372870D01*
X26849501Y-28372876D01*
X26855908Y-28432483D01*
X26906202Y-28567328D01*
X26906206Y-28567335D01*
X26992452Y-28682544D01*
X26992455Y-28682547D01*
X27107664Y-28768793D01*
X27107671Y-28768797D01*
X27242517Y-28819091D01*
X27242516Y-28819091D01*
X27249444Y-28819835D01*
X27302127Y-28825500D01*
X30897872Y-28825499D01*
X30957483Y-28819091D01*
X31092331Y-28768796D01*
X31207546Y-28682546D01*
X31293796Y-28567331D01*
X31344091Y-28432483D01*
X31350500Y-28372873D01*
X31350499Y-26249499D01*
X31370184Y-26182461D01*
X31422987Y-26136706D01*
X31474499Y-26125500D01*
X33400528Y-26125500D01*
X33467567Y-26145185D01*
X33513322Y-26197989D01*
X33523266Y-26267147D01*
X33494241Y-26330703D01*
X33439532Y-26367205D01*
X33410339Y-26376879D01*
X33373486Y-26389091D01*
X33373481Y-26389093D01*
X33226648Y-26479661D01*
X33104661Y-26601648D01*
X33014093Y-26748481D01*
X33014092Y-26748484D01*
X32959826Y-26912247D01*
X32959826Y-26912248D01*
X32959825Y-26912248D01*
X32949500Y-27013315D01*
X32949500Y-27586669D01*
X32949501Y-27586687D01*
X32959825Y-27687752D01*
X33014092Y-27851515D01*
X33014093Y-27851518D01*
X33042575Y-27897694D01*
X33071843Y-27945146D01*
X33104661Y-27998351D01*
X33138181Y-28031871D01*
X33171666Y-28093194D01*
X33174500Y-28119552D01*
X33174500Y-28906513D01*
X33154815Y-28973552D01*
X33138181Y-28994194D01*
X33056767Y-29075607D01*
X33056766Y-29075608D01*
X32973469Y-29213397D01*
X32925569Y-29367116D01*
X32919500Y-29433911D01*
X32919500Y-29866098D01*
X32925568Y-29932882D01*
X32925571Y-29932893D01*
X32974200Y-30088951D01*
X32975351Y-30158811D01*
X32974201Y-30162731D01*
X32926065Y-30317205D01*
X32926064Y-30317207D01*
X32923085Y-30349999D01*
X32923085Y-30350000D01*
X33155504Y-30350000D01*
X33219653Y-30367882D01*
X33308398Y-30421531D01*
X33462113Y-30469430D01*
X33528909Y-30475500D01*
X34326001Y-30475499D01*
X34393039Y-30495183D01*
X34438794Y-30547987D01*
X34450000Y-30599499D01*
X34450000Y-30600500D01*
X34430315Y-30667539D01*
X34377511Y-30713294D01*
X34326000Y-30724500D01*
X33528901Y-30724500D01*
X33462117Y-30730568D01*
X33462106Y-30730571D01*
X33308401Y-30778467D01*
X33219654Y-30832117D01*
X33155504Y-30850000D01*
X32923085Y-30850000D01*
X32926064Y-30882792D01*
X32926067Y-30882802D01*
X32974200Y-31037268D01*
X32975352Y-31107128D01*
X32974201Y-31111047D01*
X32954429Y-31174500D01*
X32927703Y-31260270D01*
X32925570Y-31267114D01*
X32919500Y-31333911D01*
X32919500Y-31761702D01*
X32899815Y-31828741D01*
X32883181Y-31849383D01*
X31562180Y-33170385D01*
X31500857Y-33203870D01*
X31431165Y-33198886D01*
X31375232Y-33157014D01*
X31350815Y-33091550D01*
X31350499Y-33082704D01*
X31350499Y-31627129D01*
X31350498Y-31627123D01*
X31350497Y-31627116D01*
X31344091Y-31567517D01*
X31293796Y-31432669D01*
X31293795Y-31432668D01*
X31293793Y-31432664D01*
X31207547Y-31317455D01*
X31207544Y-31317452D01*
X31092335Y-31231206D01*
X31092328Y-31231202D01*
X30957482Y-31180908D01*
X30957483Y-31180908D01*
X30897883Y-31174501D01*
X30897881Y-31174500D01*
X30897873Y-31174500D01*
X30897864Y-31174500D01*
X27302129Y-31174500D01*
X27302123Y-31174501D01*
X27242516Y-31180908D01*
X27107671Y-31231202D01*
X27107664Y-31231206D01*
X26992455Y-31317452D01*
X26992452Y-31317455D01*
X26906206Y-31432664D01*
X26906202Y-31432671D01*
X26855908Y-31567517D01*
X26853589Y-31589091D01*
X26849501Y-31627123D01*
X26849500Y-31627135D01*
X26849500Y-34072870D01*
X26849604Y-34074795D01*
X26849500Y-34075230D01*
X26849501Y-34076192D01*
X26849274Y-34076192D01*
X26833531Y-34142791D01*
X26813461Y-34169104D01*
X26248775Y-34733792D01*
X26191282Y-34791284D01*
X26133790Y-34848776D01*
X26133788Y-34848779D01*
X26043452Y-34983976D01*
X26043450Y-34983980D01*
X25981225Y-35134206D01*
X25981222Y-35134216D01*
X25949500Y-35293692D01*
X25949500Y-36154583D01*
X25931039Y-36219680D01*
X25851593Y-36348481D01*
X25851591Y-36348486D01*
X25842371Y-36376311D01*
X25797326Y-36512247D01*
X25797326Y-36512248D01*
X25797325Y-36512248D01*
X25787000Y-36613315D01*
X25787000Y-37186669D01*
X25787001Y-37186687D01*
X25797325Y-37287752D01*
X25799607Y-37294637D01*
X25851520Y-37451300D01*
X25851592Y-37451515D01*
X25851593Y-37451518D01*
X25873394Y-37486864D01*
X25931039Y-37580320D01*
X25949500Y-37645416D01*
X25949500Y-37856908D01*
X25943431Y-37895226D01*
X25889326Y-38061744D01*
X25869540Y-38250000D01*
X25889326Y-38438256D01*
X25889327Y-38438259D01*
X25943431Y-38604773D01*
X25949500Y-38643091D01*
X25949500Y-39174848D01*
X25931039Y-39239944D01*
X25864095Y-39348477D01*
X25864091Y-39348486D01*
X25845726Y-39403908D01*
X25809826Y-39512247D01*
X25809826Y-39512248D01*
X25809825Y-39512248D01*
X25799500Y-39613315D01*
X25799500Y-40186669D01*
X25799501Y-40186687D01*
X25809825Y-40287752D01*
X25846109Y-40397249D01*
X25864092Y-40451516D01*
X25954660Y-40598350D01*
X26076650Y-40720340D01*
X26223484Y-40810908D01*
X26387247Y-40865174D01*
X26488323Y-40875500D01*
X27186676Y-40875499D01*
X27186684Y-40875498D01*
X27186687Y-40875498D01*
X27242030Y-40869844D01*
X27287753Y-40865174D01*
X27451516Y-40810908D01*
X27598350Y-40720340D01*
X27612671Y-40706018D01*
X27673989Y-40672533D01*
X27743681Y-40677514D01*
X27788034Y-40706017D01*
X27801961Y-40719944D01*
X27801965Y-40719947D01*
X27948688Y-40810448D01*
X27948699Y-40810453D01*
X28112347Y-40864680D01*
X28213351Y-40874999D01*
X28312500Y-40874998D01*
X28312500Y-40150000D01*
X28812500Y-40150000D01*
X28812500Y-40874999D01*
X28911640Y-40874999D01*
X28911654Y-40874998D01*
X29012652Y-40864680D01*
X29176300Y-40810453D01*
X29176311Y-40810448D01*
X29323034Y-40719947D01*
X29323038Y-40719944D01*
X29444944Y-40598038D01*
X29444947Y-40598034D01*
X29535448Y-40451311D01*
X29535453Y-40451300D01*
X29589680Y-40287652D01*
X29599999Y-40186654D01*
X29600000Y-40186641D01*
X29600000Y-40150000D01*
X28812500Y-40150000D01*
X28312500Y-40150000D01*
X28312500Y-38925000D01*
X28812500Y-38925000D01*
X28812500Y-39650000D01*
X29599999Y-39650000D01*
X29599999Y-39613360D01*
X29599998Y-39613345D01*
X29589680Y-39512347D01*
X29535453Y-39348699D01*
X29535448Y-39348688D01*
X29444947Y-39201965D01*
X29444944Y-39201961D01*
X29323038Y-39080055D01*
X29323034Y-39080052D01*
X29176311Y-38989551D01*
X29176300Y-38989546D01*
X29012652Y-38935319D01*
X28911654Y-38925000D01*
X28812500Y-38925000D01*
X28312500Y-38925000D01*
X28312500Y-38924999D01*
X28213360Y-38925000D01*
X28213344Y-38925001D01*
X28112347Y-38935319D01*
X27948699Y-38989546D01*
X27948688Y-38989551D01*
X27801964Y-39080053D01*
X27801404Y-39080496D01*
X27800947Y-39080679D01*
X27795815Y-39083846D01*
X27795273Y-39082968D01*
X27736607Y-39106632D01*
X27667965Y-39093586D01*
X27617274Y-39045502D01*
X27600500Y-38983224D01*
X27600500Y-38643091D01*
X27606569Y-38604773D01*
X27660674Y-38438256D01*
X27680460Y-38250000D01*
X27660674Y-38061744D01*
X27606569Y-37895226D01*
X27600500Y-37856908D01*
X27600500Y-37731052D01*
X27620185Y-37664013D01*
X27672989Y-37618258D01*
X27742147Y-37608314D01*
X27805703Y-37637339D01*
X27812181Y-37643371D01*
X27889150Y-37720340D01*
X28035984Y-37810908D01*
X28199747Y-37865174D01*
X28300823Y-37875500D01*
X28899176Y-37875499D01*
X28899184Y-37875498D01*
X28899187Y-37875498D01*
X28954530Y-37869844D01*
X29000253Y-37865174D01*
X29164016Y-37810908D01*
X29272554Y-37743960D01*
X29337651Y-37725500D01*
X29668695Y-37725500D01*
X29831305Y-37725500D01*
X30249849Y-37725500D01*
X30314945Y-37743960D01*
X30423484Y-37810908D01*
X30587247Y-37865174D01*
X30688323Y-37875500D01*
X31286676Y-37875499D01*
X31286684Y-37875498D01*
X31286687Y-37875498D01*
X31342030Y-37869844D01*
X31387753Y-37865174D01*
X31551516Y-37810908D01*
X31698350Y-37720340D01*
X31812675Y-37606014D01*
X31873994Y-37572532D01*
X31943686Y-37577516D01*
X31988034Y-37606017D01*
X32101961Y-37719944D01*
X32101965Y-37719947D01*
X32248688Y-37810448D01*
X32248699Y-37810453D01*
X32412347Y-37864680D01*
X32513351Y-37874999D01*
X32562499Y-37874998D01*
X32562500Y-37874998D01*
X32562500Y-37150000D01*
X33062500Y-37150000D01*
X33062500Y-37874999D01*
X33111640Y-37874999D01*
X33111654Y-37874998D01*
X33212652Y-37864680D01*
X33376300Y-37810453D01*
X33376311Y-37810448D01*
X33523034Y-37719947D01*
X33523038Y-37719944D01*
X33644944Y-37598038D01*
X33644947Y-37598034D01*
X33735448Y-37451311D01*
X33735453Y-37451300D01*
X33789680Y-37287652D01*
X33799999Y-37186654D01*
X33800000Y-37186641D01*
X33800000Y-37150000D01*
X33062500Y-37150000D01*
X32562500Y-37150000D01*
X32562500Y-35925000D01*
X33062500Y-35925000D01*
X33062500Y-36650000D01*
X33799999Y-36650000D01*
X33799999Y-36613360D01*
X33799998Y-36613345D01*
X33789680Y-36512347D01*
X33735453Y-36348699D01*
X33735448Y-36348688D01*
X33644947Y-36201965D01*
X33644944Y-36201961D01*
X33523038Y-36080055D01*
X33523034Y-36080052D01*
X33413517Y-36012500D01*
X35937501Y-36012500D01*
X35937501Y-36111654D01*
X35947819Y-36212652D01*
X36002046Y-36376300D01*
X36002051Y-36376311D01*
X36092552Y-36523034D01*
X36092555Y-36523038D01*
X36214461Y-36644944D01*
X36214465Y-36644947D01*
X36361188Y-36735448D01*
X36361199Y-36735453D01*
X36524847Y-36789680D01*
X36625852Y-36799999D01*
X36662500Y-36799999D01*
X36662500Y-36012500D01*
X37162500Y-36012500D01*
X37162500Y-36799999D01*
X37199140Y-36799999D01*
X37199154Y-36799998D01*
X37300152Y-36789680D01*
X37463800Y-36735453D01*
X37463811Y-36735448D01*
X37610534Y-36644947D01*
X37610538Y-36644944D01*
X37732444Y-36523038D01*
X37732447Y-36523034D01*
X37822948Y-36376311D01*
X37822953Y-36376300D01*
X37877180Y-36212652D01*
X37887499Y-36111654D01*
X37887500Y-36111641D01*
X37887500Y-36012500D01*
X37162500Y-36012500D01*
X36662500Y-36012500D01*
X35937501Y-36012500D01*
X33413517Y-36012500D01*
X33376311Y-35989551D01*
X33376300Y-35989546D01*
X33212652Y-35935319D01*
X33111654Y-35925000D01*
X33062500Y-35925000D01*
X32562500Y-35925000D01*
X32562499Y-35924999D01*
X32513361Y-35925000D01*
X32513343Y-35925001D01*
X32412347Y-35935319D01*
X32248699Y-35989546D01*
X32248688Y-35989551D01*
X32101965Y-36080052D01*
X31988034Y-36193983D01*
X31926711Y-36227467D01*
X31857019Y-36222483D01*
X31812672Y-36193982D01*
X31698351Y-36079661D01*
X31698350Y-36079660D01*
X31607129Y-36023395D01*
X31551518Y-35989093D01*
X31551517Y-35989092D01*
X31551516Y-35989092D01*
X31387753Y-35934826D01*
X31387752Y-35934825D01*
X31386938Y-35934556D01*
X31329494Y-35894783D01*
X31302671Y-35830267D01*
X31314986Y-35761491D01*
X31338259Y-35729172D01*
X34655615Y-32411818D01*
X34716938Y-32378333D01*
X34743296Y-32375499D01*
X34871097Y-32375499D01*
X34937882Y-32369431D01*
X34937885Y-32369430D01*
X34937887Y-32369430D01*
X35091602Y-32321531D01*
X35229388Y-32238236D01*
X35343236Y-32124388D01*
X35426531Y-31986602D01*
X35431613Y-31970290D01*
X35470347Y-31912143D01*
X35534371Y-31884167D01*
X35603357Y-31895245D01*
X35655402Y-31941862D01*
X35668383Y-31970284D01*
X35673467Y-31986598D01*
X35673468Y-31986600D01*
X35673469Y-31986602D01*
X35756764Y-32124388D01*
X35756766Y-32124391D01*
X35870608Y-32238233D01*
X35870610Y-32238234D01*
X35870612Y-32238236D01*
X36008398Y-32321531D01*
X36008405Y-32321533D01*
X36013886Y-32324000D01*
X36066943Y-32369462D01*
X36086998Y-32436392D01*
X36087000Y-32437078D01*
X36087000Y-33249848D01*
X36068539Y-33314944D01*
X36001595Y-33423477D01*
X36001591Y-33423486D01*
X35974219Y-33506088D01*
X35947326Y-33587247D01*
X35947326Y-33587248D01*
X35947325Y-33587248D01*
X35937000Y-33688315D01*
X35937000Y-34386669D01*
X35937001Y-34386687D01*
X35947325Y-34487752D01*
X35971869Y-34561818D01*
X36001592Y-34651516D01*
X36092159Y-34798349D01*
X36092161Y-34798351D01*
X36106482Y-34812672D01*
X36139967Y-34873995D01*
X36134983Y-34943687D01*
X36106485Y-34988032D01*
X36092552Y-35001965D01*
X36002051Y-35148688D01*
X36002046Y-35148699D01*
X35947819Y-35312347D01*
X35937500Y-35413345D01*
X35937500Y-35512500D01*
X37887499Y-35512500D01*
X37887499Y-35427844D01*
X45100000Y-35427844D01*
X45106401Y-35487372D01*
X45106403Y-35487379D01*
X45156645Y-35622086D01*
X45156649Y-35622093D01*
X45242809Y-35737187D01*
X45242812Y-35737190D01*
X45357906Y-35823350D01*
X45357913Y-35823354D01*
X45492620Y-35873596D01*
X45492627Y-35873598D01*
X45552155Y-35879999D01*
X45552172Y-35880000D01*
X46850000Y-35880000D01*
X46850000Y-34599064D01*
X46878316Y-34610793D01*
X47025147Y-34640000D01*
X47174853Y-34640000D01*
X47321684Y-34610793D01*
X47350000Y-34599064D01*
X47350000Y-35880000D01*
X48647828Y-35880000D01*
X48647844Y-35879999D01*
X48707372Y-35873598D01*
X48707379Y-35873596D01*
X48842086Y-35823354D01*
X48842093Y-35823350D01*
X48957187Y-35737190D01*
X48957190Y-35737187D01*
X49043350Y-35622093D01*
X49043354Y-35622086D01*
X49093596Y-35487379D01*
X49093598Y-35487372D01*
X49099999Y-35427844D01*
X49100000Y-35427827D01*
X49100000Y-34130000D01*
X47819064Y-34130000D01*
X47830793Y-34101684D01*
X47860000Y-33954853D01*
X47860000Y-33805147D01*
X47830793Y-33658316D01*
X47819064Y-33630000D01*
X49100000Y-33630000D01*
X49100000Y-32332172D01*
X49099999Y-32332155D01*
X49093598Y-32272627D01*
X49093596Y-32272620D01*
X49043354Y-32137913D01*
X49043350Y-32137906D01*
X48957190Y-32022812D01*
X48957187Y-32022809D01*
X48842093Y-31936649D01*
X48842086Y-31936645D01*
X48707379Y-31886403D01*
X48707372Y-31886401D01*
X48647844Y-31880000D01*
X47350000Y-31880000D01*
X47350000Y-33160935D01*
X47321684Y-33149207D01*
X47174853Y-33120000D01*
X47025147Y-33120000D01*
X46878316Y-33149207D01*
X46850000Y-33160935D01*
X46850000Y-31880000D01*
X45552155Y-31880000D01*
X45492627Y-31886401D01*
X45492620Y-31886403D01*
X45357913Y-31936645D01*
X45357906Y-31936649D01*
X45242812Y-32022809D01*
X45242809Y-32022812D01*
X45156649Y-32137906D01*
X45156645Y-32137913D01*
X45106403Y-32272620D01*
X45106401Y-32272627D01*
X45100000Y-32332155D01*
X45100000Y-33630000D01*
X46380936Y-33630000D01*
X46369207Y-33658316D01*
X46340000Y-33805147D01*
X46340000Y-33954853D01*
X46369207Y-34101684D01*
X46380936Y-34130000D01*
X45100000Y-34130000D01*
X45100000Y-35427844D01*
X37887499Y-35427844D01*
X37887499Y-35413360D01*
X37887498Y-35413345D01*
X37877180Y-35312347D01*
X37822953Y-35148699D01*
X37822948Y-35148688D01*
X37732447Y-35001965D01*
X37732444Y-35001961D01*
X37718517Y-34988034D01*
X37685032Y-34926711D01*
X37690016Y-34857019D01*
X37718517Y-34812672D01*
X37732840Y-34798350D01*
X37823408Y-34651516D01*
X37877674Y-34487753D01*
X37888000Y-34386677D01*
X37887999Y-33688324D01*
X37877674Y-33587247D01*
X37823408Y-33423484D01*
X37815651Y-33410908D01*
X37756461Y-33314944D01*
X37738000Y-33249848D01*
X37738000Y-32499500D01*
X37757685Y-32432461D01*
X37810489Y-32386706D01*
X37862000Y-32375500D01*
X38281860Y-32375500D01*
X38348899Y-32395185D01*
X38382176Y-32426612D01*
X38455483Y-32527510D01*
X38622490Y-32694517D01*
X38813567Y-32833343D01*
X38912991Y-32884002D01*
X39024003Y-32940566D01*
X39024005Y-32940566D01*
X39024008Y-32940568D01*
X39144412Y-32979689D01*
X39248631Y-33013553D01*
X39481903Y-33050500D01*
X39481908Y-33050500D01*
X41818097Y-33050500D01*
X42051368Y-33013553D01*
X42275992Y-32940568D01*
X42486434Y-32833343D01*
X42677510Y-32694517D01*
X45035208Y-30336819D01*
X45096531Y-30303334D01*
X45122889Y-30300500D01*
X45724977Y-30300500D01*
X45792016Y-30320185D01*
X45799287Y-30325233D01*
X46015682Y-30487224D01*
X46015690Y-30487229D01*
X46266833Y-30624364D01*
X46266832Y-30624364D01*
X46266836Y-30624365D01*
X46266839Y-30624367D01*
X46534954Y-30724369D01*
X46534960Y-30724370D01*
X46534962Y-30724371D01*
X46814566Y-30785195D01*
X46814568Y-30785195D01*
X46814572Y-30785196D01*
X47068220Y-30803337D01*
X47099999Y-30805610D01*
X47100000Y-30805610D01*
X47100001Y-30805610D01*
X47128595Y-30803564D01*
X47385428Y-30785196D01*
X47636541Y-30730570D01*
X47665037Y-30724371D01*
X47665037Y-30724370D01*
X47665046Y-30724369D01*
X47933161Y-30624367D01*
X48184315Y-30487226D01*
X48413395Y-30315739D01*
X48615739Y-30113395D01*
X48787226Y-29884315D01*
X48924367Y-29633161D01*
X49024369Y-29365046D01*
X49057313Y-29213605D01*
X49085195Y-29085433D01*
X49085195Y-29085432D01*
X49085196Y-29085428D01*
X49105610Y-28800000D01*
X49085196Y-28514572D01*
X49067338Y-28432482D01*
X49024371Y-28234962D01*
X49024370Y-28234960D01*
X49024369Y-28234954D01*
X48924367Y-27966839D01*
X48824611Y-27784151D01*
X48787229Y-27715690D01*
X48787224Y-27715682D01*
X48615745Y-27486612D01*
X48615729Y-27486594D01*
X48413405Y-27284270D01*
X48413387Y-27284254D01*
X48184317Y-27112775D01*
X48184309Y-27112770D01*
X47933166Y-26975635D01*
X47933167Y-26975635D01*
X47825915Y-26935632D01*
X47665046Y-26875631D01*
X47665043Y-26875630D01*
X47665037Y-26875628D01*
X47385433Y-26814804D01*
X47100001Y-26794390D01*
X47099999Y-26794390D01*
X46814566Y-26814804D01*
X46534962Y-26875628D01*
X46266833Y-26975635D01*
X46015690Y-27112770D01*
X46015682Y-27112775D01*
X45799287Y-27274767D01*
X45733823Y-27299184D01*
X45724977Y-27299500D01*
X44331903Y-27299500D01*
X44098631Y-27336446D01*
X43944689Y-27386466D01*
X43906936Y-27398733D01*
X43889082Y-27404534D01*
X43874001Y-27409434D01*
X43828919Y-27432405D01*
X43760250Y-27445301D01*
X43695510Y-27419024D01*
X43655253Y-27361918D01*
X43652261Y-27292112D01*
X43654694Y-27283602D01*
X43657565Y-27274767D01*
X43685674Y-27188256D01*
X43705460Y-27000000D01*
X43685674Y-26811744D01*
X43627179Y-26631716D01*
X43532533Y-26467784D01*
X43513611Y-26446769D01*
X43457350Y-26384284D01*
X43427120Y-26321292D01*
X43425500Y-26301312D01*
X43425500Y-21838393D01*
X43425499Y-21838389D01*
X43420299Y-21812247D01*
X43401463Y-21717548D01*
X43372856Y-21648484D01*
X43354312Y-21603714D01*
X43320084Y-21552490D01*
X43285858Y-21501267D01*
X43285856Y-21501264D01*
X43195637Y-21411045D01*
X43195606Y-21411016D01*
X42861819Y-21077229D01*
X42828334Y-21015906D01*
X42825500Y-20989548D01*
X42825500Y-20908661D01*
X42845185Y-20841622D01*
X42884402Y-20803123D01*
X42998350Y-20732840D01*
X43120340Y-20610850D01*
X43148988Y-20564404D01*
X43200936Y-20517679D01*
X43254527Y-20505500D01*
X44924773Y-20505500D01*
X44991812Y-20525185D01*
X45026348Y-20558377D01*
X45161501Y-20751396D01*
X45161506Y-20751402D01*
X45283430Y-20873326D01*
X45316915Y-20934649D01*
X45311931Y-21004341D01*
X45270059Y-21060274D01*
X45239083Y-21077189D01*
X45107669Y-21126203D01*
X45107664Y-21126206D01*
X44992455Y-21212452D01*
X44992452Y-21212455D01*
X44906206Y-21327664D01*
X44906202Y-21327671D01*
X44855908Y-21462517D01*
X44849501Y-21522116D01*
X44849501Y-21522123D01*
X44849500Y-21522135D01*
X44849500Y-23317870D01*
X44849501Y-23317876D01*
X44855908Y-23377483D01*
X44906202Y-23512328D01*
X44906206Y-23512335D01*
X44992452Y-23627544D01*
X44992455Y-23627547D01*
X45107664Y-23713793D01*
X45107671Y-23713797D01*
X45242517Y-23764091D01*
X45242516Y-23764091D01*
X45249444Y-23764835D01*
X45302127Y-23770500D01*
X47097872Y-23770499D01*
X47157483Y-23764091D01*
X47292331Y-23713796D01*
X47407546Y-23627546D01*
X47493796Y-23512331D01*
X47544091Y-23377483D01*
X47550500Y-23317873D01*
X47550499Y-21522128D01*
X47544091Y-21462517D01*
X47526048Y-21414142D01*
X47493797Y-21327671D01*
X47493793Y-21327664D01*
X47407547Y-21212455D01*
X47407544Y-21212452D01*
X47292335Y-21126206D01*
X47292328Y-21126202D01*
X47160917Y-21077189D01*
X47104983Y-21035318D01*
X47080566Y-20969853D01*
X47095418Y-20901580D01*
X47116563Y-20873332D01*
X47238495Y-20751401D01*
X47374035Y-20557830D01*
X47473903Y-20343663D01*
X47535063Y-20115408D01*
X47555659Y-19880000D01*
X47535063Y-19644592D01*
X47486455Y-19463181D01*
X47473905Y-19416344D01*
X47473904Y-19416343D01*
X47473903Y-19416337D01*
X47374035Y-19202171D01*
X47373652Y-19201623D01*
X47238494Y-19008597D01*
X47071402Y-18841506D01*
X47071396Y-18841501D01*
X46885842Y-18711575D01*
X46842217Y-18656998D01*
X46835023Y-18587500D01*
X46866546Y-18525145D01*
X46885842Y-18508425D01*
X46933361Y-18475152D01*
X47071401Y-18378495D01*
X47238495Y-18211401D01*
X47374035Y-18017830D01*
X47473903Y-17803663D01*
X47535063Y-17575408D01*
X47555659Y-17340000D01*
X47535063Y-17104592D01*
X47473903Y-16876337D01*
X47374035Y-16662171D01*
X47340206Y-16613857D01*
X47238494Y-16468597D01*
X47071402Y-16301506D01*
X47071401Y-16301505D01*
X46885405Y-16171269D01*
X46841781Y-16116692D01*
X46834588Y-16047193D01*
X46866110Y-15984839D01*
X46885405Y-15968119D01*
X47071082Y-15838105D01*
X47238105Y-15671082D01*
X47373600Y-15477578D01*
X47473429Y-15263492D01*
X47473432Y-15263486D01*
X47530636Y-15050000D01*
X46633012Y-15050000D01*
X46665925Y-14992993D01*
X46700000Y-14865826D01*
X46700000Y-14734174D01*
X46665925Y-14607007D01*
X46633012Y-14550000D01*
X47530636Y-14550000D01*
X47530635Y-14549999D01*
X47473432Y-14336513D01*
X47473429Y-14336507D01*
X47373600Y-14122422D01*
X47373599Y-14122420D01*
X47238113Y-13928926D01*
X47238108Y-13928920D01*
X47071082Y-13761894D01*
X46877578Y-13626399D01*
X46663492Y-13526570D01*
X46663486Y-13526567D01*
X46450000Y-13469364D01*
X46450000Y-14366988D01*
X46392993Y-14334075D01*
X46265826Y-14300000D01*
X46134174Y-14300000D01*
X46007007Y-14334075D01*
X45950000Y-14366988D01*
X45950000Y-13469364D01*
X45949999Y-13469364D01*
X45736513Y-13526567D01*
X45736507Y-13526570D01*
X45522422Y-13626399D01*
X45522420Y-13626400D01*
X45328926Y-13761886D01*
X45328920Y-13761891D01*
X45161891Y-13928920D01*
X45161886Y-13928926D01*
X45026400Y-14122420D01*
X45026399Y-14122422D01*
X44926570Y-14336507D01*
X44926567Y-14336513D01*
X44869364Y-14549999D01*
X44869364Y-14550000D01*
X45766988Y-14550000D01*
X45734075Y-14607007D01*
X45700000Y-14734174D01*
X45700000Y-14865826D01*
X45734075Y-14992993D01*
X45766988Y-15050000D01*
X44869364Y-15050000D01*
X44926567Y-15263486D01*
X44926570Y-15263492D01*
X45026399Y-15477578D01*
X45161894Y-15671082D01*
X45328917Y-15838105D01*
X45514595Y-15968119D01*
X45558219Y-16022696D01*
X45565412Y-16092195D01*
X45533890Y-16154549D01*
X45514595Y-16171269D01*
X45328598Y-16301505D01*
X45289133Y-16340971D01*
X45204811Y-16425292D01*
X45143491Y-16458776D01*
X45117132Y-16461610D01*
X44935845Y-16461610D01*
X44868806Y-16441925D01*
X44847312Y-16424432D01*
X42650458Y-14184284D01*
X42643130Y-14176117D01*
X42641205Y-14173771D01*
X42587095Y-14119662D01*
X42586243Y-14118802D01*
X42532455Y-14063955D01*
X42530115Y-14061996D01*
X42529992Y-14061884D01*
X42529822Y-14061744D01*
X42528874Y-14060958D01*
X42528730Y-14060837D01*
X42528595Y-14060736D01*
X42526228Y-14058793D01*
X42462479Y-14016198D01*
X42461554Y-14015574D01*
X42398140Y-13972302D01*
X42398138Y-13972301D01*
X42398135Y-13972299D01*
X42395459Y-13970835D01*
X42395313Y-13970746D01*
X42395198Y-13970685D01*
X42394119Y-13970102D01*
X42393877Y-13969969D01*
X42393703Y-13969886D01*
X42391023Y-13968453D01*
X42320200Y-13939117D01*
X42319087Y-13938649D01*
X42248517Y-13908609D01*
X42245607Y-13907695D01*
X42245438Y-13907634D01*
X42245129Y-13907540D01*
X42244099Y-13907222D01*
X42243882Y-13907154D01*
X42243723Y-13907113D01*
X42240792Y-13906224D01*
X42165611Y-13891269D01*
X42164427Y-13891028D01*
X42089348Y-13875331D01*
X42086311Y-13875002D01*
X42086121Y-13874973D01*
X42085794Y-13874941D01*
X42084730Y-13874831D01*
X42084535Y-13874810D01*
X42084373Y-13874801D01*
X42081313Y-13874500D01*
X42081305Y-13874500D01*
X42004603Y-13874500D01*
X42003392Y-13874494D01*
X41926749Y-13873745D01*
X41923710Y-13874015D01*
X41912759Y-13874500D01*
X31117677Y-13874500D01*
X31093485Y-13872117D01*
X31090935Y-13871610D01*
X30928325Y-13871610D01*
X30928323Y-13871610D01*
X30768835Y-13903334D01*
X30765295Y-13904408D01*
X30764696Y-13904558D01*
X30759210Y-13906223D01*
X30608980Y-13968450D01*
X30608976Y-13968452D01*
X30473779Y-14058788D01*
X30473776Y-14058790D01*
X30358789Y-14173778D01*
X30358788Y-14173780D01*
X30352000Y-14183938D01*
X30336583Y-14202722D01*
X28198334Y-16340971D01*
X28161090Y-16366569D01*
X28056897Y-16412959D01*
X27903759Y-16524221D01*
X27777096Y-16664895D01*
X27682451Y-16828825D01*
X27682448Y-16828832D01*
X27645423Y-16942785D01*
X27623956Y-17008854D01*
X27604170Y-17197110D01*
X27623956Y-17385366D01*
X27623957Y-17385369D01*
X27682448Y-17565387D01*
X27682451Y-17565394D01*
X27777097Y-17729326D01*
X27862342Y-17824000D01*
X27903759Y-17869998D01*
X28056895Y-17981258D01*
X28056900Y-17981261D01*
X28229822Y-18058252D01*
X28229827Y-18058254D01*
X28414984Y-18097610D01*
X28414985Y-18097610D01*
X28604274Y-18097610D01*
X28604276Y-18097610D01*
X28789433Y-18058254D01*
X28962360Y-17981261D01*
X29115501Y-17869998D01*
X29242163Y-17729326D01*
X29331025Y-17575413D01*
X29336807Y-17565398D01*
X29336807Y-17565396D01*
X29336809Y-17565394D01*
X29341100Y-17552186D01*
X29371348Y-17502823D01*
X30288322Y-16585850D01*
X30349642Y-16552367D01*
X30419334Y-16557351D01*
X30475267Y-16599223D01*
X30499684Y-16664687D01*
X30500000Y-16673532D01*
X30500000Y-16786638D01*
X30500001Y-16786655D01*
X30510319Y-16887652D01*
X30564546Y-17051300D01*
X30564551Y-17051311D01*
X30655052Y-17198034D01*
X30655055Y-17198038D01*
X30776961Y-17319944D01*
X30776965Y-17319947D01*
X30923688Y-17410448D01*
X30923699Y-17410453D01*
X31087347Y-17464680D01*
X31188351Y-17474999D01*
X31287500Y-17474998D01*
X31287500Y-16374000D01*
X31307185Y-16306961D01*
X31359989Y-16261206D01*
X31411500Y-16250000D01*
X31663500Y-16250000D01*
X31730539Y-16269685D01*
X31776294Y-16322489D01*
X31787500Y-16374000D01*
X31787500Y-17474999D01*
X31886640Y-17474999D01*
X31886654Y-17474998D01*
X31987652Y-17464680D01*
X32151300Y-17410453D01*
X32151311Y-17410448D01*
X32298035Y-17319947D01*
X32311960Y-17306021D01*
X32373282Y-17272533D01*
X32442973Y-17277514D01*
X32487327Y-17306017D01*
X32501650Y-17320340D01*
X32513920Y-17327908D01*
X32515596Y-17328942D01*
X32562321Y-17380890D01*
X32574500Y-17434481D01*
X32574500Y-17641538D01*
X32554815Y-17708577D01*
X32502011Y-17754332D01*
X32466691Y-17764476D01*
X32462286Y-17765056D01*
X32462284Y-17765056D01*
X32319980Y-17824000D01*
X32319979Y-17824000D01*
X32197771Y-17917775D01*
X32185508Y-17933756D01*
X32129079Y-17974957D01*
X32111327Y-17979883D01*
X32017553Y-17998536D01*
X32017538Y-17998540D01*
X31903718Y-18045685D01*
X31903709Y-18045690D01*
X31801272Y-18114139D01*
X31801264Y-18114145D01*
X28314227Y-21601181D01*
X28252904Y-21634666D01*
X28226546Y-21637500D01*
X26325001Y-21637500D01*
X26325001Y-21686654D01*
X26335319Y-21787652D01*
X26389546Y-21951300D01*
X26389551Y-21951311D01*
X26480052Y-22098034D01*
X26480055Y-22098038D01*
X26593982Y-22211965D01*
X26627467Y-22273288D01*
X26622483Y-22342980D01*
X26593983Y-22387327D01*
X26479658Y-22501652D01*
X26463348Y-22528096D01*
X26411400Y-22574821D01*
X26357809Y-22587000D01*
X24166995Y-22587000D01*
X24099956Y-22567315D01*
X24080961Y-22551171D01*
X24080701Y-22551461D01*
X24075869Y-22547110D01*
X23922734Y-22435851D01*
X23922729Y-22435848D01*
X23749807Y-22358857D01*
X23749802Y-22358855D01*
X23604001Y-22327865D01*
X23564646Y-22319500D01*
X23375354Y-22319500D01*
X23342897Y-22326398D01*
X23190197Y-22358855D01*
X23190192Y-22358857D01*
X23017270Y-22435848D01*
X23017265Y-22435851D01*
X22864129Y-22547111D01*
X22737466Y-22687785D01*
X22642821Y-22851715D01*
X22642818Y-22851722D01*
X22612278Y-22945716D01*
X22584326Y-23031744D01*
X22564540Y-23220000D01*
X22584326Y-23408256D01*
X22584327Y-23408259D01*
X22642818Y-23588277D01*
X22642821Y-23588284D01*
X22737467Y-23752216D01*
X22864128Y-23892887D01*
X22864129Y-23892888D01*
X23017265Y-24004148D01*
X23017270Y-24004151D01*
X23190192Y-24081142D01*
X23190197Y-24081144D01*
X23375354Y-24120500D01*
X23375355Y-24120500D01*
X23564644Y-24120500D01*
X23564646Y-24120500D01*
X23749803Y-24081144D01*
X23922730Y-24004151D01*
X24075871Y-23892888D01*
X24088352Y-23879027D01*
X24147839Y-23842379D01*
X24180501Y-23838000D01*
X26357809Y-23838000D01*
X26424848Y-23857685D01*
X26463348Y-23896904D01*
X26479660Y-23923350D01*
X26601650Y-24045340D01*
X26748484Y-24135908D01*
X26881394Y-24179950D01*
X26938839Y-24219723D01*
X26965662Y-24284239D01*
X26953347Y-24353015D01*
X26930071Y-24385337D01*
X23828815Y-27486594D01*
X20763770Y-30551639D01*
X20763767Y-30551642D01*
X20739781Y-30575628D01*
X20676640Y-30638768D01*
X20652011Y-30675630D01*
X20652009Y-30675633D01*
X20608190Y-30741210D01*
X20608185Y-30741219D01*
X20581514Y-30805608D01*
X20581515Y-30805609D01*
X20566946Y-30840784D01*
X20566944Y-30840790D01*
X20561037Y-30855048D01*
X20537376Y-30974008D01*
X20537370Y-30974035D01*
X20537001Y-30975886D01*
X20537000Y-30975899D01*
X20537000Y-31557808D01*
X20517315Y-31624847D01*
X20478099Y-31663345D01*
X20451652Y-31679657D01*
X20451649Y-31679660D01*
X20337681Y-31793629D01*
X20276358Y-31827114D01*
X20206666Y-31822130D01*
X20162319Y-31793629D01*
X20048351Y-31679661D01*
X20048350Y-31679660D01*
X19901516Y-31589092D01*
X19737753Y-31534826D01*
X19737751Y-31534825D01*
X19636678Y-31524500D01*
X19038330Y-31524500D01*
X19038312Y-31524501D01*
X18937247Y-31534825D01*
X18773484Y-31589092D01*
X18773481Y-31589093D01*
X18626648Y-31679661D01*
X18504660Y-31801649D01*
X18504659Y-31801651D01*
X18496058Y-31815596D01*
X18444110Y-31862321D01*
X18390519Y-31874500D01*
X18137916Y-31874500D01*
X18070877Y-31854815D01*
X18025122Y-31802011D01*
X18021734Y-31793834D01*
X17979149Y-31679661D01*
X17974367Y-31666839D01*
X17952680Y-31627123D01*
X17837229Y-31415690D01*
X17837224Y-31415682D01*
X17665745Y-31186612D01*
X17665729Y-31186594D01*
X17463405Y-30984270D01*
X17463387Y-30984254D01*
X17234317Y-30812775D01*
X17234309Y-30812770D01*
X16983166Y-30675635D01*
X16983167Y-30675635D01*
X16779038Y-30599499D01*
X16715046Y-30575631D01*
X16715043Y-30575630D01*
X16715037Y-30575628D01*
X16435433Y-30514804D01*
X16150001Y-30494390D01*
X16149999Y-30494390D01*
X15864566Y-30514804D01*
X15584962Y-30575628D01*
X15316833Y-30675635D01*
X15065690Y-30812770D01*
X15065682Y-30812775D01*
X14836612Y-30984254D01*
X14836594Y-30984270D01*
X14634270Y-31186594D01*
X14634254Y-31186612D01*
X14462775Y-31415682D01*
X14462770Y-31415690D01*
X14325635Y-31666833D01*
X14225628Y-31934962D01*
X14164804Y-32214566D01*
X14144390Y-32499998D01*
X14144390Y-32500001D01*
X13600000Y-32500001D01*
X13600000Y-28967870D01*
X14149500Y-28967870D01*
X14149501Y-28967876D01*
X14155908Y-29027483D01*
X14206202Y-29162328D01*
X14206206Y-29162335D01*
X14292452Y-29277544D01*
X14292455Y-29277547D01*
X14407664Y-29363793D01*
X14407671Y-29363797D01*
X14542517Y-29414091D01*
X14542516Y-29414091D01*
X14549444Y-29414835D01*
X14602127Y-29420500D01*
X17697872Y-29420499D01*
X17757483Y-29414091D01*
X17892331Y-29363796D01*
X18007546Y-29277546D01*
X18093796Y-29162331D01*
X18144091Y-29027483D01*
X18150500Y-28967873D01*
X18150499Y-25872128D01*
X18144091Y-25812517D01*
X18133511Y-25784151D01*
X18093797Y-25677671D01*
X18093793Y-25677664D01*
X18007547Y-25562455D01*
X18007544Y-25562452D01*
X17892335Y-25476206D01*
X17892328Y-25476202D01*
X17757482Y-25425908D01*
X17757483Y-25425908D01*
X17697883Y-25419501D01*
X17697881Y-25419500D01*
X17697873Y-25419500D01*
X17697865Y-25419500D01*
X17099500Y-25419500D01*
X17032461Y-25399815D01*
X16986706Y-25347011D01*
X16975500Y-25295500D01*
X16975500Y-25093294D01*
X16995185Y-25026255D01*
X17011814Y-25005617D01*
X17980615Y-24036816D01*
X18041936Y-24003333D01*
X18068284Y-24000499D01*
X20150008Y-24000499D01*
X20252797Y-23989999D01*
X20419334Y-23934814D01*
X20568656Y-23842712D01*
X20692712Y-23718656D01*
X20784814Y-23569334D01*
X20839999Y-23402797D01*
X20850500Y-23300009D01*
X20850499Y-21137500D01*
X26325000Y-21137500D01*
X27050000Y-21137500D01*
X27050000Y-20400000D01*
X27550000Y-20400000D01*
X27550000Y-21137500D01*
X28274999Y-21137500D01*
X28274999Y-21088360D01*
X28274998Y-21088345D01*
X28264680Y-20987347D01*
X28210453Y-20823699D01*
X28210448Y-20823688D01*
X28119947Y-20676965D01*
X28119944Y-20676961D01*
X27998038Y-20555055D01*
X27998034Y-20555052D01*
X27851311Y-20464551D01*
X27851300Y-20464546D01*
X27687652Y-20410319D01*
X27586654Y-20400000D01*
X27550000Y-20400000D01*
X27050000Y-20400000D01*
X27013361Y-20400000D01*
X27013343Y-20400001D01*
X26912347Y-20410319D01*
X26748699Y-20464546D01*
X26748688Y-20464551D01*
X26601965Y-20555052D01*
X26601961Y-20555055D01*
X26480055Y-20676961D01*
X26480052Y-20676965D01*
X26389551Y-20823688D01*
X26389546Y-20823699D01*
X26335319Y-20987347D01*
X26325000Y-21088345D01*
X26325000Y-21137500D01*
X20850499Y-21137500D01*
X20850499Y-20199992D01*
X20844154Y-20137881D01*
X20856923Y-20069190D01*
X20879828Y-20037603D01*
X22586296Y-18331135D01*
X22623535Y-18305541D01*
X22727730Y-18259151D01*
X22880871Y-18147888D01*
X23007533Y-18007216D01*
X23102179Y-17843284D01*
X23160674Y-17663256D01*
X23180460Y-17475000D01*
X23160674Y-17286744D01*
X23102179Y-17106716D01*
X23007533Y-16942784D01*
X22880871Y-16802112D01*
X22877927Y-16799973D01*
X22727734Y-16690851D01*
X22727729Y-16690848D01*
X22554807Y-16613857D01*
X22554802Y-16613855D01*
X22409001Y-16582865D01*
X22369646Y-16574500D01*
X22180354Y-16574500D01*
X22147897Y-16581398D01*
X21995197Y-16613855D01*
X21995192Y-16613857D01*
X21822270Y-16690848D01*
X21822265Y-16690851D01*
X21669129Y-16802111D01*
X21542465Y-16942785D01*
X21447821Y-17106714D01*
X21447821Y-17106715D01*
X21443527Y-17119929D01*
X21413279Y-17169286D01*
X19119384Y-19463181D01*
X19058061Y-19496666D01*
X19031703Y-19499500D01*
X18049998Y-19499500D01*
X18049980Y-19499501D01*
X17947203Y-19510000D01*
X17947200Y-19510001D01*
X17780668Y-19565185D01*
X17780663Y-19565187D01*
X17631342Y-19657289D01*
X17507289Y-19781342D01*
X17415187Y-19930663D01*
X17415186Y-19930666D01*
X17360001Y-20097203D01*
X17360001Y-20097204D01*
X17360000Y-20097204D01*
X17349500Y-20199983D01*
X17349500Y-22281704D01*
X17329815Y-22348743D01*
X17313180Y-22369385D01*
X15623775Y-24058792D01*
X15571425Y-24111142D01*
X15508790Y-24173776D01*
X15508788Y-24173779D01*
X15418452Y-24308976D01*
X15418450Y-24308980D01*
X15356225Y-24459206D01*
X15356222Y-24459216D01*
X15324500Y-24618692D01*
X15324500Y-25295500D01*
X15304815Y-25362539D01*
X15252011Y-25408294D01*
X15200500Y-25419500D01*
X14602129Y-25419500D01*
X14602123Y-25419501D01*
X14542516Y-25425908D01*
X14407671Y-25476202D01*
X14407664Y-25476206D01*
X14292455Y-25562452D01*
X14292452Y-25562455D01*
X14206206Y-25677664D01*
X14206202Y-25677671D01*
X14155908Y-25812517D01*
X14154049Y-25829813D01*
X14149501Y-25872123D01*
X14149500Y-25872135D01*
X14149500Y-28967870D01*
X13600000Y-28967870D01*
X13600000Y-15500000D01*
X17350001Y-15500000D01*
X17350001Y-16799986D01*
X17360494Y-16902697D01*
X17415641Y-17069119D01*
X17415643Y-17069124D01*
X17507684Y-17218345D01*
X17631654Y-17342315D01*
X17780875Y-17434356D01*
X17780880Y-17434358D01*
X17947302Y-17489505D01*
X17947309Y-17489506D01*
X18050019Y-17499999D01*
X18849999Y-17499999D01*
X18850000Y-17499998D01*
X18850000Y-15500000D01*
X19350000Y-15500000D01*
X19350000Y-17499999D01*
X20149972Y-17499999D01*
X20149986Y-17499998D01*
X20252697Y-17489505D01*
X20419119Y-17434358D01*
X20419124Y-17434356D01*
X20568345Y-17342315D01*
X20692315Y-17218345D01*
X20784356Y-17069124D01*
X20784358Y-17069119D01*
X20839505Y-16902697D01*
X20839506Y-16902690D01*
X20849999Y-16799986D01*
X20850000Y-16799973D01*
X20850000Y-15500000D01*
X19350000Y-15500000D01*
X18850000Y-15500000D01*
X17350001Y-15500000D01*
X13600000Y-15500000D01*
X13600000Y-15000000D01*
X17350000Y-15000000D01*
X18850000Y-15000000D01*
X18850000Y-13000000D01*
X19350000Y-13000000D01*
X19350000Y-15000000D01*
X20849999Y-15000000D01*
X20849999Y-13700028D01*
X20849998Y-13700013D01*
X20839505Y-13597302D01*
X20784358Y-13430880D01*
X20784356Y-13430875D01*
X20692315Y-13281654D01*
X20568345Y-13157684D01*
X20419124Y-13065643D01*
X20419119Y-13065641D01*
X20252697Y-13010494D01*
X20252690Y-13010493D01*
X20149986Y-13000000D01*
X19350000Y-13000000D01*
X18850000Y-13000000D01*
X18050028Y-13000000D01*
X18050012Y-13000001D01*
X17947302Y-13010494D01*
X17780880Y-13065641D01*
X17780875Y-13065643D01*
X17631654Y-13157684D01*
X17507684Y-13281654D01*
X17415643Y-13430875D01*
X17415641Y-13430880D01*
X17360494Y-13597302D01*
X17360493Y-13597309D01*
X17350000Y-13700013D01*
X17350000Y-15000000D01*
X13600000Y-15000000D01*
X13600000Y-13101526D01*
X13600037Y-13098490D01*
X13600072Y-13097025D01*
X13602145Y-13012415D01*
X13604490Y-12991272D01*
X13638362Y-12820983D01*
X13645412Y-12797741D01*
X13711274Y-12638738D01*
X13722726Y-12617314D01*
X13818338Y-12474219D01*
X13833751Y-12455439D01*
X13955439Y-12333751D01*
X13974219Y-12318338D01*
X14117314Y-12222726D01*
X14138738Y-12211274D01*
X14297741Y-12145412D01*
X14320983Y-12138362D01*
X14491272Y-12104490D01*
X14512415Y-12102145D01*
X14593037Y-12100170D01*
X14598491Y-12100037D01*
X14601527Y-12100000D01*
X48598473Y-12100000D01*
X48601509Y-12100037D01*
G37*
G04 #@! TD.AperFunction*
M02*
