M48
; DRILL file {KiCad 8.0.1} date 2024-03-27T22:14:36+0100
; FORMAT={-:-/ absolute / metric / decimal}
; #@! TF.CreationDate,2024-03-27T22:14:36+01:00
; #@! TF.GenerationSoftware,Kicad,Pcbnew,8.0.1
; #@! TF.FileFunction,Plated,1,2,PTH
FMAT,2
METRIC
; #@! TA.AperFunction,Plated,PTH,ViaDrill
T1C0.400
; #@! TA.AperFunction,Plated,PTH,ComponentDrill
T2C1.000
; #@! TA.AperFunction,Plated,PTH,ComponentDrill
T3C1.520
%
G90
G05
T1
X22.275Y-17.475
X23.47Y-23.22
X26.35Y-28.1
X26.4Y-29.5
X26.4Y-32.2
X26.45Y-30.75
X26.775Y-38.25
X27.5Y-29.5
X27.5Y-30.75
X27.9Y-38.5
X28.51Y-17.197
X28.6Y-29.5
X28.6Y-30.75
X29.0Y-38.5
X29.65Y-29.5
X29.65Y-30.75
X30.1Y-38.5
X30.1Y-39.8
X30.15Y-41.05
X30.4Y-23.8
X30.7Y-29.5
X30.7Y-30.75
X31.2Y-38.5
X31.2Y-39.8
X31.2Y-41.05
X31.8Y-27.35
X31.8Y-28.4
X31.8Y-29.5
X31.8Y-30.75
X32.3Y-35.5
X32.3Y-38.5
X32.3Y-39.8
X32.3Y-41.05
X33.0Y-28.4
X33.25Y-23.25
X33.3Y-35.1
X33.35Y-38.5
X33.35Y-39.8
X33.35Y-41.05
X33.9Y-34.0
X34.4Y-35.1
X34.4Y-36.2
X34.4Y-37.3
X34.4Y-38.5
X34.4Y-39.8
X34.4Y-41.05
X35.0Y-32.9
X35.0Y-34.0
X35.5Y-35.1
X35.5Y-36.2
X35.5Y-37.3
X35.5Y-38.5
X35.5Y-39.8
X35.5Y-41.05
X36.1Y-28.45
X36.25Y-25.0
X36.6Y-37.3
X36.6Y-38.5
X36.6Y-39.8
X36.6Y-41.05
X37.5Y-24.2
X37.7Y-37.3
X37.7Y-38.5
X37.7Y-39.8
X37.7Y-41.05
X37.85Y-20.9
X42.8Y-27.0
T2
X46.2Y-14.8
X46.2Y-17.34
X46.2Y-19.88
X46.2Y-22.42
T3
X16.15Y-27.42
X16.15Y-32.5
X16.15Y-37.58
X47.1Y-28.8
X47.1Y-33.88
M30
