G04 #@! TF.GenerationSoftware,KiCad,Pcbnew,8.0.1*
G04 #@! TF.CreationDate,2024-03-27T20:36:45+01:00*
G04 #@! TF.ProjectId,kurumi,6b757275-6d69-42e6-9b69-6361645f7063,rev?*
G04 #@! TF.SameCoordinates,Original*
G04 #@! TF.FileFunction,Soldermask,Top*
G04 #@! TF.FilePolarity,Negative*
%FSLAX46Y46*%
G04 Gerber Fmt 4.6, Leading zero omitted, Abs format (unit mm)*
G04 Created by KiCad (PCBNEW 8.0.1) date 2024-03-27 20:36:45*
%MOMM*%
%LPD*%
G01*
G04 APERTURE LIST*
G04 Aperture macros list*
%AMRoundRect*
0 Rectangle with rounded corners*
0 $1 Rounding radius*
0 $2 $3 $4 $5 $6 $7 $8 $9 X,Y pos of 4 corners*
0 Add a 4 corners polygon primitive as box body*
4,1,4,$2,$3,$4,$5,$6,$7,$8,$9,$2,$3,0*
0 Add four circle primitives for the rounded corners*
1,1,$1+$1,$2,$3*
1,1,$1+$1,$4,$5*
1,1,$1+$1,$6,$7*
1,1,$1+$1,$8,$9*
0 Add four rect primitives between the rounded corners*
20,1,$1+$1,$2,$3,$4,$5,0*
20,1,$1+$1,$4,$5,$6,$7,0*
20,1,$1+$1,$6,$7,$8,$9,0*
20,1,$1+$1,$8,$9,$2,$3,0*%
G04 Aperture macros list end*
%ADD10C,0.000000*%
%ADD11C,0.099999*%
%ADD12R,3.000000X3.000000*%
%ADD13C,3.000000*%
%ADD14R,1.700000X1.700000*%
%ADD15O,1.700000X1.700000*%
%ADD16RoundRect,0.450000X-1.050000X-0.450000X1.050000X-0.450000X1.050000X0.450000X-1.050000X0.450000X0*%
%ADD17R,1.500000X1.000000*%
G04 APERTURE END LIST*
D10*
D11*
X18931506Y-15760722D02*
X18940563Y-15765072D01*
X18948775Y-15770631D01*
X18956145Y-15777409D01*
X18962677Y-15785416D01*
X18968372Y-15794658D01*
X18973235Y-15805146D01*
X18977267Y-15816889D01*
X18980472Y-15829894D01*
X18982853Y-15844172D01*
X18984412Y-15859730D01*
X18985153Y-15876578D01*
X18985079Y-15894725D01*
X18984191Y-15914179D01*
X18982495Y-15934949D01*
X18979991Y-15957045D01*
X18974656Y-15992980D01*
X18968179Y-16027211D01*
X18960612Y-16059773D01*
X18952007Y-16090705D01*
X18942414Y-16120043D01*
X18931887Y-16147824D01*
X18920476Y-16174086D01*
X18908234Y-16198866D01*
X18895211Y-16222200D01*
X18881461Y-16244126D01*
X18867034Y-16264682D01*
X18851982Y-16283903D01*
X18836357Y-16301827D01*
X18820211Y-16318492D01*
X18803595Y-16333935D01*
X18786562Y-16348192D01*
X18769162Y-16361301D01*
X18751448Y-16373298D01*
X18733471Y-16384222D01*
X18715283Y-16394109D01*
X18696936Y-16402996D01*
X18678482Y-16410920D01*
X18641457Y-16424030D01*
X18604623Y-16433734D01*
X18568392Y-16440330D01*
X18533180Y-16444115D01*
X18499400Y-16445387D01*
X18473384Y-16444674D01*
X18448508Y-16442572D01*
X18424747Y-16439140D01*
X18402076Y-16434433D01*
X18380469Y-16428509D01*
X18359901Y-16421423D01*
X18340346Y-16413234D01*
X18321781Y-16403998D01*
X18304179Y-16393771D01*
X18287514Y-16382611D01*
X18271763Y-16370575D01*
X18256900Y-16357718D01*
X18242899Y-16344099D01*
X18229735Y-16329773D01*
X18217383Y-16314799D01*
X18205818Y-16299231D01*
X18195014Y-16283128D01*
X18184946Y-16266547D01*
X18166919Y-16232175D01*
X18151534Y-16196569D01*
X18138590Y-16160185D01*
X18127884Y-16123478D01*
X18119214Y-16086901D01*
X18112379Y-16050910D01*
X18107177Y-16015959D01*
X18104265Y-15991523D01*
X18102058Y-15969694D01*
X18100617Y-15950297D01*
X18100204Y-15941457D01*
X18100007Y-15933161D01*
X18100033Y-15925386D01*
X18100290Y-15918111D01*
X18100787Y-15911315D01*
X18101531Y-15904975D01*
X18102530Y-15899071D01*
X18103793Y-15893580D01*
X18105326Y-15888481D01*
X18107139Y-15883752D01*
X18109238Y-15879371D01*
X18111633Y-15875318D01*
X18114330Y-15871570D01*
X18117338Y-15868106D01*
X18120664Y-15864903D01*
X18124317Y-15861941D01*
X18128305Y-15859198D01*
X18132635Y-15856652D01*
X18137315Y-15854281D01*
X18142354Y-15852064D01*
X18147759Y-15849979D01*
X18153539Y-15848005D01*
X18166251Y-15844301D01*
X18180556Y-15840780D01*
X18245006Y-15828949D01*
X18341667Y-15815166D01*
X18458461Y-15800613D01*
X18583306Y-15786469D01*
X18808830Y-15764128D01*
X18885347Y-15758290D01*
X18921595Y-15757582D01*
X18921601Y-15757574D01*
X18931506Y-15760722D01*
G36*
X18931506Y-15760722D02*
G01*
X18940563Y-15765072D01*
X18948775Y-15770631D01*
X18956145Y-15777409D01*
X18962677Y-15785416D01*
X18968372Y-15794658D01*
X18973235Y-15805146D01*
X18977267Y-15816889D01*
X18980472Y-15829894D01*
X18982853Y-15844172D01*
X18984412Y-15859730D01*
X18985153Y-15876578D01*
X18985079Y-15894725D01*
X18984191Y-15914179D01*
X18982495Y-15934949D01*
X18979991Y-15957045D01*
X18974656Y-15992980D01*
X18968179Y-16027211D01*
X18960612Y-16059773D01*
X18952007Y-16090705D01*
X18942414Y-16120043D01*
X18931887Y-16147824D01*
X18920476Y-16174086D01*
X18908234Y-16198866D01*
X18895211Y-16222200D01*
X18881461Y-16244126D01*
X18867034Y-16264682D01*
X18851982Y-16283903D01*
X18836357Y-16301827D01*
X18820211Y-16318492D01*
X18803595Y-16333935D01*
X18786562Y-16348192D01*
X18769162Y-16361301D01*
X18751448Y-16373298D01*
X18733471Y-16384222D01*
X18715283Y-16394109D01*
X18696936Y-16402996D01*
X18678482Y-16410920D01*
X18641457Y-16424030D01*
X18604623Y-16433734D01*
X18568392Y-16440330D01*
X18533180Y-16444115D01*
X18499400Y-16445387D01*
X18473384Y-16444674D01*
X18448508Y-16442572D01*
X18424747Y-16439140D01*
X18402076Y-16434433D01*
X18380469Y-16428509D01*
X18359901Y-16421423D01*
X18340346Y-16413234D01*
X18321781Y-16403998D01*
X18304179Y-16393771D01*
X18287514Y-16382611D01*
X18271763Y-16370575D01*
X18256900Y-16357718D01*
X18242899Y-16344099D01*
X18229735Y-16329773D01*
X18217383Y-16314799D01*
X18205818Y-16299231D01*
X18195014Y-16283128D01*
X18184946Y-16266547D01*
X18166919Y-16232175D01*
X18151534Y-16196569D01*
X18138590Y-16160185D01*
X18127884Y-16123478D01*
X18119214Y-16086901D01*
X18112379Y-16050910D01*
X18107177Y-16015959D01*
X18104265Y-15991523D01*
X18102058Y-15969694D01*
X18100617Y-15950297D01*
X18100204Y-15941457D01*
X18100007Y-15933161D01*
X18100033Y-15925386D01*
X18100290Y-15918111D01*
X18100787Y-15911315D01*
X18101531Y-15904975D01*
X18102530Y-15899071D01*
X18103793Y-15893580D01*
X18105326Y-15888481D01*
X18107139Y-15883752D01*
X18109238Y-15879371D01*
X18111633Y-15875318D01*
X18114330Y-15871570D01*
X18117338Y-15868106D01*
X18120664Y-15864903D01*
X18124317Y-15861941D01*
X18128305Y-15859198D01*
X18132635Y-15856652D01*
X18137315Y-15854281D01*
X18142354Y-15852064D01*
X18147759Y-15849979D01*
X18153539Y-15848005D01*
X18166251Y-15844301D01*
X18180556Y-15840780D01*
X18245006Y-15828949D01*
X18341667Y-15815166D01*
X18458461Y-15800613D01*
X18583306Y-15786469D01*
X18808830Y-15764128D01*
X18885347Y-15758290D01*
X18921595Y-15757582D01*
X18921601Y-15757574D01*
X18931506Y-15760722D01*
G37*
X16178605Y-15757589D02*
X16214852Y-15758296D01*
X16291369Y-15764132D01*
X16516893Y-15786474D01*
X16758533Y-15815173D01*
X16855195Y-15828956D01*
X16919645Y-15840788D01*
X16933955Y-15844306D01*
X16946672Y-15848008D01*
X16957859Y-15852065D01*
X16967579Y-15856652D01*
X16971910Y-15859197D01*
X16975898Y-15861940D01*
X16979551Y-15864902D01*
X16982877Y-15868104D01*
X16985885Y-15871569D01*
X16988582Y-15875317D01*
X16990976Y-15879370D01*
X16993074Y-15883751D01*
X16994886Y-15888480D01*
X16996419Y-15893579D01*
X16997681Y-15899071D01*
X16998679Y-15904975D01*
X16999918Y-15918112D01*
X17000200Y-15933163D01*
X16999588Y-15950301D01*
X16998146Y-15969698D01*
X16995938Y-15991529D01*
X16993026Y-16015966D01*
X16987824Y-16050916D01*
X16980989Y-16086906D01*
X16972320Y-16123482D01*
X16961614Y-16160190D01*
X16948669Y-16196573D01*
X16933284Y-16232179D01*
X16924613Y-16249548D01*
X16915257Y-16266551D01*
X16905189Y-16283133D01*
X16894386Y-16299236D01*
X16882820Y-16314804D01*
X16870468Y-16329778D01*
X16857304Y-16344104D01*
X16843303Y-16357724D01*
X16828440Y-16370581D01*
X16812688Y-16382617D01*
X16796024Y-16393778D01*
X16778422Y-16404005D01*
X16759856Y-16413241D01*
X16740302Y-16421430D01*
X16719733Y-16428516D01*
X16698126Y-16434440D01*
X16675455Y-16439147D01*
X16651693Y-16442580D01*
X16626818Y-16444681D01*
X16600802Y-16445394D01*
X16567021Y-16444123D01*
X16531809Y-16440338D01*
X16495579Y-16433742D01*
X16458745Y-16424037D01*
X16421720Y-16410928D01*
X16384918Y-16394117D01*
X16366731Y-16384230D01*
X16348754Y-16373306D01*
X16331040Y-16361308D01*
X16313640Y-16348200D01*
X16296606Y-16333942D01*
X16279991Y-16318500D01*
X16263844Y-16301835D01*
X16248220Y-16283911D01*
X16233168Y-16264689D01*
X16218741Y-16244134D01*
X16204990Y-16222208D01*
X16191968Y-16198874D01*
X16179725Y-16174094D01*
X16168315Y-16147832D01*
X16157787Y-16120051D01*
X16148195Y-16090713D01*
X16139589Y-16059781D01*
X16132022Y-16027218D01*
X16125546Y-15992988D01*
X16120211Y-15957052D01*
X16118858Y-15945840D01*
X16117708Y-15934961D01*
X16116759Y-15924412D01*
X16116012Y-15914193D01*
X16115468Y-15904303D01*
X16115127Y-15894741D01*
X16114990Y-15885505D01*
X16115055Y-15876596D01*
X16115325Y-15868010D01*
X16115800Y-15859748D01*
X16116479Y-15851808D01*
X16117362Y-15844189D01*
X16118452Y-15836891D01*
X16119747Y-15829911D01*
X16121247Y-15823250D01*
X16122955Y-15816905D01*
X16124869Y-15810876D01*
X16126990Y-15805161D01*
X16129318Y-15799760D01*
X16131854Y-15794672D01*
X16134598Y-15789895D01*
X16137551Y-15785428D01*
X16140712Y-15781270D01*
X16144082Y-15777420D01*
X16147662Y-15773878D01*
X16151451Y-15770641D01*
X16155451Y-15767709D01*
X16159661Y-15765080D01*
X16164081Y-15762754D01*
X16168713Y-15760730D01*
X16173556Y-15759006D01*
X16178611Y-15757582D01*
X16178605Y-15757589D01*
G36*
X16178605Y-15757589D02*
G01*
X16214852Y-15758296D01*
X16291369Y-15764132D01*
X16516893Y-15786474D01*
X16758533Y-15815173D01*
X16855195Y-15828956D01*
X16919645Y-15840788D01*
X16933955Y-15844306D01*
X16946672Y-15848008D01*
X16957859Y-15852065D01*
X16967579Y-15856652D01*
X16971910Y-15859197D01*
X16975898Y-15861940D01*
X16979551Y-15864902D01*
X16982877Y-15868104D01*
X16985885Y-15871569D01*
X16988582Y-15875317D01*
X16990976Y-15879370D01*
X16993074Y-15883751D01*
X16994886Y-15888480D01*
X16996419Y-15893579D01*
X16997681Y-15899071D01*
X16998679Y-15904975D01*
X16999918Y-15918112D01*
X17000200Y-15933163D01*
X16999588Y-15950301D01*
X16998146Y-15969698D01*
X16995938Y-15991529D01*
X16993026Y-16015966D01*
X16987824Y-16050916D01*
X16980989Y-16086906D01*
X16972320Y-16123482D01*
X16961614Y-16160190D01*
X16948669Y-16196573D01*
X16933284Y-16232179D01*
X16924613Y-16249548D01*
X16915257Y-16266551D01*
X16905189Y-16283133D01*
X16894386Y-16299236D01*
X16882820Y-16314804D01*
X16870468Y-16329778D01*
X16857304Y-16344104D01*
X16843303Y-16357724D01*
X16828440Y-16370581D01*
X16812688Y-16382617D01*
X16796024Y-16393778D01*
X16778422Y-16404005D01*
X16759856Y-16413241D01*
X16740302Y-16421430D01*
X16719733Y-16428516D01*
X16698126Y-16434440D01*
X16675455Y-16439147D01*
X16651693Y-16442580D01*
X16626818Y-16444681D01*
X16600802Y-16445394D01*
X16567021Y-16444123D01*
X16531809Y-16440338D01*
X16495579Y-16433742D01*
X16458745Y-16424037D01*
X16421720Y-16410928D01*
X16384918Y-16394117D01*
X16366731Y-16384230D01*
X16348754Y-16373306D01*
X16331040Y-16361308D01*
X16313640Y-16348200D01*
X16296606Y-16333942D01*
X16279991Y-16318500D01*
X16263844Y-16301835D01*
X16248220Y-16283911D01*
X16233168Y-16264689D01*
X16218741Y-16244134D01*
X16204990Y-16222208D01*
X16191968Y-16198874D01*
X16179725Y-16174094D01*
X16168315Y-16147832D01*
X16157787Y-16120051D01*
X16148195Y-16090713D01*
X16139589Y-16059781D01*
X16132022Y-16027218D01*
X16125546Y-15992988D01*
X16120211Y-15957052D01*
X16118858Y-15945840D01*
X16117708Y-15934961D01*
X16116759Y-15924412D01*
X16116012Y-15914193D01*
X16115468Y-15904303D01*
X16115127Y-15894741D01*
X16114990Y-15885505D01*
X16115055Y-15876596D01*
X16115325Y-15868010D01*
X16115800Y-15859748D01*
X16116479Y-15851808D01*
X16117362Y-15844189D01*
X16118452Y-15836891D01*
X16119747Y-15829911D01*
X16121247Y-15823250D01*
X16122955Y-15816905D01*
X16124869Y-15810876D01*
X16126990Y-15805161D01*
X16129318Y-15799760D01*
X16131854Y-15794672D01*
X16134598Y-15789895D01*
X16137551Y-15785428D01*
X16140712Y-15781270D01*
X16144082Y-15777420D01*
X16147662Y-15773878D01*
X16151451Y-15770641D01*
X16155451Y-15767709D01*
X16159661Y-15765080D01*
X16164081Y-15762754D01*
X16168713Y-15760730D01*
X16173556Y-15759006D01*
X16178611Y-15757582D01*
X16178605Y-15757589D01*
G37*
X17695626Y-12952020D02*
X17893695Y-12965044D01*
X18009709Y-12978938D01*
X18135590Y-12999491D01*
X18270247Y-13028006D01*
X18412590Y-13065785D01*
X18561531Y-13114132D01*
X18715978Y-13174349D01*
X18874841Y-13247741D01*
X19037031Y-13335609D01*
X19201458Y-13439257D01*
X19367032Y-13559987D01*
X19449908Y-13627166D01*
X19532662Y-13699104D01*
X19615158Y-13775963D01*
X19697259Y-13857908D01*
X19775384Y-13940957D01*
X19849017Y-14024278D01*
X19918301Y-14108148D01*
X19983379Y-14192843D01*
X20044395Y-14278640D01*
X20101492Y-14365815D01*
X20154813Y-14454643D01*
X20204502Y-14545402D01*
X20250701Y-14638366D01*
X20293554Y-14733814D01*
X20333204Y-14832020D01*
X20369795Y-14933261D01*
X20403469Y-15037813D01*
X20434370Y-15145952D01*
X20462641Y-15257955D01*
X20488425Y-15374098D01*
X20492254Y-15399412D01*
X20496495Y-15422747D01*
X20501116Y-15444216D01*
X20506082Y-15463929D01*
X20511361Y-15481997D01*
X20516919Y-15498533D01*
X20522723Y-15513647D01*
X20528740Y-15527450D01*
X20534935Y-15540054D01*
X20541277Y-15551570D01*
X20547730Y-15562110D01*
X20554263Y-15571785D01*
X20560842Y-15580705D01*
X20567433Y-15588983D01*
X20580519Y-15604055D01*
X20605372Y-15631385D01*
X20611116Y-15638280D01*
X20616605Y-15645423D01*
X20621807Y-15652925D01*
X20626688Y-15660897D01*
X20631214Y-15669450D01*
X20635353Y-15678697D01*
X20639070Y-15688747D01*
X20642333Y-15699713D01*
X20645108Y-15711706D01*
X20647362Y-15724836D01*
X20649061Y-15739216D01*
X20650172Y-15754957D01*
X20650172Y-15755468D01*
X20647520Y-15771615D01*
X20638218Y-15786309D01*
X20622696Y-15799605D01*
X20601385Y-15811558D01*
X20574714Y-15822222D01*
X20543114Y-15831651D01*
X20466843Y-15847022D01*
X20376012Y-15858107D01*
X20274060Y-15865341D01*
X20164428Y-15869159D01*
X20050553Y-15869995D01*
X19823839Y-15864464D01*
X19621432Y-15852230D01*
X19470848Y-15836771D01*
X19423589Y-15828921D01*
X19399604Y-15821569D01*
X19388169Y-15808723D01*
X19376099Y-15784660D01*
X19349056Y-15706052D01*
X19276407Y-15449052D01*
X19226823Y-15283317D01*
X19165749Y-15101196D01*
X19130282Y-15005968D01*
X19091197Y-14909017D01*
X19048245Y-14811134D01*
X19028467Y-14769944D01*
X19243788Y-14769944D01*
X19246760Y-14856535D01*
X19255420Y-14939629D01*
X19270413Y-15018186D01*
X19301365Y-15117800D01*
X19334495Y-15229786D01*
X19401342Y-15460112D01*
X19432083Y-15563067D01*
X19459052Y-15647630D01*
X19470657Y-15680610D01*
X19480761Y-15706108D01*
X19489178Y-15723162D01*
X19492696Y-15728222D01*
X19495723Y-15730810D01*
X19542420Y-15737744D01*
X19648353Y-15746790D01*
X19795567Y-15755956D01*
X19966111Y-15763248D01*
X20142031Y-15766673D01*
X20305377Y-15764237D01*
X20376724Y-15760198D01*
X20438195Y-15753946D01*
X20487546Y-15745233D01*
X20522532Y-15733808D01*
X20526340Y-15731639D01*
X20529096Y-15729258D01*
X20530859Y-15726674D01*
X20531686Y-15723891D01*
X20531638Y-15720917D01*
X20530773Y-15717759D01*
X20529149Y-15714422D01*
X20526826Y-15710914D01*
X20523862Y-15707241D01*
X20520316Y-15703409D01*
X20511713Y-15695296D01*
X20501487Y-15686627D01*
X20490108Y-15677455D01*
X20465774Y-15657809D01*
X20453759Y-15647439D01*
X20442472Y-15636776D01*
X20432384Y-15625870D01*
X20427936Y-15620343D01*
X20423964Y-15614774D01*
X20420527Y-15609171D01*
X20417684Y-15603541D01*
X20415492Y-15597889D01*
X20414012Y-15592222D01*
X20386269Y-15461770D01*
X20354176Y-15333065D01*
X20317698Y-15206259D01*
X20276797Y-15081503D01*
X20231439Y-14958950D01*
X20181587Y-14838750D01*
X20127206Y-14721055D01*
X20068260Y-14606017D01*
X20004712Y-14493788D01*
X19936527Y-14384519D01*
X19863668Y-14278362D01*
X19786101Y-14175468D01*
X19703789Y-14075989D01*
X19616697Y-13980077D01*
X19524787Y-13887883D01*
X19428025Y-13799559D01*
X19428027Y-13799658D01*
X19401231Y-13884353D01*
X19366102Y-14005021D01*
X19327820Y-14153336D01*
X19291564Y-14320972D01*
X19275815Y-14409432D01*
X19262516Y-14499601D01*
X19252313Y-14590436D01*
X19245854Y-14680898D01*
X19243788Y-14769944D01*
X19028467Y-14769944D01*
X19001178Y-14713110D01*
X18981303Y-14679778D01*
X18958614Y-14644650D01*
X18933681Y-14608201D01*
X18907071Y-14570902D01*
X18851091Y-14495653D01*
X18795221Y-14422689D01*
X18744005Y-14355797D01*
X18701989Y-14298764D01*
X18685850Y-14275128D01*
X18673716Y-14255376D01*
X18666153Y-14239983D01*
X18664264Y-14234069D01*
X18663731Y-14229422D01*
X18664396Y-14225173D01*
X18666025Y-14220439D01*
X18672018Y-14209651D01*
X18681397Y-14197340D01*
X18693844Y-14183790D01*
X18709044Y-14169283D01*
X18726681Y-14154102D01*
X18746440Y-14138528D01*
X18768003Y-14122846D01*
X18791056Y-14107337D01*
X18815282Y-14092283D01*
X18840365Y-14077969D01*
X18865990Y-14064675D01*
X18891841Y-14052685D01*
X18917602Y-14042282D01*
X18942957Y-14033748D01*
X18967589Y-14027365D01*
X18974724Y-14026401D01*
X18980865Y-14026785D01*
X18986063Y-14028452D01*
X18990367Y-14031337D01*
X18993829Y-14035376D01*
X18996498Y-14040504D01*
X18998424Y-14046656D01*
X18999658Y-14053768D01*
X19000249Y-14070612D01*
X18998674Y-14090518D01*
X18995333Y-14112969D01*
X18990628Y-14137447D01*
X18966204Y-14245279D01*
X18960705Y-14272130D01*
X18956252Y-14297903D01*
X18953246Y-14322081D01*
X18952090Y-14344145D01*
X18952363Y-14349879D01*
X18953212Y-14355894D01*
X18954604Y-14362153D01*
X18956507Y-14368621D01*
X18958888Y-14375261D01*
X18961715Y-14382037D01*
X18964953Y-14388912D01*
X18968572Y-14395850D01*
X18972538Y-14402814D01*
X18976819Y-14409769D01*
X18986193Y-14423505D01*
X18996432Y-14436766D01*
X19007275Y-14449261D01*
X19018462Y-14460700D01*
X19024101Y-14465932D01*
X19029729Y-14470792D01*
X19035311Y-14475242D01*
X19040815Y-14479246D01*
X19046209Y-14482768D01*
X19051459Y-14485772D01*
X19056534Y-14488221D01*
X19061399Y-14490079D01*
X19066024Y-14491309D01*
X19070374Y-14491876D01*
X19074418Y-14491742D01*
X19078122Y-14490872D01*
X19081455Y-14489229D01*
X19084382Y-14486776D01*
X19088881Y-14476822D01*
X19096361Y-14454168D01*
X19118461Y-14377793D01*
X19178600Y-14150005D01*
X19235943Y-13915935D01*
X19254548Y-13831708D01*
X19259757Y-13803950D01*
X19261634Y-13788107D01*
X19260570Y-13774333D01*
X19257278Y-13762490D01*
X19251889Y-13752488D01*
X19244534Y-13744239D01*
X19235343Y-13737652D01*
X19224446Y-13732639D01*
X19211975Y-13729110D01*
X19198061Y-13726977D01*
X19182833Y-13726148D01*
X19166422Y-13726537D01*
X19130577Y-13730604D01*
X19091569Y-13738465D01*
X19050445Y-13749405D01*
X19008250Y-13762709D01*
X18966030Y-13777662D01*
X18885693Y-13809659D01*
X18817797Y-13839679D01*
X18770707Y-13862005D01*
X18729031Y-13883453D01*
X18689451Y-13906051D01*
X18651858Y-13929926D01*
X18616142Y-13955205D01*
X18582191Y-13982016D01*
X18549896Y-14010485D01*
X18519147Y-14040741D01*
X18489832Y-14072910D01*
X18461842Y-14107121D01*
X18435066Y-14143499D01*
X18409394Y-14182173D01*
X18384716Y-14223269D01*
X18360922Y-14266915D01*
X18337900Y-14313239D01*
X18315541Y-14362367D01*
X18293734Y-14414427D01*
X18262907Y-14502376D01*
X18225907Y-14625957D01*
X18185149Y-14775378D01*
X18143049Y-14940846D01*
X18102020Y-15112568D01*
X18064478Y-15280751D01*
X18032838Y-15435602D01*
X18009515Y-15567327D01*
X17992910Y-15694129D01*
X17972026Y-15819069D01*
X17959872Y-15880867D01*
X17946520Y-15942230D01*
X17931928Y-16003168D01*
X17916052Y-16063693D01*
X17898849Y-16123813D01*
X17880277Y-16183540D01*
X17860294Y-16242883D01*
X17838855Y-16301852D01*
X17815919Y-16360459D01*
X17791442Y-16418712D01*
X17765382Y-16476622D01*
X17737697Y-16534200D01*
X17725176Y-16555641D01*
X17713488Y-16576338D01*
X17702888Y-16595732D01*
X17693632Y-16613263D01*
X17685976Y-16628371D01*
X17680176Y-16640498D01*
X17678052Y-16645269D01*
X17676487Y-16649084D01*
X17675515Y-16651875D01*
X17675166Y-16653570D01*
X17675808Y-16661297D01*
X17677652Y-16668740D01*
X17680580Y-16675945D01*
X17684473Y-16682957D01*
X17689210Y-16689823D01*
X17694672Y-16696589D01*
X17707295Y-16710001D01*
X17735990Y-16737637D01*
X17750150Y-16752593D01*
X17756765Y-16760517D01*
X17762912Y-16768798D01*
X17768469Y-16777484D01*
X17773319Y-16786619D01*
X17777341Y-16796249D01*
X17780416Y-16806421D01*
X17782424Y-16817180D01*
X17783247Y-16828572D01*
X17782765Y-16840643D01*
X17780858Y-16853439D01*
X17777407Y-16867006D01*
X17772292Y-16881389D01*
X17765394Y-16896634D01*
X17756593Y-16912788D01*
X17745771Y-16929896D01*
X17732807Y-16948003D01*
X17717582Y-16967156D01*
X17699977Y-16987401D01*
X17687654Y-17002590D01*
X17676277Y-17017982D01*
X17665817Y-17033569D01*
X17656247Y-17049344D01*
X17647538Y-17065300D01*
X17639660Y-17081430D01*
X17626284Y-17114182D01*
X17615892Y-17147542D01*
X17608252Y-17181455D01*
X17603136Y-17215861D01*
X17600315Y-17250704D01*
X17599558Y-17285926D01*
X17600637Y-17321470D01*
X17603321Y-17357279D01*
X17607382Y-17393294D01*
X17612589Y-17429458D01*
X17618713Y-17465715D01*
X17632796Y-17538274D01*
X17636560Y-17552900D01*
X17642012Y-17568690D01*
X17648982Y-17585472D01*
X17657298Y-17603076D01*
X17666789Y-17621328D01*
X17677284Y-17640057D01*
X17688611Y-17659091D01*
X17700598Y-17678258D01*
X17725869Y-17716305D01*
X17751726Y-17752823D01*
X17776798Y-17786436D01*
X17799712Y-17815771D01*
X17825005Y-17844174D01*
X17855686Y-17872930D01*
X17931959Y-17930427D01*
X18026023Y-17986117D01*
X18135374Y-18037858D01*
X18257505Y-18083504D01*
X18389910Y-18120913D01*
X18530084Y-18147940D01*
X18602301Y-18156891D01*
X18675520Y-18162443D01*
X18749429Y-18164327D01*
X18823714Y-18162276D01*
X18898061Y-18156022D01*
X18972158Y-18145297D01*
X19045691Y-18129833D01*
X19118347Y-18109362D01*
X19189812Y-18083616D01*
X19259775Y-18052326D01*
X19327920Y-18015226D01*
X19393936Y-17972047D01*
X19457508Y-17922521D01*
X19518324Y-17866381D01*
X19576071Y-17803357D01*
X19630434Y-17733183D01*
X19681101Y-17655590D01*
X19727759Y-17570310D01*
X19753655Y-17513829D01*
X19775257Y-17455680D01*
X19792780Y-17396078D01*
X19806439Y-17335237D01*
X19816450Y-17273374D01*
X19823026Y-17210703D01*
X19826383Y-17147438D01*
X19826735Y-17083796D01*
X19824299Y-17019990D01*
X19819287Y-16956236D01*
X19811916Y-16892749D01*
X19802400Y-16829744D01*
X19777794Y-16706040D01*
X19747188Y-16586843D01*
X19712301Y-16473874D01*
X19674851Y-16368851D01*
X19636560Y-16273496D01*
X19599144Y-16189529D01*
X19564324Y-16118668D01*
X19533819Y-16062634D01*
X19527966Y-16053190D01*
X19660808Y-16053190D01*
X19661078Y-16055227D01*
X19745967Y-16257405D01*
X19784290Y-16355745D01*
X19819372Y-16452629D01*
X19850846Y-16548340D01*
X19878341Y-16643159D01*
X19901489Y-16737370D01*
X19919922Y-16831255D01*
X19933269Y-16925096D01*
X19941162Y-17019175D01*
X19943231Y-17113777D01*
X19939109Y-17209182D01*
X19928425Y-17305673D01*
X19910811Y-17403533D01*
X19885898Y-17503045D01*
X19853316Y-17604490D01*
X19837859Y-17646849D01*
X19832528Y-17662230D01*
X19828224Y-17675629D01*
X19826709Y-17680977D01*
X19825754Y-17685098D01*
X19825460Y-17687750D01*
X19825592Y-17688448D01*
X19825927Y-17688688D01*
X19827691Y-17688471D01*
X19829768Y-17687831D01*
X19834795Y-17685346D01*
X19840878Y-17681363D01*
X19847890Y-17676009D01*
X19855702Y-17669414D01*
X19864185Y-17661706D01*
X19873211Y-17653014D01*
X19882652Y-17643466D01*
X19892380Y-17633193D01*
X19902265Y-17622321D01*
X19912180Y-17610980D01*
X19921996Y-17599299D01*
X19931584Y-17587407D01*
X19940817Y-17575432D01*
X19949566Y-17563502D01*
X19957702Y-17551748D01*
X19997475Y-17491143D01*
X20035033Y-17430274D01*
X20070448Y-17369275D01*
X20103791Y-17308280D01*
X20135135Y-17247423D01*
X20164552Y-17186838D01*
X20217891Y-17067018D01*
X20264386Y-16949895D01*
X20304612Y-16836540D01*
X20339147Y-16728026D01*
X20368566Y-16625424D01*
X20393446Y-16529807D01*
X20414364Y-16442248D01*
X20446617Y-16295591D01*
X20469938Y-16194031D01*
X20479689Y-16162843D01*
X20484340Y-16152617D01*
X20488936Y-16146147D01*
X20497621Y-16137460D01*
X20505308Y-16129499D01*
X20512011Y-16122196D01*
X20514999Y-16118769D01*
X20517748Y-16115480D01*
X20520258Y-16112320D01*
X20522532Y-16109281D01*
X20524573Y-16106353D01*
X20526382Y-16103529D01*
X20527960Y-16100799D01*
X20529311Y-16098155D01*
X20530435Y-16095587D01*
X20531335Y-16093088D01*
X20532013Y-16090648D01*
X20532471Y-16088259D01*
X20532710Y-16085912D01*
X20532733Y-16083599D01*
X20532542Y-16081309D01*
X20532138Y-16079036D01*
X20531524Y-16076770D01*
X20530701Y-16074502D01*
X20529671Y-16072223D01*
X20528437Y-16069926D01*
X20527001Y-16067600D01*
X20525364Y-16065238D01*
X20523527Y-16062831D01*
X20521495Y-16060370D01*
X20519267Y-16057846D01*
X20516847Y-16055250D01*
X20511977Y-16052641D01*
X20502608Y-16050107D01*
X20471606Y-16045302D01*
X20426310Y-16040913D01*
X20369191Y-16037014D01*
X20302721Y-16033682D01*
X20229371Y-16030994D01*
X20071912Y-16027853D01*
X20071906Y-16027830D01*
X19992728Y-16027521D01*
X19916539Y-16028142D01*
X19845818Y-16029763D01*
X19783048Y-16032451D01*
X19755419Y-16034216D01*
X19730707Y-16036273D01*
X19709224Y-16038631D01*
X19691279Y-16041298D01*
X19677181Y-16044283D01*
X19671672Y-16045897D01*
X19667242Y-16047593D01*
X19663929Y-16049374D01*
X19661771Y-16051239D01*
X19660808Y-16053190D01*
X19527966Y-16053190D01*
X19509349Y-16023148D01*
X19492631Y-16001928D01*
X19490110Y-15996246D01*
X19494518Y-15990730D01*
X19522349Y-15980300D01*
X19572570Y-15970852D01*
X19641629Y-15962595D01*
X19822050Y-15950503D01*
X20035192Y-15945716D01*
X20145152Y-15946590D01*
X20252635Y-15949924D01*
X20354088Y-15955930D01*
X20445958Y-15964818D01*
X20524694Y-15976801D01*
X20586742Y-15992090D01*
X20610398Y-16001040D01*
X20628550Y-16010896D01*
X20640754Y-16021684D01*
X20646565Y-16033430D01*
X20647548Y-16039265D01*
X20648148Y-16044943D01*
X20648329Y-16050551D01*
X20648057Y-16056174D01*
X20647295Y-16061901D01*
X20646008Y-16067816D01*
X20644160Y-16074008D01*
X20641716Y-16080562D01*
X20638640Y-16087564D01*
X20634897Y-16095102D01*
X20630451Y-16103263D01*
X20625267Y-16112131D01*
X20619309Y-16121795D01*
X20612541Y-16132341D01*
X20596434Y-16156423D01*
X20577920Y-16184101D01*
X20570149Y-16196393D01*
X20563212Y-16208129D01*
X20556993Y-16219664D01*
X20551373Y-16231354D01*
X20546236Y-16243553D01*
X20541464Y-16256618D01*
X20536941Y-16270904D01*
X20532548Y-16286767D01*
X20528170Y-16304562D01*
X20523688Y-16324645D01*
X20513947Y-16373096D01*
X20502385Y-16434965D01*
X20432661Y-16739430D01*
X20340718Y-17024252D01*
X20228039Y-17289432D01*
X20096104Y-17534969D01*
X19946395Y-17760863D01*
X19780393Y-17967114D01*
X19599579Y-18153723D01*
X19405435Y-18320689D01*
X19199441Y-18468013D01*
X18983078Y-18595693D01*
X18757828Y-18703730D01*
X18525172Y-18792125D01*
X18286592Y-18860877D01*
X18043568Y-18909986D01*
X17797581Y-18939451D01*
X17550114Y-18949274D01*
X17302646Y-18939454D01*
X17056659Y-18909991D01*
X16813635Y-18860884D01*
X16575054Y-18792135D01*
X16342398Y-18703742D01*
X16117148Y-18595706D01*
X15900786Y-18468027D01*
X15694791Y-18320704D01*
X15678362Y-18306575D01*
X15920201Y-18306575D01*
X15921572Y-18313127D01*
X15937413Y-18333446D01*
X15970038Y-18362170D01*
X16018630Y-18397838D01*
X16082374Y-18438993D01*
X16160454Y-18484174D01*
X16252052Y-18531924D01*
X16356353Y-18580782D01*
X16472540Y-18629291D01*
X16599798Y-18675990D01*
X16737309Y-18719422D01*
X16884258Y-18758126D01*
X17039829Y-18790644D01*
X17203204Y-18815517D01*
X17373568Y-18831286D01*
X17550105Y-18836492D01*
X17639094Y-18835301D01*
X17726642Y-18831287D01*
X17812646Y-18824632D01*
X17897006Y-18815519D01*
X17979618Y-18804129D01*
X18060381Y-18790647D01*
X18139193Y-18775253D01*
X18215952Y-18758130D01*
X18290555Y-18739461D01*
X18362901Y-18719428D01*
X18432887Y-18698213D01*
X18500412Y-18675998D01*
X18565374Y-18652967D01*
X18627670Y-18629301D01*
X18743857Y-18580794D01*
X18848158Y-18531936D01*
X18939757Y-18484188D01*
X19017836Y-18439006D01*
X19081580Y-18397851D01*
X19130173Y-18362181D01*
X19162798Y-18333455D01*
X19172867Y-18322152D01*
X19178638Y-18313132D01*
X19180010Y-18306578D01*
X19176879Y-18302671D01*
X19165240Y-18300516D01*
X19142625Y-18300920D01*
X19067747Y-18306968D01*
X18958801Y-18315939D01*
X18822342Y-18322956D01*
X18745844Y-18324209D01*
X18664926Y-18323144D01*
X18580408Y-18319153D01*
X18493110Y-18311626D01*
X18403850Y-18299954D01*
X18313449Y-18283526D01*
X18222725Y-18261734D01*
X18132499Y-18233968D01*
X18107552Y-18226027D01*
X18085508Y-18219217D01*
X18066142Y-18213579D01*
X18049233Y-18209153D01*
X18041630Y-18207406D01*
X18034557Y-18205978D01*
X18027986Y-18204871D01*
X18021891Y-18204093D01*
X18016243Y-18203647D01*
X18011013Y-18203539D01*
X18006175Y-18203773D01*
X18001700Y-18204355D01*
X17997561Y-18205289D01*
X17993729Y-18206580D01*
X17990177Y-18208234D01*
X17986878Y-18210255D01*
X17983802Y-18212649D01*
X17980923Y-18215420D01*
X17978212Y-18218573D01*
X17975642Y-18222113D01*
X17973184Y-18226045D01*
X17970812Y-18230374D01*
X17968496Y-18235106D01*
X17966210Y-18240244D01*
X17961613Y-18251761D01*
X17956799Y-18264966D01*
X17953887Y-18272889D01*
X17950955Y-18280379D01*
X17947994Y-18287436D01*
X17944998Y-18294059D01*
X17941959Y-18300248D01*
X17938869Y-18306000D01*
X17935722Y-18311316D01*
X17932510Y-18316195D01*
X17930877Y-18318470D01*
X17929224Y-18320635D01*
X17927552Y-18322691D01*
X17925859Y-18324636D01*
X17924144Y-18326472D01*
X17922406Y-18328197D01*
X17920645Y-18329812D01*
X17918859Y-18331317D01*
X17917047Y-18332711D01*
X17915209Y-18333995D01*
X17913343Y-18335168D01*
X17911449Y-18336230D01*
X17909525Y-18337181D01*
X17907571Y-18338021D01*
X17905586Y-18338750D01*
X17903569Y-18339368D01*
X17890023Y-18342298D01*
X17864236Y-18344828D01*
X17782935Y-18348692D01*
X17673645Y-18350978D01*
X17550345Y-18351705D01*
X17427014Y-18350890D01*
X17317633Y-18348550D01*
X17236180Y-18344704D01*
X17210296Y-18342221D01*
X17196635Y-18339368D01*
X17192633Y-18338020D01*
X17188756Y-18336228D01*
X17184996Y-18333992D01*
X17181346Y-18331314D01*
X17177798Y-18328194D01*
X17174345Y-18324633D01*
X17170980Y-18320632D01*
X17167695Y-18316192D01*
X17164483Y-18311314D01*
X17161335Y-18305998D01*
X17158246Y-18300246D01*
X17155207Y-18294058D01*
X17152211Y-18287435D01*
X17149250Y-18280379D01*
X17146317Y-18272889D01*
X17143405Y-18264966D01*
X17140360Y-18256514D01*
X17137431Y-18248738D01*
X17134564Y-18241625D01*
X17131705Y-18235166D01*
X17128800Y-18229348D01*
X17127313Y-18226676D01*
X17125794Y-18224160D01*
X17124237Y-18221799D01*
X17122634Y-18219591D01*
X17120979Y-18217535D01*
X17119265Y-18215630D01*
X17117486Y-18213874D01*
X17115634Y-18212265D01*
X17113702Y-18210803D01*
X17111685Y-18209486D01*
X17109574Y-18208312D01*
X17107364Y-18207280D01*
X17105048Y-18206389D01*
X17102619Y-18205637D01*
X17100069Y-18205023D01*
X17097393Y-18204545D01*
X17094583Y-18204203D01*
X17091634Y-18203994D01*
X17088537Y-18203917D01*
X17085286Y-18203971D01*
X17081875Y-18204154D01*
X17078296Y-18204465D01*
X17078298Y-18204465D01*
X17068983Y-18205754D01*
X17058568Y-18207740D01*
X17046958Y-18210418D01*
X17034061Y-18213781D01*
X17019782Y-18217823D01*
X17004026Y-18222539D01*
X16967712Y-18233968D01*
X16922712Y-18248636D01*
X16877485Y-18261734D01*
X16832134Y-18273339D01*
X16786762Y-18283526D01*
X16741470Y-18292372D01*
X16696360Y-18299954D01*
X16607101Y-18311626D01*
X16519802Y-18319153D01*
X16435284Y-18323144D01*
X16354367Y-18324209D01*
X16277869Y-18322956D01*
X16206610Y-18319997D01*
X16141410Y-18315939D01*
X16032463Y-18306968D01*
X15957585Y-18300920D01*
X15934971Y-18300516D01*
X15927728Y-18301235D01*
X15923332Y-18302671D01*
X15920201Y-18306575D01*
X15678362Y-18306575D01*
X15500646Y-18153739D01*
X15319832Y-17967130D01*
X15153829Y-17760877D01*
X15004120Y-17534982D01*
X14872185Y-17289443D01*
X14759505Y-17024260D01*
X14667562Y-16739434D01*
X14597837Y-16434965D01*
X14586276Y-16373085D01*
X14581236Y-16347357D01*
X14576534Y-16324629D01*
X14572052Y-16304545D01*
X14567674Y-16286750D01*
X14563281Y-16270888D01*
X14558758Y-16256604D01*
X14553986Y-16243541D01*
X14548849Y-16231344D01*
X14543229Y-16219657D01*
X14537009Y-16208124D01*
X14530072Y-16196390D01*
X14522301Y-16184099D01*
X14503787Y-16156423D01*
X14495290Y-16143840D01*
X14487675Y-16132315D01*
X14480905Y-16121762D01*
X14474946Y-16112094D01*
X14469761Y-16103224D01*
X14465316Y-16095064D01*
X14461573Y-16087529D01*
X14459844Y-16083593D01*
X14567469Y-16083593D01*
X14567492Y-16085904D01*
X14567731Y-16088248D01*
X14568189Y-16090634D01*
X14568867Y-16093071D01*
X14569767Y-16095568D01*
X14570891Y-16098133D01*
X14572242Y-16100776D01*
X14573820Y-16103505D01*
X14575629Y-16106329D01*
X14577669Y-16109256D01*
X14582454Y-16115457D01*
X14588191Y-16122179D01*
X14594894Y-16129492D01*
X14602581Y-16137465D01*
X14611266Y-16146170D01*
X14620508Y-16162861D01*
X14630243Y-16194045D01*
X14653505Y-16295601D01*
X14685676Y-16442258D01*
X14731379Y-16625435D01*
X14760749Y-16728039D01*
X14795237Y-16836555D01*
X14835420Y-16949912D01*
X14881875Y-17067037D01*
X14935181Y-17186858D01*
X14995915Y-17308302D01*
X15064657Y-17430297D01*
X15141983Y-17551771D01*
X15150118Y-17563516D01*
X15158866Y-17575439D01*
X15168098Y-17587410D01*
X15177686Y-17599300D01*
X15187502Y-17610979D01*
X15197416Y-17622320D01*
X15207302Y-17633193D01*
X15217029Y-17643469D01*
X15226471Y-17653019D01*
X15235497Y-17661715D01*
X15243981Y-17669426D01*
X15251793Y-17676024D01*
X15258805Y-17681381D01*
X15264889Y-17685367D01*
X15267542Y-17686806D01*
X15269916Y-17687853D01*
X15271993Y-17688494D01*
X15273757Y-17688711D01*
X15274092Y-17688471D01*
X15274224Y-17687773D01*
X15273930Y-17685122D01*
X15272975Y-17681001D01*
X15271461Y-17675653D01*
X15267157Y-17662255D01*
X15261825Y-17646875D01*
X15246368Y-17604513D01*
X15213786Y-17503067D01*
X15188873Y-17403556D01*
X15171258Y-17305696D01*
X15160574Y-17209205D01*
X15156451Y-17113800D01*
X15158521Y-17019198D01*
X15166413Y-16925118D01*
X15179760Y-16831277D01*
X15198192Y-16737393D01*
X15221340Y-16643182D01*
X15248835Y-16548363D01*
X15280308Y-16452652D01*
X15315391Y-16355768D01*
X15353714Y-16257428D01*
X15438604Y-16055250D01*
X15438879Y-16053195D01*
X15437923Y-16051229D01*
X15432473Y-16047560D01*
X15422563Y-16044232D01*
X15408500Y-16041238D01*
X15369155Y-16036211D01*
X15316907Y-16032402D01*
X15254227Y-16029737D01*
X15183585Y-16028140D01*
X15107450Y-16027537D01*
X15028293Y-16027853D01*
X15028289Y-16027876D01*
X14948591Y-16029053D01*
X14870831Y-16031031D01*
X14797480Y-16033731D01*
X14731011Y-16037074D01*
X14673892Y-16040979D01*
X14628596Y-16045367D01*
X14611154Y-16047717D01*
X14597594Y-16050158D01*
X14588225Y-16052680D01*
X14585208Y-16053968D01*
X14583356Y-16055273D01*
X14578707Y-16060392D01*
X14574839Y-16065257D01*
X14573201Y-16067617D01*
X14571765Y-16069939D01*
X14570531Y-16072234D01*
X14569501Y-16074510D01*
X14568678Y-16076774D01*
X14568064Y-16079037D01*
X14567660Y-16081307D01*
X14567469Y-16083593D01*
X14459844Y-16083593D01*
X14458498Y-16080530D01*
X14457200Y-16077205D01*
X14456055Y-16073981D01*
X14455060Y-16070849D01*
X14454209Y-16067796D01*
X14453498Y-16064812D01*
X14452923Y-16061886D01*
X14452479Y-16059007D01*
X14452162Y-16056165D01*
X14451967Y-16053348D01*
X14451891Y-16050546D01*
X14451927Y-16047747D01*
X14452073Y-16044941D01*
X14452674Y-16039265D01*
X14453657Y-16033430D01*
X14459469Y-16021684D01*
X14471673Y-16010896D01*
X14489825Y-16001040D01*
X14513481Y-15992090D01*
X14575529Y-15976801D01*
X14654265Y-15964818D01*
X14746136Y-15955930D01*
X14847589Y-15949924D01*
X14955071Y-15946590D01*
X15065031Y-15945716D01*
X15278173Y-15950503D01*
X15374250Y-15955742D01*
X15458594Y-15962595D01*
X15527653Y-15970852D01*
X15577874Y-15980300D01*
X15605704Y-15990730D01*
X15610113Y-15996246D01*
X15607592Y-16001928D01*
X15590868Y-16023143D01*
X15566380Y-16062626D01*
X15500996Y-16189517D01*
X15463541Y-16273484D01*
X15425206Y-16368840D01*
X15387710Y-16473863D01*
X15352775Y-16586835D01*
X15322120Y-16706033D01*
X15297468Y-16829740D01*
X15280538Y-16956234D01*
X15273051Y-17083795D01*
X15273386Y-17147438D01*
X15276727Y-17210703D01*
X15283290Y-17273375D01*
X15293289Y-17335238D01*
X15306939Y-17396079D01*
X15324455Y-17455681D01*
X15346053Y-17513830D01*
X15371947Y-17570310D01*
X15418606Y-17655590D01*
X15469278Y-17733183D01*
X15523648Y-17803357D01*
X15581404Y-17866381D01*
X15642232Y-17922521D01*
X15705818Y-17972047D01*
X15771849Y-18015226D01*
X15840012Y-18052326D01*
X15909993Y-18083616D01*
X15981479Y-18109362D01*
X16054157Y-18129833D01*
X16127712Y-18145297D01*
X16201832Y-18156022D01*
X16276203Y-18162276D01*
X16350512Y-18164327D01*
X16424444Y-18162443D01*
X16497688Y-18156891D01*
X16569929Y-18147940D01*
X16640854Y-18135858D01*
X16710150Y-18120913D01*
X16758258Y-18107325D01*
X17240758Y-18107325D01*
X17240927Y-18112348D01*
X17241280Y-18117560D01*
X17242466Y-18128677D01*
X17244178Y-18140928D01*
X17248761Y-18173307D01*
X17251122Y-18186183D01*
X17254256Y-18197072D01*
X17258706Y-18206138D01*
X17261594Y-18210039D01*
X17265016Y-18213547D01*
X17269038Y-18216682D01*
X17273730Y-18219465D01*
X17285392Y-18224057D01*
X17300547Y-18227488D01*
X17319737Y-18229926D01*
X17343508Y-18231534D01*
X17372403Y-18232478D01*
X17447740Y-18233038D01*
X17550101Y-18232931D01*
X17652452Y-18233038D01*
X17693224Y-18232924D01*
X17727785Y-18232477D01*
X17756679Y-18231532D01*
X17769171Y-18230821D01*
X17780450Y-18229924D01*
X17790584Y-18228819D01*
X17799641Y-18227486D01*
X17807690Y-18225905D01*
X17814798Y-18224054D01*
X17821032Y-18221913D01*
X17826462Y-18219461D01*
X17831155Y-18216678D01*
X17835179Y-18213543D01*
X17838602Y-18210036D01*
X17841491Y-18206134D01*
X17843916Y-18201819D01*
X17845944Y-18197068D01*
X17847642Y-18191862D01*
X17849080Y-18186180D01*
X17850324Y-18180001D01*
X17851443Y-18173304D01*
X17856027Y-18140928D01*
X17857738Y-18128678D01*
X17858926Y-18117561D01*
X17859449Y-18107328D01*
X17859170Y-18097729D01*
X17857947Y-18088513D01*
X17856938Y-18083970D01*
X17855642Y-18079430D01*
X17854039Y-18074861D01*
X17852114Y-18070231D01*
X17849848Y-18065510D01*
X17847225Y-18060666D01*
X17840834Y-18050483D01*
X17832803Y-18039434D01*
X17822991Y-18027269D01*
X17811259Y-18013736D01*
X17797467Y-17998587D01*
X17781476Y-17981571D01*
X17742337Y-17940938D01*
X17733399Y-17931524D01*
X17724228Y-17921495D01*
X17705456Y-17899977D01*
X17686557Y-17877155D01*
X17668071Y-17853798D01*
X17650535Y-17830676D01*
X17634488Y-17808556D01*
X17620467Y-17788210D01*
X17609012Y-17770406D01*
X17609014Y-17770406D01*
X17589952Y-17737764D01*
X17581919Y-17724876D01*
X17574671Y-17714289D01*
X17571291Y-17709862D01*
X17568048Y-17706014D01*
X17564921Y-17702746D01*
X17561890Y-17700061D01*
X17558935Y-17697958D01*
X17556037Y-17696439D01*
X17553174Y-17695505D01*
X17550328Y-17695158D01*
X17547478Y-17695399D01*
X17544605Y-17696230D01*
X17541687Y-17697650D01*
X17538706Y-17699662D01*
X17535641Y-17702267D01*
X17532472Y-17705466D01*
X17529180Y-17709261D01*
X17525743Y-17713652D01*
X17518359Y-17724228D01*
X17510159Y-17737206D01*
X17500984Y-17752596D01*
X17490674Y-17770406D01*
X17479241Y-17788204D01*
X17465278Y-17808547D01*
X17449313Y-17830665D01*
X17431872Y-17853790D01*
X17413480Y-17877149D01*
X17394664Y-17899974D01*
X17375950Y-17921494D01*
X17366797Y-17931524D01*
X17357865Y-17940938D01*
X17318741Y-17981562D01*
X17302754Y-17998576D01*
X17288964Y-18013723D01*
X17277233Y-18027255D01*
X17272096Y-18033493D01*
X17267421Y-18039421D01*
X17263191Y-18045070D01*
X17259388Y-18050471D01*
X17255996Y-18055655D01*
X17252996Y-18060654D01*
X17250371Y-18065499D01*
X17248104Y-18070221D01*
X17246178Y-18074852D01*
X17244574Y-18079422D01*
X17243276Y-18083963D01*
X17242266Y-18088506D01*
X17241527Y-18093083D01*
X17241041Y-18097724D01*
X17240790Y-18102461D01*
X17240758Y-18107325D01*
X16758258Y-18107325D01*
X16842599Y-18083504D01*
X16964769Y-18037858D01*
X17074153Y-17986117D01*
X17168243Y-17930427D01*
X17208769Y-17901770D01*
X17244531Y-17872930D01*
X17275217Y-17844174D01*
X17300512Y-17815771D01*
X17323404Y-17786443D01*
X17348417Y-17752834D01*
X17374191Y-17716317D01*
X17399367Y-17678270D01*
X17411306Y-17659101D01*
X17422586Y-17640066D01*
X17433037Y-17621336D01*
X17442488Y-17603082D01*
X17450771Y-17585477D01*
X17457716Y-17568693D01*
X17463151Y-17552901D01*
X17466909Y-17538274D01*
X17480990Y-17465713D01*
X17487115Y-17429455D01*
X17492322Y-17393290D01*
X17496382Y-17357275D01*
X17499067Y-17321467D01*
X17500145Y-17285923D01*
X17499389Y-17250701D01*
X17496567Y-17215859D01*
X17491452Y-17181453D01*
X17483813Y-17147541D01*
X17478975Y-17130788D01*
X17473420Y-17114180D01*
X17467120Y-17097725D01*
X17460045Y-17081429D01*
X17452167Y-17065299D01*
X17443458Y-17049344D01*
X17433888Y-17033569D01*
X17423428Y-17017982D01*
X17412051Y-17002590D01*
X17399728Y-16987401D01*
X17382123Y-16967156D01*
X17366897Y-16948003D01*
X17353933Y-16929896D01*
X17343110Y-16912788D01*
X17334309Y-16896634D01*
X17327411Y-16881389D01*
X17322295Y-16867006D01*
X17318844Y-16853439D01*
X17316936Y-16840643D01*
X17316453Y-16828572D01*
X17317276Y-16817180D01*
X17319284Y-16806421D01*
X17322358Y-16796249D01*
X17326380Y-16786619D01*
X17331229Y-16777484D01*
X17336786Y-16768798D01*
X17342932Y-16760517D01*
X17349547Y-16752593D01*
X17363706Y-16737637D01*
X17392399Y-16710001D01*
X17405022Y-16696589D01*
X17410484Y-16689823D01*
X17415221Y-16682957D01*
X17419113Y-16675945D01*
X17422042Y-16668740D01*
X17423886Y-16661297D01*
X17424527Y-16653570D01*
X17424184Y-16651875D01*
X17423228Y-16649086D01*
X17419599Y-16640503D01*
X17413882Y-16628379D01*
X17406321Y-16613274D01*
X17397161Y-16595745D01*
X17386644Y-16576351D01*
X17375015Y-16555650D01*
X17362517Y-16534200D01*
X17334831Y-16476622D01*
X17308771Y-16418712D01*
X17284295Y-16360459D01*
X17261358Y-16301852D01*
X17239920Y-16242883D01*
X17219936Y-16183540D01*
X17201364Y-16123813D01*
X17184162Y-16063693D01*
X17168286Y-16003168D01*
X17153693Y-15942230D01*
X17128188Y-15819069D01*
X17107304Y-15694129D01*
X17090699Y-15567327D01*
X17067377Y-15435602D01*
X17035737Y-15280750D01*
X16998195Y-15112566D01*
X16957166Y-14940844D01*
X16915065Y-14775375D01*
X16874307Y-14625954D01*
X16837306Y-14502373D01*
X16806479Y-14414427D01*
X16784666Y-14362367D01*
X16762291Y-14313239D01*
X16739244Y-14266915D01*
X16715416Y-14223269D01*
X16690699Y-14182173D01*
X16664984Y-14143499D01*
X16638161Y-14107121D01*
X16610123Y-14072910D01*
X16580760Y-14040741D01*
X16549964Y-14010485D01*
X16517625Y-13982016D01*
X16483635Y-13955205D01*
X16447885Y-13929926D01*
X16410267Y-13906051D01*
X16370671Y-13883453D01*
X16328988Y-13862005D01*
X16281921Y-13839679D01*
X16214084Y-13809659D01*
X16174987Y-13793551D01*
X16133830Y-13777662D01*
X16091656Y-13762709D01*
X16049509Y-13749405D01*
X16008433Y-13738465D01*
X15969473Y-13730604D01*
X15951112Y-13728052D01*
X15933671Y-13726537D01*
X15917281Y-13726148D01*
X15902072Y-13726977D01*
X15888174Y-13729110D01*
X15875719Y-13732639D01*
X15864836Y-13737652D01*
X15855657Y-13744239D01*
X15848311Y-13752488D01*
X15842929Y-13762490D01*
X15839642Y-13774333D01*
X15838580Y-13788107D01*
X15840457Y-13803946D01*
X15845665Y-13831701D01*
X15864270Y-13915925D01*
X15921613Y-14149996D01*
X15981751Y-14377790D01*
X16003851Y-14454167D01*
X16011331Y-14476822D01*
X16015829Y-14486776D01*
X16018757Y-14489227D01*
X16022089Y-14490869D01*
X16025793Y-14491738D01*
X16029836Y-14491870D01*
X16034187Y-14491302D01*
X16038811Y-14490070D01*
X16043677Y-14488211D01*
X16048751Y-14485761D01*
X16054002Y-14482756D01*
X16059395Y-14479233D01*
X16070482Y-14470777D01*
X16081749Y-14460684D01*
X16092935Y-14449244D01*
X16103779Y-14436748D01*
X16114018Y-14423487D01*
X16123392Y-14409753D01*
X16131639Y-14395835D01*
X16138496Y-14382024D01*
X16141323Y-14375250D01*
X16143704Y-14368612D01*
X16145607Y-14362146D01*
X16146999Y-14355888D01*
X16147848Y-14349876D01*
X16148120Y-14344145D01*
X16147798Y-14333409D01*
X16146964Y-14322081D01*
X16143959Y-14297903D01*
X16139506Y-14272130D01*
X16134007Y-14245279D01*
X16109583Y-14137447D01*
X16104878Y-14112969D01*
X16101537Y-14090518D01*
X16099961Y-14070612D01*
X16099961Y-14061775D01*
X16100552Y-14053768D01*
X16101786Y-14046656D01*
X16103712Y-14040504D01*
X16106381Y-14035376D01*
X16109842Y-14031337D01*
X16114147Y-14028452D01*
X16119345Y-14026785D01*
X16125486Y-14026401D01*
X16132620Y-14027365D01*
X16144825Y-14030268D01*
X16157247Y-14033745D01*
X16169847Y-14037760D01*
X16182585Y-14042277D01*
X16195423Y-14047262D01*
X16208320Y-14052679D01*
X16234138Y-14064668D01*
X16259724Y-14077960D01*
X16284764Y-14092275D01*
X16308943Y-14107328D01*
X16331948Y-14122837D01*
X16353463Y-14138520D01*
X16373174Y-14154094D01*
X16390768Y-14169277D01*
X16405929Y-14183785D01*
X16412499Y-14190698D01*
X16418343Y-14197336D01*
X16423421Y-14203664D01*
X16427696Y-14209648D01*
X16431126Y-14215250D01*
X16433673Y-14220437D01*
X16435297Y-14225173D01*
X16435960Y-14229422D01*
X16435426Y-14234068D01*
X16433538Y-14239982D01*
X16425988Y-14255374D01*
X16413876Y-14275125D01*
X16397769Y-14298760D01*
X16355835Y-14355793D01*
X16304716Y-14422686D01*
X16248945Y-14495651D01*
X16193052Y-14570901D01*
X16166477Y-14608200D01*
X16141570Y-14644650D01*
X16118899Y-14679778D01*
X16099030Y-14713110D01*
X16051963Y-14811134D01*
X16009011Y-14909017D01*
X15969926Y-15005968D01*
X15934459Y-15101196D01*
X15902362Y-15193909D01*
X15873385Y-15283317D01*
X15823801Y-15449052D01*
X15751152Y-15706052D01*
X15737064Y-15750173D01*
X15724109Y-15784660D01*
X15712039Y-15808723D01*
X15706258Y-15816597D01*
X15700605Y-15821569D01*
X15676621Y-15828935D01*
X15629362Y-15836797D01*
X15478779Y-15852272D01*
X15276371Y-15864515D01*
X15049656Y-15870047D01*
X14935782Y-15869208D01*
X14826149Y-15865387D01*
X14724197Y-15858148D01*
X14633365Y-15847057D01*
X14557094Y-15831678D01*
X14525493Y-15822245D01*
X14498822Y-15811577D01*
X14477511Y-15799620D01*
X14461989Y-15786319D01*
X14452687Y-15771620D01*
X14450035Y-15755468D01*
X14450035Y-15754957D01*
X14451142Y-15739217D01*
X14452838Y-15724837D01*
X14453018Y-15723789D01*
X14568521Y-15723789D01*
X14569349Y-15726572D01*
X14571112Y-15729158D01*
X14573867Y-15731539D01*
X14577675Y-15733709D01*
X14593233Y-15739785D01*
X14612662Y-15745151D01*
X14662013Y-15753880D01*
X14723484Y-15760144D01*
X14794831Y-15764193D01*
X14873810Y-15766277D01*
X14958177Y-15766644D01*
X15134097Y-15763224D01*
X15304641Y-15755927D01*
X15451855Y-15746747D01*
X15557787Y-15737677D01*
X15604485Y-15730711D01*
X15611030Y-15723063D01*
X15619448Y-15706009D01*
X15641158Y-15647531D01*
X15668127Y-15562968D01*
X15698867Y-15460012D01*
X15765714Y-15229687D01*
X15798844Y-15117701D01*
X15829795Y-15018087D01*
X15838124Y-14979441D01*
X15844789Y-14939530D01*
X15853448Y-14856436D01*
X15856421Y-14769845D01*
X15854354Y-14680798D01*
X15847895Y-14590337D01*
X15837693Y-14499502D01*
X15824393Y-14409333D01*
X15808645Y-14320872D01*
X15791094Y-14235160D01*
X15772389Y-14153237D01*
X15734107Y-14004922D01*
X15698978Y-13884254D01*
X15672182Y-13799559D01*
X15672182Y-13799460D01*
X15575419Y-13887784D01*
X15483510Y-13979978D01*
X15396417Y-14075890D01*
X15314105Y-14175370D01*
X15236538Y-14278264D01*
X15163679Y-14384422D01*
X15095494Y-14493691D01*
X15031946Y-14605921D01*
X14973000Y-14720959D01*
X14918619Y-14838654D01*
X14868767Y-14958854D01*
X14823409Y-15081407D01*
X14782509Y-15206163D01*
X14746030Y-15332968D01*
X14713938Y-15461672D01*
X14686195Y-15592123D01*
X14684715Y-15597788D01*
X14682523Y-15603439D01*
X14679680Y-15609069D01*
X14676242Y-15614670D01*
X14672271Y-15620238D01*
X14667823Y-15625764D01*
X14662958Y-15631244D01*
X14657735Y-15636669D01*
X14646448Y-15647332D01*
X14634433Y-15657701D01*
X14610099Y-15677347D01*
X14598721Y-15686520D01*
X14588495Y-15695189D01*
X14579892Y-15703303D01*
X14576346Y-15707136D01*
X14573382Y-15710810D01*
X14571059Y-15714318D01*
X14569435Y-15717656D01*
X14568570Y-15720815D01*
X14568521Y-15723789D01*
X14453018Y-15723789D01*
X14455089Y-15711707D01*
X14457861Y-15699715D01*
X14461122Y-15688750D01*
X14464838Y-15678701D01*
X14468975Y-15669456D01*
X14473500Y-15660904D01*
X14483582Y-15645434D01*
X14494816Y-15631399D01*
X14519672Y-15604075D01*
X14532760Y-15589005D01*
X14545932Y-15571808D01*
X14558922Y-15551594D01*
X14565264Y-15540077D01*
X14571461Y-15527473D01*
X14577479Y-15513668D01*
X14583284Y-15498553D01*
X14588843Y-15482015D01*
X14594123Y-15463944D01*
X14599090Y-15444228D01*
X14603711Y-15422756D01*
X14607953Y-15399416D01*
X14611782Y-15374098D01*
X14637560Y-15257955D01*
X14665815Y-15145952D01*
X14696690Y-15037813D01*
X14730331Y-14933261D01*
X14766883Y-14832020D01*
X14806489Y-14733814D01*
X14849295Y-14638366D01*
X14895446Y-14545402D01*
X14945087Y-14454643D01*
X14998361Y-14365815D01*
X15055415Y-14278640D01*
X15116392Y-14192843D01*
X15181437Y-14108148D01*
X15250696Y-14024278D01*
X15324313Y-13940957D01*
X15402432Y-13857908D01*
X15484702Y-13775776D01*
X15567373Y-13698752D01*
X15650306Y-13626672D01*
X15715007Y-13574248D01*
X15985342Y-13574248D01*
X15995763Y-13583216D01*
X16012954Y-13592066D01*
X16036314Y-13601037D01*
X16065241Y-13610368D01*
X16224592Y-13656061D01*
X16322034Y-13687272D01*
X16373091Y-13705804D01*
X16424903Y-13726606D01*
X16476870Y-13749915D01*
X16528389Y-13775971D01*
X16578860Y-13805013D01*
X16627680Y-13837279D01*
X16649734Y-13852753D01*
X16669652Y-13866187D01*
X16687793Y-13877595D01*
X16704515Y-13886995D01*
X16712456Y-13890947D01*
X16720177Y-13894404D01*
X16727721Y-13897366D01*
X16735135Y-13899837D01*
X16742462Y-13901818D01*
X16749748Y-13903312D01*
X16757037Y-13904320D01*
X16764374Y-13904844D01*
X16771804Y-13904888D01*
X16779371Y-13904452D01*
X16787121Y-13903538D01*
X16795097Y-13902150D01*
X16803346Y-13900288D01*
X16811911Y-13897956D01*
X16830170Y-13891886D01*
X16850232Y-13883957D01*
X16872456Y-13874185D01*
X16897199Y-13862588D01*
X16924819Y-13849180D01*
X16924819Y-13849699D01*
X16986613Y-13822475D01*
X17054955Y-13798879D01*
X17128908Y-13778914D01*
X17207538Y-13762578D01*
X17289908Y-13749872D01*
X17375085Y-13740796D01*
X17462132Y-13735349D01*
X17550113Y-13733533D01*
X17638095Y-13735347D01*
X17725141Y-13740792D01*
X17810316Y-13749866D01*
X17892685Y-13762571D01*
X17971312Y-13778907D01*
X18045262Y-13798874D01*
X18113599Y-13822471D01*
X18175389Y-13849699D01*
X18175389Y-13849180D01*
X18203010Y-13862588D01*
X18227753Y-13874185D01*
X18249976Y-13883956D01*
X18270038Y-13891885D01*
X18279371Y-13895153D01*
X18288297Y-13897954D01*
X18296862Y-13900287D01*
X18305111Y-13902148D01*
X18313088Y-13903536D01*
X18320837Y-13904449D01*
X18328405Y-13904885D01*
X18335834Y-13904842D01*
X18343171Y-13904317D01*
X18350460Y-13903309D01*
X18357746Y-13901815D01*
X18365073Y-13899834D01*
X18372487Y-13897363D01*
X18380031Y-13894400D01*
X18387752Y-13890944D01*
X18395692Y-13886992D01*
X18403898Y-13882542D01*
X18412414Y-13877592D01*
X18430556Y-13866184D01*
X18450474Y-13852752D01*
X18472527Y-13837279D01*
X18496694Y-13820726D01*
X18521348Y-13805009D01*
X18546415Y-13790099D01*
X18571819Y-13775966D01*
X18623338Y-13749909D01*
X18675305Y-13726600D01*
X18727118Y-13705800D01*
X18778176Y-13687270D01*
X18827876Y-13670771D01*
X18875617Y-13656064D01*
X19034969Y-13610378D01*
X19063896Y-13601047D01*
X19087255Y-13592074D01*
X19104445Y-13583221D01*
X19110539Y-13578764D01*
X19114865Y-13574248D01*
X19044788Y-13514349D01*
X18969346Y-13458315D01*
X18888896Y-13406145D01*
X18803796Y-13357839D01*
X18714404Y-13313399D01*
X18621077Y-13272822D01*
X18424051Y-13203263D01*
X18215578Y-13149161D01*
X17998521Y-13110517D01*
X17775742Y-13087331D01*
X17550100Y-13079603D01*
X17324459Y-13087332D01*
X17101679Y-13110519D01*
X16884623Y-13149163D01*
X16676151Y-13203265D01*
X16479126Y-13272824D01*
X16385800Y-13313401D01*
X16296408Y-13357841D01*
X16211309Y-13406146D01*
X16130860Y-13458316D01*
X16055418Y-13514350D01*
X15985342Y-13574248D01*
X15715007Y-13574248D01*
X15733363Y-13559374D01*
X15816407Y-13496692D01*
X15899300Y-13438464D01*
X15981905Y-13384523D01*
X16064083Y-13334708D01*
X16145696Y-13288853D01*
X16226607Y-13246794D01*
X16306678Y-13208368D01*
X16385772Y-13173411D01*
X16540474Y-13113245D01*
X16689612Y-13064984D01*
X16832082Y-13027316D01*
X16966783Y-12998928D01*
X17092613Y-12978508D01*
X17208469Y-12964744D01*
X17313248Y-12956323D01*
X17405848Y-12951933D01*
X17550103Y-12949995D01*
X17695626Y-12952020D01*
G36*
X17695626Y-12952020D02*
G01*
X17893695Y-12965044D01*
X18009709Y-12978938D01*
X18135590Y-12999491D01*
X18270247Y-13028006D01*
X18412590Y-13065785D01*
X18561531Y-13114132D01*
X18715978Y-13174349D01*
X18874841Y-13247741D01*
X19037031Y-13335609D01*
X19201458Y-13439257D01*
X19367032Y-13559987D01*
X19449908Y-13627166D01*
X19532662Y-13699104D01*
X19615158Y-13775963D01*
X19697259Y-13857908D01*
X19775384Y-13940957D01*
X19849017Y-14024278D01*
X19918301Y-14108148D01*
X19983379Y-14192843D01*
X20044395Y-14278640D01*
X20101492Y-14365815D01*
X20154813Y-14454643D01*
X20204502Y-14545402D01*
X20250701Y-14638366D01*
X20293554Y-14733814D01*
X20333204Y-14832020D01*
X20369795Y-14933261D01*
X20403469Y-15037813D01*
X20434370Y-15145952D01*
X20462641Y-15257955D01*
X20488425Y-15374098D01*
X20492254Y-15399412D01*
X20496495Y-15422747D01*
X20501116Y-15444216D01*
X20506082Y-15463929D01*
X20511361Y-15481997D01*
X20516919Y-15498533D01*
X20522723Y-15513647D01*
X20528740Y-15527450D01*
X20534935Y-15540054D01*
X20541277Y-15551570D01*
X20547730Y-15562110D01*
X20554263Y-15571785D01*
X20560842Y-15580705D01*
X20567433Y-15588983D01*
X20580519Y-15604055D01*
X20605372Y-15631385D01*
X20611116Y-15638280D01*
X20616605Y-15645423D01*
X20621807Y-15652925D01*
X20626688Y-15660897D01*
X20631214Y-15669450D01*
X20635353Y-15678697D01*
X20639070Y-15688747D01*
X20642333Y-15699713D01*
X20645108Y-15711706D01*
X20647362Y-15724836D01*
X20649061Y-15739216D01*
X20650172Y-15754957D01*
X20650172Y-15755468D01*
X20647520Y-15771615D01*
X20638218Y-15786309D01*
X20622696Y-15799605D01*
X20601385Y-15811558D01*
X20574714Y-15822222D01*
X20543114Y-15831651D01*
X20466843Y-15847022D01*
X20376012Y-15858107D01*
X20274060Y-15865341D01*
X20164428Y-15869159D01*
X20050553Y-15869995D01*
X19823839Y-15864464D01*
X19621432Y-15852230D01*
X19470848Y-15836771D01*
X19423589Y-15828921D01*
X19399604Y-15821569D01*
X19388169Y-15808723D01*
X19376099Y-15784660D01*
X19349056Y-15706052D01*
X19276407Y-15449052D01*
X19226823Y-15283317D01*
X19165749Y-15101196D01*
X19130282Y-15005968D01*
X19091197Y-14909017D01*
X19048245Y-14811134D01*
X19028467Y-14769944D01*
X19243788Y-14769944D01*
X19246760Y-14856535D01*
X19255420Y-14939629D01*
X19270413Y-15018186D01*
X19301365Y-15117800D01*
X19334495Y-15229786D01*
X19401342Y-15460112D01*
X19432083Y-15563067D01*
X19459052Y-15647630D01*
X19470657Y-15680610D01*
X19480761Y-15706108D01*
X19489178Y-15723162D01*
X19492696Y-15728222D01*
X19495723Y-15730810D01*
X19542420Y-15737744D01*
X19648353Y-15746790D01*
X19795567Y-15755956D01*
X19966111Y-15763248D01*
X20142031Y-15766673D01*
X20305377Y-15764237D01*
X20376724Y-15760198D01*
X20438195Y-15753946D01*
X20487546Y-15745233D01*
X20522532Y-15733808D01*
X20526340Y-15731639D01*
X20529096Y-15729258D01*
X20530859Y-15726674D01*
X20531686Y-15723891D01*
X20531638Y-15720917D01*
X20530773Y-15717759D01*
X20529149Y-15714422D01*
X20526826Y-15710914D01*
X20523862Y-15707241D01*
X20520316Y-15703409D01*
X20511713Y-15695296D01*
X20501487Y-15686627D01*
X20490108Y-15677455D01*
X20465774Y-15657809D01*
X20453759Y-15647439D01*
X20442472Y-15636776D01*
X20432384Y-15625870D01*
X20427936Y-15620343D01*
X20423964Y-15614774D01*
X20420527Y-15609171D01*
X20417684Y-15603541D01*
X20415492Y-15597889D01*
X20414012Y-15592222D01*
X20386269Y-15461770D01*
X20354176Y-15333065D01*
X20317698Y-15206259D01*
X20276797Y-15081503D01*
X20231439Y-14958950D01*
X20181587Y-14838750D01*
X20127206Y-14721055D01*
X20068260Y-14606017D01*
X20004712Y-14493788D01*
X19936527Y-14384519D01*
X19863668Y-14278362D01*
X19786101Y-14175468D01*
X19703789Y-14075989D01*
X19616697Y-13980077D01*
X19524787Y-13887883D01*
X19428025Y-13799559D01*
X19428027Y-13799658D01*
X19401231Y-13884353D01*
X19366102Y-14005021D01*
X19327820Y-14153336D01*
X19291564Y-14320972D01*
X19275815Y-14409432D01*
X19262516Y-14499601D01*
X19252313Y-14590436D01*
X19245854Y-14680898D01*
X19243788Y-14769944D01*
X19028467Y-14769944D01*
X19001178Y-14713110D01*
X18981303Y-14679778D01*
X18958614Y-14644650D01*
X18933681Y-14608201D01*
X18907071Y-14570902D01*
X18851091Y-14495653D01*
X18795221Y-14422689D01*
X18744005Y-14355797D01*
X18701989Y-14298764D01*
X18685850Y-14275128D01*
X18673716Y-14255376D01*
X18666153Y-14239983D01*
X18664264Y-14234069D01*
X18663731Y-14229422D01*
X18664396Y-14225173D01*
X18666025Y-14220439D01*
X18672018Y-14209651D01*
X18681397Y-14197340D01*
X18693844Y-14183790D01*
X18709044Y-14169283D01*
X18726681Y-14154102D01*
X18746440Y-14138528D01*
X18768003Y-14122846D01*
X18791056Y-14107337D01*
X18815282Y-14092283D01*
X18840365Y-14077969D01*
X18865990Y-14064675D01*
X18891841Y-14052685D01*
X18917602Y-14042282D01*
X18942957Y-14033748D01*
X18967589Y-14027365D01*
X18974724Y-14026401D01*
X18980865Y-14026785D01*
X18986063Y-14028452D01*
X18990367Y-14031337D01*
X18993829Y-14035376D01*
X18996498Y-14040504D01*
X18998424Y-14046656D01*
X18999658Y-14053768D01*
X19000249Y-14070612D01*
X18998674Y-14090518D01*
X18995333Y-14112969D01*
X18990628Y-14137447D01*
X18966204Y-14245279D01*
X18960705Y-14272130D01*
X18956252Y-14297903D01*
X18953246Y-14322081D01*
X18952090Y-14344145D01*
X18952363Y-14349879D01*
X18953212Y-14355894D01*
X18954604Y-14362153D01*
X18956507Y-14368621D01*
X18958888Y-14375261D01*
X18961715Y-14382037D01*
X18964953Y-14388912D01*
X18968572Y-14395850D01*
X18972538Y-14402814D01*
X18976819Y-14409769D01*
X18986193Y-14423505D01*
X18996432Y-14436766D01*
X19007275Y-14449261D01*
X19018462Y-14460700D01*
X19024101Y-14465932D01*
X19029729Y-14470792D01*
X19035311Y-14475242D01*
X19040815Y-14479246D01*
X19046209Y-14482768D01*
X19051459Y-14485772D01*
X19056534Y-14488221D01*
X19061399Y-14490079D01*
X19066024Y-14491309D01*
X19070374Y-14491876D01*
X19074418Y-14491742D01*
X19078122Y-14490872D01*
X19081455Y-14489229D01*
X19084382Y-14486776D01*
X19088881Y-14476822D01*
X19096361Y-14454168D01*
X19118461Y-14377793D01*
X19178600Y-14150005D01*
X19235943Y-13915935D01*
X19254548Y-13831708D01*
X19259757Y-13803950D01*
X19261634Y-13788107D01*
X19260570Y-13774333D01*
X19257278Y-13762490D01*
X19251889Y-13752488D01*
X19244534Y-13744239D01*
X19235343Y-13737652D01*
X19224446Y-13732639D01*
X19211975Y-13729110D01*
X19198061Y-13726977D01*
X19182833Y-13726148D01*
X19166422Y-13726537D01*
X19130577Y-13730604D01*
X19091569Y-13738465D01*
X19050445Y-13749405D01*
X19008250Y-13762709D01*
X18966030Y-13777662D01*
X18885693Y-13809659D01*
X18817797Y-13839679D01*
X18770707Y-13862005D01*
X18729031Y-13883453D01*
X18689451Y-13906051D01*
X18651858Y-13929926D01*
X18616142Y-13955205D01*
X18582191Y-13982016D01*
X18549896Y-14010485D01*
X18519147Y-14040741D01*
X18489832Y-14072910D01*
X18461842Y-14107121D01*
X18435066Y-14143499D01*
X18409394Y-14182173D01*
X18384716Y-14223269D01*
X18360922Y-14266915D01*
X18337900Y-14313239D01*
X18315541Y-14362367D01*
X18293734Y-14414427D01*
X18262907Y-14502376D01*
X18225907Y-14625957D01*
X18185149Y-14775378D01*
X18143049Y-14940846D01*
X18102020Y-15112568D01*
X18064478Y-15280751D01*
X18032838Y-15435602D01*
X18009515Y-15567327D01*
X17992910Y-15694129D01*
X17972026Y-15819069D01*
X17959872Y-15880867D01*
X17946520Y-15942230D01*
X17931928Y-16003168D01*
X17916052Y-16063693D01*
X17898849Y-16123813D01*
X17880277Y-16183540D01*
X17860294Y-16242883D01*
X17838855Y-16301852D01*
X17815919Y-16360459D01*
X17791442Y-16418712D01*
X17765382Y-16476622D01*
X17737697Y-16534200D01*
X17725176Y-16555641D01*
X17713488Y-16576338D01*
X17702888Y-16595732D01*
X17693632Y-16613263D01*
X17685976Y-16628371D01*
X17680176Y-16640498D01*
X17678052Y-16645269D01*
X17676487Y-16649084D01*
X17675515Y-16651875D01*
X17675166Y-16653570D01*
X17675808Y-16661297D01*
X17677652Y-16668740D01*
X17680580Y-16675945D01*
X17684473Y-16682957D01*
X17689210Y-16689823D01*
X17694672Y-16696589D01*
X17707295Y-16710001D01*
X17735990Y-16737637D01*
X17750150Y-16752593D01*
X17756765Y-16760517D01*
X17762912Y-16768798D01*
X17768469Y-16777484D01*
X17773319Y-16786619D01*
X17777341Y-16796249D01*
X17780416Y-16806421D01*
X17782424Y-16817180D01*
X17783247Y-16828572D01*
X17782765Y-16840643D01*
X17780858Y-16853439D01*
X17777407Y-16867006D01*
X17772292Y-16881389D01*
X17765394Y-16896634D01*
X17756593Y-16912788D01*
X17745771Y-16929896D01*
X17732807Y-16948003D01*
X17717582Y-16967156D01*
X17699977Y-16987401D01*
X17687654Y-17002590D01*
X17676277Y-17017982D01*
X17665817Y-17033569D01*
X17656247Y-17049344D01*
X17647538Y-17065300D01*
X17639660Y-17081430D01*
X17626284Y-17114182D01*
X17615892Y-17147542D01*
X17608252Y-17181455D01*
X17603136Y-17215861D01*
X17600315Y-17250704D01*
X17599558Y-17285926D01*
X17600637Y-17321470D01*
X17603321Y-17357279D01*
X17607382Y-17393294D01*
X17612589Y-17429458D01*
X17618713Y-17465715D01*
X17632796Y-17538274D01*
X17636560Y-17552900D01*
X17642012Y-17568690D01*
X17648982Y-17585472D01*
X17657298Y-17603076D01*
X17666789Y-17621328D01*
X17677284Y-17640057D01*
X17688611Y-17659091D01*
X17700598Y-17678258D01*
X17725869Y-17716305D01*
X17751726Y-17752823D01*
X17776798Y-17786436D01*
X17799712Y-17815771D01*
X17825005Y-17844174D01*
X17855686Y-17872930D01*
X17931959Y-17930427D01*
X18026023Y-17986117D01*
X18135374Y-18037858D01*
X18257505Y-18083504D01*
X18389910Y-18120913D01*
X18530084Y-18147940D01*
X18602301Y-18156891D01*
X18675520Y-18162443D01*
X18749429Y-18164327D01*
X18823714Y-18162276D01*
X18898061Y-18156022D01*
X18972158Y-18145297D01*
X19045691Y-18129833D01*
X19118347Y-18109362D01*
X19189812Y-18083616D01*
X19259775Y-18052326D01*
X19327920Y-18015226D01*
X19393936Y-17972047D01*
X19457508Y-17922521D01*
X19518324Y-17866381D01*
X19576071Y-17803357D01*
X19630434Y-17733183D01*
X19681101Y-17655590D01*
X19727759Y-17570310D01*
X19753655Y-17513829D01*
X19775257Y-17455680D01*
X19792780Y-17396078D01*
X19806439Y-17335237D01*
X19816450Y-17273374D01*
X19823026Y-17210703D01*
X19826383Y-17147438D01*
X19826735Y-17083796D01*
X19824299Y-17019990D01*
X19819287Y-16956236D01*
X19811916Y-16892749D01*
X19802400Y-16829744D01*
X19777794Y-16706040D01*
X19747188Y-16586843D01*
X19712301Y-16473874D01*
X19674851Y-16368851D01*
X19636560Y-16273496D01*
X19599144Y-16189529D01*
X19564324Y-16118668D01*
X19533819Y-16062634D01*
X19527966Y-16053190D01*
X19660808Y-16053190D01*
X19661078Y-16055227D01*
X19745967Y-16257405D01*
X19784290Y-16355745D01*
X19819372Y-16452629D01*
X19850846Y-16548340D01*
X19878341Y-16643159D01*
X19901489Y-16737370D01*
X19919922Y-16831255D01*
X19933269Y-16925096D01*
X19941162Y-17019175D01*
X19943231Y-17113777D01*
X19939109Y-17209182D01*
X19928425Y-17305673D01*
X19910811Y-17403533D01*
X19885898Y-17503045D01*
X19853316Y-17604490D01*
X19837859Y-17646849D01*
X19832528Y-17662230D01*
X19828224Y-17675629D01*
X19826709Y-17680977D01*
X19825754Y-17685098D01*
X19825460Y-17687750D01*
X19825592Y-17688448D01*
X19825927Y-17688688D01*
X19827691Y-17688471D01*
X19829768Y-17687831D01*
X19834795Y-17685346D01*
X19840878Y-17681363D01*
X19847890Y-17676009D01*
X19855702Y-17669414D01*
X19864185Y-17661706D01*
X19873211Y-17653014D01*
X19882652Y-17643466D01*
X19892380Y-17633193D01*
X19902265Y-17622321D01*
X19912180Y-17610980D01*
X19921996Y-17599299D01*
X19931584Y-17587407D01*
X19940817Y-17575432D01*
X19949566Y-17563502D01*
X19957702Y-17551748D01*
X19997475Y-17491143D01*
X20035033Y-17430274D01*
X20070448Y-17369275D01*
X20103791Y-17308280D01*
X20135135Y-17247423D01*
X20164552Y-17186838D01*
X20217891Y-17067018D01*
X20264386Y-16949895D01*
X20304612Y-16836540D01*
X20339147Y-16728026D01*
X20368566Y-16625424D01*
X20393446Y-16529807D01*
X20414364Y-16442248D01*
X20446617Y-16295591D01*
X20469938Y-16194031D01*
X20479689Y-16162843D01*
X20484340Y-16152617D01*
X20488936Y-16146147D01*
X20497621Y-16137460D01*
X20505308Y-16129499D01*
X20512011Y-16122196D01*
X20514999Y-16118769D01*
X20517748Y-16115480D01*
X20520258Y-16112320D01*
X20522532Y-16109281D01*
X20524573Y-16106353D01*
X20526382Y-16103529D01*
X20527960Y-16100799D01*
X20529311Y-16098155D01*
X20530435Y-16095587D01*
X20531335Y-16093088D01*
X20532013Y-16090648D01*
X20532471Y-16088259D01*
X20532710Y-16085912D01*
X20532733Y-16083599D01*
X20532542Y-16081309D01*
X20532138Y-16079036D01*
X20531524Y-16076770D01*
X20530701Y-16074502D01*
X20529671Y-16072223D01*
X20528437Y-16069926D01*
X20527001Y-16067600D01*
X20525364Y-16065238D01*
X20523527Y-16062831D01*
X20521495Y-16060370D01*
X20519267Y-16057846D01*
X20516847Y-16055250D01*
X20511977Y-16052641D01*
X20502608Y-16050107D01*
X20471606Y-16045302D01*
X20426310Y-16040913D01*
X20369191Y-16037014D01*
X20302721Y-16033682D01*
X20229371Y-16030994D01*
X20071912Y-16027853D01*
X20071906Y-16027830D01*
X19992728Y-16027521D01*
X19916539Y-16028142D01*
X19845818Y-16029763D01*
X19783048Y-16032451D01*
X19755419Y-16034216D01*
X19730707Y-16036273D01*
X19709224Y-16038631D01*
X19691279Y-16041298D01*
X19677181Y-16044283D01*
X19671672Y-16045897D01*
X19667242Y-16047593D01*
X19663929Y-16049374D01*
X19661771Y-16051239D01*
X19660808Y-16053190D01*
X19527966Y-16053190D01*
X19509349Y-16023148D01*
X19492631Y-16001928D01*
X19490110Y-15996246D01*
X19494518Y-15990730D01*
X19522349Y-15980300D01*
X19572570Y-15970852D01*
X19641629Y-15962595D01*
X19822050Y-15950503D01*
X20035192Y-15945716D01*
X20145152Y-15946590D01*
X20252635Y-15949924D01*
X20354088Y-15955930D01*
X20445958Y-15964818D01*
X20524694Y-15976801D01*
X20586742Y-15992090D01*
X20610398Y-16001040D01*
X20628550Y-16010896D01*
X20640754Y-16021684D01*
X20646565Y-16033430D01*
X20647548Y-16039265D01*
X20648148Y-16044943D01*
X20648329Y-16050551D01*
X20648057Y-16056174D01*
X20647295Y-16061901D01*
X20646008Y-16067816D01*
X20644160Y-16074008D01*
X20641716Y-16080562D01*
X20638640Y-16087564D01*
X20634897Y-16095102D01*
X20630451Y-16103263D01*
X20625267Y-16112131D01*
X20619309Y-16121795D01*
X20612541Y-16132341D01*
X20596434Y-16156423D01*
X20577920Y-16184101D01*
X20570149Y-16196393D01*
X20563212Y-16208129D01*
X20556993Y-16219664D01*
X20551373Y-16231354D01*
X20546236Y-16243553D01*
X20541464Y-16256618D01*
X20536941Y-16270904D01*
X20532548Y-16286767D01*
X20528170Y-16304562D01*
X20523688Y-16324645D01*
X20513947Y-16373096D01*
X20502385Y-16434965D01*
X20432661Y-16739430D01*
X20340718Y-17024252D01*
X20228039Y-17289432D01*
X20096104Y-17534969D01*
X19946395Y-17760863D01*
X19780393Y-17967114D01*
X19599579Y-18153723D01*
X19405435Y-18320689D01*
X19199441Y-18468013D01*
X18983078Y-18595693D01*
X18757828Y-18703730D01*
X18525172Y-18792125D01*
X18286592Y-18860877D01*
X18043568Y-18909986D01*
X17797581Y-18939451D01*
X17550114Y-18949274D01*
X17302646Y-18939454D01*
X17056659Y-18909991D01*
X16813635Y-18860884D01*
X16575054Y-18792135D01*
X16342398Y-18703742D01*
X16117148Y-18595706D01*
X15900786Y-18468027D01*
X15694791Y-18320704D01*
X15678362Y-18306575D01*
X15920201Y-18306575D01*
X15921572Y-18313127D01*
X15937413Y-18333446D01*
X15970038Y-18362170D01*
X16018630Y-18397838D01*
X16082374Y-18438993D01*
X16160454Y-18484174D01*
X16252052Y-18531924D01*
X16356353Y-18580782D01*
X16472540Y-18629291D01*
X16599798Y-18675990D01*
X16737309Y-18719422D01*
X16884258Y-18758126D01*
X17039829Y-18790644D01*
X17203204Y-18815517D01*
X17373568Y-18831286D01*
X17550105Y-18836492D01*
X17639094Y-18835301D01*
X17726642Y-18831287D01*
X17812646Y-18824632D01*
X17897006Y-18815519D01*
X17979618Y-18804129D01*
X18060381Y-18790647D01*
X18139193Y-18775253D01*
X18215952Y-18758130D01*
X18290555Y-18739461D01*
X18362901Y-18719428D01*
X18432887Y-18698213D01*
X18500412Y-18675998D01*
X18565374Y-18652967D01*
X18627670Y-18629301D01*
X18743857Y-18580794D01*
X18848158Y-18531936D01*
X18939757Y-18484188D01*
X19017836Y-18439006D01*
X19081580Y-18397851D01*
X19130173Y-18362181D01*
X19162798Y-18333455D01*
X19172867Y-18322152D01*
X19178638Y-18313132D01*
X19180010Y-18306578D01*
X19176879Y-18302671D01*
X19165240Y-18300516D01*
X19142625Y-18300920D01*
X19067747Y-18306968D01*
X18958801Y-18315939D01*
X18822342Y-18322956D01*
X18745844Y-18324209D01*
X18664926Y-18323144D01*
X18580408Y-18319153D01*
X18493110Y-18311626D01*
X18403850Y-18299954D01*
X18313449Y-18283526D01*
X18222725Y-18261734D01*
X18132499Y-18233968D01*
X18107552Y-18226027D01*
X18085508Y-18219217D01*
X18066142Y-18213579D01*
X18049233Y-18209153D01*
X18041630Y-18207406D01*
X18034557Y-18205978D01*
X18027986Y-18204871D01*
X18021891Y-18204093D01*
X18016243Y-18203647D01*
X18011013Y-18203539D01*
X18006175Y-18203773D01*
X18001700Y-18204355D01*
X17997561Y-18205289D01*
X17993729Y-18206580D01*
X17990177Y-18208234D01*
X17986878Y-18210255D01*
X17983802Y-18212649D01*
X17980923Y-18215420D01*
X17978212Y-18218573D01*
X17975642Y-18222113D01*
X17973184Y-18226045D01*
X17970812Y-18230374D01*
X17968496Y-18235106D01*
X17966210Y-18240244D01*
X17961613Y-18251761D01*
X17956799Y-18264966D01*
X17953887Y-18272889D01*
X17950955Y-18280379D01*
X17947994Y-18287436D01*
X17944998Y-18294059D01*
X17941959Y-18300248D01*
X17938869Y-18306000D01*
X17935722Y-18311316D01*
X17932510Y-18316195D01*
X17930877Y-18318470D01*
X17929224Y-18320635D01*
X17927552Y-18322691D01*
X17925859Y-18324636D01*
X17924144Y-18326472D01*
X17922406Y-18328197D01*
X17920645Y-18329812D01*
X17918859Y-18331317D01*
X17917047Y-18332711D01*
X17915209Y-18333995D01*
X17913343Y-18335168D01*
X17911449Y-18336230D01*
X17909525Y-18337181D01*
X17907571Y-18338021D01*
X17905586Y-18338750D01*
X17903569Y-18339368D01*
X17890023Y-18342298D01*
X17864236Y-18344828D01*
X17782935Y-18348692D01*
X17673645Y-18350978D01*
X17550345Y-18351705D01*
X17427014Y-18350890D01*
X17317633Y-18348550D01*
X17236180Y-18344704D01*
X17210296Y-18342221D01*
X17196635Y-18339368D01*
X17192633Y-18338020D01*
X17188756Y-18336228D01*
X17184996Y-18333992D01*
X17181346Y-18331314D01*
X17177798Y-18328194D01*
X17174345Y-18324633D01*
X17170980Y-18320632D01*
X17167695Y-18316192D01*
X17164483Y-18311314D01*
X17161335Y-18305998D01*
X17158246Y-18300246D01*
X17155207Y-18294058D01*
X17152211Y-18287435D01*
X17149250Y-18280379D01*
X17146317Y-18272889D01*
X17143405Y-18264966D01*
X17140360Y-18256514D01*
X17137431Y-18248738D01*
X17134564Y-18241625D01*
X17131705Y-18235166D01*
X17128800Y-18229348D01*
X17127313Y-18226676D01*
X17125794Y-18224160D01*
X17124237Y-18221799D01*
X17122634Y-18219591D01*
X17120979Y-18217535D01*
X17119265Y-18215630D01*
X17117486Y-18213874D01*
X17115634Y-18212265D01*
X17113702Y-18210803D01*
X17111685Y-18209486D01*
X17109574Y-18208312D01*
X17107364Y-18207280D01*
X17105048Y-18206389D01*
X17102619Y-18205637D01*
X17100069Y-18205023D01*
X17097393Y-18204545D01*
X17094583Y-18204203D01*
X17091634Y-18203994D01*
X17088537Y-18203917D01*
X17085286Y-18203971D01*
X17081875Y-18204154D01*
X17078296Y-18204465D01*
X17078298Y-18204465D01*
X17068983Y-18205754D01*
X17058568Y-18207740D01*
X17046958Y-18210418D01*
X17034061Y-18213781D01*
X17019782Y-18217823D01*
X17004026Y-18222539D01*
X16967712Y-18233968D01*
X16922712Y-18248636D01*
X16877485Y-18261734D01*
X16832134Y-18273339D01*
X16786762Y-18283526D01*
X16741470Y-18292372D01*
X16696360Y-18299954D01*
X16607101Y-18311626D01*
X16519802Y-18319153D01*
X16435284Y-18323144D01*
X16354367Y-18324209D01*
X16277869Y-18322956D01*
X16206610Y-18319997D01*
X16141410Y-18315939D01*
X16032463Y-18306968D01*
X15957585Y-18300920D01*
X15934971Y-18300516D01*
X15927728Y-18301235D01*
X15923332Y-18302671D01*
X15920201Y-18306575D01*
X15678362Y-18306575D01*
X15500646Y-18153739D01*
X15319832Y-17967130D01*
X15153829Y-17760877D01*
X15004120Y-17534982D01*
X14872185Y-17289443D01*
X14759505Y-17024260D01*
X14667562Y-16739434D01*
X14597837Y-16434965D01*
X14586276Y-16373085D01*
X14581236Y-16347357D01*
X14576534Y-16324629D01*
X14572052Y-16304545D01*
X14567674Y-16286750D01*
X14563281Y-16270888D01*
X14558758Y-16256604D01*
X14553986Y-16243541D01*
X14548849Y-16231344D01*
X14543229Y-16219657D01*
X14537009Y-16208124D01*
X14530072Y-16196390D01*
X14522301Y-16184099D01*
X14503787Y-16156423D01*
X14495290Y-16143840D01*
X14487675Y-16132315D01*
X14480905Y-16121762D01*
X14474946Y-16112094D01*
X14469761Y-16103224D01*
X14465316Y-16095064D01*
X14461573Y-16087529D01*
X14459844Y-16083593D01*
X14567469Y-16083593D01*
X14567492Y-16085904D01*
X14567731Y-16088248D01*
X14568189Y-16090634D01*
X14568867Y-16093071D01*
X14569767Y-16095568D01*
X14570891Y-16098133D01*
X14572242Y-16100776D01*
X14573820Y-16103505D01*
X14575629Y-16106329D01*
X14577669Y-16109256D01*
X14582454Y-16115457D01*
X14588191Y-16122179D01*
X14594894Y-16129492D01*
X14602581Y-16137465D01*
X14611266Y-16146170D01*
X14620508Y-16162861D01*
X14630243Y-16194045D01*
X14653505Y-16295601D01*
X14685676Y-16442258D01*
X14731379Y-16625435D01*
X14760749Y-16728039D01*
X14795237Y-16836555D01*
X14835420Y-16949912D01*
X14881875Y-17067037D01*
X14935181Y-17186858D01*
X14995915Y-17308302D01*
X15064657Y-17430297D01*
X15141983Y-17551771D01*
X15150118Y-17563516D01*
X15158866Y-17575439D01*
X15168098Y-17587410D01*
X15177686Y-17599300D01*
X15187502Y-17610979D01*
X15197416Y-17622320D01*
X15207302Y-17633193D01*
X15217029Y-17643469D01*
X15226471Y-17653019D01*
X15235497Y-17661715D01*
X15243981Y-17669426D01*
X15251793Y-17676024D01*
X15258805Y-17681381D01*
X15264889Y-17685367D01*
X15267542Y-17686806D01*
X15269916Y-17687853D01*
X15271993Y-17688494D01*
X15273757Y-17688711D01*
X15274092Y-17688471D01*
X15274224Y-17687773D01*
X15273930Y-17685122D01*
X15272975Y-17681001D01*
X15271461Y-17675653D01*
X15267157Y-17662255D01*
X15261825Y-17646875D01*
X15246368Y-17604513D01*
X15213786Y-17503067D01*
X15188873Y-17403556D01*
X15171258Y-17305696D01*
X15160574Y-17209205D01*
X15156451Y-17113800D01*
X15158521Y-17019198D01*
X15166413Y-16925118D01*
X15179760Y-16831277D01*
X15198192Y-16737393D01*
X15221340Y-16643182D01*
X15248835Y-16548363D01*
X15280308Y-16452652D01*
X15315391Y-16355768D01*
X15353714Y-16257428D01*
X15438604Y-16055250D01*
X15438879Y-16053195D01*
X15437923Y-16051229D01*
X15432473Y-16047560D01*
X15422563Y-16044232D01*
X15408500Y-16041238D01*
X15369155Y-16036211D01*
X15316907Y-16032402D01*
X15254227Y-16029737D01*
X15183585Y-16028140D01*
X15107450Y-16027537D01*
X15028293Y-16027853D01*
X15028289Y-16027876D01*
X14948591Y-16029053D01*
X14870831Y-16031031D01*
X14797480Y-16033731D01*
X14731011Y-16037074D01*
X14673892Y-16040979D01*
X14628596Y-16045367D01*
X14611154Y-16047717D01*
X14597594Y-16050158D01*
X14588225Y-16052680D01*
X14585208Y-16053968D01*
X14583356Y-16055273D01*
X14578707Y-16060392D01*
X14574839Y-16065257D01*
X14573201Y-16067617D01*
X14571765Y-16069939D01*
X14570531Y-16072234D01*
X14569501Y-16074510D01*
X14568678Y-16076774D01*
X14568064Y-16079037D01*
X14567660Y-16081307D01*
X14567469Y-16083593D01*
X14459844Y-16083593D01*
X14458498Y-16080530D01*
X14457200Y-16077205D01*
X14456055Y-16073981D01*
X14455060Y-16070849D01*
X14454209Y-16067796D01*
X14453498Y-16064812D01*
X14452923Y-16061886D01*
X14452479Y-16059007D01*
X14452162Y-16056165D01*
X14451967Y-16053348D01*
X14451891Y-16050546D01*
X14451927Y-16047747D01*
X14452073Y-16044941D01*
X14452674Y-16039265D01*
X14453657Y-16033430D01*
X14459469Y-16021684D01*
X14471673Y-16010896D01*
X14489825Y-16001040D01*
X14513481Y-15992090D01*
X14575529Y-15976801D01*
X14654265Y-15964818D01*
X14746136Y-15955930D01*
X14847589Y-15949924D01*
X14955071Y-15946590D01*
X15065031Y-15945716D01*
X15278173Y-15950503D01*
X15374250Y-15955742D01*
X15458594Y-15962595D01*
X15527653Y-15970852D01*
X15577874Y-15980300D01*
X15605704Y-15990730D01*
X15610113Y-15996246D01*
X15607592Y-16001928D01*
X15590868Y-16023143D01*
X15566380Y-16062626D01*
X15500996Y-16189517D01*
X15463541Y-16273484D01*
X15425206Y-16368840D01*
X15387710Y-16473863D01*
X15352775Y-16586835D01*
X15322120Y-16706033D01*
X15297468Y-16829740D01*
X15280538Y-16956234D01*
X15273051Y-17083795D01*
X15273386Y-17147438D01*
X15276727Y-17210703D01*
X15283290Y-17273375D01*
X15293289Y-17335238D01*
X15306939Y-17396079D01*
X15324455Y-17455681D01*
X15346053Y-17513830D01*
X15371947Y-17570310D01*
X15418606Y-17655590D01*
X15469278Y-17733183D01*
X15523648Y-17803357D01*
X15581404Y-17866381D01*
X15642232Y-17922521D01*
X15705818Y-17972047D01*
X15771849Y-18015226D01*
X15840012Y-18052326D01*
X15909993Y-18083616D01*
X15981479Y-18109362D01*
X16054157Y-18129833D01*
X16127712Y-18145297D01*
X16201832Y-18156022D01*
X16276203Y-18162276D01*
X16350512Y-18164327D01*
X16424444Y-18162443D01*
X16497688Y-18156891D01*
X16569929Y-18147940D01*
X16640854Y-18135858D01*
X16710150Y-18120913D01*
X16758258Y-18107325D01*
X17240758Y-18107325D01*
X17240927Y-18112348D01*
X17241280Y-18117560D01*
X17242466Y-18128677D01*
X17244178Y-18140928D01*
X17248761Y-18173307D01*
X17251122Y-18186183D01*
X17254256Y-18197072D01*
X17258706Y-18206138D01*
X17261594Y-18210039D01*
X17265016Y-18213547D01*
X17269038Y-18216682D01*
X17273730Y-18219465D01*
X17285392Y-18224057D01*
X17300547Y-18227488D01*
X17319737Y-18229926D01*
X17343508Y-18231534D01*
X17372403Y-18232478D01*
X17447740Y-18233038D01*
X17550101Y-18232931D01*
X17652452Y-18233038D01*
X17693224Y-18232924D01*
X17727785Y-18232477D01*
X17756679Y-18231532D01*
X17769171Y-18230821D01*
X17780450Y-18229924D01*
X17790584Y-18228819D01*
X17799641Y-18227486D01*
X17807690Y-18225905D01*
X17814798Y-18224054D01*
X17821032Y-18221913D01*
X17826462Y-18219461D01*
X17831155Y-18216678D01*
X17835179Y-18213543D01*
X17838602Y-18210036D01*
X17841491Y-18206134D01*
X17843916Y-18201819D01*
X17845944Y-18197068D01*
X17847642Y-18191862D01*
X17849080Y-18186180D01*
X17850324Y-18180001D01*
X17851443Y-18173304D01*
X17856027Y-18140928D01*
X17857738Y-18128678D01*
X17858926Y-18117561D01*
X17859449Y-18107328D01*
X17859170Y-18097729D01*
X17857947Y-18088513D01*
X17856938Y-18083970D01*
X17855642Y-18079430D01*
X17854039Y-18074861D01*
X17852114Y-18070231D01*
X17849848Y-18065510D01*
X17847225Y-18060666D01*
X17840834Y-18050483D01*
X17832803Y-18039434D01*
X17822991Y-18027269D01*
X17811259Y-18013736D01*
X17797467Y-17998587D01*
X17781476Y-17981571D01*
X17742337Y-17940938D01*
X17733399Y-17931524D01*
X17724228Y-17921495D01*
X17705456Y-17899977D01*
X17686557Y-17877155D01*
X17668071Y-17853798D01*
X17650535Y-17830676D01*
X17634488Y-17808556D01*
X17620467Y-17788210D01*
X17609012Y-17770406D01*
X17609014Y-17770406D01*
X17589952Y-17737764D01*
X17581919Y-17724876D01*
X17574671Y-17714289D01*
X17571291Y-17709862D01*
X17568048Y-17706014D01*
X17564921Y-17702746D01*
X17561890Y-17700061D01*
X17558935Y-17697958D01*
X17556037Y-17696439D01*
X17553174Y-17695505D01*
X17550328Y-17695158D01*
X17547478Y-17695399D01*
X17544605Y-17696230D01*
X17541687Y-17697650D01*
X17538706Y-17699662D01*
X17535641Y-17702267D01*
X17532472Y-17705466D01*
X17529180Y-17709261D01*
X17525743Y-17713652D01*
X17518359Y-17724228D01*
X17510159Y-17737206D01*
X17500984Y-17752596D01*
X17490674Y-17770406D01*
X17479241Y-17788204D01*
X17465278Y-17808547D01*
X17449313Y-17830665D01*
X17431872Y-17853790D01*
X17413480Y-17877149D01*
X17394664Y-17899974D01*
X17375950Y-17921494D01*
X17366797Y-17931524D01*
X17357865Y-17940938D01*
X17318741Y-17981562D01*
X17302754Y-17998576D01*
X17288964Y-18013723D01*
X17277233Y-18027255D01*
X17272096Y-18033493D01*
X17267421Y-18039421D01*
X17263191Y-18045070D01*
X17259388Y-18050471D01*
X17255996Y-18055655D01*
X17252996Y-18060654D01*
X17250371Y-18065499D01*
X17248104Y-18070221D01*
X17246178Y-18074852D01*
X17244574Y-18079422D01*
X17243276Y-18083963D01*
X17242266Y-18088506D01*
X17241527Y-18093083D01*
X17241041Y-18097724D01*
X17240790Y-18102461D01*
X17240758Y-18107325D01*
X16758258Y-18107325D01*
X16842599Y-18083504D01*
X16964769Y-18037858D01*
X17074153Y-17986117D01*
X17168243Y-17930427D01*
X17208769Y-17901770D01*
X17244531Y-17872930D01*
X17275217Y-17844174D01*
X17300512Y-17815771D01*
X17323404Y-17786443D01*
X17348417Y-17752834D01*
X17374191Y-17716317D01*
X17399367Y-17678270D01*
X17411306Y-17659101D01*
X17422586Y-17640066D01*
X17433037Y-17621336D01*
X17442488Y-17603082D01*
X17450771Y-17585477D01*
X17457716Y-17568693D01*
X17463151Y-17552901D01*
X17466909Y-17538274D01*
X17480990Y-17465713D01*
X17487115Y-17429455D01*
X17492322Y-17393290D01*
X17496382Y-17357275D01*
X17499067Y-17321467D01*
X17500145Y-17285923D01*
X17499389Y-17250701D01*
X17496567Y-17215859D01*
X17491452Y-17181453D01*
X17483813Y-17147541D01*
X17478975Y-17130788D01*
X17473420Y-17114180D01*
X17467120Y-17097725D01*
X17460045Y-17081429D01*
X17452167Y-17065299D01*
X17443458Y-17049344D01*
X17433888Y-17033569D01*
X17423428Y-17017982D01*
X17412051Y-17002590D01*
X17399728Y-16987401D01*
X17382123Y-16967156D01*
X17366897Y-16948003D01*
X17353933Y-16929896D01*
X17343110Y-16912788D01*
X17334309Y-16896634D01*
X17327411Y-16881389D01*
X17322295Y-16867006D01*
X17318844Y-16853439D01*
X17316936Y-16840643D01*
X17316453Y-16828572D01*
X17317276Y-16817180D01*
X17319284Y-16806421D01*
X17322358Y-16796249D01*
X17326380Y-16786619D01*
X17331229Y-16777484D01*
X17336786Y-16768798D01*
X17342932Y-16760517D01*
X17349547Y-16752593D01*
X17363706Y-16737637D01*
X17392399Y-16710001D01*
X17405022Y-16696589D01*
X17410484Y-16689823D01*
X17415221Y-16682957D01*
X17419113Y-16675945D01*
X17422042Y-16668740D01*
X17423886Y-16661297D01*
X17424527Y-16653570D01*
X17424184Y-16651875D01*
X17423228Y-16649086D01*
X17419599Y-16640503D01*
X17413882Y-16628379D01*
X17406321Y-16613274D01*
X17397161Y-16595745D01*
X17386644Y-16576351D01*
X17375015Y-16555650D01*
X17362517Y-16534200D01*
X17334831Y-16476622D01*
X17308771Y-16418712D01*
X17284295Y-16360459D01*
X17261358Y-16301852D01*
X17239920Y-16242883D01*
X17219936Y-16183540D01*
X17201364Y-16123813D01*
X17184162Y-16063693D01*
X17168286Y-16003168D01*
X17153693Y-15942230D01*
X17128188Y-15819069D01*
X17107304Y-15694129D01*
X17090699Y-15567327D01*
X17067377Y-15435602D01*
X17035737Y-15280750D01*
X16998195Y-15112566D01*
X16957166Y-14940844D01*
X16915065Y-14775375D01*
X16874307Y-14625954D01*
X16837306Y-14502373D01*
X16806479Y-14414427D01*
X16784666Y-14362367D01*
X16762291Y-14313239D01*
X16739244Y-14266915D01*
X16715416Y-14223269D01*
X16690699Y-14182173D01*
X16664984Y-14143499D01*
X16638161Y-14107121D01*
X16610123Y-14072910D01*
X16580760Y-14040741D01*
X16549964Y-14010485D01*
X16517625Y-13982016D01*
X16483635Y-13955205D01*
X16447885Y-13929926D01*
X16410267Y-13906051D01*
X16370671Y-13883453D01*
X16328988Y-13862005D01*
X16281921Y-13839679D01*
X16214084Y-13809659D01*
X16174987Y-13793551D01*
X16133830Y-13777662D01*
X16091656Y-13762709D01*
X16049509Y-13749405D01*
X16008433Y-13738465D01*
X15969473Y-13730604D01*
X15951112Y-13728052D01*
X15933671Y-13726537D01*
X15917281Y-13726148D01*
X15902072Y-13726977D01*
X15888174Y-13729110D01*
X15875719Y-13732639D01*
X15864836Y-13737652D01*
X15855657Y-13744239D01*
X15848311Y-13752488D01*
X15842929Y-13762490D01*
X15839642Y-13774333D01*
X15838580Y-13788107D01*
X15840457Y-13803946D01*
X15845665Y-13831701D01*
X15864270Y-13915925D01*
X15921613Y-14149996D01*
X15981751Y-14377790D01*
X16003851Y-14454167D01*
X16011331Y-14476822D01*
X16015829Y-14486776D01*
X16018757Y-14489227D01*
X16022089Y-14490869D01*
X16025793Y-14491738D01*
X16029836Y-14491870D01*
X16034187Y-14491302D01*
X16038811Y-14490070D01*
X16043677Y-14488211D01*
X16048751Y-14485761D01*
X16054002Y-14482756D01*
X16059395Y-14479233D01*
X16070482Y-14470777D01*
X16081749Y-14460684D01*
X16092935Y-14449244D01*
X16103779Y-14436748D01*
X16114018Y-14423487D01*
X16123392Y-14409753D01*
X16131639Y-14395835D01*
X16138496Y-14382024D01*
X16141323Y-14375250D01*
X16143704Y-14368612D01*
X16145607Y-14362146D01*
X16146999Y-14355888D01*
X16147848Y-14349876D01*
X16148120Y-14344145D01*
X16147798Y-14333409D01*
X16146964Y-14322081D01*
X16143959Y-14297903D01*
X16139506Y-14272130D01*
X16134007Y-14245279D01*
X16109583Y-14137447D01*
X16104878Y-14112969D01*
X16101537Y-14090518D01*
X16099961Y-14070612D01*
X16099961Y-14061775D01*
X16100552Y-14053768D01*
X16101786Y-14046656D01*
X16103712Y-14040504D01*
X16106381Y-14035376D01*
X16109842Y-14031337D01*
X16114147Y-14028452D01*
X16119345Y-14026785D01*
X16125486Y-14026401D01*
X16132620Y-14027365D01*
X16144825Y-14030268D01*
X16157247Y-14033745D01*
X16169847Y-14037760D01*
X16182585Y-14042277D01*
X16195423Y-14047262D01*
X16208320Y-14052679D01*
X16234138Y-14064668D01*
X16259724Y-14077960D01*
X16284764Y-14092275D01*
X16308943Y-14107328D01*
X16331948Y-14122837D01*
X16353463Y-14138520D01*
X16373174Y-14154094D01*
X16390768Y-14169277D01*
X16405929Y-14183785D01*
X16412499Y-14190698D01*
X16418343Y-14197336D01*
X16423421Y-14203664D01*
X16427696Y-14209648D01*
X16431126Y-14215250D01*
X16433673Y-14220437D01*
X16435297Y-14225173D01*
X16435960Y-14229422D01*
X16435426Y-14234068D01*
X16433538Y-14239982D01*
X16425988Y-14255374D01*
X16413876Y-14275125D01*
X16397769Y-14298760D01*
X16355835Y-14355793D01*
X16304716Y-14422686D01*
X16248945Y-14495651D01*
X16193052Y-14570901D01*
X16166477Y-14608200D01*
X16141570Y-14644650D01*
X16118899Y-14679778D01*
X16099030Y-14713110D01*
X16051963Y-14811134D01*
X16009011Y-14909017D01*
X15969926Y-15005968D01*
X15934459Y-15101196D01*
X15902362Y-15193909D01*
X15873385Y-15283317D01*
X15823801Y-15449052D01*
X15751152Y-15706052D01*
X15737064Y-15750173D01*
X15724109Y-15784660D01*
X15712039Y-15808723D01*
X15706258Y-15816597D01*
X15700605Y-15821569D01*
X15676621Y-15828935D01*
X15629362Y-15836797D01*
X15478779Y-15852272D01*
X15276371Y-15864515D01*
X15049656Y-15870047D01*
X14935782Y-15869208D01*
X14826149Y-15865387D01*
X14724197Y-15858148D01*
X14633365Y-15847057D01*
X14557094Y-15831678D01*
X14525493Y-15822245D01*
X14498822Y-15811577D01*
X14477511Y-15799620D01*
X14461989Y-15786319D01*
X14452687Y-15771620D01*
X14450035Y-15755468D01*
X14450035Y-15754957D01*
X14451142Y-15739217D01*
X14452838Y-15724837D01*
X14453018Y-15723789D01*
X14568521Y-15723789D01*
X14569349Y-15726572D01*
X14571112Y-15729158D01*
X14573867Y-15731539D01*
X14577675Y-15733709D01*
X14593233Y-15739785D01*
X14612662Y-15745151D01*
X14662013Y-15753880D01*
X14723484Y-15760144D01*
X14794831Y-15764193D01*
X14873810Y-15766277D01*
X14958177Y-15766644D01*
X15134097Y-15763224D01*
X15304641Y-15755927D01*
X15451855Y-15746747D01*
X15557787Y-15737677D01*
X15604485Y-15730711D01*
X15611030Y-15723063D01*
X15619448Y-15706009D01*
X15641158Y-15647531D01*
X15668127Y-15562968D01*
X15698867Y-15460012D01*
X15765714Y-15229687D01*
X15798844Y-15117701D01*
X15829795Y-15018087D01*
X15838124Y-14979441D01*
X15844789Y-14939530D01*
X15853448Y-14856436D01*
X15856421Y-14769845D01*
X15854354Y-14680798D01*
X15847895Y-14590337D01*
X15837693Y-14499502D01*
X15824393Y-14409333D01*
X15808645Y-14320872D01*
X15791094Y-14235160D01*
X15772389Y-14153237D01*
X15734107Y-14004922D01*
X15698978Y-13884254D01*
X15672182Y-13799559D01*
X15672182Y-13799460D01*
X15575419Y-13887784D01*
X15483510Y-13979978D01*
X15396417Y-14075890D01*
X15314105Y-14175370D01*
X15236538Y-14278264D01*
X15163679Y-14384422D01*
X15095494Y-14493691D01*
X15031946Y-14605921D01*
X14973000Y-14720959D01*
X14918619Y-14838654D01*
X14868767Y-14958854D01*
X14823409Y-15081407D01*
X14782509Y-15206163D01*
X14746030Y-15332968D01*
X14713938Y-15461672D01*
X14686195Y-15592123D01*
X14684715Y-15597788D01*
X14682523Y-15603439D01*
X14679680Y-15609069D01*
X14676242Y-15614670D01*
X14672271Y-15620238D01*
X14667823Y-15625764D01*
X14662958Y-15631244D01*
X14657735Y-15636669D01*
X14646448Y-15647332D01*
X14634433Y-15657701D01*
X14610099Y-15677347D01*
X14598721Y-15686520D01*
X14588495Y-15695189D01*
X14579892Y-15703303D01*
X14576346Y-15707136D01*
X14573382Y-15710810D01*
X14571059Y-15714318D01*
X14569435Y-15717656D01*
X14568570Y-15720815D01*
X14568521Y-15723789D01*
X14453018Y-15723789D01*
X14455089Y-15711707D01*
X14457861Y-15699715D01*
X14461122Y-15688750D01*
X14464838Y-15678701D01*
X14468975Y-15669456D01*
X14473500Y-15660904D01*
X14483582Y-15645434D01*
X14494816Y-15631399D01*
X14519672Y-15604075D01*
X14532760Y-15589005D01*
X14545932Y-15571808D01*
X14558922Y-15551594D01*
X14565264Y-15540077D01*
X14571461Y-15527473D01*
X14577479Y-15513668D01*
X14583284Y-15498553D01*
X14588843Y-15482015D01*
X14594123Y-15463944D01*
X14599090Y-15444228D01*
X14603711Y-15422756D01*
X14607953Y-15399416D01*
X14611782Y-15374098D01*
X14637560Y-15257955D01*
X14665815Y-15145952D01*
X14696690Y-15037813D01*
X14730331Y-14933261D01*
X14766883Y-14832020D01*
X14806489Y-14733814D01*
X14849295Y-14638366D01*
X14895446Y-14545402D01*
X14945087Y-14454643D01*
X14998361Y-14365815D01*
X15055415Y-14278640D01*
X15116392Y-14192843D01*
X15181437Y-14108148D01*
X15250696Y-14024278D01*
X15324313Y-13940957D01*
X15402432Y-13857908D01*
X15484702Y-13775776D01*
X15567373Y-13698752D01*
X15650306Y-13626672D01*
X15715007Y-13574248D01*
X15985342Y-13574248D01*
X15995763Y-13583216D01*
X16012954Y-13592066D01*
X16036314Y-13601037D01*
X16065241Y-13610368D01*
X16224592Y-13656061D01*
X16322034Y-13687272D01*
X16373091Y-13705804D01*
X16424903Y-13726606D01*
X16476870Y-13749915D01*
X16528389Y-13775971D01*
X16578860Y-13805013D01*
X16627680Y-13837279D01*
X16649734Y-13852753D01*
X16669652Y-13866187D01*
X16687793Y-13877595D01*
X16704515Y-13886995D01*
X16712456Y-13890947D01*
X16720177Y-13894404D01*
X16727721Y-13897366D01*
X16735135Y-13899837D01*
X16742462Y-13901818D01*
X16749748Y-13903312D01*
X16757037Y-13904320D01*
X16764374Y-13904844D01*
X16771804Y-13904888D01*
X16779371Y-13904452D01*
X16787121Y-13903538D01*
X16795097Y-13902150D01*
X16803346Y-13900288D01*
X16811911Y-13897956D01*
X16830170Y-13891886D01*
X16850232Y-13883957D01*
X16872456Y-13874185D01*
X16897199Y-13862588D01*
X16924819Y-13849180D01*
X16924819Y-13849699D01*
X16986613Y-13822475D01*
X17054955Y-13798879D01*
X17128908Y-13778914D01*
X17207538Y-13762578D01*
X17289908Y-13749872D01*
X17375085Y-13740796D01*
X17462132Y-13735349D01*
X17550113Y-13733533D01*
X17638095Y-13735347D01*
X17725141Y-13740792D01*
X17810316Y-13749866D01*
X17892685Y-13762571D01*
X17971312Y-13778907D01*
X18045262Y-13798874D01*
X18113599Y-13822471D01*
X18175389Y-13849699D01*
X18175389Y-13849180D01*
X18203010Y-13862588D01*
X18227753Y-13874185D01*
X18249976Y-13883956D01*
X18270038Y-13891885D01*
X18279371Y-13895153D01*
X18288297Y-13897954D01*
X18296862Y-13900287D01*
X18305111Y-13902148D01*
X18313088Y-13903536D01*
X18320837Y-13904449D01*
X18328405Y-13904885D01*
X18335834Y-13904842D01*
X18343171Y-13904317D01*
X18350460Y-13903309D01*
X18357746Y-13901815D01*
X18365073Y-13899834D01*
X18372487Y-13897363D01*
X18380031Y-13894400D01*
X18387752Y-13890944D01*
X18395692Y-13886992D01*
X18403898Y-13882542D01*
X18412414Y-13877592D01*
X18430556Y-13866184D01*
X18450474Y-13852752D01*
X18472527Y-13837279D01*
X18496694Y-13820726D01*
X18521348Y-13805009D01*
X18546415Y-13790099D01*
X18571819Y-13775966D01*
X18623338Y-13749909D01*
X18675305Y-13726600D01*
X18727118Y-13705800D01*
X18778176Y-13687270D01*
X18827876Y-13670771D01*
X18875617Y-13656064D01*
X19034969Y-13610378D01*
X19063896Y-13601047D01*
X19087255Y-13592074D01*
X19104445Y-13583221D01*
X19110539Y-13578764D01*
X19114865Y-13574248D01*
X19044788Y-13514349D01*
X18969346Y-13458315D01*
X18888896Y-13406145D01*
X18803796Y-13357839D01*
X18714404Y-13313399D01*
X18621077Y-13272822D01*
X18424051Y-13203263D01*
X18215578Y-13149161D01*
X17998521Y-13110517D01*
X17775742Y-13087331D01*
X17550100Y-13079603D01*
X17324459Y-13087332D01*
X17101679Y-13110519D01*
X16884623Y-13149163D01*
X16676151Y-13203265D01*
X16479126Y-13272824D01*
X16385800Y-13313401D01*
X16296408Y-13357841D01*
X16211309Y-13406146D01*
X16130860Y-13458316D01*
X16055418Y-13514350D01*
X15985342Y-13574248D01*
X15715007Y-13574248D01*
X15733363Y-13559374D01*
X15816407Y-13496692D01*
X15899300Y-13438464D01*
X15981905Y-13384523D01*
X16064083Y-13334708D01*
X16145696Y-13288853D01*
X16226607Y-13246794D01*
X16306678Y-13208368D01*
X16385772Y-13173411D01*
X16540474Y-13113245D01*
X16689612Y-13064984D01*
X16832082Y-13027316D01*
X16966783Y-12998928D01*
X17092613Y-12978508D01*
X17208469Y-12964744D01*
X17313248Y-12956323D01*
X17405848Y-12951933D01*
X17550103Y-12949995D01*
X17695626Y-12952020D01*
G37*
D12*
X16150000Y-27420000D03*
D13*
X16150000Y-32500000D03*
X16150000Y-37580000D03*
D14*
X46200000Y-22420000D03*
D15*
X46200000Y-19880000D03*
X46200000Y-17340000D03*
X46200000Y-14800000D03*
D12*
X47100000Y-33880000D03*
D13*
X47100000Y-28800000D03*
D16*
X39987034Y-41013807D03*
X39987034Y-38473807D03*
X39987034Y-35933807D03*
X39987034Y-33393807D03*
X39987034Y-28313807D03*
X39987034Y-30853807D03*
X23470000Y-23220000D03*
X39987034Y-23233807D03*
X23470000Y-25760000D03*
X23470000Y-28300000D03*
X23470000Y-30840000D03*
X23470000Y-33380000D03*
X23470000Y-35920000D03*
X23470000Y-38460000D03*
X23470000Y-41000000D03*
X39987034Y-25773807D03*
D17*
X37600000Y-17300000D03*
X37600000Y-16000000D03*
X37600000Y-14700000D03*
X25600000Y-14700000D03*
X25600000Y-16000000D03*
X25600000Y-17300000D03*
M02*
